<svg version="1.1" id="Layer_1" xmlns="http://www.w3.org/2000/svg" xmlns:xlink="http://www.w3.org/1999/xlink" x="0px" y="0px"
	 width="870.5px" height="870.5px" viewBox="0 0 870 870" enable-background="new 0 0 870 870" xml:space="preserve">
<g>
	<path fill="#E864A7" d="M803,90v691H67V90H803 M803.5,83h-736c-3.866,0-7.5,2.634-7.5,6.5v691c0,3.866,3.634,7.5,7.5,7.5h736
		c3.866,0,6.5-3.634,6.5-7.5v-691C810,85.634,807.366,83,803.5,83L803.5,83z" shape-rendering="crispEdges"/>
</g>
<g>
	<g>
		<g>
			<path opacity="0.1091" fill="#E864A7" d="M395.51,272.748c17.354,0.155,34.705,0.12,52.06,0.116
				c17.353-0.004,34.714,0.21,52.066,0.049c-3.367-2.268-6.735-4.535-10.102-6.803c0.113,0.368,0.225,0.735,0.338,1.103
				c-0.426,7.169-0.97,14.329-1.633,21.479c-0.211,1.601-0.421,3.202-0.632,4.803c-0.422,3.747-0.76,7.501-1.015,11.264
				c-1.24,15.733-1.372,31.531-1.578,47.303c-0.404,30.862-0.255,61.725-0.329,92.588c-0.013,5.449-0.101,10.899-0.049,16.348
				c0.001,0.12,0.002,0.241,0.003,0.361c2.202,0.256,4.408,0.277,6.616,0.064c2.467-0.238,4.938-0.434,7.413-0.587
				c2.638-0.013,5.271,0.106,7.897,0.359c9.813,0.702,19.647,0.612,29.482,0.673c5.105,0.031,10.217,0.137,15.322,0.046
				c-3.353-2.254-6.706-4.509-10.06-6.763c-2.231,3.078-4.461,6.156-6.692,9.234c0.073-0.094,0.146-0.188,0.219-0.282
				c-2.53,1.859-4.967,3.834-7.31,5.924c-2.505,2.417-4.94,4.903-7.305,7.457c-5.509,5.782-10.476,12.221-15.492,18.426
				c-11.868,14.683-23.045,29.958-34.374,45.056c-10.287,13.71-20.563,27.428-30.688,41.259
				c-5.086,6.948-10.396,13.735-15.434,20.719c4.441-0.712,8.882-1.424,13.322-2.136c-2.859-3.939-5.717-7.878-8.576-11.817
				c1.404,2.376,2.809,4.752,4.213,7.128c-4.587-8.261-8.961-16.62-13.543-24.878c-3.912-7.05-8.463-13.788-12.928-20.493
				c-10.482-15.741-21.828-30.942-32.967-46.22c-10.103-13.857-20.253-27.681-30.501-41.431
				c-5.162-6.927-10.12-14.018-15.396-20.859c-0.277,0.508-0.39,1.062-0.339,1.661c-0.114,2.096-0.191,4.193-0.232,6.291
				c-0.061,2.098-0.086,4.196-0.074,6.295c-0.08,0.596,0.006,1.155,0.258,1.676c0.91,0.61,1.095,1.464,0.994,2.481
				c0.391,0.127,0.782,0.091,1.174-0.107c4.013-0.894,8.027-1.788,12.04-2.682c-2.463,0.225-4.926,0.45-7.389,0.675
				c8.264-0.325,15.415,0.096,23.357,1.088c4.059,0.507,8.15,0.782,12.227,1.09c6.087,0.46,12.194,0.55,18.281,0.978
				c-0.12-0.01-0.239-0.02-0.358-0.03c0.12,0.015,0.239,0.029,0.359,0.044c0.12,0.01,0.24,0.02,0.359,0.03
				c0.542-4.763,0.114-9.441-0.041-14.22c0.218-3.101,0.415-6.204,0.59-9.308c0.327-5.464,0.397-10.894,0.477-16.368
				c0.339-23.303,0.239-46.613,0.25-69.918c0.01-20.743,0.111-41.487,0.003-62.23c-0.056-10.745,0.186-21.502-0.013-32.245
				c-0.494,0.25-0.879,0.629-1.153,1.137c-1.193,1.606-2.357,3.234-3.49,4.883c-1.151,1.637-2.271,3.295-3.36,4.974
				c-0.381,0.434-0.602,0.927-0.663,1.477c-0.546,2.705-0.26,5.683-0.286,8.43c-0.075,7.796-0.279,15.561-0.008,23.357
				c0.298,8.582,0.147,17.16,0.112,25.746c-0.05,12.116-0.064,24.233-0.081,36.349c-0.014,9.827-0.021,19.653-0.028,29.48
				c0.005,4.669,0,9.338-0.015,14.007c-0.062,2.18-0.124,4.36-0.186,6.54c-0.419,4.027-0.578,8.064-0.48,12.111
				c0.02,3.72-0.068,7.437-0.265,11.151c-0.071,1.646-0.142,3.292-0.213,4.939c-0.677,2.076-1.371,4.146-2.083,6.21
				c0.7,1.314,1.067,2.712,1.101,4.193c0.111,0.863-0.086,1.747-0.148,2.605c0.12,0.01,0.24,0.02,0.359,0.03
				c-4.885-0.521-9.791-0.34-14.701-0.463c-5.254-0.131-10.506-0.29-15.762-0.34c-1.551-0.174-3.096-0.185-4.635-0.032
				c-2.915,0.525-5.838,1.002-8.769,1.431c3.395,0.702,6.79,1.403,10.185,2.105c-6.604-0.27-11.159-2.971-13.665-8.104
				c-1.389-2.393-2.619-4.865-3.688-7.417c-0.129,5.308-0.258,10.616-0.387,15.924c0.716,1.586,1.851,2.914,2.869,4.32
				c2.951,4.076,5.839,8.195,8.806,12.258c4.481,6.136,9.358,11.948,13.837,18.088c5.266,7.218,10.566,14.412,15.863,21.607
				c11.307,15.36,22.652,30.692,34.007,46.017c4.974,6.712,9.526,13.692,14.445,20.437c2.124,3.007,4.322,5.959,6.595,8.856
				c0.999,1.324,1.997,2.648,2.996,3.971c2.519,1.757,5,3.564,7.444,5.423c-2.094-3.602-4.189-7.204-6.283-10.807
				c0.932,3.195,0.711,6.226-0.663,9.091c-0.913,1.919-1.964,3.759-3.153,5.52c0.46,0.19,0.941,0.213,1.443,0.071
				c1.764-0.219,3.524-0.474,5.278-0.766c1.757-0.271,3.508-0.579,5.253-0.922c0.522-0.022,0.972-0.195,1.349-0.518
				c1.285-1.119,2.21-2.586,3.237-3.939c3.027-3.99,6.11-7.934,9.116-11.94c4.575-6.098,8.733-12.475,13.318-18.567
				c5.362-7.124,10.689-14.274,16.02-21.422c11.395-15.277,22.754-30.582,34.111-45.888c4.952-6.673,10.321-12.981,15.33-19.602
				c2.131-2.938,4.382-5.78,6.753-8.527c3.135-3.785,6.475-7.304,9.887-10.839c0.073-0.094,0.146-0.188,0.219-0.282
				c-1.251-0.685-2.208-1.647-2.873-2.885c-1.248,1.68-2.495,3.359-3.743,5.039c1.625-0.332,3.247-0.307,4.865,0.074
				c0.899,0.253,1.798,0.505,2.696,0.758c1.623-0.303,3.247-0.595,4.874-0.875c0.342-0.06-3.227-2.617-2.492-2.106
				c-1.544-1.07-3.102-2.117-4.676-3.143c-0.796-0.577-1.64-1.071-2.53-1.481c-0.451-0.092-0.909-0.238-1.372-0.246
				c-3.297-0.055-6.593-0.107-9.889-0.211c-3.697-0.116-7.394-0.209-11.091-0.305c-2.729-0.075-5.457-0.158-8.186-0.247
				c-2.541-0.306-5.08-0.626-7.618-0.96c0.106,0.035,0.212,0.07,0.318,0.105c-1.583-0.732-3.146-1.505-4.688-2.319
				c-0.664,0.321-1.327,0.643-1.991,0.964c-1.054,0.335-2.131,0.481-3.232,0.439c-0.311,0.006-0.617-0.02-0.92-0.079
				c0.263,0.047,0.231-3.639,0.222-2.798c0.061-5.988,0.197-11.975,0.23-17.964c0.088-3.67,0.03-7.337-0.175-11.002
				c-0.22-6.358-0.173-12.685-0.14-19.046c0.128-24.265,0.119-48.531,0.124-72.796c-0.007-4.677-0.002-9.353,0.015-14.03
				c0.014-6.262,0.498-12.49,0.524-18.753c0.022-5.377-0.066-10.743-0.142-16.119c-0.004-0.112-0.007-0.224-0.011-0.337
				c-0.875-2.899-1.696-5.813-2.464-8.741c-0.532,3.336-1.063,6.671-1.595,10.007c0.833-2.786,2.465-4.828,4.894-6.125
				c1.634-0.819,3.351-1.388,5.151-1.706c0.352-0.089-3.23-2.623-2.503-2.117c-1.55-1.076-3.116-2.13-4.695-3.162
				c-0.8-0.581-1.646-1.078-2.54-1.491c-0.468-0.079-0.947-0.218-1.423-0.221c-3.57-0.026-7.14-0.05-10.71-0.109
				c-11.377-0.187-22.756-0.17-34.134-0.181c-12.44-0.012-24.878,0.089-37.317,0.19c-6.624,0.054-13.236-0.424-19.852-0.744
				c0.111,0.429,0.363,0.773,0.755,1.031c1.151,1.058,2.326,2.089,3.525,3.092c1.186,1.019,2.395,2.009,3.627,2.971
				C394.688,272.517,395.068,272.709,395.51,272.748z"/>
			<path opacity="0.1091" fill="#E864A7" d="M396.691,274.798c17.368,0.14,34.735,0.098,52.104,0.095
				c17.363-0.003,34.74,0.243,52.102,0.031c-3.459-2.652-6.919-5.303-10.378-7.955c0.036,0.188,0.071,0.375,0.107,0.563
				c-0.021-0.111-0.041-0.223-0.062-0.334c0.451,6.524-0.433,12.263-1.468,19.279c-0.699,4.741-1.307,9.495-1.842,14.257
				c-0.677,6.028-0.841,12.149-1.192,18.202c-0.535,9.215-0.563,18.474-0.715,27.701c-0.525,31.724-0.336,63.454-0.418,95.18
				c-0.018,7.027-0.111,14.057-0.055,21.083c0.001,0.121,0.002,0.241,0.003,0.362c2.233,0.253,4.469,0.281,6.709,0.083
				c2.504-0.224,5.012-0.373,7.524-0.447c2.752,0.133,5.502,0.293,8.251,0.479c9.943,0.627,19.929,0.452,29.891,0.508
				c5.125,0.029,10.256,0.125,15.381,0.035c-3.443-2.63-6.887-5.261-10.33-7.891c-1.633,2.711-3.266,5.422-4.899,8.134
				c0.442-0.439,0.884-0.879,1.326-1.318c-2.215,2.05-4.579,3.911-7.092,5.583c-2.658,1.911-5.083,4.081-7.275,6.511
				c-5.455,5.447-10.227,11.591-15.161,17.501c-5.77,6.912-11.16,14.161-16.635,21.306c-7.309,9.539-14.507,19.163-21.716,28.777
				c-10.279,13.71-20.554,27.425-30.671,41.255c-5.082,6.948-10.359,13.753-15.436,20.705c3.768-1.088,7.537-2.175,11.305-3.263
				c-5.704-8.892-10.425-18.437-15.607-27.643c-5.08-9.026-11.023-17.625-16.899-26.14c-6.73-9.753-13.715-19.334-20.667-28.93
				c-11.816-16.31-23.684-32.597-35.757-48.718c-6.266-8.367-12.333-16.883-18.628-25.227c-0.282,0.363-0.41,0.788-0.385,1.273
				c-0.173,1.621-0.309,3.245-0.408,4.873c-0.12,1.626-0.204,3.254-0.25,4.883c-0.091,0.478-0.02,0.916,0.21,1.314
				c0.728,0.655,1.509,0.963,1.499,2.055c0.321,0.221,0.685,0.287,1.093,0.199c5.368,0.075,10.736,0.149,16.105,0.224
				c2.764,0.575,5.546,1.047,8.345,1.415c2.88,0.434,5.808,0.848,8.707,1.125c7.769,0.745,15.537,1.221,23.332,1.574
				c1.001,0.045,2.038,0.095,3.035,0.228c0.188-2.308,0.182-4.616-0.018-6.924c-0.24-2.645-0.397-5.295-0.47-7.95
				c0.086-1.524,0.172-3.048,0.258-4.572c0.119-3.174,0.273-6.346,0.462-9.517c0.01-3.777,0.038-7.554,0.083-11.33
				c0.004-4.151,0.018-8.301,0.041-12.452c0.139-31.251,0.142-62.503,0.161-93.755c0.008-13.736-0.064-27.472-0.043-41.208
				c0.009-5.57,0.088-11.142,0.021-16.712c-0.455,0.137-0.82,0.415-1.096,0.832c-1.14,1.247-2.252,2.519-3.336,3.815
				c-1.1,1.283-2.172,2.588-3.215,3.917c-0.367,0.341-0.58,0.747-0.641,1.218c-0.216,1.048-0.215,1.639-0.226,2.826
				c-0.04,4.425-0.111,8.849-0.192,13.274c-0.095,5.214-0.043,10.408,0.131,15.619c0.287,8.59,0.142,17.177,0.107,25.771
				c-0.069,17.081-0.08,34.162-0.1,51.242c-0.008,7.243-0.016,14.487-0.02,21.73c0.047,4.49-0.016,8.978-0.19,13.465
				c-0.405,4.015-0.564,8.041-0.477,12.076c-0.052,5.438-0.209,10.865-0.389,16.3c-0.525,2.208-1.07,4.41-1.636,6.608
				c0.629,1.536,0.937,3.131,0.926,4.785c0.071,0.85-0.051,2.24-0.36,3.104c0.027-0.075-5.068-0.33-4.938-0.329
				c-8.365-0.049-16.725-0.312-25.084-0.621c-4.375-0.162-3.787-0.198-8.295,0.072c-1.569-0.118-3.118-0.042-4.646,0.229
				c-2.34,1.283-4.733,2.457-7.18,3.521c3.305-0.246,6.61-0.492,9.915-0.737c-2.106-0.98-3.874-2.38-5.304-4.2
				c-0.66-0.943-1.32-1.885-1.979-2.828c-1.287-2.087-2.47-4.232-3.548-6.434c-0.278,4.114-0.555,8.229-0.833,12.343
				c0.728,1.559,1.856,2.882,2.864,4.272c2.951,4.069,5.843,8.179,8.808,12.238c4.486,6.141,9.343,11.981,13.827,18.125
				c6.665,9.132,13.374,18.232,20.077,27.336c11.228,15.249,22.499,30.468,33.686,45.747c2.405,3.322,4.697,6.721,6.875,10.196
				c2.258,3.139,4.506,6.286,6.744,9.439c2.011,2.697,3.99,5.418,5.936,8.162c0.072,0.082,0.144,0.164,0.216,0.245
				c2.394,1.791,4.731,3.652,7.012,5.584c-1.645-2.726-3.289-5.452-4.934-8.177c0.807,3.124,0.546,6.086-0.781,8.888
				c-0.905,1.945-1.986,3.786-3.243,5.525c-0.184,0.282,3.973-0.76,3.124-0.529c1.759-0.48,3.51-0.986,5.255-1.516
				c0.927-0.231,1.82-0.552,2.678-0.963c0.843-0.791,1.309-1.36,2.053-2.343c2.599-3.437,5.22-6.854,7.85-10.267
				c4.325-5.612,8.343-11.414,12.368-17.243c2.492-3.312,4.98-6.627,7.464-9.945c2.682-3.584,5.362-7.169,8.039-10.757
				c11.412-15.283,22.781-30.599,34.17-45.9c5.165-6.94,10.321-13.836,15.869-20.476c3.26-4.402,6.661-8.693,10.203-12.874
				c1.045-1.191,2.09-2.382,3.135-3.573c2.524-2.233,5.077-4.432,7.659-6.599c0.059-0.095,0.117-0.19,0.176-0.285
				c-0.486-0.555-0.973-1.11-1.459-1.665c-1.901,1.628-3.801,3.257-5.702,4.885c3.367-1.218,6.602-1.144,9.704,0.22
				c1.758-0.31,3.526-0.555,5.303-0.735c0.333-0.041-3.284-2.976-2.547-2.396c-1.584-1.244-3.185-2.466-4.801-3.668
				c-0.816-0.667-1.684-1.254-2.604-1.76c-1.797-0.385-3.539-0.319-5.385-0.34c-5.642-0.067-11.283-0.242-16.924-0.35
				c-2.739-0.028-5.478-0.062-8.217-0.102c-1.349-0.077-2.698-0.154-4.047-0.23c-2.328,0.208-4.535-0.186-6.621-1.182
				c-0.84-0.299-1.679-0.599-2.519-0.898c-1.29,0.626-2.649,0.939-4.078,0.939c-0.771,0.081-2.058-0.059-2.836-0.354
				c-0.016,0.119-0.031,0.239-0.047,0.358c0.211-1.178,0.248-1.941,0.259-3.214c0.039-4.445,0.107-8.889,0.185-13.334
				c0.128-7.286-0.09-14.543-0.325-21.825c0.029-4.272,0.052-8.544,0.07-12.817c0.034-7.012,0.049-14.023,0.066-21.035
				c0.055-21.906,0.042-43.811,0.104-65.717c0.027-4.228,0.18-8.451,0.461-12.669c0.031-3.827,0.075-7.654,0.129-11.48
				c0.067-3.445,0.155-6.889,0.264-10.332c-0.013-0.111-0.025-0.222-0.038-0.333c-0.564-2.809-1.077-5.627-1.538-8.455
				c-0.471,3.372-0.943,6.744-1.414,10.116c0.803-2.945,2.489-5.056,5.059-6.334c1.783-0.831,3.652-1.358,5.608-1.582
				c0.346-0.069-3.291-2.99-2.56-2.413c-1.592-1.253-3.2-2.486-4.824-3.698c-0.819-0.672-1.691-1.264-2.616-1.776
				c-0.216-0.041-0.433-0.081-0.649-0.122c0.126,0.024,0.251,0.048,0.377,0.072c-1.79-0.346-3.578-0.24-5.4-0.252
				c-3.463-0.022-6.924-0.083-10.387-0.139c-11.93-0.194-23.871-0.121-35.802-0.108c-12.06,0.013-24.118,0.107-36.177,0.228
				c-5.107,0.052-10.29-0.511-15.397-0.765c0.108,0.461,0.362,0.842,0.761,1.142c1.172,1.21,2.369,2.395,3.592,3.553
				c1.209,1.173,2.443,2.32,3.702,3.439C395.835,274.472,396.226,274.709,396.691,274.798z"/>
			<path opacity="0.1091" fill="#E864A7" d="M398.634,274.476c5.13-0.474,10.222-0.613,15.382-0.575
				c11.964,0.088,23.933,0.099,35.897,0.099c17.417,0,34.833,0,52.25,0c-0.35-1-0.7-1.019-1.05-1.471
				c-1.407,0.794-2.81,1.535-4.211,2.339c-1.628,0.931-4.227,3.137-5.615,4.272c-1.097,0.996-2.188,1.985-3.272,2.996
				c-0.498,0.459-1.648,8.054-1.734,8.547c-0.651,3.206-1.194,6.426-1.631,9.668c-0.161,1.845-0.322,3.689-0.483,5.534
				c-0.336,4.118-0.592,8.241-0.765,12.369c-0.605,11.615-0.735,23.257-0.909,34.884c-0.547,36.432-0.362,72.875-0.433,109.31
				c0.01,0.136,0.077,0.232,0.202,0.287c7.432,0.672,14.804,0.572,22.259,0.387c2.689,0.036,5.378,0.067,8.067,0.091
				c2.849,0.029,6.377-0.169,9.229-0.245c10.693-0.285,21.408-0.046,32.106-0.183c-0.336-0.448-0.671-0.896-1.007-1.344
				c-2.803,0.649-5.632,0.864-8.486,0.644c-4.731-0.081-9.546,0.923-14.185,1.69c-0.145,0.02-0.278,0.074-0.398,0.162
				c-1.932,1.242-9.749,9.315-9.514,9.091c-6.981,6.66-12.929,14.466-18.964,21.963c-7.278,9.042-14.264,18.324-21.282,27.568
				c-19.94,26.262-39.469,52.834-59.162,79.282c0.965,0.101,1.931,0.203,2.896,0.304c1.212-3.657,2.212-7.281,3.077-11.043
				c0.418-1.372,0.702-2.765,0.851-4.18c-0.179-1.766-1.885-6.039-1.971-6.304c-2.659-8.195-7.495-15.654-12.005-22.911
				c-7.056-11.356-14.981-22.188-22.751-33.059c-20.587-28.801-41.954-57.03-62.797-85.644c-0.571-0.784-0.502,1.847-0.5,1.628
				c-0.006,1.039,0.015,2.077,0.062,3.115c0.018,0.367-0.059,1.478,0.393,1.786c2.117,1.562,4.191,3.177,6.223,4.847
				c1.079,0.82,2.158,1.639,3.236,2.459c2.017,1.652,4.271,2.854,6.762,3.607c5.234,2.125,10.891,2.957,16.438,3.8
				c6.33,0.962,12.749,1.324,19.133,1.71c3.697,0.224,7.45,0.185,11.134,0.586c0.198,0.022,0.377-0.087,0.394-0.3
				c0.438-5.527,0.404-10.996,0.301-16.538c-0.17-3.526-0.184-7.052-0.041-10.578c0.115-5.498-0.053-10.974-0.175-16.47
				c-0.242-10.932-0.165-21.876-0.22-32.81c-0.061-12.305-0.075-24.61-0.093-36.915c-0.045-31.48-0.161-62.964-0.034-94.444
				c0.004-0.914-1.278,1.088-1.141,0.875c-0.567,0.883-1.802,2.339-1.842,3.451c-0.316,8.732-0.113,17.515-0.144,26.252
				c-0.037,10.484,0.146,20.974,0.143,31.46c-0.004,12.126,0.017,24.253,0.047,36.379c0.025,9.838,0.081,19.675,0.152,29.512
				c0.08,11.007,0.092,22.029,0.381,33.031c0.064,3.851,0.217,7.699,0.457,11.543c0.094,1.755,0.188,3.51,0.282,5.265
				c-0.096,2.728-0.168,5.456-0.215,8.186c0.129,2.078,0.286,4.154,0.471,6.227c0.369,4.86,0.822,9.988,0.035,14.834
				c0.131-0.1,0.263-0.2,0.394-0.3c-6.057-0.467-12.16-0.544-18.226-0.895c-6.64-0.384-13.254-1.145-19.793-2.371
				c-5.224-0.86-9.914-2.823-14.069-5.89c-4.98-3.201-7.493-7.993-9.946-13.043c-0.075,2.119-0.149,4.239-0.224,6.358
				c0.931,1.49,2.012,2.873,3.053,4.288c2.988,4.062,5.936,8.154,8.911,12.226c4.457,6.098,9.124,12.034,13.594,18.123
				c5.282,7.196,10.576,14.383,15.866,21.573c11.218,15.247,22.432,30.497,33.502,45.851c4.755,6.596,9.277,13.314,13.795,20.072
				c4.051,6.06,7.557,12.324,10.231,19.109c-0.204-0.68-0.409-1.359-0.613-2.039c-0.149,2.789-0.546,5.542-1.19,8.259
				c-0.751,3.287-2.159,6.292-4.225,9.016c-0.463,0.677,2.489,0.908,2.81,0.476c13.931-18.763,27.852-37.532,41.807-56.277
				c11.314-15.198,22.675-30.361,34.204-45.397c5.063-6.603,10.239-13.114,15.527-19.538c2.152-2.755,4.471-5.361,6.957-7.818
				c2.785-2.927,5.443-5.933,8.221-8.865c-0.198,0.104-0.397,0.208-0.595,0.312c5.74-1.081,11.234-1.98,17.078-1.705
				c0.921,0.295,1.857,0.477,2.809,0.546c1.442-0.342,2.898-0.609,4.368-0.799c0.727-0.116-0.67-1.351-1.007-1.344
				c-12.135,0.255-24.282,0.003-36.411,0.49c-5.981,0.24-11.975,0.17-17.958,0.338c-0.956,0.027-14.912,0.529-14.91-1.009
				c0.009-7.071,0.009-14.143,0.015-21.214c0.021-26.766,0.056-53.533,0.253-80.299c0.103-14.089,0.312-28.176,0.793-42.258
				c0.2-5.866,0.583-11.71,1.009-17.563c0.422-3.217,0.922-6.422,1.501-9.614c2.085-9.153,7.072-14.869,14.958-16.748
				c0.751-0.182-0.735-1.554-1.05-1.554c-17.417,0-34.833,0-52.25,0c-11.963,0-23.925,0.193-35.888,0.225
				c-3.523,0.01-6.849-0.142-10.319,0.414c-1.532,0.246-3.066,0.53-4.599,0.767C397.504,273.522,398.145,274.521,398.634,274.476z"
				/>
			<path opacity="0.1091" fill="#E864A7" d="M397.728,279.418c17.321-0.359,34.654-0.418,51.978-0.418c17.417,0,34.833,0,52.25,0
				c-0.74,0-1.48-1.653-2.221-2.6c-3.121,1.894-5.79,4.298-8.458,6.795c-1.011,0.875-1.925,1.894-2.744,2.937
				c-1.159,2.568-1.809,7.388-2.421,10.178c-1.978,9.02-2.333,18.369-2.802,27.558c-0.592,11.597-0.717,23.228-0.887,34.837
				c-0.533,36.424-0.344,72.862-0.421,109.289c0.027,0.064,0.053,0.13,0.08,0.193c7.286,0.404,14.589,0.321,21.884,0.43
				c2.871,0.072,5.742,0.155,8.613,0.246c4.45,0.135,8.957-0.153,13.411-0.172c9.251-0.04,18.504-0.07,27.755-0.18
				c-0.71-0.938-1.421-1.876-2.131-2.814c-2.487,0.701-5.017,0.997-7.588,0.885c-4.446,0.101-8.884,1.148-13.212,2.046
				c-0.184,0.015-0.328,0.105-0.431,0.268c-3.416,3.229-6.764,6.523-10.158,9.775c-6.968,6.677-12.88,14.519-18.906,22.027
				c-5.818,7.248-11.438,14.658-17.077,22.045c-21.478,28.133-42.426,56.671-63.561,85.062c0.913-0.173,1.827-0.347,2.74-0.52
				c0.257-1.79,0.715-3.529,1.373-5.22c0.819-2.651,1.469-5.343,1.952-8.076c1.236-3.052,0.935-5.895-0.901-8.531
				c-0.644-1.29-1.288-2.58-1.932-3.869c-1.306-3.046-2.718-6.043-4.236-8.99c-0.839-1.683-1.796-3.3-2.872-4.853
				c-3.133-5.268-6.608-10.326-10.009-15.422c-6.444-9.654-13.299-19.045-20.078-28.465c-19.287-26.803-39.044-53.267-58.632-79.851
				c-0.495-0.671-1.039,0.558-0.747,0.928c1.398,1.691,2.707,3.449,3.928,5.272c2.76,3.883,6.448,7.314,9.724,10.744
				c0.484,0.507,7.06,2.18,7.674,2.351c2.503,0.696,5.449,1.544,8.013,1.944c7.732,1.207,15.463,1.94,23.27,2.443
				c3.645,0.235,7.375,0.14,11.002,0.582c0.169,0.019,0.258-0.057,0.267-0.227c0.955-14.659,0.558-29.382,0.443-44.061
				c-0.182-23.285-0.154-46.574-0.174-69.86c-0.027-31.508-0.012-63.017-0.026-94.525c0-0.723-1.362,0.149-1.362,0.618
				c0.022,50.549-0.081,101.099,0.211,151.647c0.075,13.009,0.387,26.02,0.215,39.029c-0.057,4.351-0.355,8.635-1.028,12.93
				c-0.088,1.42-0.707,1.962-1.857,1.626c-1.253-0.016-2.505-0.046-3.757-0.091c-8.152-0.239-16.281-0.632-24.402-1.394
				c-6.89-0.646-16.348-2.129-21.463-7.28c-2.146-2.238-4.196-4.561-6.15-6.968c-1.643-1.655-2.903-3.557-3.781-5.707
				c-0.249,0.309-0.498,0.619-0.747,0.928c16.735,22.687,33.51,45.343,50.143,68.105c12.168,16.651,24.195,33.39,35.634,50.552
				c2.992,4.551,5.716,9.26,8.173,14.126c1.167,2.756,2.462,5.451,3.884,8.084c1.641,2.473,1.904,5.12,0.788,7.941
				c-0.662,5.071-2.444,9.795-5.28,14.059c-0.341,0.512,0.791,0.301,0.835,0.289c0.561-0.143,1.533-0.308,1.905-0.81
				c19.672-26.475,39.302-52.98,59.123-79.343c6.967-9.266,14.002-18.479,21.114-27.634c5.854-7.534,11.802-15.045,18.436-21.908
				c2.125-1.99,4.136-4.09,6.033-6.298c0.678-0.609,1.357-1.218,2.035-1.826c2.838-0.939,5.737-1.613,8.696-2.022
				c3.392-0.62,6.308-0.17,9.521,0.827c0.511,0.159,5.047-0.534,5.366-0.57c0.769-0.087-1.309-2.869-1.936-2.854
				c-11.863,0.284-23.738,0.138-35.596,0.584c-2.895-0.043-5.789-0.087-8.684-0.13c-3.121-0.34-6.249-0.403-9.384-0.191
				c-4.007,0.068-7.951-0.162-11.919-0.671c-2.365-0.304-1.634-1.929-1.633-3.683c0.001-4.489,0.013-8.978,0.027-13.467
				c0.084-25.856,0.023-51.712,0.151-77.568c0.071-14.318,0.224-28.635,0.535-42.95c0.134-6.163,0.384-12.32,0.719-18.476
				c0.381-7.004,1.156-14.275,2.881-21.09c-0.095,0.211-0.19,0.422-0.286,0.633c2.043-2.958,4.589-5.418,7.639-7.38
				c1.77-1.002,3.669-1.397,5.696-1.585c0.791-0.159-1.407-2.683-2.025-2.683c-17.417,0-34.833,0-52.25,0
				c-17.199,0-34.435-0.681-51.622-0.01C395.29,277.02,397.121,279.431,397.728,279.418z"/>
			<path opacity="0.1091" fill="#E864A7" d="M395.998,275.296c17.359,0.092,34.716,0.08,52.075,0.077
				c11.964-0.002,23.928,0.004,35.892,0.019c5.404,0.007,10.813,0.101,16.216,0.003c-3.737-3.241-7.473-6.481-11.21-9.722
				c0.541,4.555,1.082,9.11,1.623,13.665c-0.041-3.001-0.083-6.001-0.124-9.002c-1.089,12.394-3.244,24.634-4.261,37.029
				c-1.292,15.741-1.384,31.574-1.599,47.356c-0.419,30.854-0.288,61.711-0.355,92.567c-0.012,5.462-0.121,10.932-0.028,16.394
				c0.002,0.123,0.004,0.245,0.006,0.368c2.318,0.194,4.632,0.156,6.943-0.116c2.502-0.317,5.012-0.536,7.531-0.659
				c2.7,0.187,5.402,0.349,8.106,0.485c9.901,0.545,19.815,0.502,29.731,0.576c5.12,0.038,10.254,0.165,15.374,0.044
				c-3.722-3.223-7.443-6.446-11.165-9.669c-2.055,3.952-4.11,7.903-6.164,11.855c0.076-0.107,0.152-0.214,0.227-0.321
				c-2.597,1.815-5.096,3.758-7.495,5.829c-2.407,2.335-4.745,4.737-7.014,7.207c-4.121,4.353-7.833,9.18-11.668,13.782
				c-5.77,6.924-11.176,14.168-16.659,21.319c-7.314,9.54-14.516,19.167-21.728,28.784c-10.279,13.707-20.545,27.424-30.674,41.242
				c-5.095,6.951-10.412,13.743-15.44,20.743c4.585-1.454,9.169-2.908,13.754-4.362c-6.684-5.702-11.015-13.851-15.204-21.511
				c-3.727-6.817-8.134-13.307-12.32-19.846c-4.863-7.596-10.219-14.896-15.443-22.245c-6.971-9.808-14.082-19.518-21.177-29.237
				c-10.116-13.857-20.251-27.702-30.548-41.424c-5.173-6.893-10.121-13.955-15.328-20.822c-0.182-0.24-0.518,4.435-0.473,3.498
				c-0.093,2.031-0.16,4.064-0.201,6.097c-0.07,1.061-0.044,2.119,0.078,3.172c0.233,1.215,0.547,1.478-0.298,2.862
				c0.404,0.182,0.83,0.2,1.276,0.055c5.676-0.439,11.352-0.878,17.028-1.317c2.956,0.478,5.925,0.86,8.906,1.144
				c-0.127-0.017-0.254-0.034-0.381-0.051c8.006,1.128,16.009,1.875,24.076,2.395c3.699,0.238,7.48,0.135,11.158,0.629
				c0.35,0.047-0.46-10.307-0.517-10.879c-0.429-4.326-0.086-8.572,0.094-12.903c0.577-13.882,0.539-27.804,0.641-41.7
				c0.214-29.082,0.019-58.173,0.044-87.256c0.01-11.465-0.075-22.929-0.058-34.394c0.008-5.564,0.104-11.131,0.026-16.695
				c-0.468,0.151-0.846,0.442-1.132,0.873c-1.185,1.299-2.342,2.622-3.472,3.969c-1.146,1.334-2.263,2.691-3.352,4.072
				c-0.379,0.353-0.605,0.772-0.677,1.259c-0.22,1.046-0.218,1.627-0.231,2.816c-0.033,3.043-0.071,6.086-0.131,9.129
				c-0.092,4.646-0.111,9.29-0.137,13.936c0.144,4.016,0.287,8.032,0.43,12.048c-0.033,4.256-0.061,8.513-0.082,12.769
				c-0.097,16.864-0.117,33.728-0.155,50.592c-0.036,16.126,0.458,32.346-0.841,48.43c-0.039,2.044-0.079,4.088-0.118,6.132
				c0,3.692-0.152,7.378-0.456,11.058c-0.11,1.618-0.22,3.237-0.33,4.856c-0.603,1.933-1.23,3.859-1.881,5.777
				c0.327,0.74,0.655,1.481,0.982,2.221c0.312,1.122,0.437,2.262,0.377,3.421c0.021,1.231-0.209,0.873-1.31,0.736
				c-2.141-0.267-4.274-0.192-6.431-0.201c-4.734-0.02-9.465-0.181-14.197-0.303c-4.217-0.108-8.43-0.137-12.647-0.18
				c-3.177,0.64-6.36,1.248-9.549,1.823c-2.189,1.882-4.416,3.717-6.681,5.505c3.788-0.677,7.577-1.355,11.365-2.032
				c-2.109-1.045-3.866-2.505-5.272-4.383c-0.653-0.947-1.306-1.894-1.959-2.841c-1.234-2.011-2.404-4.058-3.51-6.141
				c-0.199,4.256-0.398,8.511-0.597,12.767c0.796,1.7,1.923,3.107,3.025,4.632c2.946,4.075,5.832,8.19,8.803,12.248
				c4.495,6.139,9.374,11.964,13.858,18.114c6.664,9.139,13.376,18.242,20.084,27.349c11.254,15.279,22.573,30.509,33.802,45.807
				c2.417,3.354,4.736,6.773,6.957,10.259c2.331,3.157,4.655,6.318,6.972,9.485c2.267,2.659,4.504,5.343,6.71,8.053
				c0.082,0.085,0.165,0.169,0.247,0.254c2.706,1.466,5.373,3.001,8,4.605c-2.367-2.955-4.735-5.909-7.102-8.864
				c0.631,2.068,0.676,4.143,0.137,6.223c-0.366,0.947-0.733,1.894-1.099,2.841c-1.008,1.997-2.185,3.888-3.532,5.674
				c-0.15,0.218,4.73-1.111,3.788-0.826c2.139-0.651,4.27-1.326,6.393-2.027c1.123-0.319,2.212-0.728,3.265-1.227
				c2.111-1.908,3.686-4.413,5.401-6.673c3.444-4.54,6.925-9.048,10.345-13.607c2.2-3.208,4.401-6.417,6.601-9.625
				c2.495-3.311,4.984-6.626,7.469-9.944c5.506-7.342,10.985-14.706,16.466-22.067c11.304-15.181,22.542-30.41,33.845-45.592
				c2.484-3.283,5.063-6.49,7.734-9.623c2.314-3.108,4.633-6.213,6.958-9.314c3.983-5.322,8.875-9.691,13.802-14.095
				c0.076-0.107,0.152-0.214,0.227-0.321c-1.523-0.83-2.744-1.969-3.662-3.418c-1.326,2.417-2.652,4.834-3.978,7.251
				c1.703-0.245,3.387-0.139,5.051,0.316c0.956,0.296,1.912,0.593,2.868,0.889c1.722-0.37,3.457-0.659,5.207-0.868
				c-0.185-0.507-0.509-0.92-0.975-1.239c-1.429-1.321-2.883-2.615-4.361-3.881c-1.464-1.282-2.953-2.536-4.464-3.761
				c-0.382-0.415-0.837-0.678-1.365-0.788c-1.022-0.267-1.502-0.26-2.694-0.281c-2.701-0.05-5.399-0.106-8.099-0.199
				c-3.661-0.126-7.323-0.225-10.985-0.329c-5.292-0.15-10.491-0.433-15.761-0.95c-0.806-0.329-1.611-0.658-2.417-0.987
				c-1.372-1.266-2.685-1.277-3.94-0.034c-0.606,0.326-2.897,0.638-3.579,0.149c0.187,0.134,0.246-3.773,0.237-2.868
				c0.045-4.441,0.121-8.88,0.207-13.32c0.102-5.226,0.037-10.433-0.15-15.656c-0.227-6.347-0.179-12.662-0.147-19.012
				c0.087-16.908,0.09-33.817,0.094-50.725c0.004-16.25-0.398-32.537,0.411-48.771c0.286-5.736,0.01-11.589-0.027-17.333
				c0.006-1.664,0.002-3.328-0.014-4.992c-0.725-2.882-1.408-5.775-2.049-8.677c-0.708,4.205-1.415,8.409-2.123,12.614
				c0.757-2.954,2.417-5.059,4.981-6.316c1.75-0.802,3.578-1.345,5.483-1.629c-0.186-0.509-0.512-0.924-0.979-1.244
				c-1.435-1.328-2.894-2.629-4.378-3.902c-1.47-1.289-2.964-2.55-4.482-3.782c-0.383-0.417-0.84-0.681-1.37-0.793
				c-1.059-0.227-1.631-0.226-2.835-0.236c-4.262-0.033-8.522-0.098-12.783-0.175c-11.922-0.215-23.856-0.134-35.78-0.119
				c-12.072,0.015-24.142,0.132-36.213,0.241c-3.263,0.03-6.608-0.383-9.87-0.558c-1.786-0.096-3.571-0.192-5.357-0.288
				c0.121,0.52,0.392,0.963,0.814,1.329c1.253,1.46,2.533,2.895,3.841,4.305c1.292,1.425,2.611,2.824,3.957,4.198
				C395.072,274.822,395.49,275.131,395.998,275.296z"/>
			<path opacity="0.1091" fill="#E864A7" d="M395.856,273.497c17.356,0.128,34.709,0.104,52.065,0.1
				c17.356-0.004,34.729,0.27,52.084,0.039c-3.649-2.629-7.298-5.258-10.947-7.887c0.637,2.175,1.274,4.351,1.911,6.526
				c-0.343-1.449-0.686-2.899-1.029-4.348c0.207,2.723,0.414,5.445,0.621,8.168c-0.062-2.049-0.125-4.099-0.187-6.148
				c-0.915,11.865-2.7,23.621-3.631,35.479c-1.236,15.74-1.359,31.549-1.565,47.328c-0.402,30.86-0.258,61.722-0.33,92.582
				c-0.013,5.453-0.109,10.908-0.044,16.361c0.001,0.121,0.003,0.242,0.004,0.363c2.214,0.264,4.43,0.282,6.65,0.052
				c2.475-0.259,4.954-0.459,7.439-0.598c2.657,0.063,5.31,0.198,7.959,0.403c9.834,0.635,19.679,0.593,29.532,0.663
				c5.113,0.036,10.236,0.152,15.349,0.049c-3.632-2.614-7.264-5.228-10.896-7.842c-1.99,3.387-3.979,6.775-5.969,10.162
				c0.073-0.1,0.146-0.2,0.22-0.3c-3.889,3.006-7.569,6.042-10.96,9.617c-5.265,5.552-10.136,11.412-15.052,17.273
				c-5.791,6.903-11.188,14.157-16.67,21.304c-7.317,9.538-14.52,19.164-21.733,28.78c-10.284,13.71-20.56,27.427-30.682,41.258
				c-5.086,6.95-10.401,13.734-15.434,20.722c4.498-0.952,8.996-1.904,13.495-2.856c-2.859-3.655-5.718-7.31-8.577-10.965
				c1.489,2.269,2.977,4.537,4.466,6.806c-3.117-4.907-6.107-9.889-8.969-14.946c-1.588-3.161-3.282-6.263-5.083-9.308
				c-3.973-7.011-8.475-13.749-12.942-20.449c-10.488-15.731-21.846-30.919-32.984-46.191
				c-10.107-13.858-20.252-27.688-30.516-41.43c-5.166-6.917-10.114-14.004-15.376-20.848c-0.284,0.482-0.406,1.013-0.365,1.595
				c-0.147,2.017-0.257,4.037-0.331,6.058c-0.094,2.021-0.152,4.042-0.173,6.065c-0.089,0.576-0.012,1.116,0.231,1.62
				c0.556,0.932,0.643,1.343,0.269,2.379c0.416,0.137,0.836,0.109,1.26-0.082c4.298-0.851,8.595-1.701,12.893-2.552
				c-2.677,0.129-5.355,0.258-8.032,0.387c8.412-0.118,15.963,0.325,24.102,1.359c4.191,0.533,8.415,0.832,12.625,1.167
				c5.98,0.476,11.98,0.567,17.961,0.99c0.121,0.015,0.242,0.03,0.363,0.045c0.314-2.196,0.374-4.4,0.179-6.611
				c-0.093-1.257-0.186-2.514-0.279-3.771c-0.277-2.889-0.235-5.775,0.127-8.657c0.877-13.248,0.665-26.522,0.884-39.791
				c0.239-14.425,0.067-28.867,0.076-43.294c0.01-16.953,0.016-33.906,0.028-50.859c0.008-11.458-0.057-22.916-0.042-34.374
				c0.007-5.576,0.113-11.158,0.007-16.734c-0.502,0.228-0.9,0.589-1.194,1.084c-1.252,1.55-2.474,3.123-3.668,4.718
				c-1.21,1.583-2.391,3.187-3.542,4.813c-0.396,0.417-0.636,0.898-0.718,1.444c-0.223,1.061-0.227,1.663-0.239,2.86
				c-0.032,3.05-0.068,6.099-0.129,9.148c-0.092,4.65-0.114,9.299-0.142,13.951c0.144,3.995,0.287,7.99,0.43,11.985
				c-0.032,4.26-0.059,8.52-0.079,12.78c-0.093,16.865-0.108,33.73-0.135,50.594c-0.026,16.142,0.499,32.378-0.739,48.481
				c-0.025,2.044-0.05,4.088-0.075,6.132c0.017,3.702-0.101,7.401-0.352,11.094c0.293,2.817-0.158,5.488-1.354,8.012
				c-1.307,1.678-1.332,3.318-0.075,4.921c0.519,1.22,0.335,2.901,0.212,4.191c-0.025,0.258-2.679-0.189-2.721-0.194
				c-2.629-0.299-5.512-0.008-8.152-0.021c-5.071-0.026-10.15-0.347-15.219-0.347c-1.441,0-2.882,0-4.322,0
				c-1.434,0-2.867-0.052-4.3-0.036c-2.956,0.618-5.921,1.178-8.896,1.695c-2.714,0.691-4.881,2.427-6.501,5.217
				c3.645-1.08,7.289-2.163,10.934-3.243c-2.133-0.926-3.866-2.339-5.197-4.239c-0.663-1.01-1.327-2.02-1.99-3.03
				c-1.326-2.254-2.532-4.571-3.618-6.95c-0.213,5.113-0.425,10.225-0.638,15.338c0.712,1.58,1.845,2.905,2.858,4.306
				c2.946,4.074,5.831,8.191,8.798,12.251c4.489,6.141,9.377,11.956,13.859,18.103c5.264,7.219,10.563,14.412,15.859,21.607
				c11.313,15.372,22.667,30.714,34.032,46.048c4.985,6.726,9.531,13.733,14.477,20.481c2.13,3.066,4.396,6.028,6.797,8.886
				c1.051,1.327,2.103,2.654,3.154,3.98c2.671,1.649,5.312,3.345,7.923,5.089c-2.222-3.441-4.445-6.883-6.667-10.324
				c0.597,2.027,0.67,4.069,0.22,6.125c-0.333,0.93-0.665,1.86-0.998,2.79c-0.927,1.914-1.99,3.749-3.189,5.505
				c0.48,0.165,0.972,0.162,1.476-0.007c1.79-0.314,3.573-0.665,5.349-1.051c1.78-0.366,3.553-0.768,5.317-1.206
				c0.53-0.049,0.981-0.246,1.352-0.591c0.783-0.687,1.103-1.124,1.808-2.053c2.596-3.419,5.215-6.819,7.843-10.213
				c4.357-5.628,8.358-11.479,12.378-17.348c2.492-3.306,4.98-6.615,7.462-9.928c2.682-3.58,5.361-7.163,8.037-10.748
				c11.424-15.292,22.794-30.623,34.166-45.953c5.151-6.944,10.296-13.83,15.861-20.45c2.331-3.107,4.668-6.21,7.009-9.309
				c2.14-2.597,4.291-5.185,6.453-7.763c-0.082,0.089-0.164,0.179-0.246,0.268c2.341-2.498,4.709-4.969,7.105-7.414
				c0.073-0.1,0.146-0.2,0.22-0.3c-1.409-0.687-2.55-1.669-3.423-2.949c-1.221,1.979-2.443,3.957-3.665,5.936
				c1.649-0.29,3.289-0.232,4.918,0.175c0.918,0.266,1.836,0.532,2.754,0.798c1.66-0.328,3.327-0.616,5-0.866
				c0.328-0.053-3.477-2.96-2.707-2.389c-1.673-1.236-3.361-2.452-5.065-3.645c-0.862-0.664-1.774-1.245-2.737-1.745
				c-0.451-0.1-0.933-0.286-1.395-0.294c-3.288-0.059-6.573-0.116-9.86-0.225c-3.682-0.123-7.365-0.221-11.048-0.323
				c-2.714-0.079-5.428-0.165-8.141-0.259c-2.507-0.308-5.011-0.63-7.514-0.967c0.112,0.046,0.223,0.092,0.335,0.138
				c-1.527-0.746-3.038-1.525-4.531-2.337c-0.623,0.33-1.246,0.66-1.87,0.989c-0.989,0.34-2.004,0.49-3.045,0.451
				c-0.266-0.035-0.532-0.052-0.799-0.049c0.294-0.002,0.237-3.54,0.229-2.824c0.063-5.995,0.203-11.988,0.235-17.983
				c0.09-3.665,0.03-7.328-0.181-10.988c-0.226-6.354-0.178-12.676-0.145-19.034c0.129-24.271,0.115-48.543,0.102-72.814
				c-0.011-4.678-0.011-9.356,0-14.034c0.007-6.281,0.473-12.528,0.476-18.811c0.003-5.35-0.081-10.693-0.151-16.042
				c-0.004-0.12-0.008-0.239-0.012-0.359c-0.822-2.91-1.595-5.834-2.319-8.77c-0.565,3.682-1.131,7.364-1.696,11.046
				c0.752-2.821,2.356-4.845,4.813-6.07c1.687-0.799,3.451-1.35,5.294-1.652c0.34-0.081-3.485-2.968-2.72-2.401
				c-1.681-1.243-3.377-2.465-5.088-3.666c-0.866-0.667-1.782-1.253-2.749-1.756c-1.199-0.219-1.987-0.272-3.255-0.282
				c-4.272-0.033-8.542-0.095-12.813-0.169c-11.929-0.207-23.87-0.13-35.801-0.115c-12.057,0.015-24.113,0.13-36.169,0.229
				c-3.297,0.027-6.668-0.375-9.964-0.545c-1.802-0.093-3.603-0.185-5.405-0.278c0.133,0.469,0.41,0.852,0.829,1.148
				c1.25,1.212,2.526,2.396,3.827,3.554c1.287,1.173,2.597,2.319,3.932,3.436C394.966,273.178,395.375,273.413,395.856,273.497z"/>
			<path opacity="0.1091" fill="#E864A7" d="M396.647,277.133c34.681-0.102,69.365,0.174,104.046,0.022
				c-2.082-1.843-4.164-3.685-6.247-5.528c-1.523,1.55-2.067,4.092-2.705,6.087c-0.861,2.481-1.691,4.972-2.489,7.474
				c-1.385,4.38-2.371,8.682-3.143,13.211c-1.648,9.666-1.8,19.693-2.183,29.468c-0.468,11.925-0.526,23.873-0.655,35.805
				c-0.368,33.941-0.089,67.882-0.329,101.822c0.003,0.099,0.005,0.198,0.008,0.297c6.654,0.128,13.245-0.21,19.897,0.243
				c7.294,0.497,14.62,0.276,21.924,0.225c9.221-0.064,18.446,0.067,27.666-0.078c-2.087-1.817-4.174-3.633-6.261-5.45
				c-0.217,0.332-0.524,0.451-0.921,0.356c-1.437,0.086-2.869,1.024-4.089,1.652c-4.007,2.407-7.95,4.914-11.829,7.52
				c-3.695,2.44-4.579,3.552-7.652,6.657c-6.785,6.855-12.79,14.59-18.806,22.11c-7.262,9.078-14.232,18.397-21.249,27.664
				c-19.893,26.273-39.378,52.848-59.115,79.237c2.496-0.921,4.993-1.842,7.489-2.764c-0.103-2.611-0.447-5.277-0.992-7.83
				c-0.987-4.628-3.068-8.861-4.916-13.202c-3.612-8.484-8.791-16.199-13.757-23.924c-6.139-9.55-12.919-18.722-19.527-27.948
				c-13.388-18.69-27.073-37.168-40.694-55.688c-7.332-9.969-14.808-19.833-22.063-29.86c-0.523-0.723-0.493,1.538-0.492,1.35
				c0,0.857,0.026,1.713,0.078,2.568c-0.018,0.462,0.056,0.904,0.223,1.328c2.954,2.387,5.783,4.918,8.724,7.324
				c0.615,0.503,1.586,0.855,2.318,1.131c4.018,1.516,7.981,2.752,12.141,3.812c7.732,1.97,15.916,2.37,23.846,2.909
				c4.773,0.325,9.69,0.135,14.43,0.812c0.092,0.004,0.184,0.007,0.275,0.011c0.109-5.273,0.053-10.539,0.234-15.811
				c0.271-3.202,0.443-6.409,0.514-9.621c0.207-5.483,0.157-10.92,0.102-16.408c-0.232-23.214-0.083-46.441-0.103-69.657
				c-0.017-20.738,0.111-41.479-0.036-62.216c-0.076-10.698-0.077-21.404,0.029-32.102c0.009-0.881-1.357,0.843-1.278,0.75
				c-0.573,0.678-1.125,1.372-1.657,2.083c-0.322,0.352-0.561,0.751-0.718,1.195c-0.421,3.896-0.114,7.969-0.149,11.883
				c-0.116,12.899,0.118,25.79,0.091,38.689c-0.066,31.235,0.05,62.469,0.124,93.703c-0.058,1.996-0.116,3.992-0.174,5.988
				c0.026,4.071,0.053,8.141,0.081,12.212c0.032,1.957,0.064,3.914,0.096,5.871c0.302,3.354,0.14,6.684-0.486,9.988
				c-0.507,4.076-0.715,8.127-1.182,12.205c-0.219,1.686-0.577,3.341-1.073,4.964c-0.135,0.852-0.577,1.104-1.327,0.755
				c-1.541-0.173-2.133-0.173-3.835-0.189c-5.422-0.053-10.838-0.214-16.256-0.422c-8.696-0.333-17.256-1.18-25.76-3.078
				c0.984,0.452,1.967,0.904,2.951,1.356c-2.041-1.463-3.971-3.06-5.79-4.789c-2.661-2.372-4.278-5.518-5.943-8.595
				c-0.064,1.749-0.127,3.497-0.191,5.246c0.871,1.444,1.936,2.769,2.934,4.126c2.982,4.057,5.929,8.14,8.896,12.207
				c4.462,6.115,9.141,12.063,13.62,18.166c5.284,7.199,10.577,14.391,15.866,21.586c11.247,15.3,22.484,30.609,33.555,46.037
				c4.798,6.686,9.344,13.508,13.885,20.368c2.859,4.097,5.35,8.413,7.473,12.947c0.97,2.746,1.941,5.491,2.911,8.237
				c0.106,4.674-1.391,8.772-4.49,12.295c-0.621,0.88,2.311-0.331,2.036-0.23c1.191-0.441,2.372-0.907,3.544-1.397
				c0.636-0.214,1.228-0.512,1.774-0.895c1.202-1.207,2.148-2.649,3.168-4.01c3.021-4.033,6.086-8.032,9.118-12.057
				c4.543-6.031,8.796-12.265,13.322-18.31c6.769-9.04,13.513-18.098,20.264-27.152c11.255-15.093,22.518-30.181,33.885-45.19
				c4.724-6.238,9.786-12.231,14.683-18.335c2.874-3.828,6.254-7.165,10.14-10.011c2.911-2,3.418-2.025,5.387-3.976
				c-1.191,0.786-2.381,1.571-3.572,2.357c2.44-1.151,5.029-1.416,7.765-0.795c0.974,0.313,1.947,0.626,2.921,0.94
				c1.826-0.253,3.656-0.481,5.488-0.684c0.401-0.048-1.921-2.165-1.441-1.728c-0.953-0.864-1.923-1.709-2.91-2.533
				c-0.49-0.472-1.033-0.864-1.631-1.178c-2.608-0.432-5.36-0.162-7.993-0.154c-7.578,0.021-15.153-0.033-22.732,0.049
				c-1.456,0.019-2.911,0.039-4.366,0.058c-2.603,0.263-5.174,0.095-7.713-0.506c-1.085-0.177-2.171-0.354-3.256-0.532
				c-2.277,0.166-4.55,0.122-6.819-0.131c0.111,0.008-5.467-0.658-5.377-1.196c0.181-0.838,0.224-1.688,0.131-2.55
				c0.012-3.166,0.038-6.332,0.079-9.497c0.167-12.818-0.16-25.622-0.108-38.441c0.068-16.879,0.096-33.759,0.152-50.638
				c0.047-14.119,0.068-28.242,0.376-42.358c0.116-1.988,0.232-3.977,0.348-5.965c0.109-3.844,0.237-7.687,0.383-11.529
				c0.205-5.731,1.16-11.513,2.216-17.139c-0.656,1.729-1.311,3.457-1.967,5.186c1.031-2.689,2.767-4.866,5.207-6.531
				c1.78-0.938,3.672-1.509,5.676-1.713c0.4-0.081-1.884-2.163-1.435-1.747c-0.95-0.876-1.918-1.733-2.903-2.569
				c-0.488-0.478-1.031-0.877-1.629-1.198c-0.397-0.066-0.799-0.176-1.203-0.178c-3.573-0.011-7.144-0.021-10.717-0.065
				c-11.37-0.141-22.742-0.124-34.113-0.133c-12.445-0.01-24.891-0.003-37.335,0.138c-6.624,0.075-13.232-0.222-19.848-0.49
				c-0.045,0.318,0.058,0.599,0.308,0.842c0.627,0.859,1.284,1.695,1.969,2.509C394.228,274.796,395.688,277.136,396.647,277.133z"
				/>
			<path opacity="0.1091" fill="#E864A7" d="M398.864,275.25c17.264-0.452,34.549-0.25,51.818-0.25c17.417,0,34.833,0,52.25,0
				c-0.804-1-1.607-1.275-2.411-1.93c-2.958,2.171-5.744,4.332-8.469,6.813c-1.531,0.741-2.525,1.825-2.981,3.234
				c-1.087,4.495-1.99,8.991-2.822,13.54c-1.773,9.696-1.86,19.763-2.272,29.584c-0.499,11.904-0.581,23.832-0.722,35.745
				c-0.402,33.969-0.273,67.944-0.345,101.915c0.015,0.144,0.094,0.231,0.236,0.26c7.336,0.57,14.622,0.388,21.972,0.172
				c2.824,0.079,5.648,0.151,8.472,0.216c4.456,0.108,8.964-0.214,13.425-0.237c9.237-0.047,18.479-0.063,27.715-0.204
				c-0.769-0.647-1.539-1.295-2.308-1.942c-1.247,1.043-2.632,1.32-4.155,0.833c-1.704-0.154-5.526,0.259-7.035,0.38
				c-3.232,0.373-6.441,0.885-9.628,1.538c-0.074,0.033-0.148,0.066-0.222,0.099c-1.308,0.893-2.508,1.924-3.6,3.093
				c-4.97,4.339-9.48,9.246-13.833,14.191c-8.559,9.722-16.402,20.094-24.284,30.362c-22.977,29.934-45.268,60.396-67.802,90.663
				c0.962-0.021,1.924-0.042,2.885-0.063c1.475-5.134,2.741-10.202,3.744-15.457c-0.056-0.359-0.148-0.709-0.275-1.05
				c-1.505-4.484-3.17-8.665-5.186-12.942c-3.234-6.86-7.53-13.199-11.618-19.566c-6.129-9.545-12.893-18.716-19.491-27.938
				c-20.596-28.787-41.971-57-62.794-85.619c-0.519-0.713-0.584,1.49-0.576,1.365c-0.054,0.886-0.082,1.773-0.084,2.661
				c0.001,0.418-0.104,1.223,0.309,1.543c3.971,3.08,7.581,6.553,11.618,9.566c1.399,1.044,7.052,2.888,8.669,3.354
				c2.706,0.781,5.66,1.235,8.425,1.762c7.681,1.463,15.564,1.876,23.354,2.336c3.671,0.217,7.413,0.153,11.068,0.574
				c0.156-0.031,0.225-0.125,0.206-0.284c0.433-5.461,0.376-10.902,0.312-16.377c-0.104-8.946,0.021-17.879-0.145-26.827
				c-0.43-23.23-0.221-46.49-0.25-69.723c-0.039-31.472-0.198-62.949-0.026-94.421c0.005-0.897-1.329,0.951-1.22,0.807
				c-0.6,0.794-2.093,2.292-2.147,3.364c-0.204,4.049-0.069,8.13-0.101,12.184c-0.099,12.887,0.104,25.768,0.088,38.655
				c-0.022,16.887,0.003,33.775,0.052,50.662c0.047,16.311,0.491,32.641,0.257,48.948c-0.085,5.962,0.272,11.984,0.536,17.939
				c0.289,3.211,0.321,6.423,0.095,9.637c-0.244,3.271-0.146,6.536,0.294,9.793c0.128,1.75,1.036,13.693-0.484,13.612
				c-2.498-0.133-5.006-0.17-7.506-0.257c-9.908-0.346-19.695-1.054-29.498-2.54c-2.281-0.657-4.563-1.313-6.844-1.97
				c-2.586-0.886-4.912-2.227-6.977-4.024c-4.451-3.158-7.053-7.574-9.426-12.341c-0.174,1.805-0.348,3.61-0.521,5.415
				c3.735,5.661,8.001,11.037,12.005,16.51c4.466,6.105,9.123,12.062,13.601,18.158c5.283,7.192,10.575,14.378,15.864,21.566
				c11.222,15.252,22.437,30.509,33.503,45.874c4.753,6.599,9.286,13.315,13.792,20.084c4.068,6.113,7.575,12.502,10.357,19.299
				c-0.167-0.549-0.333-1.097-0.5-1.646c-0.173,2.805-0.581,5.576-1.224,8.311c-0.642,3.399-2.022,6.421-4.14,9.066
				c-0.423,0.623,2.475,0.586,2.823,0.118c13.935-18.766,27.862-37.539,41.825-56.284c11.28-15.144,22.578-30.277,34.063-45.267
				c9.737-12.708,19.832-25.07,31.251-36.314c-0.251,0.172-0.501,0.343-0.752,0.515c3.094-0.846,6.234-1.453,9.419-1.82
				c2.261-0.303,4.525-0.332,6.791-0.087c0.876,0.227,1.757,0.428,2.644,0.603c1.598-0.247,3.2-0.474,4.804-0.68
				c0.685-0.093-1.532-2.049-2.138-2.034c-4.983,0.123-9.971,0.126-14.954,0.198c-3.985,0.058-7.969,0.115-11.954,0.147
				c-5.67,0.045-11.302,0.503-16.97,0.281c-5.132-0.201-3.64-0.158-9.629,0.182c-0.723,0.041-14.216,0.987-14.214-0.673
				c0.007-7.072,0.009-14.143,0.014-21.215c0.025-31.673,0.034-63.347,0.399-95.019c0.174-15.058,0.549-30.103,1.601-45.127
				c0.232-1.678,0.465-3.356,0.697-5.033c0.494-5.133,2.033-9.982,4.614-14.548c1.571-1.641,3.312-3.074,5.224-4.297
				c1.692-1.053,3.528-1.692,5.51-1.906c0.741-0.164-1.678-2.065-2.24-2.065c-17.417,0-34.833,0-52.25,0
				c-17.115,0-34.294-0.474-51.391,0.357C396.398,273.389,398.256,275.266,398.864,275.25z"/>
			<path opacity="0.1091" fill="#E864A7" d="M396.84,277.145c17.35,0.059,34.699,0.05,52.049,0.047
				c17.357-0.003,34.727,0.229,52.083,0.03c-3.087-2.799-6.174-5.598-9.261-8.397c-0.285,0.972-0.248,2.133-0.318,3.134
				c-0.605,8.587-2.952,17.537-4.359,26.138c-0.907,5.544-1.15,11.191-1.515,16.787c-0.586,9.008-0.787,18.028-0.988,27.052
				c-0.722,32.381-0.709,64.81-0.56,97.198c0.039,8.4-0.053,16.802-0.069,25.202c0.004,0.473,0.008,0.945,0.012,1.418
				c2.356,0.161,4.711,0.15,7.066-0.035c2.567-0.266,5.141-0.396,7.722-0.39c2.828,0.295,5.664,0.488,8.506,0.58
				c10.028,0.5,20.097,0.277,30.139,0.308c5.119,0.016,10.244,0.099,15.364,0.012c-3.087-2.77-6.173-5.54-9.26-8.31
				c-0.292,0.032-0.463,0.218-0.514,0.558c-0.985,1.925-2.107,3.771-3.366,5.54c0.747-1.117,1.494-2.235,2.241-3.352
				c-4.511,4.62-9.415,8.751-14.712,12.393c-1.453,1.126-2.771,2.404-3.953,3.833c-5.35,5.348-10.041,11.377-14.873,17.183
				c-5.755,6.916-11.143,14.157-16.612,21.298c-7.303,9.536-14.496,19.157-21.7,28.768c-15.434,20.592-30.762,41.264-46.093,61.932
				c3.256-1.317,6.512-2.633,9.769-3.95c-0.475-1.477-1.019-2.941-1.548-4.4c-1.309-3.418-2.983-6.664-5.023-9.737
				c-2.385-4.405-4.567-8.904-6.945-13.313c-1.947-3.276-3.953-6.515-6.019-9.718c-3.41-5.398-7.003-10.656-10.64-15.902
				c-6.742-9.726-13.723-19.29-20.673-28.868c-17.948-24.735-36.248-49.208-54.32-73.852c-0.612-0.834-0.586,2.146-0.578,1.966
				c-0.055,1.269-0.085,2.539-0.087,3.809c0,0.311-0.158,1.844,0.307,2.201c1.053,0.81,2.155,1.527,3.179,2.388
				c0.3,0.509,0.723,0.849,1.27,1.02c0.992,0.314,1.994,0.592,3.006,0.835c9.256,2.319,18.543,4.332,28.005,5.562
				c8.254,1.073,16.595,1.214,24.89,1.767c0.467,0.013,0.931,0.058,1.391,0.133c0.076-2.467,0.002-4.93-0.22-7.388
				c-0.236-2.693-0.342-5.391-0.317-8.094c0.299-3.038,0.463-6.084,0.492-9.136c0.241-7.498,0.198-14.983,0.162-22.487
				c-0.042-8.868,0.106-17.735,0.094-26.603c-0.026-19.723-0.023-39.445-0.019-59.168c0.006-24.033,0.052-48.067-0.008-72.099
				c-0.001-0.388-2.37,2.058-1.873,1.533c-0.951,1.009-1.882,2.035-2.794,3.079c-0.516,0.518-0.955,1.091-1.316,1.722
				c-0.068,0.387-0.192,0.785-0.195,1.179c-0.027,3.647-0.054,7.293-0.114,10.939c-0.212,12.928,0.226,25.835,0.168,38.763
				c-0.075,16.878-0.081,33.756-0.093,50.634c-0.012,16.212,0.514,32.515-0.499,48.701c-0.01,2.08-0.019,4.161-0.029,6.241
				c-0.016,3.876-0.046,7.753-0.088,11.629c0.238,3.177-0.022,6.307-0.782,9.391c-0.735,2.173-0.869,4.374-0.402,6.602
				c0.176,1.947-0.378,4.061-0.949,5.904c-0.264,0.852-2.322,0.127-2.821,0.059c-0.745-0.004-1.491-0.008-2.236-0.012
				c-1.942-0.011-3.884-0.022-5.825-0.035c-4.936-0.031-9.884-0.29-14.817-0.454c-3.965-0.132-7.931-0.415-11.889-0.675
				c-1.42-0.277-2.845-0.382-4.273-0.316c-2.361,0.498-4.739,0.892-7.135,1.183c2.418,0.606,4.835,1.211,7.253,1.817
				c-2.981-1.752-5.481-4.055-7.498-6.909c-1.248-1.818-2.368-3.713-3.359-5.683c-0.176,2.586-0.353,5.172-0.529,7.758
				c0.486,0.926,0.954,1.529,1.609,2.428c3.426,4.705,6.8,9.447,10.227,14.151c5.673,7.784,11.692,15.308,17.386,23.08
				c5.424,7.404,10.866,14.796,16.303,22.191c11.198,15.23,22.406,30.453,33.469,45.781c2.371,3.304,4.633,6.68,6.786,10.13
				c2.177,3.153,4.341,6.316,6.49,9.488c1.784,2.865,3.541,5.747,5.269,8.646c1.855,2.005,3.639,4.072,5.35,6.201
				c-0.942-1.601-1.884-3.202-2.826-4.803c0.586,2.01,0.688,4.039,0.306,6.086c-0.33,0.987-0.659,1.975-0.989,2.962
				c-0.976,2.118-2.191,4.088-3.646,5.912c-0.169,0.241,3.552-1.102,2.805-0.801c1.554-0.63,3.097-1.284,4.63-1.963
				c0.823-0.311,1.601-0.707,2.333-1.187c0.721-0.693,1.114-1.221,1.768-2.089c2.665-3.538,5.354-7.057,8.05-10.572
				c5.463-7.121,10.43-14.579,15.817-21.757c5.359-7.14,10.693-14.299,16.031-21.455c11.37-15.244,22.719-30.505,34.123-45.724
				c4.982-6.648,10.273-13.021,15.355-19.587c2.109-2.878,4.375-5.627,6.797-8.246c3.249-3.355,6.89-6.179,10.922-8.474
				c0.384-0.144,0.648-0.393,0.791-0.748c-0.232-0.62-0.464-1.241-0.697-1.861c-1.806,1.561-3.612,3.122-5.419,4.683
				c2.378-1.172,4.795-1.382,7.249-0.63c0.981,0.33,1.961,0.66,2.942,0.99c1.836-0.3,3.682-0.532,5.535-0.696
				c0.357-0.039-2.9-3.101-2.239-2.49c-1.417-1.307-2.852-2.595-4.304-3.862c-0.727-0.7-1.513-1.323-2.357-1.87
				c-2.567-0.646-5.402-0.343-8.037-0.36c-6.11-0.04-12.216-0.223-18.327-0.227c-2.814-0.002-5.627-0.013-8.441-0.033
				c-1.382-0.014-2.764-0.027-4.146-0.041c-2.078-0.441-4.152-0.901-6.223-1.379c-1.508,0.423-3.038,0.544-4.591,0.365
				c-1.066-0.025-2.504-0.332-3.467-0.866c-0.009,0.122-0.018,0.243-0.027,0.365c0.22-1.165,0.232-1.929,0.242-3.191
				c0.034-4.451,0.101-8.9,0.177-13.351c0.125-7.276-0.076-14.518-0.308-21.789c0.028-4.273,0.051-8.545,0.07-12.818
				c0.034-7.01,0.05-14.02,0.069-21.03c0.053-19.571,0.069-39.143,0.139-58.714c0.03-8.399,0.473-16.759,0.637-25.151
				c-0.002-3.635,0.159-7.263,0.481-10.884c0.12-1.593,0.239-3.187,0.359-4.78c-0.138-2.831-0.227-5.663-0.265-8.497
				c-0.726,3.279-1.452,6.557-2.178,9.836c0.835-3.071,2.584-5.285,5.248-6.644c1.822-0.869,3.74-1.4,5.752-1.594
				c-0.113-0.45-0.37-0.817-0.77-1.101c-1.177-1.153-2.379-2.278-3.607-3.377c-1.214-1.114-2.451-2.201-3.713-3.26
				c-0.321-0.37-0.712-0.59-1.171-0.659c-1.045-0.238-1.528-0.22-2.756-0.228c-4.261-0.026-8.52-0.085-12.781-0.157
				c-11.92-0.202-23.851-0.124-35.773-0.112c-12.08,0.013-24.159,0.098-36.239,0.236c-5.033,0.057-10.139-0.49-15.17-0.746
				c0.045,0.452,0.243,0.842,0.594,1.169c0.985,1.269,1.998,2.514,3.04,3.737c1.026,1.236,2.08,2.447,3.161,3.635
				C396.052,276.762,396.402,277.023,396.84,277.145z"/>
			<path opacity="0.1091" fill="#E864A7" d="M395.74,274.319c17.355,0.113,34.708,0.095,52.063,0.091
				c17.357-0.004,34.736,0.299,52.091,0.033c-3.647-2.928-7.295-5.855-10.942-8.783c0.525,4.261,1.05,8.523,1.575,12.784
				c-0.041-2.792-0.083-5.583-0.124-8.375c-0.758,8.336-1.838,16.717-3.005,25.021c-0.805,5.73-1.086,11.544-1.457,17.313
				c-1.044,16.221-1.11,32.496-1.284,48.744c-0.303,28.385-0.202,56.769-0.266,85.155c-0.012,5.458-0.117,10.922-0.035,16.38
				c0.002,0.122,0.003,0.244,0.005,0.366c2.278,0.219,4.555,0.199,6.83-0.059c2.485-0.297,4.977-0.516,7.475-0.659
				c2.668,0.114,5.335,0.259,8,0.435c9.86,0.594,19.734,0.546,29.611,0.619c5.113,0.038,10.238,0.161,15.351,0.048
				c-3.632-2.912-7.265-5.824-10.897-8.736c-2.056,3.691-4.111,7.382-6.167,11.073c0.076-0.104,0.153-0.207,0.229-0.311
				c-2.564,1.838-5.032,3.797-7.403,5.88c-2.499,2.431-4.932,4.928-7.296,7.491c-5.51,5.799-10.462,12.271-15.476,18.494
				c-11.847,14.703-23.032,29.97-34.359,45.073c-10.282,13.708-20.552,27.425-30.679,41.248
				c-5.093,6.951-10.414,13.738-15.438,20.738c4.63-1.209,9.26-2.418,13.89-3.628c-2.45-2.896-4.901-5.793-7.351-8.689
				c1.534,2.095,3.067,4.191,4.6,6.286c-4.878-6.296-9.118-12.973-12.719-20.031c-1.86-3.271-3.781-6.505-5.763-9.703
				c-4.368-7.206-9.105-14.18-13.891-21.111c-10.824-15.678-22.163-31.009-33.411-46.383c-9.715-13.279-19.548-26.469-29.303-39.718
				c-4.12-5.596-8.156-11.264-12.372-16.789c-0.168-0.221-0.502,4.775-0.462,3.794c-0.087,2.202-0.147,4.404-0.182,6.608
				c-0.067,1.149-0.038,2.295,0.088,3.437c0.354,1.24,0.609,1.735,0.028,2.985c0.114,0.03,0.228,0.06,0.342,0.089
				c5.825-0.71,11.651-1.42,17.476-2.13c2.811,0.434,5.634,0.764,8.469,0.991c4.297,0.425,8.573,1.051,12.875,1.458
				c6.957,0.658,13.935,0.838,20.904,1.279c2.294,0.145,1.366,0.655,1.589-3.057c0.224-3.722-0.5-7.697-0.718-11.413
				c0.08-1.504,0.159-3.009,0.239-4.513c0.131-3.104,0.301-6.206,0.509-9.307c0.032-3.755,0.084-7.511,0.155-11.266
				c0.01-4.151,0.031-8.302,0.063-12.452c0.198-31.254,0.184-62.509,0.204-93.765c0.009-13.737-0.065-27.473-0.046-41.21
				c0.008-5.569,0.107-11.143,0.018-16.712c-0.482,0.189-0.864,0.515-1.149,0.977c-1.198,1.421-2.368,2.865-3.51,4.332
				c-1.158,1.454-2.286,2.931-3.385,4.43c-0.382,0.385-0.609,0.833-0.68,1.346c-0.22,1.054-0.222,1.651-0.234,2.841
				c-0.032,3.047-0.07,6.094-0.13,9.141c-0.092,4.649-0.112,9.296-0.139,13.946c0.143,4.003,0.287,8.006,0.43,12.009
				c-0.033,4.259-0.06,8.517-0.081,12.776c-0.095,16.865-0.113,33.73-0.145,50.596c-0.031,16.139,0.477,32.371-0.795,48.469
				c-0.033,2.044-0.066,4.089-0.099,6.133c0.012,3.695-0.129,7.385-0.423,11.068c0.25,2.781-0.206,5.42-1.37,7.916
				c-1.3,1.677-1.301,3.308-0.003,4.891c0.538,1.219,0.397,2.893,0.293,4.194c-0.017,0.215-2.697-0.227-2.691-0.226
				c-2.616-0.316-5.518,0.054-8.148,0.04c-5.056-0.026-10.122-0.309-15.176-0.309c-1.444,0-2.887,0-4.331,0
				c-3.109,0-6.153-0.064-9.132,0.911c-1.547,0.292-3.09,0.559-4.631,0.881c-2.053,1.867-4.154,3.659-6.302,5.416
				c3.681-0.933,7.362-1.876,11.043-2.808c-2.112-0.994-3.85-2.439-5.213-4.326c-0.66-0.979-1.32-1.961-1.98-2.94
				c-1.28-2.124-2.471-4.297-3.573-6.518c-0.13,4.739-0.26,9.477-0.391,14.215c0.723,1.572,1.852,2.899,2.864,4.298
				c2.947,4.076,5.833,8.193,8.803,12.253c4.491,6.138,9.372,11.956,13.854,18.103c6.664,9.139,13.377,18.241,20.086,27.346
				c11.25,15.269,22.566,30.491,33.804,45.769c2.42,3.346,4.738,6.76,6.956,10.242c2.317,3.144,4.627,6.293,6.93,9.448
				c2.202,2.653,4.381,5.326,6.536,8.018c0.082,0.094,0.164,0.187,0.247,0.281c2.693,1.55,5.35,3.158,7.972,4.826
				c-2.339-3.146-4.679-6.292-7.018-9.438c0.598,1.983,0.649,3.977,0.154,5.982c-0.355,0.939-0.709,1.878-1.064,2.818
				c-0.981,1.963-2.119,3.831-3.413,5.604c0.507,0.138,1.018,0.108,1.531-0.092c1.845-0.417,3.682-0.869,5.509-1.357
				c1.833-0.468,3.656-0.971,5.469-1.51c0.545-0.077,1.005-0.3,1.38-0.669c0.785-0.693,1.122-1.147,1.826-2.074
				c2.6-3.426,5.224-6.832,7.856-10.233c4.348-5.617,8.343-11.454,12.355-17.312c2.494-3.308,4.982-6.62,7.466-9.936
				c2.683-3.582,5.363-7.166,8.039-10.753c11.421-15.292,22.788-30.624,34.153-45.957c5.156-6.956,10.304-13.859,15.856-20.506
				c2.321-3.107,4.647-6.211,6.979-9.311c2.143-2.554,4.296-5.098,6.461-7.632c-0.083,0.095-0.165,0.189-0.248,0.284
				c2.408-2.402,4.843-4.777,7.304-7.124c0.076-0.104,0.153-0.207,0.229-0.311c-1.482-0.774-2.676-1.853-3.582-3.236
				c-1.312,2.207-2.625,4.415-3.937,6.622c1.672-0.275,3.331-0.2,4.976,0.225c0.934,0.276,1.868,0.552,2.802,0.828
				c1.677-0.353,3.364-0.651,5.061-0.895c0.334-0.054-3.449-3.241-2.692-2.617c-1.672-1.374-3.36-2.728-5.065-4.061
				c-0.86-0.735-1.775-1.39-2.744-1.967c-0.217-0.052-0.434-0.104-0.651-0.156c0.131,0.032,0.262,0.063,0.393,0.095
				c-1.693-0.411-3.377-0.315-5.119-0.348c-3.086-0.058-6.168-0.171-9.253-0.281c-3.886-0.138-7.775-0.221-11.662-0.336
				c-2.655,0.016-5.296-0.167-7.923-0.55c-2.183,0.138-4.191-0.355-6.024-1.478c-0.712-0.335-1.424-0.671-2.136-1.006
				c-0.999,0.76-2.119,1.199-3.36,1.317c-0.209,0.046-1.63,0.072-2.029-0.071c0.248,0.088,0.245-3.695,0.236-2.844
				c0.046-4.435,0.123-8.867,0.21-13.301c0.103-5.231,0.034-10.443-0.154-15.671c-0.228-6.352-0.18-12.67-0.147-19.026
				c0.089-16.908,0.093-33.816,0.099-50.724c0.005-14.224-0.187-28.457,0.123-42.678c0.105-2.029,0.21-4.059,0.315-6.088
				c-0.002-3.97,0.002-7.941,0.01-11.911c-0.047-3.508-0.082-7.016-0.105-10.524c-0.779-2.91-1.517-5.83-2.212-8.761
				c-0.684,3.945-1.369,7.889-2.053,11.834c0.75-2.876,2.374-4.935,4.871-6.177c1.702-0.799,3.481-1.352,5.337-1.66
				c-0.183-0.482-0.503-0.866-0.96-1.153c-1.401-1.206-2.826-2.383-4.275-3.533c-1.435-1.165-2.893-2.302-4.374-3.409
				c-0.379-0.384-0.824-0.614-1.333-0.688c-1.054-0.216-1.66-0.218-2.847-0.227c-4.266-0.034-8.53-0.098-12.795-0.174
				c-11.925-0.213-23.862-0.133-35.788-0.118c-12.066,0.015-24.13,0.132-36.195,0.236c-3.276,0.028-6.631-0.383-9.906-0.556
				c-1.792-0.095-3.583-0.189-5.375-0.284c0.121,0.492,0.388,0.904,0.804,1.235c1.232,1.333,2.49,2.64,3.775,3.922
				c1.27,1.296,2.566,2.566,3.887,3.81C394.84,273.922,395.249,274.194,395.74,274.319z"/>
			<path opacity="0.1091" fill="#E864A7" d="M397.25,276.309c17.349,0.062,34.697,0.051,52.047,0.048
				c17.357-0.003,34.721,0.188,52.077,0.035c-2.999-2.431-5.999-4.862-8.998-7.293c-0.404,0.983-0.434,2.208-0.579,3.249
				c-1.409,10.084-3.709,19.978-5.006,30.076c-0.754,5.869-0.867,11.89-1.215,17.792c-0.542,9.201-0.561,18.451-0.714,27.665
				c-0.529,31.822-0.345,63.649-0.436,95.472c-0.02,7.023-0.09,14.047-0.054,21.07c0,0.119,0.001,0.238,0.001,0.357
				c2.297,0.204,4.596,0.228,6.897,0.07c2.567-0.169,5.137-0.224,7.71-0.165c2.86,0.319,5.728,0.494,8.605,0.526
				c10.046,0.356,20.115,0.165,30.168,0.185c5.118,0.01,10.241,0.084,15.359,0.005c-2.995-2.401-5.991-4.803-8.986-7.204
				c0.036,0.26-0.076,0.311-0.338,0.155c-0.35,0.313-0.648,0.673-0.894,1.079c-4.753,4.857-9.935,9.172-15.544,12.947
				c-2.599,1.849-5.259,5.237-7.416,7.535c-5.43,5.785-10.336,12.191-15.293,18.377c-7.275,9.079-14.234,18.423-21.254,27.699
				c-19.888,26.282-39.399,52.846-59.119,79.253c2.928-1.049,5.856-2.099,8.783-3.148c-0.303-1.717-0.939-3.446-1.536-5.081
				c-2.348-6.433-5.584-12.524-8.585-18.67c-4.233-8.671-9.937-16.744-15.297-24.739c-5.195-7.749-10.712-15.29-16.145-22.873
				c-20.608-28.768-41.72-57.189-62.812-85.603c-0.252,0.231-0.366,0.531-0.341,0.901c-0.117,1.146-0.197,2.294-0.24,3.445
				c-0.026,0.549-0.568,3.859,0.173,4.381c0.818,0.577,1.672,1.093,2.496,1.667c0.705,0.497,1.37,1.043,1.995,1.637
				c0.553,0.265,1.137,0.439,1.749,0.522c6.964,1.496,13.91,3.12,20.895,4.505c5.449,1.08,11.079,1.428,16.604,1.897
				c5.955,0.505,11.934,0.6,17.891,1.054c1.38,0.319,1.522-0.815,0.428-3.401c-0.116-2.563-0.242-5.126-0.377-7.689
				c-0.132-2.924-0.016-5.84,0.347-8.745c0.077-3.27,0.188-6.539,0.334-9.807c0.227-5.791-0.082-11.677-0.092-17.474
				c-0.015-8.887,0.111-17.772,0.099-26.66c-0.028-19.725-0.023-39.45-0.02-59.175c0.004-24.039,0.097-48.081-0.011-72.119
				c-0.002-0.377-2.462,2.242-1.949,1.68c-0.993,1.092-1.966,2.201-2.919,3.328c-0.538,0.56-0.997,1.177-1.379,1.848
				c-0.073,0.396-0.208,0.806-0.211,1.21c-0.026,3.65-0.052,7.3-0.112,10.95c-0.211,12.922,0.224,25.822,0.169,38.744
				c-0.073,16.877-0.076,33.755-0.08,50.633c-0.002,7.365,0.003,14.729,0.009,22.094c0.007,8.887,0.1,17.74-0.435,26.614
				c-0.005,2.079-0.01,4.157-0.015,6.236c-0.027,3.873-0.027,7.747-0.002,11.62c0.256,3.211,0.048,6.389-0.623,9.532
				c-0.647,2.253-0.763,4.526-0.348,6.82c0.16,2.035-0.399,4.221-0.965,6.158c-0.284,0.972-2.21,0.238-2.855,0.154
				c-0.744-0.005-1.489-0.011-2.233-0.016c-1.94-0.014-3.879-0.029-5.819-0.045c-4.94-0.04-9.889-0.305-14.826-0.482
				c-3.947-0.142-7.889-0.484-11.821-0.836c-1.401-0.44-2.8-0.564-4.196-0.372c-2.38,0.375-4.77,0.668-7.17,0.879
				c2.334,0.449,4.668,0.899,7.003,1.348c-2.037-1.127-3.859-2.527-5.467-4.202c-2.232-2.6-4.073-5.466-5.52-8.596
				c-0.246,2.751-0.492,5.502-0.737,8.254c0.486,0.956,0.919,1.53,1.597,2.46c2.536,3.48,5.047,6.977,7.551,10.48
				c4.131,5.778,8.486,11.352,12.882,16.93c2.444,3.348,4.891,6.693,7.342,10.035c4.022,5.49,8.055,10.972,12.087,16.455
				c11.216,15.255,22.457,30.492,33.6,45.801c4.862,6.679,9.352,13.574,14.039,20.371c2.099,2.902,4.04,5.906,5.824,9.011
				c0.812,1.365,1.624,2.731,2.435,4.096c1.707,2.094,3.352,4.236,4.936,6.425c-0.758-1.703-1.517-3.405-2.275-5.108
				c0.501,2.068,0.6,4.151,0.299,6.248c-0.182,3.101-2.676,6.245-4.326,8.672c-0.195,0.287,3.247-0.835,2.523-0.576
				c1.397-0.502,2.785-1.029,4.163-1.581c0.742-0.245,1.441-0.575,2.097-0.991c0.708-0.687,1.094-1.211,1.741-2.07
				c2.595-3.449,5.212-6.88,7.838-10.306c5.529-7.216,10.583-14.753,16.038-22.024c5.356-7.139,10.689-14.295,16.025-21.449
				c11.369-15.24,22.719-30.493,34.135-45.697c4.975-6.627,10.259-12.977,15.344-19.513c2.117-2.863,4.382-5.604,6.794-8.222
				c3.341-3.422,7.086-6.29,11.234-8.606c0.353-0.119,0.59-0.341,0.708-0.665c-0.137-0.593-0.273-1.185-0.41-1.778
				c-1.625,1.279-3.251,2.558-4.876,3.837c2.352-1.242,4.76-1.497,7.222-0.764c0.974,0.32,1.949,0.64,2.923,0.959
				c1.832-0.269,3.671-0.486,5.515-0.65c0.357-0.038-2.844-2.756-2.181-2.207c-1.376-1.137-2.768-2.253-4.177-3.348
				c-0.707-0.612-1.469-1.144-2.283-1.597c-2.609-0.565-5.393-0.281-8.049-0.291c-8.948-0.035-17.888-0.178-26.838-0.122
				c-1.393,0.003-2.786,0.007-4.178,0.01c-2.171-0.384-4.339-0.786-6.504-1.206c-1.633,0.356-3.279,0.432-4.936,0.229
				c-1.119-0.114-2.213-0.342-3.281-0.686c-0.811-0.223-0.326-0.587-0.321-1.236c0.026-3.671,0.052-7.342,0.111-11.013
				c0.075-4.66,0.106-9.32,0.141-13.981c0.046-6.073-0.358-12.147-0.323-18.226c0.096-16.59,0.114-33.181,0.153-49.771
				c0.038-16.542-0.048-33.093,0.338-49.63c0.116-2.009,0.233-4.017,0.35-6.026c0.086-3.893,0.185-7.786,0.298-11.679
				c0.245-3.334,0.517-6.666,0.816-9.995c-0.044-2.824-0.036-5.647,0.026-8.471c-0.618,2.804-1.237,5.607-1.855,8.411
				c0.59-1.938,1.575-3.637,2.956-5.097c1.71-2.198,5.546-2.625,8.001-3.078c0.368-0.068-2.831-2.772-2.183-2.229
				c-1.378-1.15-2.772-2.28-4.183-3.39c-0.708-0.619-1.471-1.159-2.287-1.619c-0.425-0.085-0.881-0.258-1.314-0.26
				c-3.568-0.019-7.135-0.037-10.702-0.095c-11.366-0.183-22.735-0.164-34.103-0.175c-12.45-0.012-24.899,0.039-37.348,0.182
				c-6.587,0.076-13.157-0.339-19.735-0.658c0.049,0.42,0.247,0.774,0.594,1.06c0.972,1.118,1.971,2.211,2.998,3.28
				c1.011,1.083,2.049,2.14,3.113,3.171C396.491,276.021,396.833,276.238,397.25,276.309z"/>
			<path opacity="0.1091" fill="#E864A7" d="M398.345,280.168c17.36-0.29,34.729-0.168,52.091-0.168c17.417,0,34.833,0,52.25,0
				c-0.701-1-1.402-1.856-2.104-2.801c-3.248,1.986-6.099,4.292-8.922,6.86c-1.089,0.86-2.035,1.85-2.84,2.953
				c-1.102,4.817-2.094,9.629-2.985,14.489c-1.393,7.597-1.602,15.423-2.006,23.122c-0.609,11.625-0.739,23.279-0.915,34.917
				c-0.55,36.438-0.354,72.886-0.436,109.327c0.025,0.163,0.118,0.233,0.281,0.21c7.302,0.457,14.612,0.245,21.924,0.183
				c2.819,0.036,5.639,0.084,8.457,0.146c4.48,0.088,8.993-0.166,13.476-0.182c9.283-0.032,18.569-0.013,27.852-0.121
				c-0.672-0.933-1.345-1.866-2.017-2.799c-2.632,0.781-5.313,1.107-8.042,0.978c-2.898,0.195-5.774,0.568-8.627,1.118
				c-1.799,0.366-3.589,0.773-5.368,1.223c-3.25,3.157-6.41,6.394-9.684,9.526c-6.971,6.669-12.875,14.508-18.901,22.011
				c-7.27,9.051-14.246,18.344-21.261,27.593c-19.937,26.287-39.494,52.861-59.198,79.323c0.677-0.081,1.353-0.161,2.03-0.242
				c0.39-1.887,0.953-3.723,1.689-5.507c0.893-2.693,1.578-5.438,2.055-8.236c0.808-1.674,0.993-3.305,0.555-4.891
				c-1.562-3.962-3.463-7.734-5.205-11.621c-3.963-8.839-9.794-16.856-15.146-24.883c-6.438-9.657-13.297-19.047-20.074-28.467
				c-19.285-26.805-39.041-53.27-58.63-79.852c-0.361-0.49-1.022,0.16-0.726,0.57c2.198,3.047,4.293,6.042,6.699,8.935
				c0.526,0.633,6.599,7.449,7.105,7.615c5.057,1.661,10.281,3.42,15.544,4.252c7.737,1.223,15.473,1.964,23.287,2.473
				c3.69,0.24,7.479,0.15,11.148,0.639c0.166,0.021,0.258-0.051,0.275-0.218c0.965-14.684,0.378-29.497,0.254-44.202
				c-0.196-23.289-0.151-46.583-0.171-69.873c-0.027-31.509-0.022-63.017-0.025-94.526c0-0.695-1.19-0.058-1.19,0.403
				c0.006,50.567-0.074,101.135,0.201,151.702c0.06,11.103,0.275,22.207,0.21,33.311c-0.031,5.227-0.034,10.385-0.345,15.605
				c0.075,1.829-0.366,3.499-1.323,5.009c-0.901-0.035-1.803-0.068-2.704-0.098c-7.605-0.267-15.192-0.569-22.784-1.111
				c-5.22-0.372-10.359-1.237-15.451-2.416c-5.586-1.521-10.038-4.505-13.356-8.952c-2.551-2.788-4.767-5.828-6.647-9.118
				c-0.242,0.19-0.484,0.38-0.726,0.57c16.731,22.689,33.509,45.344,50.137,68.11c12.165,16.655,24.187,33.399,35.594,50.585
				c2.009,3.156,3.961,6.346,5.854,9.573c2.409,4.024,4.06,8.621,6.143,12.826c1.243,4.226,1.183,8.371-0.179,12.435
				c-0.37,1.265-0.74,2.53-1.11,3.796c-0.654,2.191-1.692,4.185-3.112,5.982c-0.361,0.563,1.788,0.084,2.03-0.242
				c19.684-26.47,39.308-52.984,59.148-79.338c6.977-9.268,14.029-18.477,21.163-27.624c5.927-7.598,11.948-15.16,18.667-22.074
				c2.737-2.673,5.454-5.365,8.153-8.077c1.535-0.419,3.07-0.838,4.604-1.257c2.698-0.65,5.434-1.013,8.206-1.09
				c2.027-0.088,3.967,0.275,5.82,1.09c0.496,0.157,5.162-0.512,5.434-0.54c0.783-0.082-1.213-2.853-1.822-2.836
				c-13.425,0.368-26.849,0.145-40.271,0.73c-1.393-0.055-2.787-0.111-4.18-0.166c-3.136-0.267-6.27-0.211-9.401,0.169
				c-3.057,0.041-6.114,0.082-9.171,0.122c-1.768,0.15-3.431-0.165-4.988-0.946c0.008-7.072,0.009-14.143,0.014-21.214
				c0.023-29.233,0.049-58.466,0.31-87.698c0.139-15.601,0.345-31.221,1.281-46.799c0.308-5.134,1.001-10.117,1.811-15.19
				c0.693-6.133,3.636-10.611,8.829-13.434c1.806-1.008,3.741-1.694,5.804-1.865c0.803-0.154-1.305-2.971-1.908-2.971
				c-17.417,0-34.833,0-52.25,0c-17.291,0-34.611-0.232-51.893,0.329C395.876,277.354,397.726,280.179,398.345,280.168z"/>
		</g>
	</g>
</g>
</svg>
