<svg version="1.1" id="Layer_1" xmlns="http://www.w3.org/2000/svg" xmlns:xlink="http://www.w3.org/1999/xlink" x="0px" y="0px"
	 width="304.43px" height="62.12px" viewBox="0 0 304.43 62.12" enable-background="new 0 0 304.43 62.12" xml:space="preserve">
<g>
	<path fill="#D25593" d="M31.512,11.065c-1.56-1.68-3.07-2.799-4.53-3.36c-1.461-0.56-2.931-0.84-4.41-0.84
		c-2.2,0-4.19,0.39-5.97,1.17c-1.781,0.78-3.311,1.86-4.59,3.24c-1.281,1.38-2.271,2.991-2.97,4.83c-0.701,1.84-1.05,3.82-1.05,5.94
		c0,2.28,0.35,4.38,1.05,6.3c0.699,1.92,1.689,3.581,2.97,4.98c1.28,1.4,2.81,2.5,4.59,3.3c1.779,0.801,3.77,1.2,5.97,1.2
		c1.719,0,3.39-0.41,5.01-1.23c1.62-0.819,3.129-2.13,4.53-3.93l6.24,4.44c-1.92,2.64-4.26,4.56-7.02,5.76
		c-2.76,1.2-5.7,1.8-8.82,1.8c-3.28,0-6.291-0.531-9.03-1.59c-2.74-1.06-5.1-2.56-7.08-4.5c-1.98-1.94-3.531-4.27-4.65-6.99
		c-1.121-2.72-1.68-5.739-1.68-9.06c0-3.399,0.56-6.489,1.68-9.27c1.119-2.78,2.67-5.149,4.65-7.11c1.98-1.959,4.34-3.47,7.08-4.53
		c2.739-1.059,5.75-1.59,9.03-1.59c2.88,0,5.55,0.51,8.01,1.53s4.749,2.75,6.87,5.19L31.512,11.065z"/>
	<path fill="#D25593" d="M69.072,43.585h-6.84v-4.62h-0.12c-0.681,1.44-1.72,2.691-3.12,3.75c-1.4,1.06-3.3,1.59-5.7,1.59
		c-1.92,0-3.55-0.311-4.89-0.93c-1.34-0.62-2.43-1.46-3.27-2.52c-0.84-1.06-1.44-2.27-1.8-3.63c-0.36-1.359-0.54-2.78-0.54-4.26
		v-18.18h7.2v14.58c0,0.801,0.04,1.69,0.12,2.67c0.08,0.98,0.29,1.9,0.63,2.76c0.339,0.861,0.86,1.581,1.56,2.16
		c0.7,0.58,1.689,0.87,2.97,0.87c1.2,0,2.209-0.2,3.03-0.6c0.819-0.399,1.5-0.939,2.04-1.62c0.54-0.68,0.93-1.459,1.17-2.34
		c0.24-0.879,0.36-1.8,0.36-2.76v-15.72h7.2V43.585z"/>
	<path fill="#D25593" d="M73.872,20.905v-6.12h5.94v-8.34h7.2v8.34h7.92v6.12h-7.92v12.6c0,1.44,0.27,2.58,0.81,3.42
		c0.54,0.84,1.61,1.26,3.21,1.26c0.64,0,1.34-0.069,2.1-0.21c0.759-0.14,1.359-0.37,1.8-0.69v6.06c-0.76,0.36-1.69,0.609-2.79,0.75
		c-1.101,0.14-2.07,0.21-2.91,0.21c-1.92,0-3.49-0.21-4.71-0.63c-1.221-0.42-2.181-1.059-2.88-1.92
		c-0.701-0.859-1.181-1.929-1.44-3.21c-0.26-1.28-0.39-2.76-0.39-4.44v-13.2H73.872z"/>
	<path fill="#D25593" d="M97.271,20.905v-6.12h5.94v-8.34h7.2v8.34h7.92v6.12h-7.92v12.6c0,1.44,0.27,2.58,0.81,3.42
		c0.54,0.84,1.61,1.26,3.21,1.26c0.64,0,1.34-0.069,2.1-0.21c0.759-0.14,1.359-0.37,1.8-0.69v6.06c-0.76,0.36-1.69,0.609-2.79,0.75
		c-1.101,0.14-2.07,0.21-2.91,0.21c-1.92,0-3.49-0.21-4.71-0.63c-1.221-0.42-2.181-1.059-2.88-1.92
		c-0.701-0.859-1.181-1.929-1.44-3.21c-0.26-1.28-0.39-2.76-0.39-4.44v-13.2H97.271z"/>
	<path fill="#D25593" d="M141.97,39.625h-0.18c-1.041,1.641-2.36,2.83-3.96,3.57c-1.6,0.74-3.36,1.11-5.28,1.11
		c-1.32,0-2.61-0.18-3.87-0.54c-1.26-0.36-2.38-0.9-3.36-1.62c-0.981-0.72-1.77-1.62-2.37-2.7s-0.9-2.34-0.9-3.78
		c0-1.56,0.279-2.89,0.84-3.99c0.56-1.1,1.31-2.019,2.25-2.76c0.939-0.74,2.03-1.33,3.27-1.77c1.239-0.44,2.529-0.77,3.87-0.99
		c1.339-0.219,2.689-0.36,4.05-0.42c1.359-0.06,2.64-0.09,3.84-0.09h1.8v-0.78c0-1.8-0.621-3.15-1.86-4.05
		c-1.241-0.9-2.82-1.35-4.74-1.35c-1.521,0-2.94,0.27-4.26,0.81c-1.32,0.54-2.46,1.271-3.42,2.19l-3.78-3.78
		c1.599-1.64,3.47-2.82,5.61-3.54c2.14-0.72,4.35-1.08,6.63-1.08c2.04,0,3.76,0.23,5.16,0.69c1.4,0.46,2.56,1.05,3.48,1.77
		c0.92,0.72,1.629,1.551,2.13,2.49c0.5,0.94,0.86,1.89,1.08,2.85c0.22,0.96,0.35,1.89,0.39,2.79c0.04,0.9,0.06,1.69,0.06,2.37v16.56
		h-6.48V39.625z M141.55,30.686h-1.5c-1,0-2.121,0.04-3.36,0.12c-1.24,0.081-2.41,0.27-3.51,0.57c-1.101,0.3-2.031,0.741-2.79,1.32
		c-0.76,0.581-1.14,1.391-1.14,2.43c0,0.681,0.15,1.25,0.45,1.71c0.3,0.46,0.69,0.85,1.17,1.17c0.48,0.321,1.02,0.55,1.62,0.69
		c0.6,0.141,1.2,0.21,1.8,0.21c2.48,0,4.31-0.589,5.49-1.77c1.179-1.179,1.77-2.79,1.77-4.83V30.686z"/>
	<path fill="#D25593" d="M185.829,14.786v26.22c0,2.6-0.32,4.95-0.959,7.05c-0.641,2.1-1.631,3.879-2.971,5.34
		c-1.34,1.459-3.029,2.589-5.069,3.39c-2.04,0.799-4.461,1.2-7.26,1.2c-2.68,0-5.22-0.34-7.62-1.02c-2.4-0.681-4.62-1.92-6.66-3.72
		l4.32-5.88c1.44,1.32,2.94,2.34,4.5,3.06c1.56,0.72,3.36,1.08,5.4,1.08c1.719,0,3.17-0.24,4.35-0.72
		c1.179-0.48,2.12-1.14,2.82-1.98c0.7-0.84,1.2-1.851,1.5-3.03c0.3-1.18,0.45-2.49,0.45-3.93v-2.1h-0.12
		c-1.041,1.4-2.42,2.451-4.14,3.15c-1.72,0.699-3.48,1.05-5.28,1.05c-2.16,0-4.12-0.39-5.88-1.17c-1.761-0.78-3.27-1.83-4.53-3.15
		c-1.26-1.32-2.23-2.88-2.91-4.68c-0.681-1.8-1.02-3.72-1.02-5.76c0-2.12,0.319-4.1,0.96-5.94c0.639-1.839,1.58-3.44,2.82-4.8
		c1.239-1.359,2.73-2.43,4.47-3.21c1.74-0.78,3.729-1.17,5.97-1.17c2.04,0,3.939,0.4,5.7,1.2c1.76,0.8,3.159,2.08,4.2,3.84h0.119
		v-4.32H185.829z M170.469,20.545c-1.28,0-2.44,0.21-3.48,0.63c-1.041,0.42-1.93,1-2.67,1.74c-0.741,0.741-1.32,1.641-1.74,2.7
		c-0.42,1.061-0.63,2.23-0.63,3.51c0,1.161,0.21,2.241,0.63,3.24c0.42,1,1.009,1.881,1.77,2.64c0.759,0.76,1.659,1.36,2.7,1.8
		c1.04,0.44,2.16,0.66,3.36,0.66c1.32,0,2.51-0.219,3.57-0.66c1.059-0.44,1.959-1.03,2.7-1.77c0.74-0.74,1.31-1.629,1.71-2.67
		c0.399-1.04,0.6-2.16,0.6-3.36c0-2.52-0.76-4.56-2.279-6.12C175.189,21.326,173.109,20.545,170.469,20.545z"/>
	<path fill="#D25593" d="M199.749,31.706c0.24,2.16,1.08,3.84,2.521,5.04c1.439,1.2,3.18,1.8,5.22,1.8c1.8,0,3.31-0.369,4.53-1.11
		c1.22-0.74,2.289-1.67,3.21-2.79l5.16,3.9c-1.681,2.081-3.562,3.561-5.641,4.44c-2.08,0.879-4.26,1.32-6.54,1.32
		c-2.16,0-4.2-0.36-6.12-1.08c-1.92-0.72-3.58-1.74-4.979-3.06c-1.4-1.32-2.511-2.91-3.33-4.77c-0.82-1.86-1.23-3.93-1.23-6.21
		c0-2.28,0.41-4.35,1.23-6.21c0.819-1.86,1.93-3.45,3.33-4.77c1.399-1.32,3.06-2.34,4.979-3.06c1.92-0.72,3.96-1.08,6.12-1.08
		c2,0,3.83,0.351,5.49,1.05c1.659,0.701,3.08,1.71,4.26,3.03s2.101,2.95,2.76,4.89c0.66,1.94,0.99,4.17,0.99,6.69v1.98H199.749z
		 M214.508,26.306c-0.04-2.12-0.7-3.79-1.979-5.01c-1.28-1.22-3.061-1.83-5.34-1.83c-2.16,0-3.87,0.621-5.13,1.86
		c-1.261,1.24-2.031,2.9-2.311,4.98H214.508z"/>
</g>
<g>
	<path fill="#D25593" d="M261.178,32.306l-5.7-24.599h-0.96l-5.699,24.599l-1.32,4.68l-1.74,6.6h-4.74l10.86-40.918h6.239
		l10.919,40.918h-4.74l-1.799-6.6L261.178,32.306z"/>
	<path fill="#D25593" d="M278.158,10.827v32.759h-4.68V2.667h5.1l10.439,17.339c2.939-4.86,7.32-12.239,10.381-17.339h5.1v40.918
		h-4.68V10.827c-4.5,7.8-7.801,13.379-10.801,18.719L278.158,10.827"/>
</g>
<g>
	<defs>
		<rect id="SVGID_1_" x="237.199" y="23.962" width="54" height="38.18"/>
	</defs>
	<clipPath id="SVGID_2_">
		<use xlink:href="#SVGID_1_"  overflow="visible"/>
	</clipPath>
	<g clip-path="url(#SVGID_2_)">
		<defs>
			<rect id="SVGID_3_" x="237.199" y="23.962" width="54" height="38.18"/>
		</defs>
		<clipPath id="SVGID_4_">
			<use xlink:href="#SVGID_3_"  overflow="visible"/>
		</clipPath>
		<path clip-path="url(#SVGID_4_)" fill="#D25593" d="M263.936,49.467c0,0-0.004-0.199-0.012-0.494
			c-0.013-0.295-0.005-0.749-0.063-1.298c-0.079-1.097-0.277-2.68-0.814-4.493c-0.07-0.225-0.143-0.461-0.216-0.695
			c-0.038-0.117-0.072-0.239-0.113-0.357c-0.044-0.117-0.088-0.237-0.132-0.356c-0.089-0.238-0.18-0.481-0.272-0.728
			c-0.105-0.241-0.211-0.486-0.319-0.734c-0.054-0.124-0.108-0.249-0.163-0.374c-0.061-0.123-0.123-0.246-0.184-0.37
			c-0.125-0.247-0.247-0.501-0.379-0.752c-0.281-0.492-0.554-1.005-0.88-1.496c-0.305-0.505-0.663-0.985-1.011-1.481
			c-0.375-0.476-0.742-0.968-1.157-1.426c-0.396-0.475-0.837-0.915-1.271-1.365c-0.227-0.215-0.454-0.431-0.681-0.646l-0.171-0.161
			l-0.178-0.154l-0.356-0.307l-0.356-0.307c-0.121-0.099-0.246-0.194-0.369-0.291c-0.248-0.191-0.489-0.392-0.743-0.573
			c-0.254-0.181-0.508-0.361-0.761-0.541c-0.253-0.18-0.519-0.339-0.777-0.509c-0.13-0.083-0.259-0.167-0.388-0.25
			c-0.133-0.077-0.265-0.154-0.397-0.231c-0.265-0.151-0.525-0.31-0.791-0.453c-0.536-0.278-1.062-0.563-1.599-0.799
			c-2.128-0.998-4.242-1.625-6.077-2.01c-0.23-0.048-0.455-0.095-0.674-0.141c-0.222-0.036-0.438-0.071-0.649-0.105
			c-0.211-0.034-0.417-0.067-0.617-0.099c-0.201-0.027-0.396-0.047-0.585-0.07c-0.177-0.02-0.332-0.038-0.459-0.053
			c-0.08-0.009-0.126-0.015-0.126-0.015l0.104-1.055c-0.265,0.104-0.529,0.234-0.788,0.352l-0.769,0.364
			c-0.506,0.256-0.999,0.529-1.479,0.793c0.479,0.29,0.945,0.571,1.397,0.867l0.666,0.462c0.218,0.156,0.435,0.3,0.645,0.469
			l0.104-1.055c0,0,0.044,0.005,0.121,0.014c0.122,0.014,0.27,0.031,0.44,0.051c0.181,0.022,0.369,0.04,0.562,0.066
			c0.192,0.031,0.389,0.063,0.591,0.096c0.202,0.033,0.41,0.066,0.622,0.1c0.211,0.044,0.426,0.089,0.646,0.135
			c1.759,0.368,3.783,0.969,5.819,1.924c0.515,0.226,1.016,0.498,1.53,0.764c0.254,0.137,0.502,0.289,0.756,0.433
			c0.126,0.073,0.253,0.147,0.38,0.221c0.123,0.079,0.247,0.159,0.371,0.239c0.246,0.162,0.501,0.313,0.742,0.486
			c0.242,0.172,0.484,0.344,0.727,0.517c0.242,0.174,0.471,0.365,0.708,0.547c0.117,0.093,0.236,0.183,0.352,0.278l0.339,0.293
			l0.34,0.293l0.17,0.146l0.163,0.154c0.217,0.206,0.433,0.411,0.649,0.616c0.412,0.43,0.833,0.848,1.209,1.3
			c0.395,0.436,0.743,0.904,1.101,1.356c0.33,0.472,0.671,0.928,0.96,1.407c0.311,0.466,0.568,0.952,0.836,1.419
			c0.125,0.238,0.24,0.478,0.359,0.713c0.059,0.118,0.117,0.234,0.175,0.35c0.052,0.119,0.103,0.237,0.154,0.355
			c0.102,0.235,0.203,0.466,0.302,0.695c0.087,0.233,0.173,0.463,0.257,0.688c0.042,0.113,0.084,0.225,0.125,0.336
			c0.04,0.112,0.072,0.225,0.107,0.335c0.069,0.222,0.138,0.439,0.205,0.652c0.508,1.715,0.696,3.202,0.77,4.24
			c0.055,0.519,0.046,0.971,0.059,1.249c0.008,0.279,0.012,0.469,0.012,0.469H263.936z"/>
		<path clip-path="url(#SVGID_4_)" fill="#D25593" d="M263.936,49.099c-0.076-2.914-0.601-5.632-1.623-8.368
			c-1.206-3.227-3.397-6.131-5.875-8.484c-4.427-4.204-10.233-6.542-16.244-7.23v0.632c0.035-0.352,0.07-0.704,0.104-1.055
			c0.007-0.075-0.038-0.616,0-0.632c-1.045,0.433-2.046,0.964-3.036,1.509c-0.023,0.013-0.025,0.617,0,0.632
			c0.585,0.354,1.169,0.709,1.73,1.098c0.166,0.115,0.332,0.23,0.497,0.347c0.163,0.115,0.324,0.232,0.482,0.354
			c-0.016-0.012,0.022-0.224,0.024-0.238l0.067-0.675c0.02-0.201,0.059-0.137,0.266-0.114c0.843,0.097,1.681,0.214,2.512,0.387
			c3.745,0.782,7.24,2.281,10.36,4.499c5.169,3.675,8.803,9.508,9.426,15.854c0.068,0.697,0.089,1.394,0.108,2.093
			c0,0.004,0.001,0.008,0.001,0.011h1.203c0.005,0,0.005-0.632,0-0.632h-1.078c-0.26,0-0.152-1.171-0.176-1.439
			c-0.154-1.67-0.422-3.283-0.925-4.888c-1.101-3.511-3.116-6.54-5.655-9.174c-1.972-2.047-4.456-3.671-7.006-4.887
			c-1.74-0.829-3.568-1.449-5.443-1.892c-0.812-0.192-1.632-0.329-2.455-0.462c-0.331-0.053-0.668-0.079-1.001-0.117
			c-0.202-0.023-0.137,0.151-0.156,0.334c-0.023,0.23-0.045,0.459-0.068,0.689c0.005-0.05-0.606-0.423-0.716-0.5
			c-0.651-0.451-1.317-0.871-1.994-1.281v0.632c0.99-0.545,1.991-1.076,3.036-1.509v-0.632c-0.035,0.352-0.07,0.704-0.104,1.055
			c-0.006,0.062-0.016,0.63,0,0.632c5.876,0.673,11.68,2.92,16.03,7.027c2.462,2.325,4.498,5.023,5.852,8.139
			c1.235,2.843,1.779,5.809,1.86,8.894C263.931,49.56,263.941,49.29,263.936,49.099"/>
		<path clip-path="url(#SVGID_4_)" fill="#D25593" d="M261.396,61.673c0,0,0.028-0.165,0.077-0.456
			c0.055-0.29,0.109-0.725,0.243-1.26c0.232-1.075,0.651-2.607,1.439-4.326c0.102-0.213,0.206-0.432,0.311-0.653
			c0.054-0.11,0.104-0.224,0.162-0.335c0.06-0.11,0.12-0.221,0.181-0.333c0.122-0.223,0.246-0.451,0.371-0.681
			c0.138-0.224,0.277-0.451,0.419-0.681c0.071-0.115,0.142-0.231,0.214-0.348c0.078-0.113,0.156-0.226,0.235-0.34
			c0.159-0.228,0.315-0.461,0.481-0.691c0.348-0.448,0.69-0.917,1.083-1.357c0.373-0.457,0.795-0.882,1.21-1.324
			c0.439-0.418,0.872-0.853,1.347-1.249c0.459-0.414,0.958-0.788,1.451-1.172c0.255-0.181,0.51-0.362,0.765-0.544l0.192-0.136
			l0.198-0.127l0.396-0.254l0.396-0.254c0.134-0.081,0.271-0.158,0.406-0.236c0.273-0.154,0.539-0.319,0.816-0.463
			c0.277-0.143,0.554-0.286,0.83-0.429c0.276-0.143,0.562-0.263,0.841-0.394c0.14-0.064,0.28-0.128,0.42-0.192
			c0.142-0.058,0.284-0.115,0.426-0.173c0.284-0.112,0.564-0.233,0.847-0.337c0.57-0.2,1.13-0.407,1.696-0.565
			c2.247-0.688,4.429-1.01,6.3-1.132c0.234-0.015,0.463-0.03,0.687-0.044c0.225-0.004,0.444-0.008,0.658-0.012
			c0.214-0.004,0.422-0.008,0.624-0.011c0.202,0.001,0.399,0.009,0.59,0.014c0.178,0.005,0.334,0.009,0.461,0.013
			c0.081,0.002,0.127,0.003,0.127,0.003l0.045-1.059c0.248,0.14,0.491,0.306,0.731,0.46l0.71,0.469
			c0.465,0.325,0.915,0.664,1.352,0.994c-0.515,0.219-1.017,0.432-1.506,0.661l-0.725,0.364c-0.238,0.124-0.473,0.236-0.705,0.374
			l0.046-1.06c0,0-0.044-0.001-0.122-0.003c-0.123-0.003-0.272-0.007-0.443-0.012c-0.183-0.004-0.371-0.012-0.565-0.014
			c-0.194,0.004-0.394,0.007-0.599,0.011c-0.205,0.004-0.415,0.008-0.63,0.011c-0.215,0.014-0.434,0.028-0.659,0.042
			c-1.793,0.116-3.882,0.425-6.032,1.084c-0.541,0.151-1.077,0.35-1.622,0.54c-0.271,0.099-0.538,0.215-0.81,0.322
			c-0.135,0.055-0.271,0.11-0.407,0.165c-0.133,0.061-0.267,0.123-0.401,0.184c-0.266,0.126-0.54,0.24-0.803,0.376
			c-0.264,0.136-0.528,0.273-0.793,0.409c-0.264,0.138-0.518,0.295-0.778,0.442c-0.129,0.075-0.26,0.148-0.388,0.225l-0.377,0.242
			l-0.378,0.242l-0.189,0.121l-0.183,0.13c-0.243,0.173-0.487,0.346-0.729,0.518c-0.468,0.367-0.944,0.722-1.381,1.116
			c-0.453,0.376-0.864,0.791-1.281,1.187c-0.394,0.42-0.796,0.824-1.149,1.257c-0.373,0.417-0.697,0.863-1.028,1.287
			c-0.157,0.218-0.305,0.439-0.456,0.655c-0.075,0.108-0.149,0.216-0.223,0.322c-0.068,0.111-0.136,0.22-0.203,0.329
			c-0.134,0.218-0.267,0.433-0.397,0.645c-0.119,0.218-0.236,0.433-0.351,0.645c-0.058,0.106-0.115,0.21-0.172,0.314
			c-0.055,0.105-0.102,0.212-0.153,0.317c-0.1,0.21-0.198,0.415-0.294,0.617c-0.745,1.626-1.141,3.072-1.36,4.089
			c-0.128,0.506-0.178,0.923-0.23,1.197c-0.047,0.275-0.074,0.432-0.074,0.432L261.396,61.673z"/>
		<path clip-path="url(#SVGID_4_)" fill="#D25593" d="M261.396,61.989c0.488-2.885,1.345-5.702,2.889-8.213
			c1.852-3.011,4.222-5.49,7.102-7.537c4.892-3.477,10.98-4.893,16.911-4.73c0-0.004,0.001-0.007,0.001-0.011
			c0.01-0.237,0.02-0.473,0.03-0.71c0.005-0.111,0.009-0.221,0.014-0.332c-0.002,0.047,0.676,0.417,0.747,0.464
			c0.699,0.462,1.375,0.947,2.045,1.451V41.74c-0.997,0.425-1.992,0.863-2.935,1.399c0,0.207,0.001,0.414,0.001,0.62
			c0.015-0.353,0.03-0.706,0.046-1.059c0.002-0.058,0.007-0.62-0.001-0.62c-6.28-0.169-12.446,1.565-17.434,5.447
			c-2.76,2.148-4.96,4.929-6.463,8.079c-0.69,1.445-1.138,2.951-1.507,4.503c-0.04,0.167-0.191,1.427-0.312,1.409
			c-0.378-0.054-0.755-0.108-1.133-0.161C261.421,61.36,261.362,61.984,261.396,61.989c0.356,0.051,0.711,0.101,1.067,0.152
			c0.267,0.038,0.29-0.959,0.336-1.201c0.308-1.618,0.841-3.217,1.55-4.702c1.508-3.16,3.709-5.914,6.463-8.079
			c4.96-3.9,11.175-5.616,17.434-5.447c0-0.207-0.001-0.414-0.001-0.62c-0.015,0.353-0.03,0.706-0.046,1.06
			c-0.003,0.079,0.047,0.594,0.001,0.62c0.944-0.536,1.938-0.974,2.935-1.399c0.017-0.007,0.029-0.61,0-0.632
			c-0.903-0.679-1.819-1.346-2.793-1.922c0,0.004,0,0.007-0.001,0.011c-0.015,0.347-0.03,0.694-0.045,1.042
			c0-0.012-1.869-0.011-2.018-0.008c-1.856,0.035-3.713,0.281-5.525,0.68c-3.207,0.707-6.221,2.032-8.978,3.801
			c-2.789,1.79-5.326,4.288-7.069,7.114c-1.709,2.772-2.769,5.695-3.311,8.899C261.361,61.562,261.43,61.785,261.396,61.989"/>
	</g>
</g>
</svg>
