<?xml version="1.0" standalone="no"?>
<!DOCTYPE svg PUBLIC "-//W3C//DTD SVG 1.1//EN" "http://www.w3.org/Graphics/SVG/1.1/DTD/svg11.dtd">
<svg>
<metadata>
Created by FontForge 20120731 at Fri Jul 26 17:48:16 2019
 By www
Copyright (c) 2013 by Jasper de Waard. All rights reserved.
</metadata>
<defs>
<font id="ProzaW04-SemiBold" horiz-adv-x="560">
  <font-face 
    font-family="ProzaW04-SemiBold"
    font-weight="600"
    font-stretch="normal"
    units-per-em="1000"
    panose-1="2 0 5 3 6 0 0 2 0 4"
    ascent="800"
    descent="-200"
    x-height="504"
    cap-height="698"
    bbox="-210 -274 1305 954"
    underline-thickness="50"
    underline-position="-75"
    unicode-range="U+0008-FB04"
  />
<missing-glyph horiz-adv-x="211" 
 />
    <glyph glyph-name="uniFB00" unicode="ff" horiz-adv-x="720" 
d="M434 0v413h-219v-413h-124v413h-76l9 61l69 10v19q0 52 18.5 96.5t50 76.5t72.5 49t84 17q38 0 78 -10l-21 -85l-10 -4q-24 14 -59 14q-38 0 -64.5 -33t-26.5 -102v-44l220 11v14q0 39 12.5 82.5t46.5 86.5t84 65t99 22t94 -14l-20 -87l-10 -4q-35 20 -74 20
q-52 0 -80.5 -39.5t-28.5 -112.5v-37l159 16l-18 -88h-141v-413h-124z" />
    <glyph glyph-name="uniFB01" unicode="fi" horiz-adv-x="615" 
d="M415 0v313q0 38 -4 100h-196v-413h-124v413h-76l9 61l69 10v8q0 58 21 107.5t57.5 85t83.5 54t97 18.5q32 0 70 -8t67 -22l-20 -89l-38 -9q-25 22 -52.5 34t-53.5 12q-49 0 -79.5 -44.5t-30.5 -123.5v-29l219 10l105 24v-512h-124z" />
    <glyph glyph-name="uniFB02" unicode="fl" horiz-adv-x="640" 
d="M443 0v548l-2 110q-17 7 -47 13t-51 6q-10 0 -34.5 -4.5t-45.5 -22t-34.5 -47t-13.5 -75.5v-42l133 15l-15 -88h-118v-413h-123v413h-77l8 61l70 10v28q0 53 21 99t58 79t84.5 51t98.5 18q25 0 62 -5t59 -11l91 24v-767h-124z" />
    <glyph glyph-name="uniFB03" unicode="ffi" horiz-adv-x="958" 
d="M434 0v413h-219v-413h-124v413h-76l9 61l69 10v19q0 38 12.5 79.5t45 81t78.5 59t89 19.5q38 0 78 -10l-21 -85l-10 -4q-24 14 -59 14q-38 0 -64.5 -34.5t-26.5 -100.5v-44l221 11v3q0 58 20.5 107.5t57 85t83.5 54t97 18.5q32 0 70.5 -8t67.5 -22l-21 -89l-36 -9
q-24 22 -52.5 34t-54.5 12q-49 0 -79.5 -44.5t-30.5 -123.5v-29l219 10l104 24v-512h-124v313q0 54 -3 100h-196v-413h-124z" />
    <glyph glyph-name="uniFB04" unicode="ffl" horiz-adv-x="980" 
d="M786 0v548l-3 110q-17 7 -47 13t-51 6q-10 0 -34.5 -4.5t-45.5 -22t-34.5 -47t-13.5 -75.5v-42l134 15l-16 -88h-118v-413h-123v413h-219v-413h-124v413h-76l9 61l69 10v19q0 38 12.5 79.5t45 81t78.5 59t89 19.5q38 0 78 -10l-21 -85l-10 -4q-24 14 -59 14
q-38 0 -64.5 -34.5t-26.5 -100.5v-44l220 11v23q0 53 21 99t58 79t85 51t99 18q25 0 62 -5t59 -11l90 24v-767h-123z" />
    <glyph glyph-name=".notdef" horiz-adv-x="211" 
 />
    <glyph glyph-name=".null" horiz-adv-x="0" 
 />
    <glyph glyph-name="nonmarkingreturn" horiz-adv-x="333" 
 />
    <glyph glyph-name="uni0008" horiz-adv-x="0" 
 />
    <glyph glyph-name="uni0008" horiz-adv-x="0" 
 />
    <glyph glyph-name="uni0008" horiz-adv-x="0" 
 />
    <glyph glyph-name="uni0009" unicode="&#x9;" horiz-adv-x="211" 
 />
    <glyph glyph-name="uni0009" unicode="&#xd;" horiz-adv-x="211" 
 />
    <glyph glyph-name="space" unicode=" " horiz-adv-x="211" 
 />
    <glyph glyph-name="exclam" unicode="!" horiz-adv-x="314" 
d="M201 242l-89 -10q-20 237 -27 465l147 22q-24 -244 -31 -477zM157 -10q-16 0 -35 8.5t-33 29t-14 44.5q0 34 24.5 59t58.5 25t58.5 -25t24.5 -58q0 -34 -25 -58.5t-59 -24.5z" />
    <glyph glyph-name="quotedbl" unicode="&#x22;" horiz-adv-x="451" 
d="M142 428l-61 -5q1 67 -5.5 153t-17.5 150l133 16q-3 -69 -16.5 -156.5t-32.5 -157.5zM349 428l-61 -5q1 67 -5.5 153t-17.5 150l133 16q-3 -69 -16.5 -156.5t-32.5 -157.5z" />
    <glyph glyph-name="numbersign" unicode="#" horiz-adv-x="734" 
d="M393 -4l33 182h-191l-33 -171l-103 -11l34 182h-112l9 73l117 2l36 197h-122l9 72l126 2l30 164l112 20l-35 -182l187 5l30 157l112 20l-35 -174l117 3l-19 -87h-113l-38 -189l130 3l-18 -86h-128l-33 -173zM288 450l-38 -195l190 3l36 192h-188z" />
    <glyph glyph-name="dollar" unicode="$" horiz-adv-x="557" 
d="M53 52l16 89l9 6q94 -56 174 -56q24 0 51.5 9.5t45.5 34t18 54.5t-21 55t-87 55t-97 49t-49 40.5t-28.5 47.5t-10.5 63q0 71 42 120.5t116 65.5l-5 145l94 20v-158q70 -2 144 -24l-20 -90l-8 -4q-79 37 -135 37q-25 0 -50.5 -8.5t-40.5 -29.5t-15 -49q0 -25 12 -44.5
t33.5 -35.5t97.5 -51.5t102 -61.5t36 -47.5t12.5 -39t2.5 -30.5q0 -70 -46.5 -124.5t-126.5 -72.5q2 -79 7 -145l-94 -20v157q-93 2 -179 43z" />
    <glyph glyph-name="percent" unicode="%" horiz-adv-x="929" 
d="M169 -30l475 734l91 -12l-476 -734zM695 -8q-48 0 -83.5 22.5t-57 66.5t-21.5 109q0 34 10 71t33.5 69t61.5 53.5t87 21.5q77 0 119.5 -54.5t42.5 -142.5q0 -22 -4.5 -50t-17.5 -56t-35.5 -53t-58.5 -41t-76 -16zM714 52q31 0 47 38.5t16 98.5q0 71 -18.5 114.5
t-52.5 43.5q-31 0 -47 -39t-16 -99q0 -72 18.5 -114.5t52.5 -42.5zM204 294q-48 0 -84 22.5t-57.5 67t-21.5 109.5q0 34 10 71t33.5 68.5t61.5 53t87 21.5q29 0 57.5 -9.5t52 -33t38 -62t14.5 -91.5q0 -34 -9.5 -71.5t-32.5 -69.5t-61 -54t-88 -22zM222 354q31 0 47 38.5
t16 98.5q0 72 -18.5 115t-51.5 43q-31 0 -47.5 -39t-16.5 -99q0 -71 19 -114t52 -43z" />
    <glyph glyph-name="ampersand" unicode="&#x26;" horiz-adv-x="707" 
d="M492 572q0 -59 -42.5 -111t-113.5 -90q58 -67 153 -155q41 67 63 171l89 -24q-32 -104 -86 -194q59 -49 127 -89l-58 -92q-81 49 -132 93q-89 -95 -214 -95q-102 0 -166 51t-64 131q0 118 153 208q-34 40 -55.5 84.5t-21.5 83.5q0 43 27 83t76.5 61.5t101.5 21.5
q74 0 118.5 -37t44.5 -101zM428 131q-84 81 -116 115t-63 72q-40 -26 -58.5 -60t-18.5 -68q0 -54 41 -88.5t96 -34.5q26 0 55 12.5t64 51.5zM233 556q0 -55 59 -129q102 59 102 130q0 34 -23.5 57t-57.5 23t-57 -23t-23 -58z" />
    <glyph glyph-name="quotesingle" unicode="'" horiz-adv-x="244" 
d="M142 428l-61 -5q1 67 -5.5 153t-17.5 150l133 16q-3 -69 -16.5 -156.5t-32.5 -157.5z" />
    <glyph glyph-name="parenleft" unicode="(" horiz-adv-x="345" 
d="M270 745l57 -40q-63 -76 -96.5 -187.5t-33.5 -240.5q0 -127 33.5 -237t96.5 -188l-57 -40q-95 95 -141.5 205t-46.5 252q0 288 188 476z" />
    <glyph glyph-name="parenright" unicode=")" horiz-adv-x="346" 
d="M76 -188l-57 40q63 78 96 188t33 237q0 130 -33 241t-96 187l57 40q96 -95 142.5 -204.5t46.5 -253.5q0 -288 -189 -475z" />
    <glyph glyph-name="asterisk" unicode="*" horiz-adv-x="508" 
d="M106 365l107 142l-165 -22l9 87l156 -19l-107 137l84 35l65 -152l62 150l86 -32l-109 -139l167 21l-9 -87l-158 20l106 -140l-85 -34l-60 153l-62 -152z" />
    <glyph glyph-name="plus" unicode="+" horiz-adv-x="593" 
d="M249 507l95 10v-194l194 6l-20 -92h-174l1 -193l-107 -18l4 211h-187l11 78l179 5z" />
    <glyph glyph-name="comma" unicode="," horiz-adv-x="306" 
d="M102 -187l-42 28q64 75 73 160q-21 22 -54 31q-12 21 -12 44q0 16 9 35t31 32.5t46 13.5q32 0 57 -25.5t25 -74.5q0 -54 -32 -120.5t-101 -123.5z" />
    <glyph glyph-name="hyphen" unicode="-" horiz-adv-x="446" 
d="M55 224l14 96l322 11l-23 -107h-313z" />
    <glyph glyph-name="period" unicode="." horiz-adv-x="301" 
d="M149 -10q-16 0 -36 8.5t-34 29.5t-14 46q0 35 25.5 60.5t60.5 25.5q16 0 36 -8.5t34.5 -30.5t14.5 -47q0 -34 -26 -59t-61 -25z" />
    <glyph glyph-name="slash" unicode="/" horiz-adv-x="410" 
d="M30 -144l250 888l100 -8l-251 -888z" />
    <glyph glyph-name="zero" unicode="0" horiz-adv-x="669" 
d="M482 337q0 135 -40 213.5t-112 78.5q-68 0 -105 -72t-37 -195q0 -66 10 -120.5t29.5 -93t48 -59t63.5 -20.5q25 0 51 12.5t48.5 48t33 91.5t10.5 116zM614 367q0 -83 -22 -153.5t-62 -120.5t-94.5 -77t-116.5 -27q-59 0 -108.5 24.5t-84 69.5t-53 109t-18.5 140
q0 84 22.5 154.5t62.5 120t94.5 76t115.5 26.5q59 0 108 -24t84 -69t53.5 -109t18.5 -140z" />
    <glyph glyph-name="one" unicode="1" horiz-adv-x="425" 
d="M322 0h-134q5 188 5 325q0 141 -5 233l-157 -19l-12 59q65 17 145 47t133 58l26 -6q-7 -112 -7 -311q0 -174 6 -386z" />
    <glyph glyph-name="two" unicode="2" horiz-adv-x="549" 
d="M11 26q156 154 238.5 269t82.5 204q0 31 -12 59.5t-41 44.5t-66 16q-31 0 -68.5 -12.5t-71.5 -35.5l-26 60q27 21 63 40t76 28.5t74 9.5q54 0 102 -21.5t73 -65.5t25 -97q0 -177 -273 -434l2 -10l299 14l-19 -95h-448z" />
    <glyph glyph-name="three" unicode="3" horiz-adv-x="512" 
d="M242 709q87 0 139.5 -42t52.5 -105q0 -48 -33 -92t-94 -75v-4q27 -4 53.5 -15t50 -34t34.5 -54t11 -57q0 -40 -21.5 -83.5t-69 -81t-127.5 -59t-194 -15.5l-9 78q56 -2 110 5t94 26.5t63 49.5t23 68q0 57 -49 85.5t-125 22.5l-10 59q44 16 83 36q84 46 84 113
q0 38 -30 61t-83 23q-62 0 -135 -44l-25 60q99 74 207 74z" />
    <glyph glyph-name="four" unicode="4" horiz-adv-x="595" 
d="M37 206l-12 28l298 460l128 8v-415l117 4l-18 -85h-99q0 -58 6 -206h-129l3 206h-294zM143 280l188 6v124q0 75 5 165l-10 1q-32 -65 -80 -139z" />
    <glyph glyph-name="five" unicode="5" horiz-adv-x="504" 
d="M74 -10l-9 78q51 3 98 15.5t80.5 35.5t52 53.5t18.5 65.5q0 69 -66.5 113t-185.5 44l32 297q217 6 347 16l-21 -98h-252l-14 -133q53 -5 105 -19t91.5 -40.5t63.5 -65.5t24 -90q0 -54 -26 -103.5t-74.5 -87.5t-118.5 -58t-145 -23z" />
    <glyph glyph-name="six" unicode="6" horiz-adv-x="604" 
d="M252 321l-16 50q64 49 133 49q34 0 67.5 -12.5t60 -37t42.5 -61t16 -80.5q0 -47 -18.5 -91t-52.5 -77.5t-82.5 -53t-104.5 -19.5q-42 0 -85 13.5t-77.5 46.5t-56.5 86.5t-22 126.5q0 72 25 145t78 136t138.5 108t204.5 59l13 -76q-90 -14 -155.5 -49t-103.5 -83
t-55 -104.5t-17 -115.5q0 -69 18 -116.5t47.5 -72t68.5 -24.5q26 0 52.5 13.5t45 46.5t18.5 76q0 59 -32.5 96t-79.5 37q-14 0 -33.5 -4.5t-36.5 -11.5z" />
    <glyph glyph-name="seven" unicode="7" horiz-adv-x="493" 
d="M204 -8l-127 14q110 284 262 607l-316 -13l19 97h414l7 -17q-162 -401 -259 -688z" />
    <glyph glyph-name="eight" unicode="8" horiz-adv-x="607" 
d="M207 359q-117 67 -117 165q0 79 64.5 132.5t164.5 53.5q46 0 79.5 -11t59 -28.5t45 -48.5t19.5 -71q0 -26 -12.5 -57t-43.5 -61t-72 -54q89 -46 123 -91.5t34 -95.5q0 -39 -17.5 -76t-51 -66t-83 -45.5t-109.5 -16.5q-41 0 -83 9.5t-79 35t-54.5 61.5t-17.5 69
q0 57 43 108.5t108 87.5zM272 327q-42 -27 -68.5 -65t-26.5 -78q0 -37 22 -67.5t52.5 -42t55.5 -11.5q24 0 52.5 10.5t48.5 38t20 61.5q0 26 -14.5 52t-49.5 50t-92 52zM327 411q39 25 60 57.5t21 65.5q0 21 -10.5 45t-36.5 40t-57 16q-41 0 -69.5 -26t-28.5 -66
q0 -39 31.5 -71.5t89.5 -60.5z" />
    <glyph glyph-name="nine" unicode="9" horiz-adv-x="603" 
d="M306 709q57 0 102.5 -20.5t76.5 -57.5t46.5 -87.5t15.5 -108.5q0 -72 -25 -145t-78 -136t-138.5 -107.5t-204.5 -58.5l-14 75q44 7 94.5 23t94 45t76.5 70.5t50 98t17 115.5q0 93 -36 153.5t-98 60.5q-26 0 -52 -13.5t-44.5 -47t-18.5 -75.5q0 -59 31.5 -96t78.5 -37
q33 0 70 15l17 -50q-63 -48 -133 -48q-34 0 -67 12.5t-59.5 37t-42 60.5t-15.5 80q0 47 18 91t52 78t82 53.5t104 19.5z" />
    <glyph glyph-name="colon" unicode=":" horiz-adv-x="297" 
d="M63 388q0 34 25.5 59t60.5 25q16 0 36 -8.5t34.5 -29.5t14.5 -46q0 -16 -9 -35.5t-31 -34t-47 -14.5q-35 0 -59.5 25t-24.5 59zM63 73q0 35 25.5 60t60.5 25q16 0 36 -8.5t34.5 -30t14.5 -46.5q0 -33 -26 -58t-61 -25t-59.5 24.5t-24.5 58.5z" />
    <glyph glyph-name="semicolon" unicode=";" horiz-adv-x="301" 
d="M152 304q-35 0 -59.5 25t-24.5 59t25.5 59t60.5 25q16 0 36 -8.5t34 -29.5t14 -46q0 -16 -8.5 -35.5t-30.5 -34t-47 -14.5zM106 -187l-43 28q64 74 74 160q-23 23 -55 31q-11 20 -11 44q0 16 9 35t30 32.5t45 13.5q23 0 44 -13.5t30 -38t9 -48.5q0 -63 -35.5 -128
t-96.5 -116z" />
    <glyph glyph-name="less" unicode="&#x3c;" horiz-adv-x="465" 
d="M336 -2l-293 265l5 25l290 265l65 -74l-124 -104q-72 -58 -118 -89v-8q49 -31 119 -89l123 -105z" />
    <glyph glyph-name="equal" unicode="=" horiz-adv-x="612" 
d="M67 138l13 87l462 12l-22 -99h-453zM70 331l13 86l463 12l-23 -98h-453z" />
    <glyph glyph-name="greater" unicode="&#x3e;" horiz-adv-x="464" 
d="M128 553l294 -265l-6 -25l-290 -265l-64 73l123 104q59 49 119 90v8q-39 24 -120 89l-122 105z" />
    <glyph glyph-name="question" unicode="?" horiz-adv-x="444" 
d="M206 625q-30 0 -70 -16t-76 -46l-9 4l-23 83q41 25 95 42.5t115 17.5q85 0 130.5 -38.5t45.5 -98.5q0 -31 -14.5 -64t-68 -87t-66.5 -72.5t-20 -35t-10.5 -34.5t-2.5 -38l-91 -10q-9 44 0 81.5t28.5 66t70.5 81.5t51 91q0 31 -24.5 52t-60.5 21zM193 -10q-34 0 -58 24.5
t-24 57.5q0 34 24.5 59t58.5 25t59 -25t25 -58q0 -16 -8.5 -35.5t-30 -33.5t-46.5 -14z" />
    <glyph glyph-name="at" unicode="@" horiz-adv-x="1042" 
d="M599 10l-7 95l-8 2q-74 -94 -146 -89q-58 2 -96.5 52.5t-36.5 127.5q0 53 20.5 104.5t58.5 92.5t91.5 64t116.5 21t141 -27q-4 -65 -21 -213l-8 -67q-5 -44 -7 -55.5t-3 -17.5l8 -3q82 32 125.5 96.5t43.5 153.5q0 64 -23 115t-64.5 85.5t-96.5 52t-116 17.5
q-81 0 -152.5 -30t-123.5 -84.5t-80.5 -129.5t-28.5 -162q0 -78 23 -142.5t65.5 -109.5t102.5 -69t130 -24q38 0 87 8t93.5 26t75.5 38l26 -47q-66 -57 -148 -83.5t-167 -26.5t-158.5 28t-127 80.5t-82.5 129.5t-29 170q0 114 41.5 208t114 161t165.5 102.5t191 35.5
q78 0 148.5 -22.5t117 -59t73 -77.5t36.5 -83t10 -76q0 -60 -22 -117t-61 -104.5t-92.5 -80.5t-113.5 -47zM599 195l7 47q11 71 13 157q-37 14 -63 14q-24 1 -48.5 -9t-47.5 -38t-33.5 -67.5t-10.5 -71.5q0 -24 5.5 -52t22 -48t38.5 -21q26 -1 57.5 22.5t59.5 66.5z" />
    <glyph glyph-name="A" unicode="A" horiz-adv-x="673" 
d="M127 -2l-116 4q89 203 155 374l122 318l103 9l269 -698l-150 -9q-31 119 -59 195l-131 2q-48 0 -124 -6zM426 271l-57 159q-26 73 -40 143l-9 -1q-13 -69 -40 -145l-56 -157l96 -1z" />
    <glyph glyph-name="B" unicode="B" horiz-adv-x="626" 
d="M442 391l-1 -9q48 -12 83.5 -41.5t48.5 -64t13 -62.5q0 -41 -19.5 -81t-56.5 -71.5t-91.5 -50.5t-119.5 -19q-69 0 -210 9q6 170 6 348q0 115 -6 343q121 17 207 17q46 0 91.5 -8.5t85.5 -30.5t58 -54.5t18 -63.5q0 -98 -107 -161zM219 81q54 -10 100 -10q61 0 96.5 39
t35.5 93q0 43 -27.5 74.5t-76.5 40.5q-47 8 -131 2q0 -159 3 -239zM355 399q31 22 49 55.5t18 65.5q0 49 -35 81t-97 32q-38 0 -71 -4q-3 -72 -3 -232q111 4 139 2z" />
    <glyph glyph-name="C" unicode="C" horiz-adv-x="672" 
d="M600 125l30 -55q-49 -43 -113.5 -65t-134.5 -22q-72 0 -132.5 24.5t-103.5 70t-66.5 110.5t-23.5 142q0 43 10.5 95.5t38.5 102t68 86t89 59.5t95 31t80 8q38 0 87 -7.5t96 -22.5l-22 -100l-9 -4q-92 48 -168 48q-46 0 -88.5 -19.5t-74.5 -55.5t-50 -87t-18 -110
q0 -57 16.5 -107.5t47 -88.5t74.5 -59t96 -21q28 0 62.5 5.5t64 17.5t49.5 24z" />
    <glyph glyph-name="D" unicode="D" horiz-adv-x="782" 
d="M88 0q6 173 6 341q0 180 -6 351q48 5 125 10t130 5q90 0 162.5 -23t121.5 -67t74.5 -107t25.5 -141q0 -73 -23.5 -140.5t-71.5 -121t-124.5 -84.5t-175.5 -31q-100 0 -244 8zM225 82q72 -9 124 -9q45 0 89 14.5t77.5 49t54 89t20.5 127.5q0 128 -69.5 199.5t-194.5 71.5
q-50 0 -101 -3q-6 -112 -6 -272q0 -161 6 -267z" />
    <glyph glyph-name="E" unicode="E" horiz-adv-x="580" 
d="M515 0h-427q6 182 6 349q0 182 -6 350q110 -3 226 -3q104 0 206 3l-17 -95q-106 8 -280 14q-4 -100 -4 -222q153 2 255 9l-19 -91q-97 6 -236 8q0 -133 4 -245q153 4 309 16z" />
    <glyph glyph-name="F" unicode="F" horiz-adv-x="556" 
d="M226 0h-138q6 182 6 349q0 182 -6 350q110 -3 226 -3q155 0 206 3l-17 -96q-117 10 -280 14q-4 -112 -4 -243q153 2 255 9l-19 -92q-78 6 -236 8q0 -140 7 -299z" />
    <glyph glyph-name="G" unicode="G" horiz-adv-x="728" 
d="M532 325l121 27q-3 -60 -3 -147q0 -88 4 -171q-56 -24 -125 -37.5t-125 -13.5q-74 0 -138.5 24.5t-112 71t-73.5 112.5t-26 145q0 65 18.5 123t51.5 102.5t85 81t116.5 53t120.5 16.5q85 0 183 -29l-21 -101l-8 -4q-91 49 -171 49q-49 0 -93 -21t-76.5 -58.5t-50.5 -88
t-18 -106.5q0 -57 18 -109.5t51 -92.5t78 -63t96 -23q37 0 107 20v77q0 69 -9 163z" />
    <glyph glyph-name="H" unicode="H" horiz-adv-x="782" 
d="M227 0h-139q7 164 7 349q0 175 -6 349h138q-7 -177 -7 -296q57 -2 167 -2l175 3q0 93 -6 295h137q-6 -232 -6 -349q0 -115 6 -349h-137q6 222 6 317q-58 2 -175 2q-78 0 -167 -3q0 -122 7 -316z" />
    <glyph glyph-name="I" unicode="I" horiz-adv-x="317" 
d="M228 0h-139q6 176 6 349q0 175 -6 349h138q-7 -205 -7 -349q0 -119 8 -349z" />
    <glyph glyph-name="J" unicode="J" horiz-adv-x="327" 
d="M-27 -229l-34 54q84 60 124 127.5t40 156.5l3 268q0 91 -6 321h137q-5 -177 -5 -321q0 -171 2 -247q4 -239 -261 -359z" />
    <glyph glyph-name="K" unicode="K" horiz-adv-x="677" 
d="M227 0h-139q7 201 7 349q0 174 -6 349h138q-7 -271 -7 -349q0 -144 7 -349zM677 7l-171 -13q-58 88 -155 217l-111 139l272 350l132 -4q-122 -133 -182 -204l-95 -112z" />
    <glyph glyph-name="L" unicode="L" horiz-adv-x="519" 
d="M480 0h-392q6 182 6 349q0 181 -6 349h138q-7 -199 -7 -349q0 -180 4 -270q157 5 275 17z" />
    <glyph glyph-name="M" unicode="M" horiz-adv-x="987" 
d="M186 0h-114q27 200 44 383l31 313l145 4l129 -331q49 -130 70 -206h8q8 29 28 89t43 117l127 327l145 4l72 -700h-144q-7 193 -23 393q-6 90 -6 175h-7q-10 -40 -26 -90.5t-32 -89.5l-142 -381l-103 -8l-132 356q-18 43 -39 108t-32 108h-8q-2 -109 -9 -214z" />
    <glyph glyph-name="N" unicode="N" horiz-adv-x="774" 
d="M197 0h-112q4 222 4 350q0 181 -3 346l141 4l238 -331q76 -107 125 -187l9 2q-9 86 -10 159l-10 355h111l-8 -531q0 -86 4 -163l-99 -7l-280 389q-67 93 -122 182l-8 -1q8 -79 9 -145z" />
    <glyph glyph-name="O" unicode="O" horiz-adv-x="823" 
d="M415 63q45 0 85.5 21.5t70 60.5t46 91t16.5 111q0 61 -17.5 114.5t-49 91.5t-73 59t-86.5 21q-46 0 -86 -21.5t-69.5 -60t-45.5 -90.5t-16 -110q0 -61 17.5 -115t48.5 -92.5t72.5 -59.5t86.5 -21zM400 -19q-72 0 -136 25t-111 71.5t-73 112.5t-26 144q0 59 19 124
t64.5 121.5t101 86.5t102.5 39.5t83 9.5q71 0 134.5 -24.5t110.5 -70t73.5 -111.5t26.5 -144q0 -79 -28 -150t-78 -123.5t-118.5 -81.5t-144.5 -29z" />
    <glyph glyph-name="P" unicode="P" horiz-adv-x="605" 
d="M223 0h-135q6 174 6 346q0 175 -6 346q134 15 207 15q133 0 203 -54.5t70 -148.5q0 -48 -19.5 -90.5t-54 -73.5t-80 -48t-94.5 -17q-22 0 -46 3l8 76q12 -2 35 -2q37 0 63 16t42 47t16 71q0 65 -38.5 102.5t-104.5 37.5q-44 0 -76 -4q-3 -118 -3 -259q0 -181 7 -363z" />
    <glyph glyph-name="Q" unicode="Q" horiz-adv-x="823" 
d="M518 7v-7q131 -47 231 -75t244 -52l-54 -96q-18 4 -52 13t-113 33.5t-469 169.5q-85 32 -140 81.5t-83 114t-28 145.5q0 82 29 153t80.5 122t120 78.5t143.5 27.5q71 0 134 -25t109.5 -71t72.5 -111t26 -140q0 -58 -16 -113.5t-48 -103t-79.5 -85t-107.5 -59.5zM415 63
q45 0 85.5 21.5t70 60.5t46 91t16.5 111q0 62 -17.5 115t-49 91.5t-73 59t-86.5 20.5q-46 0 -86 -21.5t-69.5 -60t-45.5 -90.5t-16 -110q0 -61 17.5 -115t48.5 -92.5t72.5 -59.5t86.5 -21z" />
    <glyph glyph-name="R" unicode="R" horiz-adv-x="641" 
d="M222 0h-134q7 203 7 352q0 169 -6 340q156 15 214 15t106 -14t81.5 -39.5t51 -60.5t17.5 -74t-17 -73.5t-46 -63.5t-63 -50l203 -326l-159 -11q-41 90 -112 223l-39 70l-110 2q0 -128 6 -290zM366 369q32 24 50 57t18 68q0 36 -17.5 66.5t-51 48t-81.5 17.5q-22 0 -65 -4
q-3 -94 -3 -251q89 -9 150 -2z" />
    <glyph glyph-name="S" unicode="S" horiz-adv-x="574" 
d="M52 31l20 97l10 5q98 -62 184 -62q27 0 57.5 9t51.5 33.5t21 57.5q0 20 -8.5 39.5t-32.5 39t-87.5 48.5t-88 44t-42.5 30.5t-30.5 33.5t-21.5 43.5t-9 60.5q0 92 66 146t175 54q36 0 83.5 -6t91.5 -19l-23 -100l-8 -4q-82 44 -152 44q-49 0 -79.5 -24t-30.5 -66
q0 -20 10 -42.5t38.5 -43.5t98 -54t103.5 -58t53.5 -58.5t19.5 -79.5q0 -43 -18.5 -82t-53 -68.5t-84 -46t-107.5 -16.5q-108 0 -207 45z" />
    <glyph glyph-name="T" unicode="T" horiz-adv-x="607" 
d="M368 0h-137q7 161 7 347q0 105 -5 270q-119 -1 -222 -12l16 94q98 -3 277 -3q189 0 292 3l-15 -94q-103 10 -215 12q-3 -98 -3 -270q0 -155 5 -347z" />
    <glyph glyph-name="U" unicode="U" horiz-adv-x="738" 
d="M88 698h138q-7 -111 -7 -236q0 -44 3 -127t3 -98q1 -22 6 -47.5t17.5 -47.5t33 -39.5t50 -26.5t57.5 -9q32 0 60.5 10t50.5 31t34.5 53.5t12.5 75.5q0 200 -7 461h112q-7 -252 -7 -441q0 -127 -72 -200.5t-199 -73.5q-133 0 -208 71t-73 209l1 199q0 78 -6 236z" />
    <glyph glyph-name="V" unicode="V" horiz-adv-x="675" 
d="M284 -4l-268 696l151 11q56 -199 95 -307l46 -127q27 -74 40 -144h9q14 72 40 147l153 428l117 -4q-92 -216 -128 -308l-148 -384z" />
    <glyph glyph-name="W" unicode="W" horiz-adv-x="1005" 
d="M236 -5l-212 697l150 11q27 -143 71 -311l27 -105q15 -53 33 -145h8q17 85 34 144l117 406l102 6l120 -412q27 -96 37 -144h8q11 73 30 145l111 413l118 -4q-59 -163 -103 -311l-117 -381l-118 -9l-107 353q-23 81 -37 160h-9q-14 -76 -40 -162l-105 -342z" />
    <glyph glyph-name="X" unicode="X" horiz-adv-x="684" 
d="M149 -2l-127 4q75 94 197 257l64 86l-242 347l159 11q21 -42 73 -128q43 -70 78 -132h7q45 75 83 132l83 126l131 -7q-113 -140 -182 -233l-67 -90l256 -367l-162 -8q-38 72 -85 146q-34 52 -76 131h-7q-30 -53 -83 -130z" />
    <glyph glyph-name="Y" unicode="Y" horiz-adv-x="614" 
d="M374 0h-133q4 145 6 290l-231 402l159 11q29 -72 80 -175q27 -55 61 -144h9q38 88 66 144l93 172l119 -4q-82 -129 -164 -269l-70 -119q2 -204 5 -308z" />
    <glyph glyph-name="Z" unicode="Z" horiz-adv-x="606" 
d="M42 0l-8 26l257 434q80 130 96 154l-3 8q-66 -8 -164 -11l-160 -8l18 96q56 -3 241 -3q123 0 224 3l9 -25l-240 -409q-63 -110 -112 -181l2 -8q59 7 175 11l194 8l-19 -95h-510z" />
    <glyph glyph-name="bracketleft" unicode="[" horiz-adv-x="407" 
d="M115 -179v909l275 11l-16 -86h-151v-756l167 8l-16 -86h-259z" />
    <glyph glyph-name="backslash" unicode="\" horiz-adv-x="411" 
d="M381 -144l-98 -16l-253 896l98 16z" />
    <glyph glyph-name="bracketright" unicode="]" horiz-adv-x="404" 
d="M28 731l261 12v-922h-273l12 78l153 8v746h-165z" />
    <glyph glyph-name="asciicircum" unicode="^" horiz-adv-x="497" 
d="M292 727l185 -431l-117 -26l-75 195q-34 92 -43 136h-8q-11 -49 -44 -136l-72 -191l-99 14l182 426z" />
    <glyph glyph-name="underscore" unicode="_" horiz-adv-x="500" 
d="M4 -84l11 84h470l-17 -84h-464z" />
    <glyph glyph-name="grave" unicode="`" horiz-adv-x="531" 
d="M339 577l-70 -24q-67 91 -129 158l104 43q26 -33 52.5 -83.5t42.5 -93.5z" />
    <glyph glyph-name="a" unicode="a" horiz-adv-x="517" 
d="M318 53l-9 2q-82 -69 -146 -69q-51 0 -88 34.5t-37 93.5q0 75 69 117.5t204 62.5v44q0 39 -25.5 63.5t-63.5 24.5q-61 0 -142 -59l-8 5l-22 78q107 59 205 59q86 0 131.5 -39t45.5 -117v-235q0 -47 33 -47q14 0 27 5l16 -48q-21 -18 -51 -29t-54 -11q-31 -1 -54.5 14.5
t-30.5 50.5zM311 116v116q-77 -11 -116 -33.5t-39 -64.5q0 -31 18 -48t44 -17q38 0 93 47z" />
    <glyph glyph-name="b" unicode="b" horiz-adv-x="592" 
d="M65 19v529q0 87 -6 187l129 28v-192q0 -67 -5 -126l10 -1q67 43 99.5 54.5t65.5 11.5t66.5 -13t61.5 -43.5t46.5 -78t18.5 -108.5q0 -58 -20 -109.5t-58 -90t-94 -60t-124 -21.5q-95 0 -190 33zM188 380v-294q48 -22 93 -22q42 0 73 22t50 63.5t19 98.5q0 33 -8.5 66
t-24 56t-39.5 36.5t-53 13.5q-55 0 -110 -40z" />
    <glyph glyph-name="c" unicode="c" horiz-adv-x="470" 
d="M423 103l25 -49q-72 -65 -175 -65q-107 0 -170 65.5t-63 173.5q0 61 21.5 113t60 89.5t90 57.5t109.5 20q28 0 63 -5t61 -15l-22 -90l-10 -5q-24 15 -52.5 24t-50.5 9q-63 0 -104 -47.5t-41 -126.5q0 -81 43.5 -128t113.5 -47q50 0 101 26z" />
    <glyph glyph-name="d" unicode="d" horiz-adv-x="597" 
d="M404 127v281q-49 20 -91 20t-74 -21.5t-51.5 -62t-19.5 -97.5q0 -33 11 -73.5t41 -68.5t72 -28q26 0 56 13t56 37zM404 502v39q0 54 -8 194l131 28v-584q0 -55 8 -167l-115 -24l-10 74l-10 1q-52 -44 -90.5 -60t-76.5 -16q-32 0 -66 13t-62 43.5t-46.5 77.5t-18.5 107
q0 28 7 64t25.5 72t52 69t86 53.5t113.5 20.5q37 0 80 -5z" />
    <glyph glyph-name="e" unicode="e" horiz-adv-x="530" 
d="M450 108l26 -48q-40 -38 -92 -54.5t-101 -16.5q-52 0 -97 16t-77.5 47t-50.5 76.5t-18 102.5q0 62 21 114.5t57 89t82 56t94 19.5q61 0 111 -31.5t72.5 -93t3.5 -138.5h-318q-1 -52 21 -92.5t64 -59t88 -18.5q61 0 114 31zM164 304l214 13q2 37 -15.5 66t-41.5 39.5
t-43 10.5q-30 0 -57.5 -19.5t-41 -50t-15.5 -59.5z" />
    <glyph glyph-name="f" unicode="f" horiz-adv-x="378" 
d="M91 0v413h-76l9 61l69 10v19q0 53 18.5 100.5t51.5 82t77.5 54t93.5 19.5t95 -14l-21 -87l-10 -4q-35 20 -74 20q-52 0 -80.5 -39.5t-28.5 -112.5v-37l159 16l-17 -88h-142v-413h-124z" />
    <glyph glyph-name="g" unicode="g" horiz-adv-x="557" 
d="M320 -39l-119 10q-18 -12 -32.5 -28t-20.5 -31t-6 -27q0 -32 33 -53.5t91 -21.5q30 0 65 8.5t58.5 30.5t23.5 49q0 26 -25.5 43t-67.5 20zM128 -24v8q-31 8 -51.5 26.5t-20.5 43.5q0 21 17 42.5t71 57.5l2 9q-49 23 -76 64.5t-27 87.5q0 50 32.5 96.5t89 72t111.5 25.5
q27 0 60 -6.5t54 -18.5l167 16l-16 -85l-86 6l-2 -6q23 -37 23 -80q0 -30 -13 -62.5t-42.5 -61t-73.5 -48t-94 -19.5q-27 0 -43 4q-39 -23 -39 -47q0 -15 12.5 -25t35.5 -11l139 -11q34 -3 73 -14.5t65.5 -39t26.5 -69.5q0 -36 -20 -71.5t-58 -63t-93.5 -44t-122.5 -16.5
q-91 0 -146 29.5t-55 80.5q0 18 10.5 40t32.5 43t57 47zM266 217q18 0 40 9.5t39 35.5t17 60q0 22 -10 49t-35.5 46.5t-55.5 19.5q-18 0 -40.5 -10t-38.5 -36.5t-16 -60.5q0 -22 9.5 -48.5t34.5 -45.5t56 -19z" />
    <glyph glyph-name="h" unicode="h" horiz-adv-x="594" 
d="M69 0v533q0 108 -6 202l130 28v-229q0 -35 -4 -99l8 -1q62 46 99.5 61.5t72.5 15.5q42 0 79 -22t56 -64.5t19 -90.5v-334h-124v321q0 35 -15.5 59t-37 32t-39.5 8q-54 0 -114 -51v-369h-124z" />
    <glyph glyph-name="i" unicode="i" horiz-adv-x="270" 
d="M72 0v313q0 72 -7 170l131 28v-511h-124zM133 605q-31 0 -53 20.5t-22 50.5q0 29 23 49.5t55 20.5q31 0 52.5 -20.5t21.5 -49.5q0 -30 -23 -50.5t-54 -20.5z" />
    <glyph glyph-name="j" unicode="j" horiz-adv-x="270" 
d="M-39 -261l-29 50q140 85 140 247v277q0 72 -7 170l131 28v-456q0 -47 -12.5 -92.5t-40 -86.5t-73.5 -76.5t-109 -60.5zM133 605q-32 0 -53.5 20t-21.5 51q0 29 23 49.5t55 20.5q31 0 52.5 -20.5t21.5 -49.5q0 -30 -22.5 -50.5t-54.5 -20.5z" />
    <glyph glyph-name="k" unicode="k" horiz-adv-x="555" 
d="M70 0v547q0 76 -7 188l131 28v-763h-124zM554 9l-154 -15q-73 114 -99 150l-92 120l199 237l121 -5q-82 -82 -142 -148l-55 -61z" />
    <glyph glyph-name="l" unicode="l" horiz-adv-x="269" 
d="M72 0v546q0 63 -6 189l129 28v-763h-123z" />
    <glyph glyph-name="m" unicode="m" horiz-adv-x="899" 
d="M70 0v312q0 77 -7 171l115 28l8 -76l10 -1q77 58 110 68t54 10q43 0 78.5 -24t54.5 -64q47 37 74 53.5t55 25.5t54 9q42 0 78.5 -22.5t55.5 -65.5t19 -90v-334h-124v321q0 45 -25 72.5t-64 27.5q-48 0 -108 -51q3 -14 3 -37v-333h-124v321q0 45 -25 72.5t-63 27.5
q-45 0 -106 -52v-369h-123z" />
    <glyph glyph-name="n" unicode="n" horiz-adv-x="594" 
d="M70 0v313q0 76 -7 170l115 28l9 -76l10 -1q61 46 98 61.5t75 15.5q68 0 111 -49.5t43 -127.5v-334h-125v321q0 47 -26 73t-66 26q-52 0 -114 -51v-369h-123z" />
    <glyph glyph-name="o" unicode="o" horiz-adv-x="588" 
d="M275 -14q-56 0 -101.5 20t-75.5 54.5t-45.5 79.5t-15.5 93q0 56 21 107t58.5 89.5t88.5 60.5t109 22q55 0 100 -20t75.5 -55t46 -80t15.5 -94q0 -56 -21 -107t-58.5 -89t-88.5 -59.5t-108 -21.5zM298 64q21 0 43.5 9t43.5 34t30.5 62t9.5 70t-11 79t-44 81t-79 35
q-28 0 -52 -14t-41 -38.5t-25.5 -58t-8.5 -66.5q0 -14 4.5 -49t21 -67.5t43.5 -54.5t65 -22z" />
    <glyph glyph-name="p" unicode="p" horiz-adv-x="597" 
d="M187 436l10 -1q52 44 90.5 60t76.5 16q43 0 79.5 -19.5t61.5 -53t38 -77t13 -90.5q0 -60 -21 -112t-58.5 -89.5t-90.5 -58t-113 -20.5q-35 0 -80 5v-38q0 -30 5 -205l-130 -5q3 119 2 216v349q0 74 -7 170l116 28zM193 370v-281q44 -19 91 -19q42 0 74 21.5t51.5 62
t19.5 96.5q0 33 -11 73.5t-41 69t-72 28.5q-27 0 -56.5 -13t-55.5 -38z" />
    <glyph glyph-name="q" unicode="q" horiz-adv-x="597" 
d="M325 510q57 0 113 -19l89 20v-525q0 -129 4 -233l-130 -5q3 117 3 214q0 53 5 89l-10 1q-67 -42 -100 -53.5t-65 -11.5q-33 0 -67 13t-62 43.5t-46.5 77.5t-18.5 107q0 58 20 109.5t57.5 90.5t90.5 60.5t117 21.5zM404 117v294q-48 22 -93 22q-25 0 -50.5 -10t-49 -36.5
t-33.5 -65.5t-10 -72t11 -74t41.5 -70t74.5 -29q54 0 109 41z" />
    <glyph glyph-name="r" unicode="r" horiz-adv-x="395" 
d="M70 0v312q0 93 -7 171l115 28l8 -103l9 -1q4 5 18 23t29 35t33 26.5t32.5 12.5t27.5 3q25 0 49 -7l-22 -115q-30 11 -62 11q-55 0 -107 -57v-339h-123z" />
    <glyph glyph-name="s" unicode="s" horiz-adv-x="426" 
d="M26 22l22 89l10 6q78 -47 143 -47q35 0 57.5 17t22.5 43q0 12 -7 25t-27.5 25t-63 28.5t-70 31.5t-44.5 36.5t-21 41t-4 32.5q0 69 56 114t146 45q70 0 134 -18l-22 -88l-10 -6q-63 32 -115 32q-33 0 -54 -15.5t-21 -41.5q0 -8 4 -19.5t16 -21.5t24.5 -16.5t72.5 -30.5
t82 -43.5t32 -41t10 -48.5q0 -24 -10 -51.5t-34.5 -52.5t-65.5 -42.5t-97 -17.5q-76 0 -166 35z" />
    <glyph glyph-name="t" unicode="t" horiz-adv-x="402" 
d="M90 145v158q0 64 5 110h-81l8 58q25 7 51 22.5t47.5 46t39.5 77.5l59 6l-12 -138l172 16l-18 -88h-153v-250q0 -92 79 -92q38 0 70 17l23 -47q-54 -53 -141 -53q-71 0 -110 39t-39 118z" />
    <glyph glyph-name="u" unicode="u" horiz-adv-x="578" 
d="M70 163v151q0 84 -7 169l130 28v-331q0 -46 25 -74.5t62 -28.5q50 0 105 53v184q0 75 -6 169l128 28v-328q0 -79 8 -170l-112 -25l-11 75l-10 1q-46 -37 -74.5 -53t-53 -20t-34.5 -4q-65 0 -107.5 49t-42.5 127z" />
    <glyph glyph-name="v" unicode="v" horiz-adv-x="511" 
d="M207 -6l-192 498l138 17q26 -100 52 -172l27 -79q23 -65 34 -131h9q18 76 36 131l83 246l110 -6q-48 -106 -81 -191l-117 -303z" />
    <glyph glyph-name="w" unicode="w" horiz-adv-x="797" 
d="M177 -6l-156 498l138 17q12 -72 38 -170l13 -47q22 -78 35 -161h8q18 76 45 161l63 191l99 9l68 -200q34 -116 43 -161h9q12 66 38 161l57 212l109 -6q-39 -100 -69 -193l-99 -302l-106 -9l-60 174q-17 46 -51 168h-5q-16 -63 -52 -169l-58 -164z" />
    <glyph glyph-name="x" unicode="x" horiz-adv-x="512" 
d="M124 -2l-116 4q49 57 142 179l47 63l-175 248l142 16q41 -72 51 -87q27 -43 49 -84h8l51 85l56 82l115 -6q-72 -86 -123 -154l-56 -75l186 -264l-152 -9q-27 50 -52 90q-35 60 -49 88h-8q-45 -74 -48 -78.5t-6 -9.5z" />
    <glyph glyph-name="y" unicode="y" horiz-adv-x="513" 
d="M59 -220l-2 15q23 15 54.5 46.5t63 76.5t48.5 79l-5 6l-33 -4l-166 493l139 17q18 -86 43 -171l23 -80q34 -124 39 -153h8q11 50 44 153l80 246l110 -6q-53 -125 -78 -192l-88 -231q-47 -127 -100 -215.5t-99 -124.5z" />
    <glyph glyph-name="z" unicode="z" horiz-adv-x="485" 
d="M36 0l-8 19l210 332q22 35 51 73l-3 4q-29 -3 -69 -5l-166 -8l19 86q72 -4 179 -4q108 0 193 7l9 -20l-216 -341q-23 -36 -52 -70l4 -5l70 6l193 10l-19 -84h-395z" />
    <glyph glyph-name="braceleft" unicode="{" horiz-adv-x="417" 
d="M253 128v-128q0 -95 101 -95h54l-16 -78q-40 -5 -69 -5q-85 0 -130.5 42.5t-45.5 124.5v135q0 84 -115 124l10 54q65 23 85 52.5t20 64.5v133q0 97 65 143t196 45l-16 -85h-56q-83 0 -83 -93v-132q0 -110 -105 -146l-3 -10q108 -39 108 -146z" />
    <glyph glyph-name="bar" unicode="|" horiz-adv-x="303" 
d="M98 -260v820q0 77 -7 187l113 24v-819q0 -87 8 -189z" />
    <glyph glyph-name="braceright" unicode="}" horiz-adv-x="417" 
d="M164 432v127q0 96 -100 96h-54l14 77q42 5 70 5q85 0 131 -42.5t46 -123.5v-133q0 -86 113 -125l-9 -53q-38 -14 -62 -31.5t-33 -40.5t-9 -46v-135q0 -97 -65.5 -143t-195.5 -44l15 84h56q44 0 63.5 24t19.5 70v133q0 55 26.5 90.5t79.5 53.5l2 12q-108 38 -108 145z" />
    <glyph glyph-name="asciitilde" unicode="~" horiz-adv-x="532" 
d="M108 185l-93 -11q-4 64 16 109t58 70t84 25q27 0 55.5 -12t64.5 -47.5t48 -45t23 -12t15 -2.5q26 0 39 28t8 77l94 11q4 -52 -7.5 -91t-33.5 -63.5t-51 -36t-60 -11.5q-20 0 -42.5 6t-43.5 20.5t-51.5 47t-44 39t-23.5 6.5q-18 0 -32.5 -15.5t-19 -41t-3.5 -50.5z" />
    <glyph glyph-name="uni00A0" unicode="&#xa0;" horiz-adv-x="211" 
 />
    <glyph glyph-name="exclamdown" unicode="&#xa1;" horiz-adv-x="303" 
d="M111 252l85 10q17 -269 22 -463l-133 -22q20 280 26 475zM153 508q32 0 54.5 -23t22.5 -55t-23.5 -55t-55.5 -23t-55 23t-23 55q0 15 8 33t28.5 31.5t43.5 13.5z" />
    <glyph glyph-name="cent" unicode="&#xa2;" horiz-adv-x="490" 
d="M427 205l26 -48q-58 -54 -139 -65q2 -80 6 -143l-94 -19v164q-84 15 -132.5 77.5t-48.5 155.5q0 94 49.5 164t130.5 97l-5 151l94 19v-154l16 1q25 0 58.5 -5t60.5 -15l-21 -85l-11 -6q-23 14 -51.5 22.5t-51.5 8.5q-62 0 -103 -48t-41 -126q0 -80 43 -126.5t112 -46.5
q49 0 102 27z" />
    <glyph glyph-name="sterling" unicode="&#xa3;" 
d="M48 319l11 64l68 2q-4 54 -4 72q0 56 20.5 103.5t56.5 80.5t85 51t103 18q67 0 106 -15l-19 -80l-9 -5q-19 9 -44.5 14.5t-45.5 5.5q-64 0 -98.5 -44.5t-34.5 -119.5q0 -29 5 -77l206 10l-20 -80h-180q5 -50 5 -77q0 -101 -58 -158l2 -4q121 4 294 13l-22 -93h-425
l-10 22q100 90 100 203q0 10 -7 94h-85z" />
    <glyph glyph-name="currency" unicode="&#xa4;" horiz-adv-x="569" 
d="M72 346q0 28 9 64t34 71l-98 96l66 59l90 -97q23 17 55 28.5t66 11.5q70 0 120 -40l93 99l51 -61l-98 -90q15 -23 24.5 -56t9.5 -67q0 -37 -11.5 -70.5t-29.5 -59.5l100 -98l-67 -58l-88 97q-58 -44 -127 -44q-68 0 -119 39l-87 -94l-50 57l91 88q-15 25 -24.5 58.5
t-9.5 66.5zM166 361q0 -46 19 -81.5t44.5 -53t55.5 -17.5q35 0 63 23t39 56.5t11 63.5q0 29 -12 64t-42 61t-68 26q-34 0 -61.5 -22.5t-38 -56.5t-10.5 -63z" />
    <glyph glyph-name="yen" unicode="&#xa5;" horiz-adv-x="645" 
d="M83 288l9 63l130 3l-194 338l157 11q37 -90 79 -175q26 -51 62 -143h8q43 98 67 144l92 171l119 -4q-114 -177 -205 -338l154 4l-17 -74h-461zM83 164l8 64l468 11l-17 -75h-164l4 -164h-133q3 55 5 164h-171z" />
    <glyph glyph-name="brokenbar" unicode="&#xa6;" horiz-adv-x="316" 
d="M215 329h-106v231q0 77 -7 187l113 24v-442zM109 181h106v-229q0 -77 7 -189l-113 -23v441z" />
    <glyph glyph-name="section" unicode="&#xa7;" horiz-adv-x="598" 
d="M520 297q0 -85 -103 -156q78 -46 78 -120q0 -26 -10.5 -56t-40.5 -61t-77 -47t-97 -16q-38 0 -85.5 10t-94.5 31l17 82l9 6q90 -51 157 -51q22 0 47.5 8t42 28t16.5 44q0 32 -27.5 55t-100 52t-105 50t-50.5 49t-18 66q0 36 21.5 75t84.5 81q-72 45 -72 126
q0 77 57.5 125t152.5 48q31 0 72.5 -6t76.5 -16l-18 -85l-10 -4q-71 34 -127 34q-42 0 -67 -22t-25 -53q0 -17 9 -35t35 -36t90.5 -46t95 -48.5t48.5 -47.5t18 -64zM409 265q0 16 -6.5 31.5t-21.5 28.5t-34.5 24t-53.5 25t-42 17q-32 -22 -49 -43.5t-17 -46.5q0 -19 9.5 -37
t33 -34.5t73.5 -36.5t51 -20q57 42 57 92z" />
    <glyph glyph-name="dieresis" unicode="&#xa8;" horiz-adv-x="531" 
d="M391 611q-28 0 -47 19t-19 45q0 27 20.5 47.5t48.5 20.5q29 0 48 -18.5t19 -46.5q0 -27 -20 -47t-50 -20zM181 611q-29 0 -48 19t-19 45q0 27 20.5 47.5t49.5 20.5t48 -18.5t19 -46.5q0 -27 -20 -47t-50 -20z" />
    <glyph glyph-name="copyright" unicode="&#xa9;" horiz-adv-x="867" 
d="M64 343q0 79 28.5 149.5t81 122.5t124.5 81t154 29t148.5 -27.5t111.5 -77t68 -117t23 -144.5q0 -79 -28.5 -149.5t-80.5 -122.5t-124 -81t-154 -29t-148.5 27.5t-112 77t-68.5 117t-23 144.5zM143 352q0 -61 17.5 -117.5t53.5 -99.5t90.5 -67.5t124.5 -24.5t126 24.5
t94 67t57 98.5t19 118q0 61 -17.5 117.5t-53.5 99.5t-90.5 67.5t-124.5 24.5t-126 -24.5t-94 -67t-57 -98.5t-19 -118zM563 241l18 -37q-22 -20 -59 -35t-85 -15q-84 0 -134.5 52t-50.5 137q0 63 28 109t78.5 74t113.5 28q51 0 103 -15l-13 -62l-5 -2q-45 21 -85 21
q-50 0 -82 -37t-32 -100q0 -29 11 -62.5t39 -56t65 -22.5q19 0 43.5 5.5t46.5 17.5z" />
    <glyph glyph-name="ordfeminine" unicode="&#xaa;" horiz-adv-x="412" 
d="M238 357h-7q-56 -47 -104 -47q-38 0 -63 25t-25 66q0 52 48 82t143 45v24q0 26 -16 42t-42 16q-21 0 -47.5 -11.5t-50.5 -29.5l-6 3l-18 63q79 43 153 43q64 0 98.5 -29.5t34.5 -88.5v-151q0 -28 22 -28q9 0 18 3l10 -44q-16 -13 -41.5 -21t-44.5 -8q-23 0 -40.5 11
t-21.5 35zM230 404v76q-51 -7 -72 -22t-21 -40q0 -19 11.5 -30t27.5 -11q26 0 54 27zM35 193l9 55h341l-12 -55h-338z" />
    <glyph glyph-name="guillemotleft" unicode="&#xab;" 
d="M185 64l-149 189l3 18l161 205l65 -66l-38 -45q-51 -59 -85 -90v-7q38 -35 84 -88l40 -44zM426 64l-149 189l2 18l161 205l66 -66l-38 -45q-51 -60 -87 -90v-7q36 -31 86 -88l40 -44z" />
    <glyph glyph-name="logicalnot" unicode="&#xac;" horiz-adv-x="649" 
d="M55 283l11 86h508l-12 -255l-90 -13v182h-417z" />
    <glyph glyph-name="uni00AD" unicode="&#xad;" horiz-adv-x="427" 
d="M46 224l14 96l322 11l-23 -107h-313z" />
    <glyph glyph-name="registered" unicode="&#xae;" horiz-adv-x="867" 
d="M64 343q0 79 28.5 149.5t81 122.5t124.5 81t154 29t148.5 -27.5t111.5 -77t68 -117t23 -144.5q0 -79 -28.5 -149.5t-80.5 -122.5t-124 -81t-154 -29t-148.5 27.5t-112 77t-68.5 117t-23 144.5zM143 352q0 -61 17.5 -117.5t53.5 -99.5t90.5 -67.5t124.5 -24.5t126 24.5
t94 67t57 98.5t19 118q0 61 -17.5 117.5t-53.5 99.5t-90.5 67.5t-124.5 24.5t-126 -24.5t-94 -67t-57 -98.5t-19 -118zM390 161h-98q3 95 3 193q0 92 -3 188q78 9 140 9q27 0 54 -5t52 -19t36 -36.5t11 -42.5q0 -56 -70 -104l107 -176l-112 -11q-17 47 -57 126l-18 33l-48 1
q0 -70 3 -156zM463 368q14 12 23 30.5t9 36.5q0 26 -18.5 45t-51.5 19q-19 0 -37 -2l-1 -129q6 -1 26.5 -2t49.5 2z" />
    <glyph glyph-name="macron" unicode="&#xaf;" horiz-adv-x="530" 
d="M132 592l11 72l252 10l-17 -82h-246z" />
    <glyph glyph-name="degree" unicode="&#xb0;" horiz-adv-x="345" 
d="M179 531q28 0 46.5 21.5t18.5 54.5q0 34 -21 59.5t-48 25.5q-28 0 -45.5 -21t-17.5 -55t20 -59.5t47 -25.5zM27 604q0 29 16.5 62.5t57.5 61t87 27.5q28 0 62 -12.5t56.5 -45.5t22.5 -78q0 -37 -23 -73.5t-63 -57t-77 -20.5q-28 0 -61 12.5t-55.5 45t-22.5 78.5z" />
    <glyph glyph-name="plusminus" unicode="&#xb1;" horiz-adv-x="602" 
d="M61 0l9 76l473 12l-19 -88h-463zM253 639l95 10v-192l194 6l-19 -89h-177l1 -186l-106 -18l4 204h-186l11 77l180 4z" />
    <glyph glyph-name="uni00B2" unicode="&#xb2;" horiz-adv-x="348" 
d="M25 321q82 86 125 146t43 108q0 17 -6.5 33t-22.5 25t-34 9q-13 0 -32.5 -5.5t-38.5 -17.5l-17 48q28 19 64.5 33t74.5 14q55 0 90 -29.5t35 -79.5q0 -98 -145 -237l1 -5l162 8l-11 -69h-280z" />
    <glyph glyph-name="uni00B3" unicode="&#xb3;" horiz-adv-x="317" 
d="M160 713q25 0 52 -8.5t44.5 -30.5t17.5 -49q0 -26 -17 -51t-51 -41v-4q19 -3 39 -14.5t31 -32.5t11 -44q0 -24 -14.5 -54t-52 -52.5t-86.5 -29.5t-102 -4l-6 54q40 0 76.5 8t54 27.5t17.5 40.5q0 27 -23.5 41t-63.5 10l-9 49q39 14 53.5 23.5t22.5 21.5t8 27q0 18 -14 29
t-38 11q-32 0 -67 -18l-17 46q67 45 134 45z" />
    <glyph glyph-name="acute" unicode="&#xb4;" horiz-adv-x="531" 
d="M278 554l-63 19q59 91 93 171l106 -22q-26 -48 -61.5 -91.5t-74.5 -76.5z" />
    <glyph glyph-name="uni00B5" unicode="&#xb5;" horiz-adv-x="581" 
d="M71 -264v577q0 71 -8 169l131 28v-328q0 -34 14 -59.5t35 -35t38 -9.5q51 0 105 54v181q0 68 -8 169l131 28v-327q0 -79 8 -170l-113 -25l-11 76l-10 2q-51 -43 -82.5 -58t-63.5 -17q-29 0 -52 10v-49q0 -62 8 -188z" />
    <glyph glyph-name="paragraph" unicode="&#xb6;" horiz-adv-x="652" 
d="M278 -148l-1 429q-47 3 -87 17.5t-68.5 40t-44.5 62t-16 81.5t19.5 86t57 72t92.5 49t122 18q38 0 99.5 -3.5t102.5 -10.5v-638q0 -78 7 -180l-105 -23v770q-17 2 -80 5v-572q0 -54 6 -180z" />
    <glyph glyph-name="periodcentered" unicode="&#xb7;" horiz-adv-x="301" 
d="M149 174q-16 0 -36 8.5t-34 30t-14 46.5q0 35 25.5 60t60.5 25q16 0 36 -8.5t34.5 -30t14.5 -46.5q0 -35 -26 -60t-61 -25z" />
    <glyph glyph-name="cedilla" unicode="&#xb8;" horiz-adv-x="539" 
d="M245 9h66l-31 -57q18 -2 36.5 -10.5t30.5 -26t12 -39.5q0 -25 -18 -51t-62 -43.5t-90 -15.5l-6 52q93 10 93 49q0 19 -22.5 28t-57.5 8l-4 10z" />
    <glyph glyph-name="uni00B9" unicode="&#xb9;" horiz-adv-x="255" 
d="M113 302v295l-95 -11l-12 49q45 12 103 33.5t90 39.5l26 -2q-5 -87 -5 -108v-296h-107z" />
    <glyph glyph-name="ordmasculine" unicode="&#xba;" horiz-adv-x="435" 
d="M202 310q-31 0 -62 9.5t-55.5 32t-39.5 57t-15 77.5q0 29 10 62t37.5 66.5t69.5 50.5t85 17q51 0 89 -21.5t60.5 -62t22.5 -94.5q0 -39 -13 -70.5t-34 -56.5t-61 -46t-94 -21zM221 373q16 0 34 11t29.5 39.5t11.5 63.5q0 39 -12 71.5t-31 46.5t-38 14q-16 0 -34.5 -11.5
t-30 -40t-11.5 -64.5q0 -54 22.5 -92t59.5 -38zM40 193l9 55h341l-11 -55h-339z" />
    <glyph glyph-name="guillemotright" unicode="&#xbb;" horiz-adv-x="559" 
d="M134 476l148 -189l-2 -18l-160 -205l-67 66l39 45q51 59 86 89v8q-35 31 -86 88l-39 44zM374 476l149 -189l-3 -18l-160 -205l-66 66l38 45q44 51 86 89v8q-36 32 -85 88l-40 44z" />
    <glyph glyph-name="onequarter" unicode="&#xbc;" horiz-adv-x="827" 
d="M433 111l-10 19l180 272l111 3v-233l65 3l-11 -64h-54l3 -111h-108q2 44 2 111h-178zM515 169l96 3v51l3 97l-8 1q-17 -45 -43 -83zM96 -30l476 734l90 -12l-476 -734zM154 302v295l-94 -11l-12 49q46 12 103.5 33.5t88.5 39.5l27 -2q-5 -58 -5 -108v-296h-108z" />
    <glyph glyph-name="onehalf" unicode="&#xbd;" horiz-adv-x="834" 
d="M487 19q82 86 125 146.5t43 108.5q0 32 -18.5 48.5t-44.5 16.5q-35 0 -71 -21l-17 47q68 47 139 47q55 0 90 -29.5t35 -79.5q0 -46 -34 -104t-111 -133l1 -5l162 9l-11 -70h-280zM97 -30l475 734l90 -12l-476 -734zM154 302v295l-94 -11l-12 49q46 12 103.5 33.5
t88.5 39.5l27 -2q-5 -58 -5 -108v-296h-108z" />
    <glyph glyph-name="threequarters" unicode="&#xbe;" horiz-adv-x="849" 
d="M455 111l-10 19l180 272l111 3v-233l65 3l-11 -64h-54l3 -111h-108q2 44 2 111h-178zM537 169l96 3v51l3 97l-8 1q-18 -44 -43 -82zM118 -30l476 734l90 -12l-476 -734zM182 713q25 0 52.5 -8.5t45 -30.5t17.5 -49q0 -26 -17 -51t-51 -41v-4q39 -7 59.5 -33t20.5 -58
q0 -24 -14.5 -54t-52 -52.5t-86 -29.5t-101.5 -4l-7 54q41 0 77 8t53.5 27.5t17.5 40.5q0 27 -23.5 41t-63.5 10l-8 49q39 14 53.5 23.5t22.5 21.5t8 27q0 18 -14.5 29t-38.5 11q-31 0 -66 -18l-18 46q68 45 134 45z" />
    <glyph glyph-name="questiondown" unicode="&#xbf;" horiz-adv-x="410" 
d="M238 -131q30 0 69.5 16t74.5 43l8 -5l22 -78q-25 -15 -60 -29.5t-74.5 -22t-72.5 -7.5q-83 0 -129 38.5t-46 98.5q0 2 0.5 9t4 26t21 46t53 61t48 46.5t23.5 26.5t19.5 29.5t13.5 37t1 47.5l88 10q9 -44 0 -81t-28.5 -64.5t-71 -79.5t-51.5 -91q0 -33 25.5 -55t61.5 -22z
M252 508q31 0 54 -23t23 -55t-23.5 -55t-55.5 -23q-31 0 -54.5 23t-23.5 55q0 15 8 33t28.5 31.5t43.5 13.5z" />
    <glyph glyph-name="Agrave" unicode="&#xc0;" horiz-adv-x="673" 
d="M127 -2l-116 4q89 203 155 374l122 318l103 9l269 -698l-150 -9q-31 119 -59 195l-131 2q-48 0 -124 -6zM426 271l-57 159q-26 73 -40 143l-9 -1q-13 -69 -40 -145l-56 -157l96 -1zM416 802l-48 -51q-93 50 -219 91l69 83q49 -19 103.5 -53.5t94.5 -69.5z" />
    <glyph glyph-name="Aacute" unicode="&#xc1;" horiz-adv-x="673" 
d="M127 -2l-116 4q89 203 155 374l122 318l103 9l269 -698l-150 -9q-31 119 -59 195l-131 2q-48 0 -124 -6zM426 271l-57 159q-26 73 -40 143l-9 -1q-13 -69 -40 -145l-56 -157l96 -1zM303 750l-40 47q44 26 95 62t85 69l80 -67q-44 -33 -106 -64t-114 -47z" />
    <glyph glyph-name="Acircumflex" unicode="&#xc2;" horiz-adv-x="673" 
d="M127 -2l-116 4q89 203 155 374l122 318l103 9l269 -698l-150 -9q-31 119 -59 195l-131 2q-48 0 -124 -6zM426 271l-57 159q-26 73 -40 143l-9 -1q-13 -69 -40 -145l-56 -157l96 -1zM192 738l-35 46q33 23 72 58.5t68 67.5l64 7q40 -23 83.5 -59.5t72.5 -70.5l-45 -49
q-65 58 -139 92q-79 -63 -141 -92z" />
    <glyph glyph-name="Atilde" unicode="&#xc3;" horiz-adv-x="673" 
d="M127 -2l-116 4q89 203 155 374l122 318l103 9l269 -698l-150 -9q-31 119 -59 195l-131 2q-48 0 -124 -6zM426 271l-57 159q-26 73 -40 143l-9 -1q-13 -69 -40 -145l-56 -157l96 -1zM245 768l-78 -6q-5 51 14.5 84t47 44.5t46.5 11.5q21 0 41.5 -9.5t48.5 -31.5t40 -22
q14 0 21 15.5t1 43.5l81 6q3 -25 -1 -50.5t-18.5 -47t-38.5 -31.5t-45 -10q-25 0 -46 10t-48 32t-39 22q-13 0 -21.5 -16.5t-5.5 -44.5z" />
    <glyph glyph-name="Adieresis" unicode="&#xc4;" horiz-adv-x="673" 
d="M127 -2l-116 4q89 203 155 374l122 318l103 9l269 -698l-150 -9q-31 119 -59 195l-131 2q-48 0 -124 -6zM426 271l-57 159q-26 73 -40 143l-9 -1q-13 -69 -40 -145l-56 -157l96 -1zM445 775q-29 0 -48.5 19t-19.5 45q0 27 20.5 47t49.5 20t48 -18t19 -46q0 -27 -19.5 -47
t-49.5 -20zM235 775q-30 0 -49 19t-19 45q0 27 20.5 47t49.5 20t47.5 -18t18.5 -46q0 -27 -19.5 -47t-48.5 -20z" />
    <glyph glyph-name="Aring" unicode="&#xc5;" horiz-adv-x="673" 
d="M127 -2l-116 4q77 175 155 374l114 293l119 12l261 -676l-150 -9q-31 119 -59 195l-131 2q-48 0 -124 -6zM426 271l-57 159q-26 73 -40 143l-9 -1q-13 -69 -40 -145l-56 -157l96 -1zM331 711q-23 0 -49 9.5t-44 34.5t-18 56q0 21 11.5 47.5t42.5 46t72 19.5q24 0 50 -10
t43 -35t17 -55q0 -33 -20.5 -61.5t-50 -40t-54.5 -11.5zM340 761q18 0 31 15t13 39q0 23 -14 41t-33 18q-18 0 -30 -15t-12 -38q0 -24 13 -42t32 -18z" />
    <glyph glyph-name="AE" unicode="&#xc6;" horiz-adv-x="903" 
d="M845 0h-382l-18 191l-111 2q-47 0 -125 -6l-96 -189l-113 4q60 106 206 374l171 324q105 -4 234 -4q118 0 218 3l-17 -95q-141 11 -286 14l21 -222q174 2 257 9l-18 -91q-98 6 -230 8q16 -149 31 -245q155 5 276 16zM345 269l92 1l-18 165q-10 88 -13 154h-9
q-13 -37 -33.5 -84.5t-35.5 -77.5l-79 -157z" />
    <glyph glyph-name="Ccedilla" unicode="&#xc7;" horiz-adv-x="669" 
d="M600 125l30 -55q-34 -31 -87 -55t-123 -30l-17 -33q36 -4 57 -25.5t21 -50.5q0 -25 -18 -51t-62 -43.5t-90 -15.5l-6 52q93 10 93 49q0 19 -22 28t-57 8l-5 10l39 72q-66 4 -121 30.5t-94.5 71.5t-60.5 107.5t-21 135.5q0 43 10.5 95.5t38.5 102t68 86t89 59.5t95 31
t80 8q38 0 87 -7.5t96 -22.5l-19 -96l-9 -5q-93 47 -169 47q-47 0 -90 -20t-75 -56.5t-50 -87.5t-18 -110q0 -57 16.5 -107.5t47 -88.5t74.5 -59t96 -21q28 0 62.5 5.5t64 17.5t49.5 24z" />
    <glyph glyph-name="Egrave" unicode="&#xc8;" horiz-adv-x="578" 
d="M515 0h-427q6 182 6 349q0 182 -6 350q110 -3 226 -3q104 0 206 3l-17 -95q-106 8 -280 14q-4 -100 -4 -222q153 2 255 9l-19 -91q-97 6 -236 8q0 -133 4 -245q153 4 309 16zM392 802l-48 -51q-93 50 -219 91l69 83q49 -19 103.5 -53.5t94.5 -69.5z" />
    <glyph glyph-name="Eacute" unicode="&#xc9;" horiz-adv-x="578" 
d="M515 0h-427q6 182 6 349q0 182 -6 350q110 -3 226 -3q104 0 206 3l-17 -95q-106 8 -280 14q-4 -100 -4 -222q153 2 255 9l-19 -91q-97 6 -236 8q0 -133 4 -245q153 4 309 16zM264 750l-40 47q44 26 95 62t85 69l80 -67q-44 -33 -106 -64t-114 -47z" />
    <glyph glyph-name="Ecircumflex" unicode="&#xca;" horiz-adv-x="578" 
d="M515 0h-427q6 182 6 349q0 182 -6 350q110 -3 226 -3q104 0 206 3l-17 -95q-106 8 -280 14q-4 -100 -4 -222q153 2 255 9l-19 -91q-97 6 -236 8q0 -133 4 -245q153 4 309 16zM163 738l-35 46q33 23 72 58.5t68 67.5l64 7q40 -23 83.5 -59.5t72.5 -70.5l-45 -49
q-65 58 -139 92q-79 -63 -141 -92z" />
    <glyph glyph-name="Edieresis" unicode="&#xcb;" horiz-adv-x="578" 
d="M515 0h-427q6 182 6 349q0 182 -6 350q110 -3 226 -3q104 0 206 3l-17 -95q-106 8 -280 14q-4 -100 -4 -222q153 2 255 9l-19 -91q-97 6 -236 8q0 -133 4 -245q153 4 309 16zM412 775q-29 0 -48.5 19t-19.5 45q0 27 20.5 47t49.5 20t48 -18t19 -46q0 -27 -19.5 -47
t-49.5 -20zM202 775q-30 0 -49 19t-19 45q0 27 20.5 47t49.5 20t47.5 -18t18.5 -46q0 -27 -19.5 -47t-48.5 -20z" />
    <glyph glyph-name="Igrave" unicode="&#xcc;" horiz-adv-x="317" 
d="M228 0h-139q6 176 6 349q0 175 -6 349h138q-7 -205 -7 -349q0 -119 8 -349zM246 802l-48 -51q-93 50 -219 91l69 83q49 -19 103.5 -53.5t94.5 -69.5z" />
    <glyph glyph-name="Iacute" unicode="&#xcd;" horiz-adv-x="317" 
d="M228 0h-139q6 176 6 349q0 175 -6 349h138q-7 -205 -7 -349q0 -119 8 -349zM109 750l-40 47q44 26 95 62t85 69l80 -67q-44 -33 -106 -64t-114 -47z" />
    <glyph glyph-name="Icircumflex" unicode="&#xce;" horiz-adv-x="317" 
d="M228 0h-139q6 176 6 349q0 175 -6 349h138q-7 -205 -7 -349q0 -119 8 -349zM16 738l-35 46q33 23 72 58.5t68 67.5l64 7q40 -23 83.5 -59.5t72.5 -70.5l-45 -49q-65 58 -139 92q-79 -63 -141 -92z" />
    <glyph glyph-name="Idieresis" unicode="&#xcf;" horiz-adv-x="317" 
d="M228 0h-139q6 176 6 349q0 175 -6 349h138q-7 -205 -7 -349q0 -119 8 -349zM263 775q-29 0 -48.5 19t-19.5 45q0 27 20.5 47t49.5 20t48 -18t19 -46q0 -27 -19.5 -47t-49.5 -20zM53 775q-30 0 -49 19t-19 45q0 27 20.5 47t49.5 20t47.5 -18t18.5 -46q0 -27 -19.5 -47
t-48.5 -20z" />
    <glyph glyph-name="Eth" unicode="&#xd0;" horiz-adv-x="801" 
d="M29 319l6 64l79 2q-2 164 -6 307q48 5 125 10t130 5q90 0 162.5 -23t121.5 -67t74.5 -107t25.5 -141q0 -73 -23.5 -140.5t-71.5 -121t-124.5 -84.5t-175.5 -31q-100 0 -244 8q6 161 6 319h-85zM245 82q72 -9 124 -9q45 0 89 14.5t77.5 49t54 89t20.5 127.5
q0 128 -69.5 199.5t-194.5 71.5q-50 0 -101 -3q-6 -118 -6 -232l174 6l-15 -76h-159q0 -121 6 -237z" />
    <glyph glyph-name="Ntilde" unicode="&#xd1;" horiz-adv-x="774" 
d="M197 0h-112q4 222 4 350q0 181 -3 346l141 4l238 -331q76 -107 125 -187l9 2q-9 86 -10 159l-10 355h111l-8 -531q0 -86 4 -163l-99 -7l-280 389q-67 93 -122 182l-8 -1q8 -79 9 -145zM301 768l-78 -6q-5 51 14.5 84t47 44.5t46.5 11.5q21 0 41.5 -9.5t48.5 -31.5t40 -22
q14 0 21 15.5t1 43.5l81 6q3 -25 -1 -50.5t-18.5 -47t-38.5 -31.5t-45 -10q-25 0 -46 10t-48 32t-39 22q-13 0 -21.5 -16.5t-5.5 -44.5z" />
    <glyph glyph-name="Ograve" unicode="&#xd2;" horiz-adv-x="823" 
d="M415 63q45 0 85.5 21.5t70 60.5t46 91t16.5 111q0 61 -17.5 114.5t-49 91.5t-73 59t-86.5 21q-46 0 -86 -21.5t-69.5 -60t-45.5 -90.5t-16 -110q0 -61 17.5 -115t48.5 -92.5t72.5 -59.5t86.5 -21zM400 -19q-72 0 -136 25t-111 71.5t-73 112.5t-26 144q0 59 19 124
t64.5 121.5t101 86.5t102.5 39.5t83 9.5q71 0 134.5 -24.5t110.5 -70t73.5 -111.5t26.5 -144q0 -79 -28 -150t-78 -123.5t-118.5 -81.5t-144.5 -29zM490 802l-48 -51q-93 50 -219 91l69 83q49 -19 103.5 -53.5t94.5 -69.5z" />
    <glyph glyph-name="Oacute" unicode="&#xd3;" horiz-adv-x="823" 
d="M415 63q45 0 85.5 21.5t70 60.5t46 91t16.5 111q0 61 -17.5 114.5t-49 91.5t-73 59t-86.5 21q-46 0 -86 -21.5t-69.5 -60t-45.5 -90.5t-16 -110q0 -61 17.5 -115t48.5 -92.5t72.5 -59.5t86.5 -21zM400 -19q-72 0 -136 25t-111 71.5t-73 112.5t-26 144q0 59 19 124
t64.5 121.5t101 86.5t102.5 39.5t83 9.5q71 0 134.5 -24.5t110.5 -70t73.5 -111.5t26.5 -144q0 -79 -28 -150t-78 -123.5t-118.5 -81.5t-144.5 -29zM380 750l-40 47q44 26 95 62t85 69l80 -67q-44 -33 -106 -64t-114 -47z" />
    <glyph glyph-name="Ocircumflex" unicode="&#xd4;" horiz-adv-x="823" 
d="M415 63q45 0 85.5 21.5t70 60.5t46 91t16.5 111q0 61 -17.5 114.5t-49 91.5t-73 59t-86.5 21q-46 0 -86 -21.5t-69.5 -60t-45.5 -90.5t-16 -110q0 -61 17.5 -115t48.5 -92.5t72.5 -59.5t86.5 -21zM400 -19q-72 0 -136 25t-111 71.5t-73 112.5t-26 144q0 59 19 124
t64.5 121.5t101 86.5t102.5 39.5t83 9.5q71 0 134.5 -24.5t110.5 -70t73.5 -111.5t26.5 -144q0 -79 -28 -150t-78 -123.5t-118.5 -81.5t-144.5 -29zM268 738l-35 46q33 23 72 58.5t68 67.5l64 7q40 -23 83.5 -59.5t72.5 -70.5l-45 -49q-65 58 -139 92q-79 -63 -141 -92z" />
    <glyph glyph-name="Otilde" unicode="&#xd5;" horiz-adv-x="823" 
d="M415 63q45 0 85.5 21.5t70 60.5t46 91t16.5 111q0 61 -17.5 114.5t-49 91.5t-73 59t-86.5 21q-46 0 -86 -21.5t-69.5 -60t-45.5 -90.5t-16 -110q0 -61 17.5 -115t48.5 -92.5t72.5 -59.5t86.5 -21zM400 -19q-72 0 -136 25t-111 71.5t-73 112.5t-26 144q0 59 19 124
t64.5 121.5t101 86.5t102.5 39.5t83 9.5q71 0 134.5 -24.5t110.5 -70t73.5 -111.5t26.5 -144q0 -79 -28 -150t-78 -123.5t-118.5 -81.5t-144.5 -29zM318 768l-78 -6q-5 51 14.5 84t47 44.5t46.5 11.5q21 0 41.5 -9.5t48.5 -31.5t40 -22q14 0 21 15.5t1 43.5l81 6
q3 -25 -1 -50.5t-18.5 -47t-38.5 -31.5t-45 -10q-25 0 -46 10t-48 32t-39 22q-13 0 -21.5 -16.5t-5.5 -44.5z" />
    <glyph glyph-name="Odieresis" unicode="&#xd6;" horiz-adv-x="823" 
d="M415 63q45 0 85.5 21.5t70 60.5t46 91t16.5 111q0 61 -17.5 114.5t-49 91.5t-73 59t-86.5 21q-46 0 -86 -21.5t-69.5 -60t-45.5 -90.5t-16 -110q0 -61 17.5 -115t48.5 -92.5t72.5 -59.5t86.5 -21zM400 -19q-72 0 -136 25t-111 71.5t-73 112.5t-26 144q0 59 19 124
t64.5 121.5t101 86.5t102.5 39.5t83 9.5q71 0 134.5 -24.5t110.5 -70t73.5 -111.5t26.5 -144q0 -79 -28 -150t-78 -123.5t-118.5 -81.5t-144.5 -29zM515 775q-29 0 -48.5 19t-19.5 45q0 27 20.5 47t49.5 20t48 -18t19 -46q0 -27 -19.5 -47t-49.5 -20zM305 775q-30 0 -49 19
t-19 45q0 27 20.5 47t49.5 20t47.5 -18t18.5 -46q0 -27 -19.5 -47t-48.5 -20z" />
    <glyph glyph-name="multiply" unicode="&#xd7;" horiz-adv-x="583" 
d="M65 105l159 158q-90 92 -158 165l75 64q67 -71 155 -159l158 157l62 -47l-165 -164q75 -72 166 -155l-80 -69q-79 74 -158 152l-153 -152z" />
    <glyph glyph-name="Oslash" unicode="&#xd8;" horiz-adv-x="823" 
d="M400 -19q-94 0 -175 43l-52 -73l-69 30l60 85q-52 46 -81 115t-29 153q0 59 19 124t64.5 121.5t101 86.5t102.5 39.5t83 9.5q95 0 175 -43l50 70l70 -27l-61 -84q52 -46 81.5 -115t29.5 -151q0 -79 -28 -150t-78 -123.5t-118.5 -81.5t-144.5 -29zM190 351q0 -105 50 -179
l296 412q-58 49 -129 49q-46 0 -86 -21.5t-69.5 -60t-45.5 -90.5t-16 -110zM415 63q45 0 85.5 21.5t70 60.5t46 91t16.5 111q0 102 -50 178l-296 -414q59 -48 128 -48z" />
    <glyph glyph-name="Ugrave" unicode="&#xd9;" horiz-adv-x="738" 
d="M88 698h138q-7 -111 -7 -236q0 -44 3 -127t3 -98q1 -22 6 -47.5t17.5 -47.5t33 -39.5t50 -26.5t57.5 -9q32 0 60.5 10t50.5 31t34.5 53.5t12.5 75.5q0 200 -7 461h112q-7 -252 -7 -441q0 -127 -72 -200.5t-199 -73.5q-133 0 -208 71t-73 209l1 199q0 78 -6 236zM466 802
l-48 -51q-93 50 -219 91l69 83q49 -19 103.5 -53.5t94.5 -69.5z" />
    <glyph glyph-name="Uacute" unicode="&#xda;" horiz-adv-x="738" 
d="M88 698h138q-7 -111 -7 -236q0 -44 3 -127t3 -98q1 -22 6 -47.5t17.5 -47.5t33 -39.5t50 -26.5t57.5 -9q32 0 60.5 10t50.5 31t34.5 53.5t12.5 75.5q0 200 -7 461h112q-7 -252 -7 -441q0 -127 -72 -200.5t-199 -73.5q-133 0 -208 71t-73 209l1 199q0 78 -6 236zM353 750
l-40 47q44 26 95 62t85 69l80 -67q-44 -33 -106 -64t-114 -47z" />
    <glyph glyph-name="Ucircumflex" unicode="&#xdb;" horiz-adv-x="738" 
d="M88 698h138q-7 -111 -7 -236q0 -44 3 -127t3 -98q1 -22 6 -47.5t17.5 -47.5t33 -39.5t50 -26.5t57.5 -9q32 0 60.5 10t50.5 31t34.5 53.5t12.5 75.5q0 200 -7 461h112q-7 -252 -7 -441q0 -127 -72 -200.5t-199 -73.5q-133 0 -208 71t-73 209l1 199q0 78 -6 236zM239 738
l-35 46q33 23 72 58.5t68 67.5l64 7q40 -23 83.5 -59.5t72.5 -70.5l-45 -49q-65 58 -139 92q-79 -63 -141 -92z" />
    <glyph glyph-name="Udieresis" unicode="&#xdc;" horiz-adv-x="738" 
d="M88 698h138q-7 -111 -7 -236q0 -44 3 -127t3 -98q1 -22 6 -47.5t17.5 -47.5t33 -39.5t50 -26.5t57.5 -9q32 0 60.5 10t50.5 31t34.5 53.5t12.5 75.5q0 200 -7 461h112q-7 -252 -7 -441q0 -127 -72 -200.5t-199 -73.5q-133 0 -208 71t-73 209l1 199q0 78 -6 236zM487 775
q-29 0 -48.5 19t-19.5 45q0 27 20.5 47t49.5 20t48 -18t19 -46q0 -27 -19.5 -47t-49.5 -20zM277 775q-30 0 -49 19t-19 45q0 27 20.5 47t49.5 20t47.5 -18t18.5 -46q0 -27 -19.5 -47t-48.5 -20z" />
    <glyph glyph-name="Yacute" unicode="&#xdd;" horiz-adv-x="614" 
d="M374 0h-133q4 145 6 290l-231 402l159 11q29 -72 80 -175q27 -55 61 -144h9q38 88 66 144l93 172l119 -4q-82 -129 -164 -269l-70 -119q2 -204 5 -308zM292 750l-40 47q44 26 95 62t85 69l80 -67q-44 -33 -106 -64t-114 -47z" />
    <glyph glyph-name="Thorn" unicode="&#xde;" horiz-adv-x="611" 
d="M221 0h-133q6 176 6 349q0 175 -6 349h135q-3 -44 -5 -131q44 3 75 3q66 0 118 -14.5t86 -41t51.5 -64t17.5 -82.5q0 -48 -19.5 -90.5t-54 -74t-80 -48.5t-94.5 -17q-23 0 -46 3l8 77l35 -1q37 0 63 15.5t42 46t16 71.5q0 65 -39 103t-105 38q-34 0 -74 -5q0 -5 -0.5 -16
t-1.5 -40t-1 -66q0 -163 6 -364z" />
    <glyph glyph-name="germandbls" unicode="&#xdf;" horiz-adv-x="617" 
d="M534 602q0 -29 -11.5 -58t-44.5 -65t-43.5 -51t-13 -29t-2.5 -19q0 -21 12.5 -40t55 -45t56 -37.5t22.5 -22.5t18 -30t9 -49q0 -34 -14.5 -65t-41 -53.5t-62 -35t-75.5 -12.5q-27 0 -67.5 6t-66.5 15l21 84l10 6q22 -13 54 -22.5t55 -9.5q30 0 49.5 19t19.5 48
q0 3 -1 11.5t-9.5 25.5t-51 42.5t-55.5 37t-21.5 22.5t-17 30.5t-8.5 50.5q0 20 5 39.5t15 36t48.5 58.5t38.5 90q0 34 -15.5 57t-37 30.5t-38.5 7.5q-21 0 -42 -9.5t-36.5 -29.5t-24 -50.5t-8.5 -69.5v-516h-124v413h-76l9 60l69 10v16q0 25 6 58t23 66t47.5 64t78 50.5
t101.5 19.5q81 0 133 -43.5t52 -111.5z" />
    <glyph glyph-name="agrave" unicode="&#xe0;" horiz-adv-x="517" 
d="M318 53l-9 2q-82 -69 -146 -69q-51 0 -88 34.5t-37 93.5q0 75 69 117.5t204 62.5v44q0 39 -25.5 63.5t-63.5 24.5q-61 0 -142 -59l-8 5l-22 78q107 59 205 59q86 0 131.5 -39t45.5 -117v-235q0 -47 33 -47q14 0 27 5l16 -48q-21 -18 -51 -29t-54 -11q-31 -1 -54.5 14.5
t-30.5 50.5zM311 116v116q-77 -11 -116 -33.5t-39 -64.5q0 -31 18 -48t44 -17q38 0 93 47zM280 577l-70 -24q-67 91 -129 158l104 43q26 -33 52.5 -83.5t42.5 -93.5z" />
    <glyph glyph-name="aacute" unicode="&#xe1;" horiz-adv-x="517" 
d="M318 53l-9 2q-82 -69 -146 -69q-51 0 -88 34.5t-37 93.5q0 75 69 117.5t204 62.5v44q0 39 -25.5 63.5t-63.5 24.5q-61 0 -142 -59l-8 5l-22 78q107 59 205 59q86 0 131.5 -39t45.5 -117v-235q0 -47 33 -47q14 0 27 5l16 -48q-21 -18 -51 -29t-54 -11q-31 -1 -54.5 14.5
t-30.5 50.5zM311 116v116q-77 -11 -116 -33.5t-39 -64.5q0 -31 18 -48t44 -17q38 0 93 47zM247 554l-63 19q59 91 93 171l106 -22q-26 -48 -61.5 -91.5t-74.5 -76.5z" />
    <glyph glyph-name="acircumflex" unicode="&#xe2;" horiz-adv-x="517" 
d="M318 53l-9 2q-82 -69 -146 -69q-51 0 -88 34.5t-37 93.5q0 75 69 117.5t204 62.5v44q0 39 -25.5 63.5t-63.5 24.5q-61 0 -142 -59l-8 5l-22 78q107 59 205 59q86 0 131.5 -39t45.5 -117v-235q0 -47 33 -47q14 0 27 5l16 -48q-21 -18 -51 -29t-54 -11q-31 -1 -54.5 14.5
t-30.5 50.5zM311 116v116q-77 -11 -116 -33.5t-39 -64.5q0 -31 18 -48t44 -17q38 0 93 47zM398 577l-69 -24q-45 64 -93 108q-51 -67 -100 -107l-62 19q65 72 115 156l93 9q67 -75 116 -161z" />
    <glyph glyph-name="atilde" unicode="&#xe3;" horiz-adv-x="517" 
d="M318 53l-9 2q-82 -69 -146 -69q-51 0 -88 34.5t-37 93.5q0 75 69 117.5t204 62.5v44q0 39 -25.5 63.5t-63.5 24.5q-61 0 -142 -59l-8 5l-22 78q107 59 205 59q86 0 131.5 -39t45.5 -117v-235q0 -47 33 -47q14 0 27 5l16 -48q-21 -18 -51 -29t-54 -11q-31 -1 -54.5 14.5
t-30.5 50.5zM311 116v116q-77 -11 -116 -33.5t-39 -64.5q0 -31 18 -48t44 -17q38 0 93 47zM160 576l-69 -6q-3 34 6.5 65.5t35.5 51t54 19.5q19 0 37 -9t43 -30t36 -21q12 0 18.5 14.5t1.5 41.5l71 7q6 -67 -23 -101.5t-69 -34.5q-20 0 -39.5 9t-43.5 30t-34 21
q-12 0 -20 -15t-5 -42z" />
    <glyph glyph-name="adieresis" unicode="&#xe4;" horiz-adv-x="517" 
d="M318 53l-9 2q-82 -69 -146 -69q-51 0 -88 34.5t-37 93.5q0 75 69 117.5t204 62.5v44q0 39 -25.5 63.5t-63.5 24.5q-61 0 -142 -59l-8 5l-22 78q107 59 205 59q86 0 131.5 -39t45.5 -117v-235q0 -47 33 -47q14 0 27 5l16 -48q-21 -18 -51 -29t-54 -11q-31 -1 -54.5 14.5
t-30.5 50.5zM311 116v116q-77 -11 -116 -33.5t-39 -64.5q0 -31 18 -48t44 -17q38 0 93 47zM352 611q-28 0 -47 19t-19 45q0 27 20.5 47.5t48.5 20.5q29 0 48 -18.5t19 -46.5q0 -27 -20 -47t-50 -20zM142 611q-29 0 -48 19t-19 45q0 27 20.5 47.5t49.5 20.5t48 -18.5
t19 -46.5q0 -27 -20 -47t-50 -20z" />
    <glyph glyph-name="aring" unicode="&#xe5;" horiz-adv-x="517" 
d="M318 53l-9 2q-82 -69 -146 -69q-51 0 -88 34.5t-37 93.5q0 75 69 117.5t204 62.5v44q0 39 -25.5 63.5t-63.5 24.5q-61 0 -142 -59l-8 5l-22 78q107 59 205 59q86 0 131.5 -39t45.5 -117v-235q0 -47 33 -47q14 0 27 5l16 -48q-21 -18 -51 -29t-54 -11q-31 -1 -54.5 14.5
t-30.5 50.5zM311 116v116q-77 -11 -116 -33.5t-39 -64.5q0 -31 18 -48t44 -17q38 0 93 47zM227 547q-24 0 -51 10t-46 35.5t-19 58.5q0 22 12 49.5t44.5 48.5t74.5 21q25 0 52.5 -10.5t45.5 -37t18 -58.5q0 -22 -12.5 -49.5t-45 -47.5t-73.5 -20zM237 597q20 0 33.5 16
t13.5 41q0 27 -14.5 46t-37.5 19q-21 0 -33 -16.5t-12 -40.5q0 -26 13.5 -45.5t36.5 -19.5z" />
    <glyph glyph-name="ae" unicode="&#xe6;" horiz-adv-x="794" 
d="M715 108l25 -48q-19 -19 -50 -36.5t-69.5 -26t-71.5 -8.5q-61 0 -111.5 23.5t-82.5 67.5q-44 -48 -96 -71t-94 -23q-25 0 -54 10.5t-51 40.5t-22 76q0 76 69 118.5t204 62.5v42q0 39 -25.5 64t-63.5 25q-29 0 -66 -15.5t-76 -44.5l-8 6l-22 77q105 59 201 59
q55 0 91 -19.5t57 -59.5q32 43 76 62.5t90 19.5q45 0 84.5 -19.5t66 -55t35 -84.5t-5.5 -104h-318q-1 -83 48.5 -126.5t125.5 -43.5q60 0 114 31zM428 303l214 14q2 37 -15.5 66t-41.5 39.5t-43 10.5q-30 0 -57 -19t-39 -46t-15 -43t-3 -22zM216 69q24 0 55.5 16.5
t56.5 47.5q-16 45 -16 98q-87 -12 -121.5 -35.5t-34.5 -60.5q0 -31 17.5 -48.5t42.5 -17.5z" />
    <glyph glyph-name="ccedilla" unicode="&#xe7;" horiz-adv-x="469" 
d="M423 103l25 -49q-60 -56 -149 -64l-21 -38q18 -2 36.5 -10.5t30.5 -26t12 -39.5q0 -25 -18 -51t-61.5 -43.5t-89.5 -15.5l-7 52q93 10 93 49q0 19 -22 28t-57 8l-5 10l43 79q-89 11 -141 75t-52 161q0 61 21.5 113t60 89.5t90 57.5t109.5 20q28 0 63 -5t61 -15l-22 -90
l-10 -5q-24 15 -52.5 24t-50.5 9q-63 0 -104 -47.5t-41 -126.5q0 -81 43.5 -128t113.5 -47q50 0 101 26z" />
    <glyph glyph-name="egrave" unicode="&#xe8;" horiz-adv-x="530" 
d="M450 108l26 -48q-40 -38 -92 -54.5t-101 -16.5q-52 0 -97 16t-77.5 47t-50.5 76.5t-18 102.5q0 62 21 114.5t57 89t82 56t94 19.5q61 0 111 -31.5t72.5 -93t3.5 -138.5h-318q-1 -52 21 -92.5t64 -59t88 -18.5q61 0 114 31zM164 304l214 13q2 37 -15.5 66t-41.5 39.5
t-43 10.5q-30 0 -57.5 -19.5t-41 -50t-15.5 -59.5zM340 577l-70 -24q-67 91 -129 158l104 43q26 -33 52.5 -83.5t42.5 -93.5z" />
    <glyph glyph-name="eacute" unicode="&#xe9;" horiz-adv-x="530" 
d="M450 108l26 -48q-40 -38 -92 -54.5t-101 -16.5q-52 0 -97 16t-77.5 47t-50.5 76.5t-18 102.5q0 62 21 114.5t57 89t82 56t94 19.5q61 0 111 -31.5t72.5 -93t3.5 -138.5h-318q-1 -52 21 -92.5t64 -59t88 -18.5q61 0 114 31zM164 304l214 13q2 37 -15.5 66t-41.5 39.5
t-43 10.5q-30 0 -57.5 -19.5t-41 -50t-15.5 -59.5zM292 554l-63 19q59 91 93 171l106 -22q-26 -48 -61.5 -91.5t-74.5 -76.5z" />
    <glyph glyph-name="ecircumflex" unicode="&#xea;" horiz-adv-x="530" 
d="M450 108l26 -48q-40 -38 -92 -54.5t-101 -16.5q-52 0 -97 16t-77.5 47t-50.5 76.5t-18 102.5q0 62 21 114.5t57 89t82 56t94 19.5q61 0 111 -31.5t72.5 -93t3.5 -138.5h-318q-1 -52 21 -92.5t64 -59t88 -18.5q61 0 114 31zM164 304l214 13q2 37 -15.5 66t-41.5 39.5
t-43 10.5q-30 0 -57.5 -19.5t-41 -50t-15.5 -59.5zM438 577l-69 -24q-45 64 -93 108q-51 -67 -100 -107l-62 19q65 72 115 156l93 9q67 -75 116 -161z" />
    <glyph glyph-name="edieresis" unicode="&#xeb;" horiz-adv-x="530" 
d="M450 108l26 -48q-40 -38 -92 -54.5t-101 -16.5q-52 0 -97 16t-77.5 47t-50.5 76.5t-18 102.5q0 62 21 114.5t57 89t82 56t94 19.5q61 0 111 -31.5t72.5 -93t3.5 -138.5h-318q-1 -52 21 -92.5t64 -59t88 -18.5q61 0 114 31zM164 304l214 13q2 37 -15.5 66t-41.5 39.5
t-43 10.5q-30 0 -57.5 -19.5t-41 -50t-15.5 -59.5zM389 611q-28 0 -47 19t-19 45q0 27 20.5 47.5t48.5 20.5q29 0 48 -18.5t19 -46.5q0 -27 -20 -47t-50 -20zM179 611q-29 0 -48 19t-19 45q0 27 20.5 47.5t49.5 20.5t48 -18.5t19 -46.5q0 -27 -20 -47t-50 -20z" />
    <glyph glyph-name="igrave" unicode="&#xec;" horiz-adv-x="271" 
d="M174 577l-70 -24q-67 91 -129 158l104 43q26 -33 52.5 -83.5t42.5 -93.5zM72 0v313q0 72 -7 170l131 28v-511h-124z" />
    <glyph glyph-name="iacute" unicode="&#xed;" horiz-adv-x="271" 
d="M144 554l-63 19q59 91 93 171l106 -22q-26 -48 -61.5 -91.5t-74.5 -76.5zM72 0v313q0 72 -7 170l131 28v-511h-124z" />
    <glyph glyph-name="icircumflex" unicode="&#xee;" horiz-adv-x="270" 
d="M72 0v313q0 72 -7 170l131 28v-511h-124zM295 577l-69 -24q-45 64 -93 108q-51 -67 -100 -107l-62 19q65 72 115 156l93 9q67 -75 116 -161z" />
    <glyph glyph-name="idieresis" unicode="&#xef;" horiz-adv-x="271" 
d="M239 611q-28 0 -47 19t-19 45q0 27 20.5 47.5t48.5 20.5q29 0 48 -18.5t19 -46.5q0 -27 -20 -47t-50 -20zM29 611q-29 0 -48 19t-19 45q0 27 20.5 47.5t49.5 20.5t48 -18.5t19 -46.5q0 -27 -20 -47t-50 -20zM72 0v313q0 72 -7 170l131 28v-511h-124z" />
    <glyph glyph-name="eth" unicode="&#xf0;" horiz-adv-x="601" 
d="M129 524l-18 54q104 45 125 53v6q-10 4 -45 22t-50.5 24t-20.5 8l47 72q85 -31 161 -83l131 62l20 -55q-62 -29 -103 -42v-6q52 -39 91 -93.5t63.5 -123t24.5 -142.5q0 -70 -22.5 -126t-61.5 -93t-89 -56t-103 -19q-42 0 -84.5 13.5t-76.5 45.5t-55.5 81t-21.5 111
q0 56 19.5 106t53 87t77 57t89.5 20q26 0 51.5 -7t46.5 -21l5 6q-15 26 -42 57t-56 55zM429 269q0 57 -14 119q-17 16 -43.5 28.5t-61.5 12.5q-41 0 -75 -21t-50.5 -62.5t-16.5 -89.5q0 -47 15.5 -93.5t48 -72.5t71.5 -26q59 0 92.5 52.5t33.5 152.5z" />
    <glyph glyph-name="ntilde" unicode="&#xf1;" horiz-adv-x="594" 
d="M70 0v313q0 76 -7 170l115 28l9 -76l10 -1q61 46 98 61.5t75 15.5q68 0 111 -49.5t43 -127.5v-334h-125v321q0 47 -26 73t-66 26q-52 0 -114 -51v-369h-123zM216 576l-69 -6q-3 34 6.5 65.5t35.5 51t54 19.5q19 0 37 -9t43 -30t36 -21q12 0 18.5 14.5t1.5 41.5l71 7
q6 -67 -23 -101.5t-69 -34.5q-20 0 -39.5 9t-43.5 30t-34 21q-12 0 -20 -15t-5 -42z" />
    <glyph glyph-name="ograve" unicode="&#xf2;" horiz-adv-x="588" 
d="M275 -14q-56 0 -101.5 20t-75.5 54.5t-45.5 79.5t-15.5 93q0 56 21 107t58.5 89.5t88.5 60.5t109 22q55 0 100 -20t75.5 -55t46 -80t15.5 -94q0 -56 -21 -107t-58.5 -89t-88.5 -59.5t-108 -21.5zM298 64q21 0 43.5 9t43.5 34t30.5 62t9.5 70t-11 79t-44 81t-79 35
q-28 0 -52 -14t-41 -38.5t-25.5 -58t-8.5 -66.5q0 -14 4.5 -49t21 -67.5t43.5 -54.5t65 -22zM347 577l-70 -24q-67 91 -129 158l104 43q26 -33 52.5 -83.5t42.5 -93.5z" />
    <glyph glyph-name="oacute" unicode="&#xf3;" horiz-adv-x="588" 
d="M275 -14q-56 0 -101.5 20t-75.5 54.5t-45.5 79.5t-15.5 93q0 56 21 107t58.5 89.5t88.5 60.5t109 22q55 0 100 -20t75.5 -55t46 -80t15.5 -94q0 -56 -21 -107t-58.5 -89t-88.5 -59.5t-108 -21.5zM298 64q21 0 43.5 9t43.5 34t30.5 62t9.5 70t-11 79t-44 81t-79 35
q-28 0 -52 -14t-41 -38.5t-25.5 -58t-8.5 -66.5q0 -14 4.5 -49t21 -67.5t43.5 -54.5t65 -22zM301 554l-63 19q59 91 93 171l106 -22q-26 -48 -61.5 -91.5t-74.5 -76.5z" />
    <glyph glyph-name="ocircumflex" unicode="&#xf4;" horiz-adv-x="588" 
d="M275 -14q-56 0 -101.5 20t-75.5 54.5t-45.5 79.5t-15.5 93q0 56 21 107t58.5 89.5t88.5 60.5t109 22q55 0 100 -20t75.5 -55t46 -80t15.5 -94q0 -56 -21 -107t-58.5 -89t-88.5 -59.5t-108 -21.5zM298 64q21 0 43.5 9t43.5 34t30.5 62t9.5 70t-11 79t-44 81t-79 35
q-28 0 -52 -14t-41 -38.5t-25.5 -58t-8.5 -66.5q0 -14 4.5 -49t21 -67.5t43.5 -54.5t65 -22zM455 577l-69 -24q-45 64 -93 108q-51 -67 -100 -107l-62 19q65 72 115 156l93 9q67 -75 116 -161z" />
    <glyph glyph-name="otilde" unicode="&#xf5;" horiz-adv-x="588" 
d="M275 -14q-56 0 -101.5 20t-75.5 54.5t-45.5 79.5t-15.5 93q0 56 21 107t58.5 89.5t88.5 60.5t109 22q55 0 100 -20t75.5 -55t46 -80t15.5 -94q0 -56 -21 -107t-58.5 -89t-88.5 -59.5t-108 -21.5zM298 64q21 0 43.5 9t43.5 34t30.5 62t9.5 70t-11 79t-44 81t-79 35
q-28 0 -52 -14t-41 -38.5t-25.5 -58t-8.5 -66.5q0 -14 4.5 -49t21 -67.5t43.5 -54.5t65 -22zM213 576l-69 -6q-3 34 6.5 65.5t35.5 51t54 19.5q19 0 37 -9t43 -30t36 -21q12 0 18.5 14.5t1.5 41.5l71 7q6 -67 -23 -101.5t-69 -34.5q-20 0 -39.5 9t-43.5 30t-34 21
q-12 0 -20 -15t-5 -42z" />
    <glyph glyph-name="odieresis" unicode="&#xf6;" horiz-adv-x="588" 
d="M275 -14q-56 0 -101.5 20t-75.5 54.5t-45.5 79.5t-15.5 93q0 56 21 107t58.5 89.5t88.5 60.5t109 22q55 0 100 -20t75.5 -55t46 -80t15.5 -94q0 -56 -21 -107t-58.5 -89t-88.5 -59.5t-108 -21.5zM298 64q21 0 43.5 9t43.5 34t30.5 62t9.5 70t-11 79t-44 81t-79 35
q-28 0 -52 -14t-41 -38.5t-25.5 -58t-8.5 -66.5q0 -14 4.5 -49t21 -67.5t43.5 -54.5t65 -22zM398 611q-28 0 -47 19t-19 45q0 27 20.5 47.5t48.5 20.5q29 0 48 -18.5t19 -46.5q0 -27 -20 -47t-50 -20zM188 611q-29 0 -48 19t-19 45q0 27 20.5 47.5t49.5 20.5t48 -18.5
t19 -46.5q0 -27 -20 -47t-50 -20z" />
    <glyph glyph-name="divide" unicode="&#xf7;" horiz-adv-x="594" 
d="M67 318l472 14l-21 -97h-463zM296 395q-28 0 -47.5 19t-19.5 45q0 27 20.5 46t49.5 19t48 -18t19 -46q0 -26 -20.5 -45.5t-49.5 -19.5zM296 34q-28 0 -47.5 19t-19.5 45t20.5 45.5t49.5 19.5t48 -18t19 -46q0 -26 -20.5 -45.5t-49.5 -19.5z" />
    <glyph glyph-name="oslash" unicode="&#xf8;" horiz-adv-x="588" 
d="M127 -47l-57 26l45 65q-28 25 -46.5 60t-25 69t-6.5 60q0 56 21 107t58.5 89.5t88.5 60.5t109 22t112 -27l35 50l57 -23l-42 -61q36 -33 55.5 -83.5t19.5 -104.5q0 -56 -21 -107t-58.5 -89t-88.5 -59.5t-108 -21.5t-108 23zM164 257q0 -27 6.5 -57t18.5 -51l178 252
q-15 15 -35.5 24t-40.5 9q-28 0 -52 -14t-41 -38.5t-25.5 -58t-8.5 -66.5zM298 64q21 0 43.5 9t43.5 34t30.5 62t9.5 70q0 25 -6.5 54t-17.5 50l-176 -251q30 -28 73 -28z" />
    <glyph glyph-name="ugrave" unicode="&#xf9;" horiz-adv-x="578" 
d="M70 163v151q0 84 -7 169l130 28v-331q0 -46 25 -74.5t62 -28.5q50 0 105 53v184q0 75 -6 169l128 28v-328q0 -79 8 -170l-112 -25l-11 75l-10 1q-46 -37 -74.5 -53t-53 -20t-34.5 -4q-65 0 -107.5 49t-42.5 127zM338 577l-70 -24q-67 91 -129 158l104 43
q26 -33 52.5 -83.5t42.5 -93.5z" />
    <glyph glyph-name="uacute" unicode="&#xfa;" horiz-adv-x="578" 
d="M70 163v151q0 84 -7 169l130 28v-331q0 -46 25 -74.5t62 -28.5q50 0 105 53v184q0 75 -6 169l128 28v-328q0 -79 8 -170l-112 -25l-11 75l-10 1q-46 -37 -74.5 -53t-53 -20t-34.5 -4q-65 0 -107.5 49t-42.5 127zM306 554l-63 19q59 91 93 171l106 -22
q-26 -48 -61.5 -91.5t-74.5 -76.5z" />
    <glyph glyph-name="ucircumflex" unicode="&#xfb;" horiz-adv-x="578" 
d="M70 163v151q0 84 -7 169l130 28v-331q0 -46 25 -74.5t62 -28.5q50 0 105 53v184q0 75 -6 169l128 28v-328q0 -79 8 -170l-112 -25l-11 75l-10 1q-46 -37 -74.5 -53t-53 -20t-34.5 -4q-65 0 -107.5 49t-42.5 127zM451 577l-69 -24q-45 64 -93 108q-51 -67 -100 -107
l-62 19q65 72 115 156l93 9q67 -75 116 -161z" />
    <glyph glyph-name="udieresis" unicode="&#xfc;" horiz-adv-x="578" 
d="M70 163v151q0 84 -7 169l130 28v-331q0 -46 25 -74.5t62 -28.5q50 0 105 53v184q0 75 -6 169l128 28v-328q0 -79 8 -170l-112 -25l-11 75l-10 1q-46 -37 -74.5 -53t-53 -20t-34.5 -4q-65 0 -107.5 49t-42.5 127zM396 611q-28 0 -47 19t-19 45q0 27 20.5 47.5t48.5 20.5
q29 0 48 -18.5t19 -46.5q0 -27 -20 -47t-50 -20zM186 611q-29 0 -48 19t-19 45q0 27 20.5 47.5t49.5 20.5t48 -18.5t19 -46.5q0 -27 -20 -47t-50 -20z" />
    <glyph glyph-name="yacute" unicode="&#xfd;" horiz-adv-x="509" 
d="M55 -220l-2 15q23 15 54.5 46.5t63 76.5t48.5 79l-5 6l-33 -4l-166 493l139 17q18 -86 43 -171l23 -80q34 -124 39 -153h8q11 50 44 153l80 246l110 -6q-53 -125 -78 -192l-88 -231q-47 -127 -100 -215.5t-99 -124.5zM276 554l-63 19q59 91 93 171l106 -22
q-26 -48 -61.5 -91.5t-74.5 -76.5z" />
    <glyph glyph-name="thorn" unicode="&#xfe;" horiz-adv-x="597" 
d="M70 -36v582q0 79 -7 189l130 28v-132q0 -117 -6 -195l10 -1q52 44 90.5 60t76.5 16q43 0 79.5 -19.5t61.5 -53t38 -77t13 -90.5q0 -60 -21 -112t-58.5 -89.5t-90.5 -58t-113 -20.5q-35 0 -80 5v-38q0 -30 5 -205l-130 -5q3 119 2 216zM193 370v-281q44 -19 91 -19
q42 0 74 21.5t51.5 62t19.5 96.5q0 33 -11 73.5t-41 69t-72 28.5q-27 0 -56.5 -13t-55.5 -38z" />
    <glyph glyph-name="ydieresis" unicode="&#xff;" horiz-adv-x="509" 
d="M55 -220l-2 15q23 15 54.5 46.5t63 76.5t48.5 79l-5 6l-33 -4l-166 493l139 17q18 -86 43 -171l23 -80q34 -124 39 -153h8q11 50 44 153l80 246l110 -6q-53 -125 -78 -192l-88 -231q-47 -127 -100 -215.5t-99 -124.5zM370 611q-28 0 -47 19t-19 45q0 27 20.5 47.5
t48.5 20.5q29 0 48 -18.5t19 -46.5q0 -27 -20 -47t-50 -20zM160 611q-29 0 -48 19t-19 45q0 27 20.5 47.5t49.5 20.5t48 -18.5t19 -46.5q0 -27 -20 -47t-50 -20z" />
    <glyph glyph-name="Amacron" unicode="&#x100;" horiz-adv-x="673" 
d="M127 -2l-116 4q89 203 155 374l122 318l103 9l269 -698l-150 -9q-31 119 -59 195l-131 2q-48 0 -124 -6zM426 271l-57 159q-26 73 -40 143l-9 -1q-13 -69 -40 -145l-56 -157l96 -1zM202 763l11 72l268 10l-18 -82h-261z" />
    <glyph glyph-name="amacron" unicode="&#x101;" horiz-adv-x="517" 
d="M318 53l-9 2q-82 -69 -146 -69q-51 0 -88 34.5t-37 93.5q0 75 69 117.5t204 62.5v44q0 39 -25.5 63.5t-63.5 24.5q-61 0 -142 -59l-8 5l-22 78q107 59 205 59q86 0 131.5 -39t45.5 -117v-235q0 -47 33 -47q14 0 27 5l16 -48q-21 -18 -51 -29t-54 -11q-31 -1 -54.5 14.5
t-30.5 50.5zM311 116v116q-77 -11 -116 -33.5t-39 -64.5q0 -31 18 -48t44 -17q38 0 93 47zM120 592l11 72l252 10l-17 -82h-246z" />
    <glyph glyph-name="Abreve" unicode="&#x102;" horiz-adv-x="673" 
d="M127 -2l-116 4q89 203 155 374l122 318l103 9l269 -698l-150 -9q-31 119 -59 195l-131 2q-48 0 -124 -6zM426 271l-57 159q-26 73 -40 143l-9 -1q-13 -69 -40 -145l-56 -157l96 -1zM424 891l71 12q2 -35 -12.5 -70.5t-55 -58t-94.5 -22.5q-29 0 -54.5 6.5t-45.5 20
t-35 41t-13 71.5l72 12q1 -41 25.5 -61t61.5 -20q25 0 44.5 9.5t27.5 26.5t8 33z" />
    <glyph glyph-name="abreve" unicode="&#x103;" horiz-adv-x="517" 
d="M318 53l-9 2q-82 -69 -146 -69q-51 0 -88 34.5t-37 93.5q0 75 69 117.5t204 62.5v44q0 39 -25.5 63.5t-63.5 24.5q-61 0 -142 -59l-8 5l-22 78q107 59 205 59q86 0 131.5 -39t45.5 -117v-235q0 -47 33 -47q14 0 27 5l16 -48q-21 -18 -51 -29t-54 -11q-31 -1 -54.5 14.5
t-30.5 50.5zM311 116v116q-77 -11 -116 -33.5t-39 -64.5q0 -31 18 -48t44 -17q38 0 93 47zM324 705l69 12q1 -27 -5.5 -54t-25 -49t-49 -36t-72.5 -14q-27 0 -50 7t-41.5 20.5t-33 41.5t-12.5 72l71 12q0 -19 8 -39t27 -31.5t43 -11.5q29 0 50 18.5t21 51.5z" />
    <glyph glyph-name="Aogonek" unicode="&#x104;" horiz-adv-x="673" 
d="M127 -2l-116 4q89 203 155 374l122 318l103 9l269 -698l-74 -4q-32 -21 -53 -48t-21 -51q0 -18 12 -29.5t31 -11.5q23 0 45 13l21 -43q-20 -18 -45.5 -29.5t-52.5 -11.5q-39 0 -65.5 23t-26.5 59q0 31 20.5 64.5t58.5 62.5q-34 124 -59 192l-131 2q-48 0 -124 -6z
M426 271l-57 159q-26 73 -40 143l-9 -1q-13 -69 -40 -145l-56 -157l96 -1z" />
    <glyph glyph-name="aogonek" unicode="&#x105;" horiz-adv-x="517" 
d="M318 53l-9 2q-82 -69 -146 -69q-51 0 -88 34.5t-37 93.5q0 75 69 117.5t204 62.5v42q0 39 -25.5 64t-63.5 25q-29 0 -65.5 -15t-76.5 -45l-8 6l-22 77q107 59 205 59q86 0 131.5 -39t45.5 -116v-234q0 -47 33 -47q14 0 27 5l16 -48q-21 -18 -37 -25q-33 -21 -55 -49
t-22 -52q0 -18 12 -29.5t31 -11.5q23 0 45 13l21 -43q-20 -18 -45.5 -29.5t-52.5 -11.5q-39 0 -65.5 23t-26.5 59q0 60 67 118q-51 9 -62 63zM311 114v118q-77 -11 -116 -33.5t-39 -64.5q0 -31 18 -48t44 -17q41 0 93 45z" />
    <glyph glyph-name="Cacute" unicode="&#x106;" horiz-adv-x="669" 
d="M600 125l30 -55q-49 -43 -113.5 -65t-134.5 -22q-72 0 -132.5 24.5t-103.5 70t-66.5 110.5t-23.5 142q0 43 10.5 95.5t38.5 102t68 86t89 59.5t95 31t80 8q38 0 87 -7.5t96 -22.5l-22 -100l-9 -4q-92 48 -168 48q-46 0 -88.5 -19.5t-74.5 -55.5t-50 -87t-18 -110
q0 -57 16.5 -107.5t47 -88.5t74.5 -59t96 -21q28 0 62.5 5.5t64 17.5t49.5 24zM364 750l-40 47q44 26 95 62t85 69l80 -67q-44 -33 -106 -64t-114 -47z" />
    <glyph glyph-name="cacute" unicode="&#x107;" horiz-adv-x="469" 
d="M423 103l25 -49q-72 -65 -175 -65q-107 0 -170 65.5t-63 173.5q0 61 21.5 113t60 89.5t90 57.5t109.5 20q28 0 63 -5t61 -15l-22 -90l-10 -5q-24 15 -52.5 24t-50.5 9q-63 0 -104 -47.5t-41 -126.5q0 -81 43.5 -128t113.5 -47q50 0 101 26zM286 554l-63 19q59 91 93 171
l106 -22q-26 -48 -61.5 -91.5t-74.5 -76.5z" />
    <glyph glyph-name="Ccircumflex" unicode="&#x108;" horiz-adv-x="669" 
d="M600 125l30 -55q-49 -43 -113.5 -65t-134.5 -22q-72 0 -132.5 24.5t-103.5 70t-66.5 110.5t-23.5 142q0 43 10.5 95.5t38.5 102t68 86t89 59.5t95 31t80 8q38 0 87 -7.5t96 -22.5l-22 -100l-9 -4q-92 48 -168 48q-46 0 -88.5 -19.5t-74.5 -55.5t-50 -87t-18 -110
q0 -57 16.5 -107.5t47 -88.5t74.5 -59t96 -21q28 0 62.5 5.5t64 17.5t49.5 24zM255 738l-35 46q33 23 72 58.5t68 67.5l64 7q40 -23 83.5 -59.5t72.5 -70.5l-45 -49q-65 58 -139 92q-79 -63 -141 -92z" />
    <glyph glyph-name="ccircumflex" unicode="&#x109;" horiz-adv-x="469" 
d="M423 103l25 -49q-72 -65 -175 -65q-107 0 -170 65.5t-63 173.5q0 61 21.5 113t60 89.5t90 57.5t109.5 20q28 0 63 -5t61 -15l-22 -90l-10 -5q-24 15 -52.5 24t-50.5 9q-63 0 -104 -47.5t-41 -126.5q0 -81 43.5 -128t113.5 -47q50 0 101 26zM432 577l-69 -24
q-45 64 -93 108q-51 -67 -100 -107l-62 19q65 72 115 156l93 9q67 -75 116 -161z" />
    <glyph glyph-name="Cdotaccent" unicode="&#x10a;" horiz-adv-x="669" 
d="M600 125l30 -55q-49 -43 -113.5 -65t-134.5 -22q-72 0 -132.5 24.5t-103.5 70t-66.5 110.5t-23.5 142q0 43 10.5 95.5t38.5 102t68 86t89 59.5t95 31t80 8q38 0 87 -7.5t96 -22.5l-22 -100l-9 -4q-92 48 -168 48q-46 0 -88.5 -19.5t-74.5 -55.5t-50 -87t-18 -110
q0 -57 16.5 -107.5t47 -88.5t74.5 -59t96 -21q28 0 62.5 5.5t64 17.5t49.5 24zM398 774q-31 0 -51 19.5t-20 47.5q0 29 21.5 48.5t51.5 19.5t50.5 -19t20.5 -48q0 -28 -21.5 -48t-51.5 -20z" />
    <glyph glyph-name="cdotaccent" unicode="&#x10b;" horiz-adv-x="469" 
d="M423 103l25 -49q-72 -65 -175 -65q-107 0 -170 65.5t-63 173.5q0 61 21.5 113t60 89.5t90 57.5t109.5 20q28 0 63 -5t61 -15l-22 -90l-10 -5q-24 15 -52.5 24t-50.5 9q-63 0 -104 -47.5t-41 -126.5q0 -81 43.5 -128t113.5 -47q50 0 101 26zM280 605q-31 0 -51 19.5
t-20 48.5q0 28 21.5 48t51.5 20t50.5 -19.5t20.5 -47.5q0 -29 -21.5 -49t-51.5 -20z" />
    <glyph glyph-name="Ccaron" unicode="&#x10c;" horiz-adv-x="669" 
d="M600 125l30 -55q-49 -43 -113.5 -65t-134.5 -22q-72 0 -132.5 24.5t-103.5 70t-66.5 110.5t-23.5 142q0 43 10.5 95.5t38.5 102t68 86t89 59.5t95 31t80 8q38 0 87 -7.5t96 -22.5l-22 -100l-9 -4q-92 48 -168 48q-46 0 -88.5 -19.5t-74.5 -55.5t-50 -87t-18 -110
q0 -57 16.5 -107.5t47 -88.5t74.5 -59t96 -21q28 0 62.5 5.5t64 17.5t49.5 24zM547 921l34 -46q-74 -53 -139 -126l-64 -8q-41 24 -84 60.5t-73 71.5l45 48q64 -57 139 -93q78 63 142 93z" />
    <glyph glyph-name="ccaron" unicode="&#x10d;" horiz-adv-x="469" 
d="M423 103l25 -49q-72 -65 -175 -65q-107 0 -170 65.5t-63 173.5q0 61 21.5 113t60 89.5t90 57.5t109.5 20q28 0 63 -5t61 -15l-22 -90l-10 -5q-24 15 -52.5 24t-50.5 9q-63 0 -104 -47.5t-41 -126.5q0 -81 43.5 -128t113.5 -47q50 0 101 26zM116 718l68 24q44 -62 94 -107
q50 64 101 106l60 -18q-65 -75 -114 -157l-93 -10q-64 73 -116 162z" />
    <glyph glyph-name="Dcaron" unicode="&#x10e;" horiz-adv-x="781" 
d="M88 0q6 173 6 341q0 180 -6 351q48 5 125 10t130 5q90 0 162.5 -23t121.5 -67t74.5 -107t25.5 -141q0 -73 -23.5 -140.5t-71.5 -121t-124.5 -84.5t-175.5 -31q-100 0 -244 8zM225 82q72 -9 124 -9q45 0 89 14.5t77.5 49t54 89t20.5 127.5q0 128 -69.5 199.5t-194.5 71.5
q-50 0 -101 -3q-6 -112 -6 -272q0 -161 6 -267zM512 921l34 -46q-74 -53 -139 -126l-64 -8q-41 24 -84 60.5t-73 71.5l45 48q64 -57 139 -93q78 63 142 93z" />
    <glyph glyph-name="dcaron" unicode="&#x10f;" horiz-adv-x="729" 
d="M404 127v281q-49 20 -91 20t-74 -21.5t-51.5 -62t-19.5 -97.5q0 -33 11 -73.5t41 -68.5t72 -28q26 0 56 13t56 37zM404 502v39q0 54 -8 194l131 28v-584q0 -55 8 -167l-115 -24l-10 74l-10 1q-52 -44 -90.5 -60t-76.5 -16q-32 0 -66 13t-62 43.5t-46.5 77.5t-18.5 107
q0 28 7 64t25.5 72t52 69t86 53.5t113.5 20.5q37 0 80 -5zM624 523l-30 26q19 17 33 43.5t18 50.5q-17 11 -46 16q-10 19 -10 36q0 25 21 43t49 18q29 0 49.5 -19.5t20.5 -56.5q0 -20 -9.5 -48t-35.5 -59t-60 -50z" />
    <glyph glyph-name="Dcroat" unicode="&#x110;" horiz-adv-x="801" 
d="M29 319l7 64l78 2q-2 164 -6 307q48 5 125 10t130 5q90 0 162.5 -23t121.5 -67t74.5 -107t25.5 -141q0 -73 -23.5 -140.5t-71.5 -121t-124.5 -84.5t-175.5 -31q-100 0 -244 8q6 161 6 319h-85zM245 82q72 -9 124 -9q45 0 89 14.5t77.5 49t54 89t20.5 127.5
q0 128 -69.5 199.5t-194.5 71.5q-50 0 -101 -3q-6 -118 -6 -232l175 6l-15 -76h-160q0 -121 6 -237z" />
    <glyph glyph-name="dcroat" unicode="&#x111;" horiz-adv-x="607" 
d="M223 567l6 63l172 5l-5 100l131 28v-124l84 3l-16 -75h-68v-353q0 -95 8 -202l-115 -24l-10 74l-10 1q-47 -40 -83.5 -56t-71.5 -18q-20 -1 -45 2q-46 8 -84 41.5t-57 87.5t-19 108q0 28 7 64t25.5 72t52 69t86 53.5t113.5 20.5q37 0 80 -5v44v21h-181zM404 127v281
q-49 20 -91 20t-74 -21.5t-51.5 -62t-19.5 -97.5q0 -33 11 -73.5t41 -68.5t72 -28q27 0 57 13t55 37z" />
    <glyph glyph-name="Emacron" unicode="&#x112;" horiz-adv-x="578" 
d="M515 0h-427q6 182 6 349q0 182 -6 350q110 -3 226 -3q104 0 206 3l-17 -95q-106 8 -280 14q-4 -100 -4 -222q153 2 255 9l-19 -91q-97 6 -236 8q0 -133 4 -245q153 4 309 16zM165 763l11 72l268 10l-18 -82h-261z" />
    <glyph glyph-name="emacron" unicode="&#x113;" horiz-adv-x="530" 
d="M450 108l26 -48q-40 -38 -92 -54.5t-101 -16.5q-52 0 -97 16t-77.5 47t-50.5 76.5t-18 102.5q0 62 21 114.5t57 89t82 56t94 19.5q61 0 111 -31.5t72.5 -93t3.5 -138.5h-318q-1 -52 21 -92.5t64 -59t88 -18.5q61 0 114 31zM164 304l214 13q2 37 -15.5 66t-41.5 39.5
t-43 10.5q-30 0 -57.5 -19.5t-41 -50t-15.5 -59.5zM142 592l11 72l252 10l-17 -82h-246z" />
    <glyph glyph-name="Ebreve" unicode="&#x114;" horiz-adv-x="578" 
d="M515 0h-427q6 182 6 349q0 182 -6 350q110 -3 226 -3q104 0 206 3l-17 -95q-106 8 -280 14q-4 -100 -4 -222q153 2 255 9l-19 -91q-97 6 -236 8q0 -133 4 -245q153 4 309 16zM386 891l71 12q2 -35 -12.5 -70.5t-55 -58t-94.5 -22.5q-29 0 -54.5 6.5t-45.5 20t-35 41
t-13 71.5l72 12q1 -41 25.5 -61t61.5 -20q25 0 44.5 9.5t27.5 26.5t8 33z" />
    <glyph glyph-name="ebreve" unicode="&#x115;" horiz-adv-x="530" 
d="M450 108l26 -48q-40 -38 -92 -54.5t-101 -16.5q-52 0 -97 16t-77.5 47t-50.5 76.5t-18 102.5q0 62 21 114.5t57 89t82 56t94 19.5q61 0 111 -31.5t72.5 -93t3.5 -138.5h-318q-1 -52 21 -92.5t64 -59t88 -18.5q61 0 114 31zM164 304l214 13q2 37 -15.5 66t-41.5 39.5
t-43 10.5q-30 0 -57.5 -19.5t-41 -50t-15.5 -59.5zM359 705l69 12q1 -27 -5.5 -54t-25 -49t-49 -36t-72.5 -14q-27 0 -50 7t-41.5 20.5t-33 41.5t-12.5 72l71 12q0 -19 8 -39t27 -31.5t43 -11.5q29 0 50 18.5t21 51.5z" />
    <glyph glyph-name="Edotaccent" unicode="&#x116;" horiz-adv-x="578" 
d="M515 0h-427q6 182 6 349q0 182 -6 350q110 -3 226 -3q104 0 206 3l-17 -95q-106 8 -280 14q-4 -100 -4 -222q153 2 255 9l-19 -91q-97 6 -236 8q0 -133 4 -245q153 4 309 16zM306 774q-31 0 -51 19.5t-20 47.5q0 29 21.5 48.5t51.5 19.5t50.5 -19t20.5 -48
q0 -28 -21.5 -48t-51.5 -20z" />
    <glyph glyph-name="edotaccent" unicode="&#x117;" horiz-adv-x="530" 
d="M450 108l26 -48q-40 -38 -92 -54.5t-101 -16.5q-52 0 -97 16t-77.5 47t-50.5 76.5t-18 102.5q0 62 21 114.5t57 89t82 56t94 19.5q61 0 111 -31.5t72.5 -93t3.5 -138.5h-318q-1 -52 21 -92.5t64 -59t88 -18.5q61 0 114 31zM164 304l214 13q2 37 -15.5 66t-41.5 39.5
t-43 10.5q-30 0 -57.5 -19.5t-41 -50t-15.5 -59.5zM273 605q-31 0 -51 19.5t-20 48.5q0 28 21.5 48t51.5 20t50.5 -19.5t20.5 -47.5q0 -29 -21.5 -49t-51.5 -20z" />
    <glyph glyph-name="Eogonek" unicode="&#x118;" horiz-adv-x="578" 
d="M515 0h-31q-31 -21 -51.5 -48t-20.5 -50q0 -18 11.5 -29.5t30.5 -11.5q23 0 45 13l22 -43q-21 -19 -47.5 -30t-50.5 -11q-40 0 -66.5 23t-26.5 59q0 31 21 65t59 63h-322q6 182 6 349q0 182 -6 350q110 -3 226 -3q104 0 206 3l-17 -95q-106 8 -280 14q-4 -100 -4 -222
q153 2 255 9l-19 -91q-97 6 -236 8q0 -133 4 -245q153 4 309 16z" />
    <glyph glyph-name="eogonek" unicode="&#x119;" horiz-adv-x="530" 
d="M450 108l26 -48q-32 -30 -70 -47h1q-39 -22 -66 -53t-27 -58q0 -18 11.5 -29.5t30.5 -11.5q23 0 45 13l22 -43q-20 -18 -45.5 -29.5t-52.5 -11.5q-40 0 -66.5 23t-26.5 59q0 29 17.5 59.5t49.5 57.5h-16q-52 0 -97 16t-77.5 47t-50.5 76.5t-18 102.5q0 62 21 114.5t57 89
t82 56t94 19.5q61 0 111 -31.5t72.5 -93t3.5 -138.5h-318q-1 -52 21 -92.5t64 -59t88 -18.5q61 0 114 31zM164 304l214 13q2 37 -15.5 66t-41.5 39.5t-43 10.5q-30 0 -57.5 -19.5t-41 -50t-15.5 -59.5z" />
    <glyph glyph-name="Ecaron" unicode="&#x11a;" horiz-adv-x="578" 
d="M515 0h-427q6 182 6 349q0 182 -6 350q110 -3 226 -3q104 0 206 3l-17 -95q-106 8 -280 14q-4 -100 -4 -222q153 2 255 9l-19 -91q-97 6 -236 8q0 -133 4 -245q153 4 309 16zM448 921l34 -46q-74 -53 -139 -126l-64 -8q-41 24 -84 60.5t-73 71.5l45 48q64 -57 139 -93
q78 63 142 93z" />
    <glyph glyph-name="ecaron" unicode="&#x11b;" horiz-adv-x="530" 
d="M450 108l26 -48q-40 -38 -92 -54.5t-101 -16.5q-52 0 -97 16t-77.5 47t-50.5 76.5t-18 102.5q0 62 21 114.5t57 89t82 56t94 19.5q61 0 111 -31.5t72.5 -93t3.5 -138.5h-318q-1 -52 21 -92.5t64 -59t88 -18.5q61 0 114 31zM164 304l214 13q2 37 -15.5 66t-41.5 39.5
t-43 10.5q-30 0 -57.5 -19.5t-41 -50t-15.5 -59.5zM115 718l68 24q44 -62 94 -107q50 64 101 106l60 -18q-65 -75 -114 -157l-93 -10q-64 73 -116 162z" />
    <glyph glyph-name="Gcircumflex" unicode="&#x11c;" horiz-adv-x="713" 
d="M532 325l121 27q-3 -60 -3 -147q0 -88 4 -171q-56 -24 -125 -37.5t-125 -13.5q-74 0 -138.5 24.5t-112 71t-73.5 112.5t-26 145q0 65 18.5 123t51.5 102.5t85 81t116.5 53t120.5 16.5q85 0 183 -29l-21 -101l-8 -4q-91 49 -171 49q-49 0 -93 -21t-76.5 -58.5t-50.5 -88
t-18 -106.5q0 -57 18 -109.5t51 -92.5t78 -63t96 -23q37 0 107 20v77q0 69 -9 163zM260 738l-35 46q33 23 72 58.5t68 67.5l64 7q40 -23 83.5 -59.5t72.5 -70.5l-45 -49q-65 58 -139 92q-79 -63 -141 -92z" />
    <glyph glyph-name="gcircumflex" unicode="&#x11d;" horiz-adv-x="557" 
d="M320 -39l-119 10q-18 -12 -32.5 -28t-20.5 -31t-6 -27q0 -32 33 -53.5t91 -21.5q30 0 65 8.5t58.5 30.5t23.5 49q0 26 -25.5 43t-67.5 20zM128 -24v8q-31 8 -51.5 26.5t-20.5 43.5q0 21 17 42.5t71 57.5l2 9q-49 23 -76 64.5t-27 87.5q0 50 32.5 96.5t89 72t111.5 25.5
q27 0 60 -6.5t54 -18.5l167 16l-16 -85l-86 6l-2 -6q23 -37 23 -80q0 -30 -13 -62.5t-42.5 -61t-73.5 -48t-94 -19.5q-27 0 -43 4q-39 -23 -39 -47q0 -15 12.5 -25t35.5 -11l139 -11q34 -3 73 -14.5t65.5 -39t26.5 -69.5q0 -36 -20 -71.5t-58 -63t-93.5 -44t-122.5 -16.5
q-91 0 -146 29.5t-55 80.5q0 18 10.5 40t32.5 43t57 47zM266 217q18 0 40 9.5t39 35.5t17 60q0 22 -10 49t-35.5 46.5t-55.5 19.5q-18 0 -40.5 -10t-38.5 -36.5t-16 -60.5q0 -22 9.5 -48.5t34.5 -45.5t56 -19zM439 577l-69 -24q-45 64 -93 108q-51 -67 -100 -107l-62 19
q65 72 115 156l93 9q67 -75 116 -161z" />
    <glyph glyph-name="Gbreve" unicode="&#x11e;" horiz-adv-x="713" 
d="M532 325l121 27q-3 -60 -3 -147q0 -88 4 -171q-56 -24 -125 -37.5t-125 -13.5q-74 0 -138.5 24.5t-112 71t-73.5 112.5t-26 145q0 65 18.5 123t51.5 102.5t85 81t116.5 53t120.5 16.5q85 0 183 -29l-21 -101l-8 -4q-91 49 -171 49q-49 0 -93 -21t-76.5 -58.5t-50.5 -88
t-18 -106.5q0 -57 18 -109.5t51 -92.5t78 -63t96 -23q37 0 107 20v77q0 69 -9 163zM490 891l71 12q2 -35 -12.5 -70.5t-55 -58t-94.5 -22.5q-29 0 -54.5 6.5t-45.5 20t-35 41t-13 71.5l72 12q1 -41 25.5 -61t61.5 -20q25 0 44.5 9.5t27.5 26.5t8 33z" />
    <glyph glyph-name="gbreve" unicode="&#x11f;" horiz-adv-x="557" 
d="M320 -39l-119 10q-18 -12 -32.5 -28t-20.5 -31t-6 -27q0 -32 33 -53.5t91 -21.5q30 0 65 8.5t58.5 30.5t23.5 49q0 26 -25.5 43t-67.5 20zM128 -24v8q-31 8 -51.5 26.5t-20.5 43.5q0 21 17 42.5t71 57.5l2 9q-49 23 -76 64.5t-27 87.5q0 50 32.5 96.5t89 72t111.5 25.5
q27 0 60 -6.5t54 -18.5l167 16l-16 -85l-86 6l-2 -6q23 -37 23 -80q0 -30 -13 -62.5t-42.5 -61t-73.5 -48t-94 -19.5q-27 0 -43 4q-39 -23 -39 -47q0 -15 12.5 -25t35.5 -11l139 -11q34 -3 73 -14.5t65.5 -39t26.5 -69.5q0 -36 -20 -71.5t-58 -63t-93.5 -44t-122.5 -16.5
q-91 0 -146 29.5t-55 80.5q0 18 10.5 40t32.5 43t57 47zM266 217q18 0 40 9.5t39 35.5t17 60q0 22 -10 49t-35.5 46.5t-55.5 19.5q-18 0 -40.5 -10t-38.5 -36.5t-16 -60.5q0 -22 9.5 -48.5t34.5 -45.5t56 -19zM347 705l69 12q1 -27 -5.5 -54t-25 -49t-49 -36t-72.5 -14
q-27 0 -50 7t-41.5 20.5t-33 41.5t-12.5 72l71 12q0 -19 8 -39t27 -31.5t43 -11.5q29 0 50 18.5t21 51.5z" />
    <glyph glyph-name="Gdotaccent" unicode="&#x120;" horiz-adv-x="713" 
d="M532 325l121 27q-3 -60 -3 -147q0 -88 4 -171q-56 -24 -125 -37.5t-125 -13.5q-74 0 -138.5 24.5t-112 71t-73.5 112.5t-26 145q0 65 18.5 123t51.5 102.5t85 81t116.5 53t120.5 16.5q85 0 183 -29l-21 -101l-8 -4q-91 49 -171 49q-49 0 -93 -21t-76.5 -58.5t-50.5 -88
t-18 -106.5q0 -57 18 -109.5t51 -92.5t78 -63t96 -23q37 0 107 20v77q0 69 -9 163zM406 774q-31 0 -51 19.5t-20 47.5q0 29 21.5 48.5t51.5 19.5t50.5 -19t20.5 -48q0 -28 -21.5 -48t-51.5 -20z" />
    <glyph glyph-name="gdotaccent" unicode="&#x121;" horiz-adv-x="557" 
d="M320 -39l-119 10q-18 -12 -32.5 -28t-20.5 -31t-6 -27q0 -32 33 -53.5t91 -21.5q30 0 65 8.5t58.5 30.5t23.5 49q0 26 -25.5 43t-67.5 20zM128 -24v8q-31 8 -51.5 26.5t-20.5 43.5q0 21 17 42.5t71 57.5l2 9q-49 23 -76 64.5t-27 87.5q0 50 32.5 96.5t89 72t111.5 25.5
q27 0 60 -6.5t54 -18.5l167 16l-16 -85l-86 6l-2 -6q23 -37 23 -80q0 -30 -13 -62.5t-42.5 -61t-73.5 -48t-94 -19.5q-27 0 -43 4q-39 -23 -39 -47q0 -15 12.5 -25t35.5 -11l139 -11q34 -3 73 -14.5t65.5 -39t26.5 -69.5q0 -36 -20 -71.5t-58 -63t-93.5 -44t-122.5 -16.5
q-91 0 -146 29.5t-55 80.5q0 18 10.5 40t32.5 43t57 47zM266 217q18 0 40 9.5t39 35.5t17 60q0 22 -10 49t-35.5 46.5t-55.5 19.5q-18 0 -40.5 -10t-38.5 -36.5t-16 -60.5q0 -22 9.5 -48.5t34.5 -45.5t56 -19zM268 605q-31 0 -51 19.5t-20 48.5q0 28 21.5 48t51.5 20
t50.5 -19.5t20.5 -47.5q0 -29 -21.5 -49t-51.5 -20z" />
    <glyph glyph-name="Gcommaaccent" unicode="&#x122;" horiz-adv-x="713" 
d="M532 325l121 27q-3 -60 -3 -147q0 -88 4 -171q-56 -24 -125 -37.5t-125 -13.5q-74 0 -138.5 24.5t-112 71t-73.5 112.5t-26 145q0 65 18.5 123t51.5 102.5t85 81t116.5 53t120.5 16.5q85 0 183 -29l-21 -101l-8 -4q-91 49 -171 49q-49 0 -93 -21t-76.5 -58.5t-50.5 -88
t-18 -106.5q0 -57 18 -109.5t51 -92.5t78 -63t96 -23q37 0 107 20v77q0 69 -9 163zM374 -274l-30 25q19 18 33.5 44t18.5 50q-16 12 -47 17q-9 15 -9 36q0 25 20.5 43t48.5 18q29 0 49.5 -19.5t20.5 -56.5q0 -20 -9.5 -48t-35.5 -59t-60 -50z" />
    <glyph glyph-name="gcommaaccent" unicode="&#x123;" horiz-adv-x="557" 
d="M320 -39l-119 10q-18 -12 -32.5 -28t-20.5 -31t-6 -27q0 -32 33 -53.5t91 -21.5q30 0 65 8.5t58.5 30.5t23.5 49q0 26 -25.5 43t-67.5 20zM128 -24v8q-31 8 -51.5 26.5t-20.5 43.5q0 21 17 42.5t71 57.5l2 9q-49 23 -76 64.5t-27 87.5q0 50 32.5 96.5t89 72t111.5 25.5
q27 0 60 -6.5t54 -18.5l167 16l-16 -85l-86 6l-2 -6q23 -37 23 -80q0 -30 -13 -62.5t-42.5 -61t-73.5 -48t-94 -19.5q-27 0 -43 4q-39 -23 -39 -47q0 -15 12.5 -25t35.5 -11l139 -11q34 -3 73 -14.5t65.5 -39t26.5 -69.5q0 -36 -20 -71.5t-58 -63t-93.5 -44t-122.5 -16.5
q-91 0 -146 29.5t-55 80.5q0 18 10.5 40t32.5 43t57 47zM266 217q18 0 40 9.5t39 35.5t17 60q0 22 -10 49t-35.5 46.5t-55.5 19.5q-18 0 -40.5 -10t-38.5 -36.5t-16 -60.5q0 -22 9.5 -48.5t34.5 -45.5t56 -19zM306 780l30 -25q-19 -17 -33.5 -43.5t-18.5 -50.5
q16 -11 47 -16q9 -17 9 -36q0 -25 -20.5 -43.5t-49.5 -18.5t-49.5 19.5t-20.5 57.5q0 41 30 86t76 70z" />
    <glyph glyph-name="Hcircumflex" unicode="&#x124;" horiz-adv-x="782" 
d="M227 0h-139q7 164 7 349q0 175 -6 349h138q-7 -177 -7 -296q57 -2 167 -2l175 3q0 93 -6 295h137q-6 -232 -6 -349q0 -115 6 -349h-137q6 222 6 317q-58 2 -175 2q-78 0 -167 -3q0 -122 7 -316zM248 738l-35 46q33 23 72 58.5t68 67.5l64 7q40 -23 83.5 -59.5t72.5 -70.5
l-45 -49q-65 58 -139 92q-79 -63 -141 -92z" />
    <glyph glyph-name="hcircumflex" unicode="&#x125;" horiz-adv-x="594" 
d="M69 0v533q0 108 -6 202l130 28v-229q0 -35 -4 -99l8 -1q62 46 99.5 61.5t72.5 15.5q42 0 79 -22t56 -64.5t19 -90.5v-334h-124v321q0 35 -15.5 59t-37 32t-39.5 8q-54 0 -114 -51v-369h-124zM-14 746l-35 46q34 23 73 59t67 67l65 7q40 -23 83 -59.5t72 -70.5l-44 -49
q-62 55 -139 92q-82 -66 -142 -92z" />
    <glyph glyph-name="Hbar" unicode="&#x126;" horiz-adv-x="787" 
d="M33 507l6 63l54 1l-3 127h138l-5 -125l336 6l-2 119h137l-4 -117l64 1l-16 -75h-49l-1 -158q0 -173 6 -349h-137q5 185 5 317q-57 2 -174 2q-78 0 -167 -3q0 -122 7 -316h-139q6 176 6 349l-1 158h-61zM562 403l-1 104h-339l-1 -105q57 -2 167 -2z" />
    <glyph glyph-name="hbar" unicode="&#x127;" horiz-adv-x="600" 
d="M-6 567l6 63l74 2l-4 103l129 28v-127l183 6l-16 -75h-167v-33q0 -35 -4 -99l8 -1q62 46 99.5 61.5t73.5 15.5q68 0 110.5 -49.5t42.5 -127.5v-334h-124v321q0 47 -26 73t-66 26q-52 0 -114 -51v-369h-123v533v34h-82z" />
    <glyph glyph-name="Itilde" unicode="&#x128;" horiz-adv-x="314" 
d="M228 0h-139q6 176 6 349q0 175 -6 349h138q-7 -205 -7 -349q0 -119 8 -349zM66 768l-78 -6q-5 51 14.5 84t47 44.5t46.5 11.5q21 0 41.5 -9.5t48.5 -31.5t40 -22q14 0 21 15.5t1 43.5l81 6q3 -25 -1 -50.5t-18.5 -47t-38.5 -31.5t-45 -10q-25 0 -46 10t-48 32t-39 22
q-13 0 -21.5 -16.5t-5.5 -44.5z" />
    <glyph glyph-name="itilde" unicode="&#x129;" horiz-adv-x="269" 
d="M54 576l-69 -6q-3 34 6.5 65.5t35.5 51t54 19.5q19 0 37 -9t43 -30t36 -21q12 0 18.5 14.5t1.5 41.5l71 7q6 -67 -23 -101.5t-69 -34.5q-20 0 -39.5 9t-43.5 30t-34 21q-12 0 -20 -15t-5 -42zM72 0v313q0 72 -7 170l131 28v-511h-124z" />
    <glyph glyph-name="Imacron" unicode="&#x12a;" horiz-adv-x="317" 
d="M228 0h-139q6 176 6 349q0 175 -6 349h138q-7 -205 -7 -349q0 -119 8 -349zM22 763l11 72l268 10l-18 -82h-261z" />
    <glyph glyph-name="imacron" unicode="&#x12b;" horiz-adv-x="271" 
d="M7 592l11 72l252 10l-17 -82h-246zM72 0v313q0 72 -7 170l131 28v-511h-124z" />
    <glyph glyph-name="Ibreve" unicode="&#x12c;" horiz-adv-x="316" 
d="M228 0h-139q6 176 6 349q0 175 -6 349h138q-7 -205 -7 -349q0 -119 8 -349zM244 891l71 12q2 -35 -12.5 -70.5t-55 -58t-94.5 -22.5q-29 0 -54.5 6.5t-45.5 20t-35 41t-13 71.5l72 12q1 -41 25.5 -61t61.5 -20q25 0 44.5 9.5t27.5 26.5t8 33z" />
    <glyph glyph-name="ibreve" unicode="&#x12d;" horiz-adv-x="269" 
d="M213 705l69 12q1 -27 -5.5 -54t-25 -49t-49 -36t-72.5 -14q-27 0 -50 7t-41.5 20.5t-33 41.5t-12.5 72l71 12q0 -19 8 -39t27 -31.5t43 -11.5q29 0 50 18.5t21 51.5zM72 0v313q0 72 -7 170l131 28v-511h-124z" />
    <glyph glyph-name="Iogonek" unicode="&#x12e;" horiz-adv-x="317" 
d="M228 0h-69q-31 -21 -51.5 -48t-20.5 -50q0 -18 12 -29.5t31 -11.5q22 0 45 13l21 -43q-20 -18 -45.5 -29.5t-52.5 -11.5q-40 0 -66.5 23t-26.5 59q0 32 22 66.5t62 64.5q6 174 6 346q0 175 -6 349h138q-7 -205 -7 -349q0 -119 8 -349z" />
    <glyph glyph-name="iogonek" unicode="&#x12f;" horiz-adv-x="270" 
d="M196 0h-54q-31 -21 -51.5 -48t-20.5 -50q0 -18 11.5 -29.5t30.5 -11.5q23 0 45 13l22 -43q-21 -19 -47.5 -30t-50.5 -11q-40 0 -66.5 23t-26.5 59q0 32 22 66.5t62 64.5v323q0 66 -7 157l131 28v-511zM133 605q-31 0 -53 20.5t-22 50.5q0 29 23 49.5t55 20.5
q31 0 52.5 -20.5t21.5 -49.5q0 -30 -23 -50.5t-54 -20.5z" />
    <glyph glyph-name="Idotaccent" unicode="&#x130;" horiz-adv-x="317" 
d="M228 0h-139q6 176 6 349q0 175 -6 349h138q-7 -205 -7 -349q0 -119 8 -349zM158 774q-31 0 -51 19.5t-20 47.5q0 29 21.5 48.5t51.5 19.5t50.5 -19t20.5 -48q0 -28 -21.5 -48t-51.5 -20z" />
    <glyph glyph-name="dotlessi" unicode="&#x131;" horiz-adv-x="270" 
d="M72 0v313q0 72 -7 170l131 28v-511h-124z" />
    <glyph glyph-name="IJ" unicode="&#x132;" horiz-adv-x="647" 
d="M228 0h-139q6 176 6 349q0 175 -6 349h138q-7 -205 -7 -349q0 -119 8 -349zM293 -229l-34 54q84 60 124 127.5t40 156.5l3 268q0 91 -6 321h137q-5 -177 -5 -321q0 -171 2 -247q4 -239 -261 -359z" />
    <glyph glyph-name="ij" unicode="&#x133;" horiz-adv-x="551" 
d="M72 0v313q0 72 -7 170l131 28v-511h-124zM133 605q-31 0 -53 20.5t-22 50.5q0 29 23 49.5t55 20.5q31 0 52.5 -20.5t21.5 -49.5q0 -30 -23 -50.5t-54 -20.5zM242 -261l-29 50q140 85 140 247v277q0 72 -7 170l131 28v-456q0 -47 -12.5 -92.5t-40 -86.5t-73.5 -76.5
t-109 -60.5zM414 605q-32 0 -53.5 20t-21.5 51q0 29 23 49.5t55 20.5q31 0 52.5 -20.5t21.5 -49.5q0 -30 -22.5 -50.5t-54.5 -20.5z" />
    <glyph glyph-name="Jcircumflex" unicode="&#x134;" horiz-adv-x="327" 
d="M-27 -229l-34 54q84 60 124 127.5t40 156.5l3 268q0 91 -6 321h137q-5 -177 -5 -321q0 -171 2 -247q4 -239 -261 -359zM22 738l-35 46q33 23 72 58.5t68 67.5l64 7q40 -23 83.5 -59.5t72.5 -70.5l-45 -49q-65 58 -139 92q-79 -63 -141 -92z" />
    <glyph glyph-name="jcircumflex" unicode="&#x135;" horiz-adv-x="281" 
d="M-28 -261l-29 50q140 85 140 247v277q0 72 -7 170l131 28v-456q0 -47 -12.5 -92.5t-40 -86.5t-73.5 -76.5t-109 -60.5zM301 577l-69 -24q-45 64 -93 108q-51 -67 -100 -107l-62 19q65 72 115 156l93 9q67 -75 116 -161z" />
    <glyph glyph-name="Kcommaaccent" unicode="&#x136;" horiz-adv-x="677" 
d="M227 0h-139q7 201 7 349q0 174 -6 349h138q-7 -271 -7 -349q0 -144 7 -349zM677 7l-171 -13q-58 88 -155 217l-111 139l272 350l132 -4q-122 -133 -182 -204l-95 -112zM307 -274l-30 25q19 18 33.5 44t18.5 50q-16 12 -47 17q-9 15 -9 36q0 25 20.5 43t48.5 18
q29 0 49.5 -19.5t20.5 -56.5q0 -20 -9.5 -48t-35.5 -59t-60 -50z" />
    <glyph glyph-name="kcommaaccent" unicode="&#x137;" horiz-adv-x="555" 
d="M70 0v547q0 76 -7 188l131 28v-763h-124zM554 9l-154 -15q-73 114 -99 150l-92 120l199 237l121 -5q-82 -82 -142 -148l-55 -61zM246 -274l-29 25q19 18 33 44t18 50q-16 12 -47 17q-9 15 -9 36q0 25 20.5 43t49.5 18t49.5 -19.5t20.5 -56.5q0 -20 -9.5 -48t-36 -59
t-60.5 -50z" />
    <glyph glyph-name="kgreenlandic" unicode="&#x138;" horiz-adv-x="556" 
d="M71 0v295q0 39 -7 188l130 29v-512h-123zM554 9l-154 -15q-63 102 -99 150l-91 120l199 237l121 -5q-76 -74 -143 -148l-55 -61z" />
    <glyph glyph-name="Lacute" unicode="&#x139;" horiz-adv-x="518" 
d="M480 0h-392q6 182 6 349q0 181 -6 349h138q-7 -199 -7 -349q0 -180 4 -270q157 5 275 17zM150 750l-40 47q44 26 95 62t85 69l80 -67q-44 -33 -106 -64t-114 -47z" />
    <glyph glyph-name="lacute" unicode="&#x13a;" horiz-adv-x="269" 
d="M72 0v546q0 63 -6 189l129 28v-763h-123zM87 776l-39 47q42 25 93 61.5t87 69.5l80 -66q-44 -34 -106 -65t-115 -47z" />
    <glyph glyph-name="Lcommaaccent" unicode="&#x13b;" horiz-adv-x="518" 
d="M480 0h-392q6 182 6 349q0 181 -6 349h138q-7 -199 -7 -349q0 -180 4 -270q157 5 275 17zM254 -274l-30 25q19 18 33.5 44t18.5 50q-16 12 -47 17q-9 15 -9 36q0 25 20.5 43t48.5 18q29 0 49.5 -19.5t20.5 -56.5q0 -20 -9.5 -48t-35.5 -59t-60 -50z" />
    <glyph glyph-name="lcommaaccent" unicode="&#x13c;" horiz-adv-x="269" 
d="M72 0v546q0 63 -6 189l129 28v-763h-123zM103 -274l-29 25q19 18 33 44t18 50q-16 12 -47 17q-9 15 -9 36q0 25 20.5 43t49.5 18t49.5 -19.5t20.5 -56.5q0 -20 -9.5 -48t-36 -59t-60.5 -50z" />
    <glyph glyph-name="Lcaron" unicode="&#x13d;" horiz-adv-x="518" 
d="M480 0h-392q6 182 6 349q0 181 -6 349h138q-7 -199 -7 -349q0 -180 4 -270q157 5 275 17zM352 523l-30 26q19 17 33 43.5t18 50.5q-17 11 -46 16q-10 19 -10 36q0 25 21 43t49 18q29 0 49.5 -19.5t20.5 -56.5q0 -20 -9.5 -48t-35.5 -59t-60 -50z" />
    <glyph glyph-name="lcaron" unicode="&#x13e;" horiz-adv-x="398" 
d="M72 0v546q0 63 -6 189l129 28v-763h-123zM293 523l-30 26q19 17 33 43.5t18 50.5q-17 11 -46 16q-10 19 -10 36q0 25 21 43t49 18q29 0 49.5 -19.5t20.5 -56.5q0 -20 -9.5 -48t-35.5 -59t-60 -50z" />
    <glyph glyph-name="Ldot" unicode="&#x13f;" horiz-adv-x="518" 
d="M390 320q-27 0 -45 18t-18 43q0 26 19.5 45.5t45.5 19.5t44 -18t18 -44t-18.5 -45t-45.5 -19zM480 0h-392q6 182 6 349q0 181 -6 349h138q-7 -199 -7 -349q0 -180 4 -270q157 5 275 17z" />
    <glyph glyph-name="ldot" unicode="&#x140;" horiz-adv-x="341" 
d="M303 342q-26 0 -44.5 18t-18.5 43q0 26 19.5 45.5t45.5 19.5q27 0 44.5 -17.5t17.5 -43.5t-18.5 -45.5t-45.5 -19.5zM72 0v546q0 63 -6 189l129 28v-763h-123z" />
    <glyph glyph-name="Lslash" unicode="&#x141;" horiz-adv-x="524" 
d="M29 215l-19 64l90 63q0 185 -6 356h138q-5 -118 -7 -271l120 85l20 -66l-140 -97v-40q0 -127 4 -230q157 5 275 17l-18 -96h-392q5 138 6 264z" />
    <glyph glyph-name="lslash" unicode="&#x142;" horiz-adv-x="287" 
d="M23 240l-19 62l76 59v185q0 63 -6 189l130 28v-310l59 46l20 -63l-79 -61v-375h-124v284z" />
    <glyph glyph-name="Nacute" unicode="&#x143;" horiz-adv-x="774" 
d="M197 0h-112q4 222 4 350q0 181 -3 346l141 4l238 -331q76 -107 125 -187l9 2q-9 86 -10 159l-10 355h111l-8 -531q0 -86 4 -163l-99 -7l-280 389q-67 93 -122 182l-8 -1q8 -79 9 -145zM363 750l-40 47q44 26 95 62t85 69l80 -67q-44 -33 -106 -64t-114 -47z" />
    <glyph glyph-name="nacute" unicode="&#x144;" horiz-adv-x="594" 
d="M70 0v313q0 76 -7 170l115 28l9 -76l10 -1q61 46 98 61.5t75 15.5q68 0 111 -49.5t43 -127.5v-334h-125v321q0 47 -26 73t-66 26q-52 0 -114 -51v-369h-123zM304 554l-63 19q59 91 93 171l106 -22q-26 -48 -61.5 -91.5t-74.5 -76.5z" />
    <glyph glyph-name="Ncommaaccent" unicode="&#x145;" horiz-adv-x="774" 
d="M197 0h-112q4 222 4 350q0 181 -3 346l141 4l238 -331q76 -107 125 -187l9 2q-9 86 -10 159l-10 355h111l-8 -531q0 -86 4 -163l-99 -7l-280 389q-67 93 -122 182l-8 -1q8 -79 9 -145zM352 -274l-30 25q19 18 33.5 44t18.5 50q-16 12 -47 17q-9 15 -9 36q0 25 20.5 43
t48.5 18q29 0 49.5 -19.5t20.5 -56.5q0 -20 -9.5 -48t-35.5 -59t-60 -50z" />
    <glyph glyph-name="ncommaaccent" unicode="&#x146;" horiz-adv-x="594" 
d="M70 0v313q0 76 -7 170l115 28l9 -76l10 -1q61 46 98 61.5t75 15.5q68 0 111 -49.5t43 -127.5v-334h-125v321q0 47 -26 73t-66 26q-52 0 -114 -51v-369h-123zM272 -274l-29 25q19 18 33 44t18 50q-16 12 -47 17q-9 15 -9 36q0 25 20.5 43t49.5 18t49.5 -19.5t20.5 -56.5
q0 -20 -9.5 -48t-36 -59t-60.5 -50z" />
    <glyph glyph-name="Ncaron" unicode="&#x147;" horiz-adv-x="774" 
d="M197 0h-112q4 222 4 350q0 181 -3 346l141 4l238 -331q76 -107 125 -187l9 2q-9 86 -10 159l-10 355h111l-8 -531q0 -86 4 -163l-99 -7l-280 389q-67 93 -122 182l-8 -1q8 -79 9 -145zM535 921l34 -46q-74 -53 -139 -126l-64 -8q-41 24 -84 60.5t-73 71.5l45 48
q64 -57 139 -93q78 63 142 93z" />
    <glyph glyph-name="ncaron" unicode="&#x148;" horiz-adv-x="594" 
d="M70 0v313q0 76 -7 170l115 28l9 -76l10 -1q61 46 98 61.5t75 15.5q68 0 111 -49.5t43 -127.5v-334h-125v321q0 47 -26 73t-66 26q-52 0 -114 -51v-369h-123zM138 718l68 24q44 -62 94 -107q50 64 101 106l60 -18q-65 -75 -114 -157l-93 -10q-64 73 -116 162z" />
    <glyph glyph-name="napostrophe" unicode="&#x149;" horiz-adv-x="594" 
d="M70 0v313q0 76 -7 170l115 28l9 -76l10 -1q61 46 98 61.5t75 15.5q68 0 111 -49.5t43 -127.5v-334h-125v321q0 47 -26 73t-66 26q-52 0 -114 -51v-369h-123zM61 522l-30 25q19 17 33.5 43.5t18.5 50.5q-18 11 -47 16q-10 19 -10 36q0 25 21 43.5t49 18.5q29 0 49.5 -19.5
t20.5 -56.5q0 -20 -9.5 -48.5t-35.5 -59t-60 -49.5z" />
    <glyph glyph-name="Eng" unicode="&#x14a;" horiz-adv-x="774" 
d="M197 0h-112q4 222 4 354q0 177 -3 342l141 4l238 -331q75 -103 125 -187l9 2q-8 83 -10 170l-10 344h111q-8 -402 -8 -672q0 -50 -19 -93.5t-63 -79t-120 -52.5l-20 53q60 23 87 62t25 100l-265 370q-24 34 -65 95t-57 87l-8 -1q8 -78 9 -145z" />
    <glyph glyph-name="eng" unicode="&#x14b;" horiz-adv-x="593" 
d="M523 334v-272q0 -92 -50 -152t-161 -87l-20 53q59 23 83 61.5t24 95.5v288q0 47 -26 73t-66 26q-52 0 -114 -51v-369h-123v313q0 76 -7 170l115 28l9 -76l10 -1q61 46 98 61.5t75 15.5q68 0 110.5 -49.5t42.5 -127.5z" />
    <glyph glyph-name="Omacron" unicode="&#x14c;" horiz-adv-x="823" 
d="M415 63q45 0 85.5 21.5t70 60.5t46 91t16.5 111q0 61 -17.5 114.5t-49 91.5t-73 59t-86.5 21q-46 0 -86 -21.5t-69.5 -60t-45.5 -90.5t-16 -110q0 -61 17.5 -115t48.5 -92.5t72.5 -59.5t86.5 -21zM400 -19q-72 0 -136 25t-111 71.5t-73 112.5t-26 144q0 59 19 124
t64.5 121.5t101 86.5t102.5 39.5t83 9.5q71 0 134.5 -24.5t110.5 -70t73.5 -111.5t26.5 -144q0 -79 -28 -150t-78 -123.5t-118.5 -81.5t-144.5 -29zM272 763l11 72l268 10l-18 -82h-261z" />
    <glyph glyph-name="omacron" unicode="&#x14d;" horiz-adv-x="588" 
d="M275 -14q-56 0 -101.5 20t-75.5 54.5t-45.5 79.5t-15.5 93q0 56 21 107t58.5 89.5t88.5 60.5t109 22q55 0 100 -20t75.5 -55t46 -80t15.5 -94q0 -56 -21 -107t-58.5 -89t-88.5 -59.5t-108 -21.5zM298 64q21 0 43.5 9t43.5 34t30.5 62t9.5 70t-11 79t-44 81t-79 35
q-28 0 -52 -14t-41 -38.5t-25.5 -58t-8.5 -66.5q0 -14 4.5 -49t21 -67.5t43.5 -54.5t65 -22zM166 592l11 72l252 10l-17 -82h-246z" />
    <glyph glyph-name="Obreve" unicode="&#x14e;" horiz-adv-x="823" 
d="M415 63q45 0 85.5 21.5t70 60.5t46 91t16.5 111q0 61 -17.5 114.5t-49 91.5t-73 59t-86.5 21q-46 0 -86 -21.5t-69.5 -60t-45.5 -90.5t-16 -110q0 -61 17.5 -115t48.5 -92.5t72.5 -59.5t86.5 -21zM400 -19q-72 0 -136 25t-111 71.5t-73 112.5t-26 144q0 59 19 124
t64.5 121.5t101 86.5t102.5 39.5t83 9.5q71 0 134.5 -24.5t110.5 -70t73.5 -111.5t26.5 -144q0 -79 -28 -150t-78 -123.5t-118.5 -81.5t-144.5 -29zM497 891l71 12q2 -35 -12.5 -70.5t-55 -58t-94.5 -22.5q-29 0 -54.5 6.5t-45.5 20t-35 41t-13 71.5l72 12q1 -41 25.5 -61
t61.5 -20q25 0 44.5 9.5t27.5 26.5t8 33z" />
    <glyph glyph-name="obreve" unicode="&#x14f;" horiz-adv-x="588" 
d="M275 -14q-56 0 -101.5 20t-75.5 54.5t-45.5 79.5t-15.5 93q0 56 21 107t58.5 89.5t88.5 60.5t109 22q55 0 100 -20t75.5 -55t46 -80t15.5 -94q0 -56 -21 -107t-58.5 -89t-88.5 -59.5t-108 -21.5zM298 64q21 0 43.5 9t43.5 34t30.5 62t9.5 70t-11 79t-44 81t-79 35
q-28 0 -52 -14t-41 -38.5t-25.5 -58t-8.5 -66.5q0 -14 4.5 -49t21 -67.5t43.5 -54.5t65 -22zM377 705l69 12q1 -27 -5.5 -54t-25 -49t-49 -36t-72.5 -14q-27 0 -50 7t-41.5 20.5t-33 41.5t-12.5 72l71 12q0 -19 8 -39t27 -31.5t43 -11.5q29 0 50 18.5t21 51.5z" />
    <glyph glyph-name="Ohungarumlaut" unicode="&#x150;" horiz-adv-x="823" 
d="M415 63q45 0 85.5 21.5t70 60.5t46 91t16.5 111q0 61 -17.5 114.5t-49 91.5t-73 59t-86.5 21q-46 0 -86 -21.5t-69.5 -60t-45.5 -90.5t-16 -110q0 -61 17.5 -115t48.5 -92.5t72.5 -59.5t86.5 -21zM400 -19q-72 0 -136 25t-111 71.5t-73 112.5t-26 144q0 59 19 124
t64.5 121.5t101 86.5t102.5 39.5t83 9.5q71 0 134.5 -24.5t110.5 -70t73.5 -111.5t26.5 -144q0 -79 -28 -150t-78 -123.5t-118.5 -81.5t-144.5 -29zM356 750l-57 18q47 72 72 146l100 -23q-20 -39 -51 -76.5t-64 -64.5zM532 750l-57 18q44 68 72 146l100 -23
q-21 -39 -52.5 -77.5t-62.5 -63.5z" />
    <glyph glyph-name="ohungarumlaut" unicode="&#x151;" horiz-adv-x="588" 
d="M275 -14q-56 0 -101.5 20t-75.5 54.5t-45.5 79.5t-15.5 93q0 56 21 107t58.5 89.5t88.5 60.5t109 22q55 0 100 -20t75.5 -55t46 -80t15.5 -94q0 -56 -21 -107t-58.5 -89t-88.5 -59.5t-108 -21.5zM298 64q21 0 43.5 9t43.5 34t30.5 62t9.5 70t-11 79t-44 81t-79 35
q-28 0 -52 -14t-41 -38.5t-25.5 -58t-8.5 -66.5q0 -14 4.5 -49t21 -67.5t43.5 -54.5t65 -22zM215 561l-57 18q56 91 83 165l99 -21q-25 -47 -57 -88.5t-68 -73.5zM379 561l-55 18q52 85 83 165l99 -21q-49 -93 -127 -162z" />
    <glyph glyph-name="OE" unicode="&#x152;" horiz-adv-x="1049" 
d="M987 0h-375q-25 0 -91 -9.5t-103 -9.5q-71 0 -137 24t-117 70t-80.5 113t-29.5 149q0 83 30.5 154t83 121t121.5 76.5t143 26.5q32 0 92.5 -8t87.5 -9l176 -2q100 0 203 3l-17 -95q-139 11 -280 14q-3 -112 -3 -222q152 2 253 9l-17 -91q-98 6 -236 8q0 -161 3 -245
q152 4 310 16zM439 63q26 0 61 5t62 14q3 129 3 264q0 139 -3 260q-26 12 -63.5 19.5t-65.5 7.5q-48 0 -92.5 -20t-78 -57.5t-52.5 -91t-19 -116.5q0 -47 13 -97t48 -96.5t86 -69t101 -22.5z" />
    <glyph glyph-name="oe" unicode="&#x153;" horiz-adv-x="915" 
d="M836 108l26 -48q-40 -38 -92 -54.5t-99 -16.5q-43 0 -84 14.5t-68 39.5t-41 49q-34 -49 -88.5 -77.5t-115.5 -28.5q-42 0 -84 13.5t-76 45t-55.5 80t-21.5 108.5q0 56 21 107.5t58.5 90t88 60t106.5 21.5q30 0 66.5 -10t69.5 -36t51 -59q32 48 83 75.5t101 27.5
q34 0 66 -11t61.5 -35t46 -60.5t19 -75.5t-7.5 -81h-322q-1 -42 12.5 -75t38.5 -54t57 -31t68 -10q62 0 115 31zM299 64q36 0 67 23t46.5 65.5t15.5 88.5q0 33 -9 69t-27 64t-44 44t-57 16q-36 0 -66.5 -23t-45.5 -66t-15 -88q0 -33 11 -78.5t44 -80t80 -34.5zM546 303
l218 14q2 37 -15.5 66t-42 39.5t-43.5 10.5q-44 0 -78 -35.5t-39 -94.5z" />
    <glyph glyph-name="Racute" unicode="&#x154;" horiz-adv-x="641" 
d="M222 0h-134q7 203 7 352q0 169 -6 340q156 15 214 15t106 -14t81.5 -39.5t51 -60.5t17.5 -74t-17 -73.5t-46 -63.5t-63 -50l203 -326l-159 -11q-41 90 -112 223l-39 70l-110 2q0 -128 6 -290zM366 369q32 24 50 57t18 68q0 36 -17.5 66.5t-51 48t-81.5 17.5q-22 0 -65 -4
q-3 -94 -3 -251q89 -9 150 -2zM268 750l-40 47q44 26 95 62t85 69l80 -67q-44 -33 -106 -64t-114 -47z" />
    <glyph glyph-name="racute" unicode="&#x155;" horiz-adv-x="395" 
d="M70 0v312q0 93 -7 171l115 28l8 -103l9 -1q4 5 18 23t29 35t33 26.5t32.5 12.5t27.5 3q25 0 49 -7l-22 -115q-30 11 -62 11q-55 0 -107 -57v-339h-123zM219 554l-63 19q59 91 93 171l106 -22q-26 -48 -61.5 -91.5t-74.5 -76.5z" />
    <glyph glyph-name="Rcommaaccent" unicode="&#x156;" horiz-adv-x="641" 
d="M222 0h-134q7 203 7 352q0 169 -6 340q156 15 214 15t106 -14t81.5 -39.5t51 -60.5t17.5 -74t-17 -73.5t-46 -63.5t-63 -50l203 -326l-159 -11q-41 90 -112 223l-39 70l-110 2q0 -128 6 -290zM366 369q32 24 50 57t18 68q0 36 -17.5 66.5t-51 48t-81.5 17.5q-22 0 -65 -4
q-3 -94 -3 -251q89 -9 150 -2zM291 -274l-30 25q19 18 33.5 44t18.5 50q-16 12 -47 17q-9 15 -9 36q0 25 20.5 43t48.5 18q29 0 49.5 -19.5t20.5 -56.5q0 -20 -9.5 -48t-35.5 -59t-60 -50z" />
    <glyph glyph-name="rcommaaccent" unicode="&#x157;" horiz-adv-x="395" 
d="M70 0v312q0 93 -7 171l115 28l8 -103l9 -1q4 5 18 23t29 35t33 26.5t32.5 12.5t27.5 3q25 0 49 -7l-22 -115q-30 11 -62 11q-55 0 -107 -57v-339h-123zM100 -274l-29 25q19 18 33 44t18 50q-16 12 -47 17q-9 15 -9 36q0 25 20.5 43t49.5 18t49.5 -19.5t20.5 -56.5
q0 -20 -9.5 -48t-36 -59t-60.5 -50z" />
    <glyph glyph-name="Rcaron" unicode="&#x158;" horiz-adv-x="641" 
d="M222 0h-134q7 203 7 352q0 169 -6 340q156 15 214 15t106 -14t81.5 -39.5t51 -60.5t17.5 -74t-17 -73.5t-46 -63.5t-63 -50l203 -326l-159 -11q-41 90 -112 223l-39 70l-110 2q0 -128 6 -290zM366 369q32 24 50 57t18 68q0 36 -17.5 66.5t-51 48t-81.5 17.5q-22 0 -65 -4
q-3 -94 -3 -251q89 -9 150 -2zM461 921l34 -46q-74 -53 -139 -126l-64 -8q-41 24 -84 60.5t-73 71.5l45 48q64 -57 139 -93q78 63 142 93z" />
    <glyph glyph-name="rcaron" unicode="&#x159;" horiz-adv-x="395" 
d="M70 0v312q0 93 -7 171l115 28l8 -103l9 -1q4 5 18 23t29 35t33 26.5t32.5 12.5t27.5 3q25 0 49 -7l-22 -115q-30 11 -62 11q-55 0 -107 -57v-339h-123zM57 718l68 24q44 -62 94 -107q50 64 101 106l60 -18q-65 -75 -114 -157l-93 -10q-64 73 -116 162z" />
    <glyph glyph-name="Sacute" unicode="&#x15a;" horiz-adv-x="575" 
d="M52 31l20 97l10 5q98 -62 184 -62q27 0 57.5 9t51.5 33.5t21 57.5q0 20 -8.5 39.5t-32.5 39t-87.5 48.5t-88 44t-42.5 30.5t-30.5 33.5t-21.5 43.5t-9 60.5q0 92 66 146t175 54q36 0 83.5 -6t91.5 -19l-23 -100l-8 -4q-82 44 -152 44q-49 0 -79.5 -24t-30.5 -66
q0 -20 10 -42.5t38.5 -43.5t98 -54t103.5 -58t53.5 -58.5t19.5 -79.5q0 -43 -18.5 -82t-53 -68.5t-84 -46t-107.5 -16.5q-108 0 -207 45zM262 750l-40 47q44 26 95 62t85 69l80 -67q-44 -33 -106 -64t-114 -47z" />
    <glyph glyph-name="sacute" unicode="&#x15b;" horiz-adv-x="426" 
d="M26 22l22 89l10 6q78 -47 143 -47q35 0 57.5 17t22.5 43q0 12 -7 25t-27.5 25t-63 28.5t-70 31.5t-44.5 36.5t-21 41t-4 32.5q0 69 56 114t146 45q70 0 134 -18l-22 -88l-10 -6q-63 32 -115 32q-33 0 -54 -15.5t-21 -41.5q0 -8 4 -19.5t16 -21.5t24.5 -16.5t72.5 -30.5
t82 -43.5t32 -41t10 -48.5q0 -24 -10 -51.5t-34.5 -52.5t-65.5 -42.5t-97 -17.5q-76 0 -166 35zM230 554l-63 19q59 91 93 171l106 -22q-26 -48 -61.5 -91.5t-74.5 -76.5z" />
    <glyph glyph-name="Scircumflex" unicode="&#x15c;" horiz-adv-x="575" 
d="M52 31l20 97l10 5q98 -62 184 -62q27 0 57.5 9t51.5 33.5t21 57.5q0 20 -8.5 39.5t-32.5 39t-87.5 48.5t-88 44t-42.5 30.5t-30.5 33.5t-21.5 43.5t-9 60.5q0 92 66 146t175 54q36 0 83.5 -6t91.5 -19l-23 -100l-8 -4q-82 44 -152 44q-49 0 -79.5 -24t-30.5 -66
q0 -20 10 -42.5t38.5 -43.5t98 -54t103.5 -58t53.5 -58.5t19.5 -79.5q0 -43 -18.5 -82t-53 -68.5t-84 -46t-107.5 -16.5q-108 0 -207 45zM160 738l-35 46q33 23 72 58.5t68 67.5l64 7q40 -23 83.5 -59.5t72.5 -70.5l-45 -49q-65 58 -139 92q-79 -63 -141 -92z" />
    <glyph glyph-name="scircumflex" unicode="&#x15d;" horiz-adv-x="426" 
d="M26 22l22 89l10 6q78 -47 143 -47q35 0 57.5 17t22.5 43q0 12 -7 25t-27.5 25t-63 28.5t-70 31.5t-44.5 36.5t-21 41t-4 32.5q0 69 56 114t146 45q70 0 134 -18l-22 -88l-10 -6q-63 32 -115 32q-33 0 -54 -15.5t-21 -41.5q0 -8 4 -19.5t16 -21.5t24.5 -16.5t72.5 -30.5
t82 -43.5t32 -41t10 -48.5q0 -24 -10 -51.5t-34.5 -52.5t-65.5 -42.5t-97 -17.5q-76 0 -166 35zM376 577l-69 -24q-45 64 -93 108q-51 -67 -100 -107l-62 19q65 72 115 156l93 9q67 -75 116 -161z" />
    <glyph glyph-name="Scedilla" unicode="&#x15e;" horiz-adv-x="575" 
d="M51 31l18 94l10 6q103 -62 185 -62q27 0 58.5 9.5t52.5 34.5t21 58q0 27 -13.5 47.5t-32.5 34.5t-34.5 22t-65 31t-72.5 37.5t-41 30t-30.5 33.5t-21.5 43t-9 60q0 92 66 146t174 54q36 0 83.5 -6t91.5 -19l-18 -96l-9 -4q-83 42 -152 42q-51 0 -82.5 -25t-31.5 -67
q0 -20 10 -42.5t38.5 -43.5t98.5 -54t104 -58t53.5 -58.5t19.5 -79.5q0 -37 -12 -67t-32 -55.5t-59 -50t-95 -34.5l-23 -40q37 -4 58.5 -25.5t21.5 -50.5q0 -25 -18.5 -51t-63.5 -43.5t-91 -15.5l-6 52q95 10 95 49q0 19 -22.5 28t-57.5 8l-6 10l42 73q-109 2 -202 45z" />
    <glyph glyph-name="scedilla" unicode="&#x15f;" horiz-adv-x="426" 
d="M26 22l22 89l10 6q78 -47 143 -47q35 0 57.5 17t22.5 43q0 12 -7 25t-27.5 25t-63 28.5t-70 31.5t-44.5 36.5t-21 41t-4 32.5q0 69 56 114t146 45q70 0 134 -18l-22 -88l-10 -6q-63 32 -115 32q-33 0 -54 -15.5t-21 -41.5q0 -8 4 -19.5t16 -21.5t24.5 -16.5t72.5 -30.5
t82 -43.5t32 -41t10 -48.5q0 -33 -15 -63.5t-46.5 -55.5t-79.5 -37l-24 -43q18 -2 36.5 -10.5t30.5 -26t12 -39.5q0 -25 -18 -51t-61.5 -43.5t-89.5 -15.5l-6 52q45 5 68.5 17.5t23.5 31.5t-22 28t-57 8l-5 10l41 74q-71 0 -161 35z" />
    <glyph glyph-name="Scaron" unicode="&#x160;" horiz-adv-x="575" 
d="M52 31l20 97l10 5q98 -62 184 -62q27 0 57.5 9t51.5 33.5t21 57.5q0 20 -8.5 39.5t-32.5 39t-87.5 48.5t-88 44t-42.5 30.5t-30.5 33.5t-21.5 43.5t-9 60.5q0 92 66 146t175 54q36 0 83.5 -6t91.5 -19l-23 -100l-8 -4q-82 44 -152 44q-49 0 -79.5 -24t-30.5 -66
q0 -20 10 -42.5t38.5 -43.5t98 -54t103.5 -58t53.5 -58.5t19.5 -79.5q0 -43 -18.5 -82t-53 -68.5t-84 -46t-107.5 -16.5q-108 0 -207 45zM440 921l34 -46q-74 -53 -139 -126l-64 -8q-41 24 -84 60.5t-73 71.5l45 48q64 -57 139 -93q78 63 142 93z" />
    <glyph glyph-name="scaron" unicode="&#x161;" horiz-adv-x="426" 
d="M26 22l22 89l10 6q78 -47 143 -47q35 0 57.5 17t22.5 43q0 12 -7 25t-27.5 25t-63 28.5t-70 31.5t-44.5 36.5t-21 41t-4 32.5q0 69 56 114t146 45q70 0 134 -18l-22 -88l-10 -6q-63 32 -115 32q-33 0 -54 -15.5t-21 -41.5q0 -8 4 -19.5t16 -21.5t24.5 -16.5t72.5 -30.5
t82 -43.5t32 -41t10 -48.5q0 -24 -10 -51.5t-34.5 -52.5t-65.5 -42.5t-97 -17.5q-76 0 -166 35zM59 718l68 24q44 -62 94 -107q50 64 101 106l60 -18q-65 -75 -114 -157l-93 -10q-64 73 -116 162z" />
    <glyph glyph-name="Tcommaaccent" unicode="&#x162;" horiz-adv-x="607" 
d="M368 0h-36l-24 -48q36 -4 57 -25.5t21 -50.5q0 -25 -18 -51t-62 -43.5t-90 -15.5l-6 52q93 10 93 49q0 19 -22 28t-57 8l-5 10l48 87h-36q7 161 7 347q0 105 -5 270q-119 -1 -222 -12l16 94q98 -3 277 -3q189 0 292 3l-15 -94q-103 10 -215 12q-3 -98 -3 -270
q0 -155 5 -347z" />
    <glyph glyph-name="tcommaaccent" unicode="&#x163;" horiz-adv-x="402" 
d="M94 145v158q0 64 5 110h-81l8 58q25 7 51 22.5t47.5 46t39.5 77.5l59 6l-12 -138l172 16l-19 -88h-153v-250q0 -24 7.5 -46.5t26.5 -34t45 -11.5q39 0 71 17l24 -47q-54 -51 -134 -53l-18 -36q36 -4 57 -25.5t21 -50.5q0 -25 -18 -51t-61.5 -43.5t-89.5 -15.5l-6 52
q92 10 92 49q0 19 -22 28t-57 8l-5 10l45 82q-46 12 -70.5 50t-24.5 100z" />
    <glyph glyph-name="Tcaron" unicode="&#x164;" horiz-adv-x="607" 
d="M368 0h-137q7 161 7 347q0 105 -5 270q-119 -1 -222 -12l16 94q98 -3 277 -3q189 0 292 3l-15 -94q-103 10 -215 12q-3 -98 -3 -270q0 -155 5 -347zM446 921l34 -46q-74 -53 -139 -126l-64 -8q-41 24 -84 60.5t-73 71.5l45 48q64 -57 139 -93q78 63 142 93z" />
    <glyph glyph-name="tcaron" unicode="&#x165;" horiz-adv-x="402" 
d="M94 145v158q0 64 5 110h-81l8 58q25 7 51 22.5t47.5 46t39.5 77.5l59 6l-12 -138l172 16l-18 -88h-153v-250q0 -92 79 -92q38 0 70 17l23 -47q-54 -53 -141 -53q-71 0 -110 39t-39 118zM325 552l-30 25q19 17 33 39.5t18 41.5q-18 11 -47 16q-9 18 -9 35q0 24 20.5 41
t49.5 17t49.5 -18t20.5 -52q0 -20 -10 -46t-36 -53.5t-59 -45.5z" />
    <glyph glyph-name="Tbar" unicode="&#x166;" horiz-adv-x="607" 
d="M104 321l6 63l128 4l-5 229q-119 -1 -222 -12l16 94q98 -3 277 -3q189 0 292 3l-15 -94q-103 10 -215 12q-3 -82 -3 -225l136 4l-15 -75h-121q0 -146 5 -321h-137q5 137 7 321h-134z" />
    <glyph glyph-name="tbar" unicode="&#x167;" horiz-adv-x="434" 
d="M34 242l8 54l68 4v11q0 45 5 102h-81l9 58q25 7 51 22.5t47.5 46t39.5 77.5l59 6l-12 -138l172 16l-19 -88h-153v-106l164 10l-16 -75h-148v-79q0 -24 7.5 -46.5t26.5 -34t45 -11.5q39 0 71 17l24 -47q-56 -53 -142 -53q-79 0 -114.5 44.5t-35.5 140.5v69h-76z" />
    <glyph glyph-name="Utilde" unicode="&#x168;" horiz-adv-x="738" 
d="M88 698h138q-7 -111 -7 -236q0 -44 3 -127t3 -98q1 -22 6 -47.5t17.5 -47.5t33 -39.5t50 -26.5t57.5 -9q32 0 60.5 10t50.5 31t34.5 53.5t12.5 75.5q0 200 -7 461h112q-7 -252 -7 -441q0 -127 -72 -200.5t-199 -73.5q-133 0 -208 71t-73 209l1 199q0 78 -6 236zM292 768
l-78 -6q-5 51 14.5 84t47 44.5t46.5 11.5q21 0 41.5 -9.5t48.5 -31.5t40 -22q14 0 21 15.5t1 43.5l81 6q3 -25 -1 -50.5t-18.5 -47t-38.5 -31.5t-45 -10q-25 0 -46 10t-48 32t-39 22q-13 0 -21.5 -16.5t-5.5 -44.5z" />
    <glyph glyph-name="utilde" unicode="&#x169;" horiz-adv-x="578" 
d="M70 163v151q0 84 -7 169l130 28v-331q0 -46 25 -74.5t62 -28.5q50 0 105 53v184q0 75 -6 169l128 28v-328q0 -79 8 -170l-112 -25l-11 75l-10 1q-46 -37 -74.5 -53t-53 -20t-34.5 -4q-65 0 -107.5 49t-42.5 127zM208 576l-69 -6q-3 34 6.5 65.5t35.5 51t54 19.5
q19 0 37 -9t43 -30t36 -21q12 0 18.5 14.5t1.5 41.5l71 7q6 -67 -23 -101.5t-69 -34.5q-20 0 -39.5 9t-43.5 30t-34 21q-12 0 -20 -15t-5 -42z" />
    <glyph glyph-name="Umacron" unicode="&#x16a;" horiz-adv-x="738" 
d="M88 698h138q-7 -111 -7 -236q0 -44 3 -127t3 -98q1 -22 6 -47.5t17.5 -47.5t33 -39.5t50 -26.5t57.5 -9q32 0 60.5 10t50.5 31t34.5 53.5t12.5 75.5q0 200 -7 461h112q-7 -252 -7 -441q0 -127 -72 -200.5t-199 -73.5q-133 0 -208 71t-73 209l1 199q0 78 -6 236zM245 763
l11 72l268 10l-18 -82h-261z" />
    <glyph glyph-name="umacron" unicode="&#x16b;" horiz-adv-x="578" 
d="M70 163v151q0 84 -7 169l130 28v-331q0 -46 25 -74.5t62 -28.5q50 0 105 53v184q0 75 -6 169l128 28v-328q0 -79 8 -170l-112 -25l-11 75l-10 1q-46 -37 -74.5 -53t-53 -20t-34.5 -4q-65 0 -107.5 49t-42.5 127zM155 592l11 72l252 10l-17 -82h-246z" />
    <glyph glyph-name="Ubreve" unicode="&#x16c;" horiz-adv-x="738" 
d="M88 698h138q-7 -111 -7 -236q0 -44 3 -127t3 -98q1 -22 6 -47.5t17.5 -47.5t33 -39.5t50 -26.5t57.5 -9q32 0 60.5 10t50.5 31t34.5 53.5t12.5 75.5q0 200 -7 461h112q-7 -252 -7 -441q0 -127 -72 -200.5t-199 -73.5q-133 0 -208 71t-73 209l1 199q0 78 -6 236zM465 891
l71 12q2 -35 -12.5 -70.5t-55 -58t-94.5 -22.5q-29 0 -54.5 6.5t-45.5 20t-35 41t-13 71.5l72 12q1 -41 25.5 -61t61.5 -20q25 0 44.5 9.5t27.5 26.5t8 33z" />
    <glyph glyph-name="ubreve" unicode="&#x16d;" horiz-adv-x="578" 
d="M70 163v151q0 84 -7 169l130 28v-331q0 -46 25 -74.5t62 -28.5q50 0 105 53v184q0 75 -6 169l128 28v-328q0 -79 8 -170l-112 -25l-11 75l-10 1q-46 -37 -74.5 -53t-53 -20t-34.5 -4q-65 0 -107.5 49t-42.5 127zM365 705l69 12q1 -27 -5.5 -54t-25 -49t-49 -36t-72.5 -14
q-27 0 -50 7t-41.5 20.5t-33 41.5t-12.5 72l71 12q0 -19 8 -39t27 -31.5t43 -11.5q29 0 50 18.5t21 51.5z" />
    <glyph glyph-name="Uring" unicode="&#x16e;" horiz-adv-x="738" 
d="M88 698h138q-7 -111 -7 -236q0 -44 3 -127t3 -98q1 -22 6 -47.5t17.5 -47.5t33 -39.5t50 -26.5t57.5 -9q32 0 60.5 10t50.5 31t34.5 53.5t12.5 75.5q0 200 -7 461h112q-7 -252 -7 -441q0 -127 -72 -200.5t-199 -73.5q-133 0 -208 71t-73 209l1 199q0 78 -6 236zM376 711
q-23 0 -49 9.5t-44 34.5t-18 56q0 21 11.5 47.5t42.5 46t72 19.5q24 0 50 -10t43 -35t17 -55q0 -33 -20.5 -61.5t-50 -40t-54.5 -11.5zM385 761q18 0 31 15t13 39q0 23 -14 41t-33 18q-18 0 -30 -15t-12 -38q0 -24 13 -42t32 -18z" />
    <glyph glyph-name="uring" unicode="&#x16f;" horiz-adv-x="578" 
d="M70 163v151q0 84 -7 169l130 28v-331q0 -46 25 -74.5t62 -28.5q50 0 105 53v184q0 75 -6 169l128 28v-328q0 -79 8 -170l-112 -25l-11 75l-10 1q-46 -37 -74.5 -53t-53 -20t-34.5 -4q-65 0 -107.5 49t-42.5 127zM282 547q-24 0 -51 10t-46 35.5t-19 58.5q0 22 12 49.5
t44.5 48.5t74.5 21q25 0 52.5 -10.5t45.5 -37t18 -58.5q0 -22 -12.5 -49.5t-45 -47.5t-73.5 -20zM292 597q20 0 33.5 16t13.5 41q0 27 -14.5 46t-37.5 19q-21 0 -33 -16.5t-12 -40.5q0 -26 13.5 -45.5t36.5 -19.5z" />
    <glyph glyph-name="Uhungarumlaut" unicode="&#x170;" horiz-adv-x="738" 
d="M88 698h138q-7 -111 -7 -236q0 -44 3 -127t3 -98q1 -22 6 -47.5t17.5 -47.5t33 -39.5t50 -26.5t57.5 -9q32 0 60.5 10t50.5 31t34.5 53.5t12.5 75.5q0 200 -7 461h112q-7 -252 -7 -441q0 -127 -72 -200.5t-199 -73.5q-133 0 -208 71t-73 209l1 199q0 78 -6 236zM296 750
l-57 18q47 72 72 146l100 -23q-20 -39 -51 -76.5t-64 -64.5zM472 750l-57 18q44 68 72 146l100 -23q-21 -39 -52.5 -77.5t-62.5 -63.5z" />
    <glyph glyph-name="uhungarumlaut" unicode="&#x171;" horiz-adv-x="578" 
d="M70 163v151q0 84 -7 169l130 28v-331q0 -46 25 -74.5t62 -28.5q50 0 105 53v184q0 75 -6 169l128 28v-328q0 -79 8 -170l-112 -25l-11 75l-10 1q-46 -37 -74.5 -53t-53 -20t-34.5 -4q-65 0 -107.5 49t-42.5 127zM218 561l-57 18q56 91 83 165l99 -21q-25 -47 -57 -88.5
t-68 -73.5zM382 561l-55 18q52 85 83 165l99 -21q-49 -93 -127 -162z" />
    <glyph glyph-name="Uogonek" unicode="&#x172;" horiz-adv-x="738" 
d="M88 698h138q-7 -111 -7 -236q0 -44 3 -126t3 -99q1 -22 6 -47.5t17.5 -47.5t33 -39.5t50 -26.5t57.5 -9q32 0 60.5 10t50.5 31t34.5 53.5t12.5 75.5q0 200 -7 461h112q-7 -252 -7 -441q0 -107 -51.5 -177t-145.5 -89q-26 -21 -42.5 -45t-16.5 -44q0 -18 12 -29.5
t31 -11.5q23 0 45 13l21 -43q-20 -18 -45.5 -29.5t-52.5 -11.5q-39 0 -65.5 23t-26.5 59q0 57 59 111q-130 2 -203 73t-71 208l1 198q0 78 -6 236z" />
    <glyph glyph-name="uogonek" unicode="&#x173;" horiz-adv-x="578" 
d="M70 163v151q0 84 -7 169l130 28v-331q0 -46 25 -74.5t62 -28.5q50 0 105 53v184q0 75 -6 169l128 28v-328q0 -79 8 -170l-31 -8q-34 -21 -57.5 -49.5t-23.5 -53.5q0 -18 12 -29.5t31 -11.5q23 0 45 13l21 -43q-20 -18 -45.5 -29.5t-52.5 -11.5q-39 0 -65.5 23t-26.5 59
q0 31 20.5 65t58.5 62l-9 64l-10 1q-46 -37 -74.5 -53t-53 -20t-34.5 -4q-65 0 -107.5 49t-42.5 127z" />
    <glyph glyph-name="Wcircumflex" unicode="&#x174;" horiz-adv-x="1007" 
d="M236 -5l-212 697l150 11q27 -143 71 -311l27 -105q15 -53 33 -145h8q17 85 34 144l117 406l102 6l120 -412q27 -96 37 -144h8q11 73 30 145l111 413l118 -4q-59 -163 -103 -311l-117 -381l-118 -9l-107 353q-23 81 -37 160h-9q-14 -76 -40 -162l-105 -342zM370 738
l-35 46q33 23 72 58.5t68 67.5l64 7q40 -23 83.5 -59.5t72.5 -70.5l-45 -49q-65 58 -139 92q-79 -63 -141 -92z" />
    <glyph glyph-name="wcircumflex" unicode="&#x175;" horiz-adv-x="797" 
d="M177 -6l-156 498l138 17q12 -72 38 -170l13 -47q22 -78 35 -161h8q18 76 45 161l63 191l99 9l68 -200q34 -116 43 -161h9q12 66 38 161l57 212l109 -6q-39 -100 -69 -193l-99 -302l-106 -9l-60 174q-17 46 -51 168h-5q-16 -63 -52 -169l-58 -164zM566 577l-69 -24
q-45 64 -93 108q-51 -67 -100 -107l-62 19q65 72 115 156l93 9q67 -75 116 -161z" />
    <glyph glyph-name="Ycircumflex" unicode="&#x176;" horiz-adv-x="614" 
d="M374 0h-133q4 145 6 290l-231 402l159 11q29 -72 80 -175q27 -55 61 -144h9q38 88 66 144l93 172l119 -4q-82 -129 -164 -269l-70 -119q2 -204 5 -308zM182 738l-35 46q33 23 72 58.5t68 67.5l64 7q40 -23 83.5 -59.5t72.5 -70.5l-45 -49q-65 58 -139 92
q-79 -63 -141 -92z" />
    <glyph glyph-name="ycircumflex" unicode="&#x177;" horiz-adv-x="509" 
d="M55 -220l-2 15q23 15 54.5 46.5t63 76.5t48.5 79l-5 6l-33 -4l-166 493l139 17q18 -86 43 -171l23 -80q34 -124 39 -153h8q11 50 44 153l80 246l110 -6q-53 -125 -78 -192l-88 -231q-47 -127 -100 -215.5t-99 -124.5zM422 577l-69 -24q-45 64 -93 108q-51 -67 -100 -107
l-62 19q65 72 115 156l93 9q67 -75 116 -161z" />
    <glyph glyph-name="Ydieresis" unicode="&#x178;" horiz-adv-x="614" 
d="M374 0h-133q4 145 6 290l-231 402l159 11q29 -72 80 -175q27 -55 61 -144h9q38 88 66 144l93 172l119 -4q-82 -129 -164 -269l-70 -119q2 -204 5 -308zM426 813q-28 0 -47 19t-19 45q0 27 20.5 47.5t48.5 20.5q29 0 48 -18.5t19 -46.5q0 -27 -20 -47t-50 -20zM216 813
q-29 0 -48 19t-19 45q0 27 20.5 47.5t49.5 20.5t48 -18.5t19 -46.5q0 -27 -20 -47t-50 -20z" />
    <glyph glyph-name="Zacute" unicode="&#x179;" horiz-adv-x="602" 
d="M41 0l-8 26l257 434q80 130 96 154l-3 8q-66 -8 -164 -11l-160 -8l18 96q56 -3 241 -3q123 0 224 3l9 -25l-240 -409q-63 -110 -112 -181l2 -8q59 7 175 11l194 8l-19 -95h-510zM265 750l-40 47q44 26 95 62t85 69l80 -67q-44 -33 -106 -64t-114 -47z" />
    <glyph glyph-name="zacute" unicode="&#x17a;" horiz-adv-x="459" 
d="M23 0l-8 19l210 332q22 35 51 73l-3 4q-29 -3 -69 -5l-166 -8l19 86q72 -4 179 -4q108 0 193 7l9 -20l-216 -341q-23 -36 -52 -70l4 -5l70 6l193 10l-19 -84h-395zM245 554l-63 19q59 91 93 171l106 -22q-26 -48 -61.5 -91.5t-74.5 -76.5z" />
    <glyph glyph-name="Zdotaccent" unicode="&#x17b;" horiz-adv-x="602" 
d="M41 0l-8 26l257 434q80 130 96 154l-3 8q-66 -8 -164 -11l-160 -8l18 96q56 -3 241 -3q123 0 224 3l9 -25l-240 -409q-63 -110 -112 -181l2 -8q59 7 175 11l194 8l-19 -95h-510zM312 774q-31 0 -51 19.5t-20 47.5q0 29 21.5 48.5t51.5 19.5t50.5 -19t20.5 -48
q0 -28 -21.5 -48t-51.5 -20z" />
    <glyph glyph-name="zdotaccent" unicode="&#x17c;" horiz-adv-x="459" 
d="M23 0l-8 19l210 332q22 35 51 73l-3 4q-29 -3 -69 -5l-166 -8l19 86q72 -4 179 -4q108 0 193 7l9 -20l-216 -341q-23 -36 -52 -70l4 -5l70 6l193 10l-19 -84h-395zM233 605q-31 0 -51 19.5t-20 48.5q0 28 21.5 48t51.5 20t50.5 -19.5t20.5 -47.5q0 -29 -21.5 -49
t-51.5 -20z" />
    <glyph glyph-name="Zcaron" unicode="&#x17d;" horiz-adv-x="602" 
d="M41 0l-8 26l257 434q80 130 96 154l-3 8q-66 -8 -164 -11l-160 -8l18 96q56 -3 241 -3q123 0 224 3l9 -25l-240 -409q-63 -110 -112 -181l2 -8q59 7 175 11l194 8l-19 -95h-510zM462 921l34 -46q-74 -53 -139 -126l-64 -8q-41 24 -84 60.5t-73 71.5l45 48q64 -57 139 -93
q78 63 142 93z" />
    <glyph glyph-name="zcaron" unicode="&#x17e;" horiz-adv-x="459" 
d="M23 0l-8 19l210 332q22 35 51 73l-3 4q-29 -3 -69 -5l-166 -8l19 86q72 -4 179 -4q108 0 193 7l9 -20l-216 -341q-23 -36 -52 -70l4 -5l70 6l193 10l-19 -84h-395zM82 718l68 24q44 -62 94 -107q50 64 101 106l60 -18q-65 -75 -114 -157l-93 -10q-64 73 -116 162z" />
    <glyph glyph-name="longs" unicode="&#x17f;" horiz-adv-x="298" 
d="M91 0v413h-76l8 61l70 10v19q0 53 18.5 100.5t51.5 82t77.5 54t93.5 19.5t94 -14l-20 -87l-10 -4q-35 20 -74 20q-52 0 -80.5 -39.5t-28.5 -112.5v-522h-124z" />
    <glyph glyph-name="florin" unicode="&#x192;" horiz-adv-x="446" 
d="M219 366v-313q0 -44 -6.5 -139.5t-15.5 -158.5l-99 -9l-1 620h-75l8 58l69 11v19q0 53 18.5 100.5t51.5 82t77.5 53.5t93.5 19q53 0 94 -13l-20 -82l-9 -4q-37 17 -75 17q-53 0 -82 -40t-29 -114v-37l160 16l-16 -86h-144z" />
    <glyph glyph-name="Scommaaccent" unicode="&#x218;" horiz-adv-x="575" 
d="M52 31l20 97l10 5q98 -62 184 -62q27 0 57.5 9t51.5 33.5t21 57.5q0 20 -8.5 39.5t-32.5 39t-87.5 48.5t-88 44t-42.5 30.5t-30.5 33.5t-21.5 43.5t-9 60.5q0 92 66 146t175 54q36 0 83.5 -6t91.5 -19l-23 -100l-8 -4q-82 44 -152 44q-49 0 -79.5 -24t-30.5 -66
q0 -20 10 -42.5t38.5 -43.5t98 -54t103.5 -58t53.5 -58.5t19.5 -79.5q0 -43 -18.5 -82t-53 -68.5t-84 -46t-107.5 -16.5q-108 0 -207 45zM244 -274l-30 25q19 18 33.5 44t18.5 50q-16 12 -47 17q-9 15 -9 36q0 25 20.5 43t48.5 18q29 0 49.5 -19.5t20.5 -56.5
q0 -20 -9.5 -48t-35.5 -59t-60 -50z" />
    <glyph glyph-name="scommaaccent" unicode="&#x219;" horiz-adv-x="426" 
d="M26 22l22 89l10 6q78 -47 143 -47q35 0 57.5 17t22.5 43q0 12 -7 25t-27.5 25t-63 28.5t-70 31.5t-44.5 36.5t-21 41t-4 32.5q0 69 56 114t146 45q70 0 134 -18l-22 -88l-10 -6q-63 32 -115 32q-33 0 -54 -15.5t-21 -41.5q0 -8 4 -19.5t16 -21.5t24.5 -16.5t72.5 -30.5
t82 -43.5t32 -41t10 -48.5q0 -24 -10 -51.5t-34.5 -52.5t-65.5 -42.5t-97 -17.5q-76 0 -166 35zM179 -274l-29 25q19 18 33 44t18 50q-16 12 -47 17q-9 15 -9 36q0 25 20.5 43t49.5 18t49.5 -19.5t20.5 -56.5q0 -20 -9.5 -48t-36 -59t-60.5 -50z" />
    <glyph glyph-name="uni021A" unicode="&#x21a;" horiz-adv-x="607" 
d="M368 0h-137q7 161 7 347q0 105 -5 270q-119 -1 -222 -12l16 94q98 -3 277 -3q189 0 292 3l-15 -94q-103 10 -215 12q-3 -98 -3 -270q0 -155 5 -347zM266 -274l-30 25q19 18 33.5 44t18.5 50q-16 12 -47 17q-9 15 -9 36q0 25 20.5 43t48.5 18q29 0 49.5 -19.5t20.5 -56.5
q0 -20 -9.5 -48t-35.5 -59t-60 -50z" />
    <glyph glyph-name="uni021B" unicode="&#x21b;" horiz-adv-x="402" 
d="M94 145v158q0 64 5 110h-81l8 58q25 7 51 22.5t47.5 46t39.5 77.5l59 6l-12 -138l172 16l-18 -88h-153v-250q0 -92 79 -92q38 0 70 17l23 -47q-54 -53 -141 -53q-71 0 -110 39t-39 118zM197 -274l-29 25q19 18 33 44t18 50q-16 12 -47 17q-9 15 -9 36q0 25 20.5 43
t49.5 18t49.5 -19.5t20.5 -56.5q0 -20 -9.5 -48t-36 -59t-60.5 -50z" />
    <glyph glyph-name="uni0237" unicode="&#x237;" horiz-adv-x="281" 
d="M-28 -261l-29 50q140 85 140 247v277q0 72 -7 170l131 28v-456q0 -47 -12.5 -92.5t-40 -86.5t-73.5 -76.5t-109 -60.5z" />
    <glyph glyph-name="circumflex" unicode="&#x2c6;" horiz-adv-x="530" 
d="M432 577l-69 -24q-45 64 -93 108q-51 -67 -100 -107l-62 19q65 72 115 156l93 9q67 -75 116 -161z" />
    <glyph glyph-name="caron" unicode="&#x2c7;" horiz-adv-x="472" 
d="M118 718l68 24q44 -62 94 -107q50 64 101 106l60 -18q-65 -75 -114 -157l-93 -10q-64 73 -116 162z" />
    <glyph glyph-name="uni02C9" unicode="&#x2c9;" horiz-adv-x="530" 
d="M132 592l11 72l252 10l-17 -82h-246z" />
    <glyph glyph-name="breve" unicode="&#x2d8;" horiz-adv-x="489" 
d="M327 705l69 12q1 -27 -5.5 -54t-25 -49t-49 -36t-72.5 -14q-27 0 -50 7t-41.5 20.5t-33 41.5t-12.5 72l71 12q0 -19 8 -39t27 -31.5t43 -11.5q29 0 50 18.5t21 51.5z" />
    <glyph glyph-name="dotaccent" unicode="&#x2d9;" horiz-adv-x="402" 
d="M215 605q-31 0 -51 19.5t-20 48.5q0 28 21.5 48t51.5 20t50.5 -19.5t20.5 -47.5q0 -29 -21.5 -49t-51.5 -20z" />
    <glyph glyph-name="ring" unicode="&#x2da;" horiz-adv-x="501" 
d="M236 547q-24 0 -51 10t-46 35.5t-19 58.5q0 22 12 49.5t44.5 48.5t74.5 21q25 0 52.5 -10.5t45.5 -37t18 -58.5q0 -22 -12.5 -49.5t-45 -47.5t-73.5 -20zM246 597q20 0 33.5 16t13.5 41q0 27 -14.5 46t-37.5 19q-21 0 -33 -16.5t-12 -40.5q0 -26 13.5 -45.5t36.5 -19.5z
" />
    <glyph glyph-name="ogonek" unicode="&#x2db;" horiz-adv-x="925" 
d="M371 26l58 -11q-39 -23 -67.5 -54.5t-28.5 -58.5q0 -18 12 -29.5t31 -11.5q23 0 45 13l22 -43q-21 -18 -46.5 -29.5t-52.5 -11.5q-39 0 -65.5 23t-26.5 59q0 28 17.5 58.5t46 55t55.5 40.5z" />
    <glyph glyph-name="tilde" unicode="&#x2dc;" horiz-adv-x="520" 
d="M163 576l-69 -6q-3 34 6.5 65.5t35.5 51t54 19.5q19 0 37 -9t43 -30t36 -21q12 0 18.5 14.5t1.5 41.5l71 7q6 -67 -23 -101.5t-69 -34.5q-20 0 -39.5 9t-43.5 30t-34 21q-12 0 -20 -15t-5 -42z" />
    <glyph glyph-name="hungarumlaut" unicode="&#x2dd;" horiz-adv-x="592" 
d="M219 561l-57 18q56 91 83 165l99 -21q-25 -47 -57 -88.5t-68 -73.5zM383 561l-55 18q52 85 83 165l99 -21q-49 -93 -127 -162z" />
    <glyph glyph-name="Delta" unicode="&#x394;" horiz-adv-x="613" 
d="M604 37l-20 -38q-73 2 -274 2q-210 0 -283 -2l-19 38l243 657l111 9zM294 85q121 0 171 3l-102 290q-16 45 -34.5 110.5t-26.5 103.5h-10q-9 -40 -28.5 -105t-35.5 -109l-104 -291q59 -2 170 -2z" />
    <glyph glyph-name="Omega" unicode="&#x3a9;" horiz-adv-x="825" 
d="M768 0h-287l-22 53q59 42 100.5 93t61.5 104.5t20 108.5q0 50 -16.5 99t-47 87t-72.5 60t-91 22q-47 0 -89 -21.5t-71.5 -58t-46 -84.5t-16.5 -99q0 -93 53 -179t133 -132l-24 -53h-312l17 94l152 -13l2 10q-64 47 -103 122.5t-39 158.5q0 69 27 132t76 110.5t114.5 74
t138.5 26.5q71 0 133 -25t107 -69.5t69.5 -103t24.5 -122.5q0 -89 -45 -170.5t-109 -133.5l2 -10l175 13z" />
    <glyph glyph-name="mu" unicode="&#x3bc;" horiz-adv-x="579" 
d="M69 -264v578q0 62 -7 169l131 28v-329q0 -34 14 -59.5t35 -35t38 -9.5q48 0 106 54v182q0 43 -8 169l131 28v-328q0 -77 8 -170l-113 -25l-12 77l-10 1q-51 -43 -82.5 -58t-63.5 -17q-29 0 -52 10v-49q0 -44 3.5 -109t4.5 -80z" />
    <glyph glyph-name="pi" unicode="&#x3c0;" horiz-adv-x="700" 
d="M147 -10v422q-76 0 -116 -2l20 93q172 -5 297 -5q154 0 321 5l-21 -93q-33 2 -100 2v-212q0 -43 3.5 -109t4.5 -79l-113 -22v424h-190v-214q0 -78 7 -188z" />
    <glyph glyph-name="Wgrave" unicode="&#x1e80;" horiz-adv-x="1007" 
d="M236 -5l-212 697l150 11q27 -143 71 -311l27 -105q15 -53 33 -145h8q17 85 34 144l117 406l102 6l120 -412q27 -96 37 -144h8q11 73 30 145l111 413l118 -4q-59 -163 -103 -311l-117 -381l-118 -9l-107 353q-23 81 -37 160h-9q-14 -76 -40 -162l-105 -342zM571 802
l-48 -51q-93 50 -219 91l69 83q49 -19 103.5 -53.5t94.5 -69.5z" />
    <glyph glyph-name="wgrave" unicode="&#x1e81;" horiz-adv-x="797" 
d="M177 -6l-156 498l138 17q12 -72 38 -170l13 -47q22 -78 35 -161h8q18 76 45 161l63 191l99 9l68 -200q34 -116 43 -161h9q12 66 38 161l57 212l109 -6q-39 -100 -69 -193l-99 -302l-106 -9l-60 174q-17 46 -51 168h-5q-16 -63 -52 -169l-58 -164zM456 577l-70 -24
q-67 91 -129 158l104 43q26 -33 52.5 -83.5t42.5 -93.5z" />
    <glyph glyph-name="Wacute" unicode="&#x1e82;" horiz-adv-x="1007" 
d="M236 -5l-212 697l150 11q27 -143 71 -311l27 -105q15 -53 33 -145h8q17 85 34 144l117 406l102 6l120 -412q27 -96 37 -144h8q11 73 30 145l111 413l118 -4q-59 -163 -103 -311l-117 -381l-118 -9l-107 353q-23 81 -37 160h-9q-14 -76 -40 -162l-105 -342zM504 750
l-40 47q44 26 95 62t85 69l80 -67q-44 -33 -106 -64t-114 -47z" />
    <glyph glyph-name="wacute" unicode="&#x1e83;" horiz-adv-x="797" 
d="M177 -6l-156 498l138 17q12 -72 38 -170l13 -47q22 -78 35 -161h8q18 76 45 161l63 191l99 9l68 -200q34 -116 43 -161h9q12 66 38 161l57 212l109 -6q-39 -100 -69 -193l-99 -302l-106 -9l-60 174q-17 46 -51 168h-5q-16 -63 -52 -169l-58 -164zM412 554l-63 19
q59 91 93 171l106 -22q-26 -48 -61.5 -91.5t-74.5 -76.5z" />
    <glyph glyph-name="Wdieresis" unicode="&#x1e84;" horiz-adv-x="1007" 
d="M236 -5l-212 697l150 11q27 -143 71 -311l27 -105q15 -53 33 -145h8q17 85 34 144l117 406l102 6l120 -412q27 -96 37 -144h8q11 73 30 145l111 413l118 -4q-59 -163 -103 -311l-117 -381l-118 -9l-107 353q-23 81 -37 160h-9q-14 -76 -40 -162l-105 -342zM615 775
q-29 0 -48.5 19t-19.5 45q0 27 20.5 47t49.5 20t48 -18t19 -46q0 -27 -19.5 -47t-49.5 -20zM405 775q-30 0 -49 19t-19 45q0 27 20.5 47t49.5 20t47.5 -18t18.5 -46q0 -27 -19.5 -47t-48.5 -20z" />
    <glyph glyph-name="wdieresis" unicode="&#x1e85;" horiz-adv-x="797" 
d="M177 -6l-156 498l138 17q12 -72 38 -170l13 -47q22 -78 35 -161h8q18 76 45 161l63 191l99 9l68 -200q34 -116 43 -161h9q12 66 38 161l57 212l109 -6q-39 -100 -69 -193l-99 -302l-106 -9l-60 174q-17 46 -51 168h-5q-16 -63 -52 -169l-58 -164zM511 611q-28 0 -47 19
t-19 45q0 27 20.5 47.5t48.5 20.5q29 0 48 -18.5t19 -46.5q0 -27 -20 -47t-50 -20zM301 611q-29 0 -48 19t-19 45q0 27 20.5 47.5t49.5 20.5t48 -18.5t19 -46.5q0 -27 -20 -47t-50 -20z" />
    <glyph glyph-name="Ygrave" unicode="&#x1ef2;" horiz-adv-x="614" 
d="M374 0h-133q4 145 6 290l-231 402l159 11q29 -72 80 -175q27 -55 61 -144h9q38 88 66 144l93 172l119 -4q-82 -129 -164 -269l-70 -119q2 -204 5 -308zM404 802l-48 -51q-93 50 -219 91l69 83q49 -19 103.5 -53.5t94.5 -69.5z" />
    <glyph glyph-name="ygrave" unicode="&#x1ef3;" horiz-adv-x="509" 
d="M55 -220l-2 15q23 15 54.5 46.5t63 76.5t48.5 79l-5 6l-33 -4l-166 493l139 17q18 -86 43 -171l23 -80q34 -124 39 -153h8q11 50 44 153l80 246l110 -6q-53 -125 -78 -192l-88 -231q-47 -127 -100 -215.5t-99 -124.5zM342 577l-70 -24q-67 91 -129 158l104 43
q26 -33 52.5 -83.5t42.5 -93.5z" />
    <glyph glyph-name="endash" unicode="&#x2013;" horiz-adv-x="500" 
d="M22 228l11 85h446l-16 -85h-441z" />
    <glyph glyph-name="emdash" unicode="&#x2014;" horiz-adv-x="1000" 
d="M22 228l11 85h946l-17 -85h-940z" />
    <glyph glyph-name="quoteleft" unicode="&#x2018;" horiz-adv-x="282" 
d="M188 742l42 -29q-62 -70 -74 -160q23 -23 55 -30q12 -23 12 -44q0 -16 -9 -35.5t-30.5 -33t-45.5 -13.5q-23 0 -44 13.5t-30 38t-9 48.5q0 54 32 121t101 124z" />
    <glyph glyph-name="quoteright" unicode="&#x2019;" horiz-adv-x="282" 
d="M95 397l-43 29q64 74 74 160q-20 21 -55 31q-11 20 -11 44q0 33 26 57t59 24q32 0 57 -25.5t25 -74.5q0 -38 -15 -81.5t-43.5 -84.5t-73.5 -79z" />
    <glyph glyph-name="quotesinglbase" unicode="&#x201a;" horiz-adv-x="306" 
d="M102 -187l-42 28q63 74 74 160q-23 23 -55 31q-11 20 -11 44q0 33 26 57t59 24q32 0 57 -25.5t25 -74.5q0 -54 -32 -120.5t-101 -123.5z" />
    <glyph glyph-name="quotedblleft" unicode="&#x201c;" horiz-adv-x="520" 
d="M294 497q0 38 15 81.5t43.5 85t73.5 78.5l42 -29q-63 -73 -73 -160q21 -23 54 -30q12 -23 12 -44q0 -16 -9 -35.5t-31 -33t-46 -13.5q-22 0 -42.5 13.5t-29.5 38t-9 48.5zM55 497q0 54 32 121t101 124l42 -29q-62 -70 -74 -160q23 -23 55 -30q12 -23 12 -44
q0 -16 -9 -35.5t-30.5 -33t-45.5 -13.5q-19 0 -39 10.5t-32 34t-12 55.5z" />
    <glyph glyph-name="quotedblright" unicode="&#x201d;" horiz-adv-x="520" 
d="M95 397l-43 29q64 74 74 160q-20 21 -55 31q-11 20 -11 44q0 33 26 57t59 24q32 0 57 -25.5t25 -74.5q0 -38 -15 -81.5t-43.5 -84.5t-73.5 -79zM333 397l-43 29q63 72 74 160q-21 22 -55 31q-11 20 -11 44q0 33 26 57t59 24q22 0 42.5 -13.5t29.5 -38t9 -48.5
q0 -38 -15 -81.5t-43 -84.5t-73 -79z" />
    <glyph glyph-name="quotedblbase" unicode="&#x201e;" horiz-adv-x="544" 
d="M102 -187l-42 28q63 74 74 160q-22 22 -54 31q-12 19 -12 44q0 33 26 57t59 24q32 0 57 -25.5t25 -74.5q0 -54 -32 -120.5t-101 -123.5zM340 -187l-41 28q64 75 73 160q-22 22 -54 31q-13 23 -13 44q0 16 9 35t31 32.5t46 13.5q23 0 43.5 -13.5t29.5 -38t9 -48.5
q0 -54 -32 -120.5t-101 -123.5z" />
    <glyph glyph-name="dagger" unicode="&#x2020;" horiz-adv-x="555" 
d="M223 -149l-1 571l-190 -7l17 92l173 -13q0 88 -7 191l123 25l-3 -211l188 8l-18 -92l-171 12q-8 -350 -15 -556z" />
    <glyph glyph-name="daggerdbl" unicode="&#x2021;" horiz-adv-x="593" 
d="M242 -149l-1 236l-190 -8l17 92l173 -12v263l-190 -7l17 92l173 -13q0 88 -7 191l123 25l-3 -211l188 8l-18 -92l-171 12l-6 -263l195 7l-18 -92l-180 14q-1 -82 -7 -222z" />
    <glyph glyph-name="bullet" unicode="&#x2022;" horiz-adv-x="339" 
d="M167 167q-18 0 -40 10t-38 35t-16 54q0 18 9.5 40.5t34 39.5t52.5 17q19 0 41.5 -10t39 -34.5t16.5 -52.5q0 -19 -10 -42t-35 -40t-54 -17z" />
    <glyph glyph-name="ellipsis" unicode="&#x2026;" horiz-adv-x="842" 
d="M150 -10q-35 0 -60 25t-25 59q0 35 25.5 60.5t61.5 25.5q35 0 59.5 -25.5t24.5 -60.5q0 -16 -8.5 -35.5t-30.5 -34t-47 -14.5zM421 -10q-35 0 -59.5 25t-24.5 59q0 16 8.5 36.5t30 35t46.5 14.5q35 0 60.5 -25.5t25.5 -60.5q0 -16 -9 -35.5t-31 -34t-47 -14.5zM691 -10
q-16 0 -36 8.5t-34 29.5t-14 46q0 35 25.5 60.5t60.5 25.5t59.5 -25.5t24.5 -60.5q0 -34 -25.5 -59t-60.5 -25z" />
    <glyph glyph-name="perthousand" unicode="&#x2030;" horiz-adv-x="1346" 
d="M169 -30l475 734l91 -12l-476 -734zM204 294q-48 0 -84 22.5t-57.5 67t-21.5 109.5q0 34 10 71t33.5 68.5t61.5 53t87 21.5q29 0 57.5 -9.5t52 -33t38 -62t14.5 -91.5q0 -34 -9.5 -71.5t-32.5 -69.5t-61 -54t-88 -22zM222 354q31 0 47 38.5t16 98.5q0 72 -18.5 115
t-51.5 43q-31 0 -47.5 -39t-16.5 -99q0 -71 19 -114t52 -43zM695 -8q-48 0 -83.5 22.5t-57 66.5t-21.5 109q0 34 10 71t33.5 69t61.5 53.5t87 21.5q77 0 119.5 -54.5t42.5 -142.5q0 -22 -4.5 -50t-17.5 -56t-35.5 -53t-58.5 -41t-76 -16zM714 52q31 0 47 38.5t16 98.5
q0 71 -18.5 114.5t-52.5 43.5q-31 0 -47 -39t-16 -99q0 -72 18.5 -114.5t52.5 -42.5zM1113 -8q-29 0 -58 10t-52 33.5t-38 62t-15 92.5q0 34 10 71t33.5 69t61.5 53.5t87 21.5q77 0 120 -54.5t43 -142.5q0 -34 -9.5 -71t-36 -73t-66.5 -54t-80 -18zM1131 52q31 0 47 38.5
t16 98.5q0 72 -18.5 115t-52.5 43q-30 0 -46.5 -39t-16.5 -99q0 -71 19 -114t52 -43z" />
    <glyph glyph-name="guilsinglleft" unicode="&#x2039;" horiz-adv-x="319" 
d="M185 64l-149 189l3 18l161 205l65 -66l-38 -45q-51 -59 -85 -90v-7q38 -35 84 -88l40 -44z" />
    <glyph glyph-name="guilsinglright" unicode="&#x203a;" horiz-adv-x="319" 
d="M134 476l148 -189l-2 -18l-160 -205l-67 66l39 45q51 59 86 89v8q-35 31 -86 88l-39 44z" />
    <glyph glyph-name="fraction" unicode="&#x2044;" horiz-adv-x="168" 
d="M-210 -30l476 734l90 -12l-476 -734z" />
    <glyph glyph-name="uni2070" unicode="&#x2070;" horiz-adv-x="406" 
d="M270 491q0 71 -18.5 114t-51.5 43q-31 0 -47 -38.5t-16 -99.5q0 -71 18.5 -113.5t51.5 -42.5q31 0 47 38.5t16 98.5zM381 510q0 -34 -9.5 -71t-33 -69t-61.5 -54t-88 -22q-49 0 -84.5 22.5t-57 66.5t-21.5 109q0 46 14.5 86t41 69t62 44.5t75.5 15.5q76 0 119 -54
t43 -143z" />
    <glyph glyph-name="uni2074" unicode="&#x2074;" horiz-adv-x="383" 
d="M26 413l-11 24l176 267l111 3v-233l66 3l-12 -64h-54q0 -25 4 -111h-108l1 111h-173zM104 471l95 3v52l3 95l-7 1q-20 -47 -44 -82z" />
    <glyph glyph-name="uni2075" unicode="&#x2075;" horiz-adv-x="296" 
d="M37 297l-7 55q43 3 71 15t42.5 30.5t14.5 40.5q0 33 -33.5 53t-96.5 21l18 189q135 2 221 11l-15 -71h-140l-4 -65q76 -7 117 -39t41 -81q0 -41 -24.5 -76.5t-74.5 -58.5t-130 -24z" />
    <glyph glyph-name="uni2076" unicode="&#x2076;" horiz-adv-x="360" 
d="M306 658q-133 -23 -171 -133l9 -4q16 14 40 24t45 10q46 0 78 -30t32 -83q0 -63 -44.5 -106t-116.5 -43q-71 0 -112 43t-41 114q0 52 21 99.5t58 83.5t88.5 55.5t105.5 24.5zM185 491q-11 0 -26.5 -5t-25.5 -12v-12q0 -34 8.5 -60.5t22 -37t26.5 -10.5q22 0 36 18.5
t14 51.5q0 32 -15.5 49.5t-39.5 17.5z" />
    <glyph glyph-name="uni2077" unicode="&#x2077;" horiz-adv-x="284" 
d="M144 297l-110 12q15 41 37 97t102 238l-168 -8l11 70h259l4 -13q-79 -210 -135 -396z" />
    <glyph glyph-name="uni2078" unicode="&#x2078;" horiz-adv-x="359" 
d="M102 501q-60 35 -60 91q0 23 13.5 52t50 49.5t87.5 20.5q42 0 73.5 -15t43 -36.5t11.5 -40.5q0 -30 -19.5 -56t-48.5 -43q48 -25 64.5 -50t16.5 -53q0 -54 -45 -90.5t-120 -36.5q-65 0 -104.5 28.5t-39.5 72.5q0 58 77 107zM156 476q-14 -13 -23.5 -30t-9.5 -33
q0 -26 16.5 -43t42.5 -17q24 0 40 14.5t16 35.5q0 12 -10 28.5t-72 44.5zM196 547q15 12 24 28t9 31q0 20 -14 34t-36 14q-19 0 -32 -12t-13 -31q0 -35 62 -64z" />
    <glyph glyph-name="uni2079" unicode="&#x2079;" horiz-adv-x="360" 
d="M61 293l-8 55q133 23 171 132l-9 6q-16 -14 -40 -24.5t-45 -10.5q-45 0 -77.5 30t-32.5 82q0 64 44.5 107t116.5 43q70 0 112 -43t42 -114q0 -65 -31.5 -122t-92 -95t-150.5 -46zM174 514q11 0 26.5 5t25.5 12v12q0 34 -8.5 61t-22 37t-26.5 10q-22 0 -36 -18.5
t-14 -51.5q0 -32 15 -49.5t40 -17.5z" />
    <glyph glyph-name="uni2080" unicode="&#x2080;" horiz-adv-x="406" 
d="M270 189q0 71 -18.5 114.5t-51.5 43.5q-31 0 -47 -39t-16 -99q0 -72 18.5 -114.5t51.5 -42.5q31 0 47 38.5t16 98.5zM381 208q0 -34 -9.5 -71t-33 -69t-61.5 -54t-88 -22q-29 0 -58 10t-52 33.5t-38 62t-15 92.5q0 94 55.5 154.5t137.5 60.5q76 0 119 -54t43 -143z" />
    <glyph glyph-name="uni2081" unicode="&#x2081;" horiz-adv-x="255" 
d="M113 0v296l-95 -11l-12 48q44 12 102.5 33.5t90.5 39.5l26 -2q-5 -87 -5 -108v-296h-107z" />
    <glyph glyph-name="uni2082" unicode="&#x2082;" horiz-adv-x="348" 
d="M25 19q82 86 125 146.5t43 108.5q0 32 -18.5 48.5t-44.5 16.5q-35 0 -71 -21l-17 47q68 47 139 47q55 0 90 -29.5t35 -79.5q0 -46 -34 -104t-111 -133l1 -5l162 9l-11 -70h-280z" />
    <glyph glyph-name="uni2083" unicode="&#x2083;" horiz-adv-x="317" 
d="M160 411q52 0 83 -25.5t31 -62.5q0 -26 -17 -50.5t-51 -40.5v-4q40 -8 60.5 -33.5t20.5 -58.5q0 -24 -14.5 -54t-52 -52.5t-86.5 -29.5t-102 -4l-6 54q50 0 83 10t49 28t16 38q0 27 -23.5 41.5t-63.5 10.5l-9 48q49 18 66.5 35t17.5 37q0 19 -14 29.5t-38 10.5
q-32 0 -67 -18l-17 46q67 45 134 45z" />
    <glyph glyph-name="uni2084" unicode="&#x2084;" horiz-adv-x="383" 
d="M26 111l-11 24l176 267l111 3v-233l66 3l-12 -64h-54q0 -54 4 -111h-108l1 111h-173zM104 169l95 3v51l3 97l-7 1q-19 -47 -44 -83z" />
    <glyph glyph-name="uni2085" unicode="&#x2085;" horiz-adv-x="296" 
d="M37 -6l-7 55q26 2 50.5 8.5t43 19.5t26.5 30t8 30q0 32 -34 52t-96 20l18 191q147 2 221 10l-15 -70h-140l-4 -65q76 -8 117 -40t41 -81q0 -25 -11 -52t-36.5 -51t-71.5 -40t-110 -17z" />
    <glyph glyph-name="uni2086" unicode="&#x2086;" horiz-adv-x="360" 
d="M306 356q-133 -23 -171 -132l9 -5q16 14 40 24t45 10q45 0 77.5 -30t32.5 -83q0 -63 -44.5 -105.5t-116.5 -42.5q-70 0 -111.5 42.5t-41.5 113.5q0 65 31.5 122t91.5 95t150 46zM185 189q-11 0 -26.5 -5t-25.5 -12v-12q0 -34 8.5 -60.5t22 -37t26.5 -10.5q22 0 36 18.5
t14 51.5q0 32 -15.5 49.5t-39.5 17.5z" />
    <glyph glyph-name="uni2087" unicode="&#x2087;" horiz-adv-x="284" 
d="M144 -5l-110 12q12 33 28 75t36 88.5t44 101.5t31 70l-168 -8l11 70h259l4 -13q-79 -207 -135 -396z" />
    <glyph glyph-name="uni2088" unicode="&#x2088;" horiz-adv-x="359" 
d="M102 199q-60 35 -60 92q0 23 13.5 52t50 49t87.5 20q42 0 73.5 -15t43 -36.5t11.5 -40.5q0 -56 -68 -99q47 -24 64 -49.5t17 -54.5q0 -53 -45 -89t-120 -36q-48 0 -83 16.5t-48 40.5t-13 44q0 55 77 106zM156 174q-14 -12 -23.5 -29.5t-9.5 -33.5q0 -25 16.5 -42
t42.5 -17q25 0 40.5 14.5t15.5 35.5q0 12 -8 25t-25 22.5t-49 24.5zM196 246q15 11 24 27t9 31q0 21 -14 34.5t-36 13.5q-20 0 -32.5 -11.5t-12.5 -31.5q0 -35 62 -63z" />
    <glyph glyph-name="uni2089" unicode="&#x2089;" horiz-adv-x="360" 
d="M61 -8l-8 54q133 23 171 132l-9 5q-16 -14 -40 -24t-45 -10q-32 0 -59 16.5t-39 42.5t-12 54q0 63 44.5 106t116.5 43q70 0 112 -43t42 -114q0 -41 -14.5 -84t-47 -81t-86 -64.5t-126.5 -32.5zM174 213q11 0 26.5 5t25.5 12v12q0 34 -8.5 60.5t-22 37t-26.5 10.5
q-22 0 -36 -18.5t-14 -51.5q0 -32 15 -49.5t40 -17.5z" />
    <glyph glyph-name="Euro" unicode="&#x20ac;" horiz-adv-x="677" 
d="M53 307l447 11l-26 -74h-229q21 -77 72 -124t124 -47q37 0 81.5 10t78.5 32l29 -54q-36 -34 -93 -56t-132 -22q-112 0 -188.5 70t-97.5 191h-85zM54 441l71 1q12 47 33.5 89t50.5 73.5t64 54t81 38t101 15.5q35 0 80 -7.5t88 -23.5l-29 -87l-9 -4q-33 17 -73 28t-72 11
q-71 0 -125.5 -50t-74.5 -134l307 7l-27 -74h-484z" />
    <glyph glyph-name="uni20B9" unicode="&#x20b9;" horiz-adv-x="599" 
d="M68 470l8 63l201 5q-12 39 -47.5 63.5t-93.5 24.5q-27 0 -68 -4l10 84l458 11l-15 -75h-68q-73 0 -109 4l-2 -6q25 -16 42.5 -42t20.5 -56l131 3l-15 -75h-122q-13 -44 -45.5 -80t-69.5 -58l204 -326l-160 -11q-46 102 -111 223l-40 70l-109 2l8 81q73 -8 142 -2
q53 41 64 101h-214z" />
    <glyph glyph-name="afii61289" unicode="&#x2113;" horiz-adv-x="535" 
d="M260 541l-16 -209q131 128 140 255q3 48 -11.5 74t-39.5 26q-28 0 -48 -36.5t-25 -109.5zM453 166l40 -35q-40 -66 -98 -103.5t-121 -37.5q-19 0 -40.5 4.5t-40.5 17t-34.5 34t-23 54.5t-7.5 67l-59 -38l-26 58l89 63l18 268q3 46 17 90.5t41 79t66 55.5t87 21
q45 0 75.5 -19.5t45.5 -54t11 -83.5q-6 -81 -64 -172t-192 -202q-3 -40 3.5 -76.5t28 -54.5t50.5 -18q18 0 41.5 8.5t48 28.5t44.5 45z" />
    <glyph glyph-name="trademark" unicode="&#x2122;" horiz-adv-x="824" 
d="M217 377h-101q3 58 3 170l-2 125q-66 -2 -106 -5l10 60q52 -2 153 -2q94 0 151 2l-10 -60q-52 5 -98 5l-2 -125zM423 377l-80 -1q16 104 26 193l18 156l105 4l52 -140q19 -53 26 -93h5q10 46 28 93l50 136l106 4l40 -352h-110q0 83 -5 180q-2 50 -1 86h-6q-9 -49 -22 -88
l-57 -175l-77 -4l-56 173q-16 51 -26 97h-5q1 -31 -1 -97z" />
    <glyph glyph-name="uni2126" unicode="&#x2126;" horiz-adv-x="825" 
d="M768 0h-287l-22 53q59 42 100.5 93t61.5 104.5t20 108.5q0 50 -16.5 99t-47 87t-72.5 60t-91 22q-47 0 -89 -21.5t-71.5 -58t-46 -84.5t-16.5 -99q0 -93 53 -179t133 -132l-24 -53h-312l17 94l152 -13l2 10q-64 47 -103 122.5t-39 158.5q0 69 27 132t76 110.5t114.5 74
t138.5 26.5q71 0 133 -25t107 -69.5t69.5 -103t24.5 -122.5q0 -89 -45 -170.5t-109 -133.5l2 -10l175 13z" />
    <glyph glyph-name="estimated" unicode="&#x212e;" horiz-adv-x="864" 
d="M841 341h-650q-6 0 -6 -5v-197q0 -11 11 -22q46 -50 111 -78.5t136 -28.5q74 0 142 32.5t115 86.5h60q-56 -64 -140.5 -102t-177.5 -38q-81 0 -155 28t-129.5 78t-87 116.5t-31.5 138.5t31.5 138.5t87 116.5t130 78.5t154.5 28.5q101 0 193 -45.5t149 -130.5t57 -186v-9z
M696 366v198q0 15 -10 23q-47 47 -111.5 75t-131.5 28q-71 0 -135.5 -28.5t-111.5 -76.5q-11 -13 -11 -26v-193q0 -2 2 -3.5t4 -1.5h500q2 0 3.5 1.5t1.5 3.5z" />
    <glyph glyph-name="onethird" unicode="&#x2153;" horiz-adv-x="816" 
d="M96 -30l475 734l91 -12l-476 -734zM153 302v295l-93 -11l-12 49q45 12 102.5 33.5t89.5 39.5l27 -2q-5 -58 -5 -108v-296h-109zM642 411q25 0 52.5 -8.5t44.5 -30.5t17 -49q0 -26 -16.5 -50.5t-50.5 -40.5l-1 -4q40 -8 60.5 -33.5t20.5 -58.5q0 -24 -14.5 -54t-52 -52.5
t-86.5 -29.5t-102 -4l-6 54q50 0 83.5 10t49.5 28t16 38q0 27 -23.5 41.5t-63.5 10.5l-9 48q45 14 64.5 33t19.5 39q0 19 -14.5 29.5t-38.5 10.5q-33 0 -66 -18l-17 46q67 45 133 45z" />
    <glyph glyph-name="twothirds" unicode="&#x2154;" horiz-adv-x="885" 
d="M165 -30l475 734l91 -12l-476 -734zM48 321q81 86 124 146t43 108q0 17 -6.5 33t-22 25t-33.5 9q-35 0 -71 -23l-18 48q29 19 65.5 33t74.5 14q55 0 90 -29.5t35 -79.5q0 -97 -146 -237l2 -5l161 8l-10 -69h-280zM710 411q25 0 52.5 -8.5t44.5 -30.5t17 -49
q0 -26 -16 -50.5t-50 -40.5l-1 -4q39 -8 60 -34t21 -58t-18.5 -60.5t-52.5 -48.5t-83 -27t-102 -4l-6 54q50 0 83.5 10t49.5 28t16 38q0 27 -23.5 41.5t-63.5 10.5l-9 48q84 26 84 72q0 19 -14 29.5t-39 10.5q-33 0 -66 -18l-17 46q67 45 133 45z" />
    <glyph glyph-name="uni2155" unicode="&#x2155;" horiz-adv-x="795" 
d="M153 302v295l-93 -11l-12 49q45 12 102.5 33.5t89.5 39.5l27 -2q-5 -58 -5 -108v-296h-109zM96 -30l475 734l91 -12l-476 -734zM517 -6l-7 55q26 2 50.5 8.5t43 19.5t26.5 30t8 30q0 32 -34 52t-97 20l19 191q147 2 221 10l-15 -70h-140l-4 -65q76 -8 117 -40t41 -81
q0 -25 -11 -52t-36.5 -51t-71.5 -40t-110 -17z" />
    <glyph glyph-name="uni2156" unicode="&#x2156;" horiz-adv-x="875" 
d="M48 321q81 86 124 146t43 108q0 17 -6.5 33t-22 25t-33.5 9q-35 0 -72 -23l-17 48q29 19 65.5 33t74.5 14q55 0 90 -29.5t35 -79.5q0 -97 -146 -237l2 -5l161 8l-10 -69h-280zM175 -30l475 734l90 -12l-476 -734zM597 -6l-8 55q26 2 51 8.5t43.5 19.5t26.5 30t8 30
q0 32 -34 52t-97 20l19 191q147 2 221 10l-15 -70h-140l-4 -65q76 -8 117 -40t41 -81q0 -25 -11 -52t-36.5 -51t-71.5 -40t-110 -17z" />
    <glyph glyph-name="uni2157" unicode="&#x2157;" horiz-adv-x="818" 
d="M118 -30l475 734l90 -12l-476 -734zM540 -6l-8 55q26 2 51 8.5t43.5 19.5t26.5 30t8 30q0 32 -34 52t-97 20l19 191q147 2 221 10l-15 -70h-140l-4 -65q76 -8 117 -40t41 -81q0 -25 -11 -52t-37 -51t-71.5 -40t-109.5 -17zM182 713q25 0 52 -8.5t44.5 -30.5t17.5 -49
q0 -26 -17 -51t-51 -41v-4q19 -3 39 -14.5t31 -32.5t11 -44q0 -32 -18 -60.5t-52.5 -48.5t-83 -27t-101.5 -4l-6 54q40 0 76.5 8t54 27.5t17.5 40.5q0 27 -23.5 41t-63.5 10l-9 49q51 18 68 34.5t17 37.5q0 18 -14.5 29t-38.5 11q-32 0 -67 -18l-17 46q68 45 134 45z" />
    <glyph glyph-name="uni2158" unicode="&#x2158;" horiz-adv-x="900" 
d="M57 413l-9 19l179 272l110 3v-233l66 3l-11 -64h-55q0 -24 2.5 -67t2.5 -44h-108l1 111h-178zM140 471l95 3v52l3 95l-7 1q-21 -49 -45 -82zM200 -30l475 734l90 -12l-476 -734zM622 -6l-8 55q26 2 51 8.5t43.5 19.5t26.5 30t8 30q0 32 -34 52t-97 20l19 191
q147 2 221 10l-16 -70h-139l-4 -65q76 -8 117 -40t41 -81q0 -25 -11 -52t-36.5 -51t-71.5 -40t-110 -17z" />
    <glyph glyph-name="uni2159" unicode="&#x2159;" horiz-adv-x="819" 
d="M153 302v295l-93 -11l-12 49q45 12 102.5 33.5t89.5 39.5l27 -2q-5 -58 -5 -108v-296h-109zM95 -30l475 734l91 -12l-477 -734zM737 356q-133 -23 -171 -132l9 -5q16 14 40 24t46 10q32 0 59 -16t39 -42.5t12 -54.5q0 -63 -45 -105.5t-117 -42.5q-71 0 -112 42.5
t-41 113.5q0 65 31.5 122t92 95t150.5 46zM616 189q-10 0 -25.5 -5t-26.5 -12v-12q0 -34 8.5 -60.5t22 -37t26.5 -10.5q22 0 36 18.5t14 51.5q0 32 -15.5 49.5t-39.5 17.5z" />
    <glyph glyph-name="uni215A" unicode="&#x215a;" horiz-adv-x="806" 
d="M57 297l-7 55q44 3 72 15t42.5 30.5t14.5 40.5q0 33 -34 53t-97 21l18 189q135 2 221 11l-15 -71h-139l-5 -65q77 -7 117.5 -39t40.5 -81q0 -41 -24.5 -76.5t-74.5 -58.5t-130 -24zM84 -30l475 734l91 -12l-476 -734zM726 356q-134 -23 -172 -132l8 -5q17 14 41 24t45 10
q45 0 78 -30t33 -83q0 -23 -7.5 -48t-26.5 -47t-51 -37.5t-77 -15.5q-71 0 -112 42.5t-41 113.5q0 65 31.5 122t92 95t150.5 46zM604 189q-10 0 -25.5 -5t-26.5 -12v-12q0 -34 9 -60.5t22.5 -37t26.5 -10.5q21 0 35 18.5t14 51.5q0 32 -15 49.5t-40 17.5z" />
    <glyph glyph-name="oneeighth" unicode="&#x215b;" horiz-adv-x="840" 
d="M153 302v295l-93 -11l-12 49q45 12 102.5 33.5t89.5 39.5l27 -2q-5 -58 -5 -108v-296h-109zM96 -30l475 734l91 -12l-476 -734zM560 199q-59 35 -59 92q0 23 13.5 52t50 49t87.5 20q42 0 73 -15t42.5 -36.5t11.5 -40.5q0 -30 -19.5 -55.5t-49.5 -43.5q49 -23 66 -49
t17 -55q0 -19 -7.5 -39.5t-26.5 -39.5t-52 -32.5t-79 -13.5q-48 0 -83 16.5t-48 40.5t-13 44q0 55 76 106zM615 174q-14 -11 -23.5 -28.5t-9.5 -34.5q0 -26 16 -42.5t42 -16.5q25 0 40.5 14.5t15.5 35.5q0 19 -14.5 34t-66.5 38zM654 246q15 11 24.5 27t9.5 31
q0 21 -14.5 34.5t-35.5 13.5q-20 0 -32.5 -11.5t-12.5 -31.5q0 -36 61 -63z" />
    <glyph glyph-name="threeeighths" unicode="&#x215c;" horiz-adv-x="864" 
d="M117 -30l476 734l90 -12l-476 -734zM585 199q-60 35 -60 92q0 23 13.5 52t50 49t87.5 20q58 0 93 -26t35 -66q0 -23 -15 -49t-54 -50q47 -23 64 -49t17 -55q0 -53 -44.5 -89t-119.5 -36q-48 0 -83 16.5t-48 40.5t-13 44q0 55 77 106zM639 174q-15 -12 -24.5 -29.5
t-9.5 -33.5q0 -25 17 -42t43 -17q25 0 40.5 14.5t15.5 35.5q0 12 -8 25t-25 22.5t-49 24.5zM679 246q15 11 24 27t9 31q0 21 -14 34.5t-36 13.5q-20 0 -32.5 -11.5t-12.5 -31.5q0 -36 62 -63zM182 713q25 0 52 -8.5t44.5 -30.5t17.5 -49q0 -26 -17 -51t-51 -41v-4
q19 -3 39 -14.5t31 -32.5t11 -44q0 -32 -18 -60.5t-52.5 -48.5t-83 -27t-101.5 -4l-6 54q40 0 76.5 8t54 27.5t17.5 40.5q0 27 -23.5 41t-63.5 10l-9 49q51 18 68 34.5t17 37.5q0 18 -14.5 29t-38.5 11q-32 0 -67 -18l-17 46q68 45 134 45z" />
    <glyph glyph-name="fiveeighths" unicode="&#x215d;" horiz-adv-x="836" 
d="M57 297l-7 55q44 3 72 15t42.5 30.5t14.5 40.5q0 33 -34 53t-97 21l18 189q135 2 221 11l-15 -71h-139l-5 -65q77 -7 117.5 -39t40.5 -81q0 -41 -24.5 -76.5t-74.5 -58.5t-130 -24zM89 -30l475 734l91 -12l-476 -734zM556 199q-60 35 -60 92q0 23 13.5 52t50.5 49t88 20
q58 0 93 -26t35 -66q0 -23 -15 -49t-54 -50q47 -23 64 -49t17 -55q0 -32 -19.5 -62t-59 -46.5t-85.5 -16.5q-48 0 -83 16.5t-48 40.5t-13 44q0 55 76 106zM610 174q-14 -12 -23.5 -29.5t-9.5 -33.5q0 -25 17 -42t43 -17q24 0 40 14.5t16 35.5q0 19 -15 34t-68 38zM650 246
q15 11 24.5 27t9.5 31q0 21 -14 34.5t-37 13.5q-19 0 -31.5 -12t-12.5 -31q0 -36 61 -63z" />
    <glyph glyph-name="seveneighths" unicode="&#x215e;" horiz-adv-x="811" 
d="M192 297l-110 12q15 41 31.5 82t107.5 253l-168 -8l11 70h259l4 -13q-85 -226 -135 -396zM62 -30l475 734l91 -12l-476 -734zM531 199q-59 34 -59 92q0 23 13.5 52t50 49t87.5 20q58 0 93 -26t35 -66q0 -23 -15 -49t-54 -50q47 -23 64 -49t17 -55q0 -53 -44.5 -89
t-119.5 -36q-65 0 -104 28.5t-39 72.5q0 55 75 106zM586 174q-15 -12 -24.5 -29.5t-9.5 -33.5q0 -25 17 -42t43 -17q24 0 40 14.5t16 35.5q0 12 -8 25t-25 22.5t-49 24.5zM625 246q15 11 24.5 27t9.5 31q0 21 -14 34.5t-36 13.5q-20 0 -32.5 -11.5t-12.5 -31.5q0 -36 61 -63
z" />
    <glyph glyph-name="partialdiff" unicode="&#x2202;" horiz-adv-x="589" 
d="M98 590l-21 53q33 30 86.5 50t106.5 20q52 0 93 -18t70 -45.5t50 -67t33 -93t12 -115.5q0 -85 -21 -157t-59.5 -123t-91 -78t-112.5 -27q-45 0 -83 15.5t-65 43.5t-41 65t-14 78q0 48 18.5 92.5t50 78t71.5 52.5t80 19q24 0 54.5 -9t57.5 -28.5t39 -38.5l7 3l1 30
q0 41 -9.5 82.5t-32 76t-59.5 57t-86 22.5q-30 0 -68.5 -10.5t-66.5 -27.5zM264 66q21 0 43.5 11t45 39.5t36.5 71.5t19 81q-8 20 -25 39t-44 33.5t-61 14.5q-54 0 -89.5 -41t-35.5 -105q0 -62 32 -103t79 -41z" />
    <glyph glyph-name="uni2206" unicode="&#x2206;" horiz-adv-x="613" 
d="M604 37l-20 -38q-73 2 -274 2q-210 0 -283 -2l-19 38l243 657l111 9zM294 85q121 0 171 3l-102 290q-16 45 -34.5 110.5t-26.5 103.5h-10q-9 -40 -28.5 -105t-35.5 -109l-104 -291q59 -2 170 -2z" />
    <glyph glyph-name="product" unicode="&#x220f;" horiz-adv-x="691" 
d="M127 -11v625l-116 -3l20 94q124 -6 330 -6q199 0 319 6l-21 -94l-100 2v-414q0 -62 8 -188l-113 -22v626h-222v-416q0 -62 8 -188z" />
    <glyph glyph-name="summation" unicode="&#x2211;" horiz-adv-x="594" 
d="M560 -72h-525l-21 36l279 349l-276 349l27 40q83 -4 259 -4q170 0 248 5l-20 -101q-166 13 -338 18l-2 -11q13 -15 34.5 -40t110.5 -137l77 -103l-5 -16l-82 -101q-84 -105 -161 -192l4 -10q230 6 412 20z" />
    <glyph glyph-name="minus" unicode="&#x2212;" horiz-adv-x="541" 
d="M55 232l14 91l417 12l-21 -103h-410z" />
    <glyph glyph-name="uni2215" unicode="&#x2215;" horiz-adv-x="168" 
d="M-210 -30l476 734l90 -12l-476 -734z" />
    <glyph glyph-name="uni2219" unicode="&#x2219;" horiz-adv-x="301" 
d="M149 171q-16 0 -36 8.5t-34 30t-14 46.5q0 35 25.5 60.5t60.5 25.5q16 0 36 -8.5t34.5 -30.5t14.5 -47q0 -35 -26 -60t-61 -25z" />
    <glyph glyph-name="radical" unicode="&#x221a;" horiz-adv-x="594" 
d="M615 860l-244 -939l-83 -18l-163 435l-85 -15l-8 65l158 51l85 -254q33 -100 47 -157h7q16 92 31 157l154 661z" />
    <glyph glyph-name="infinity" unicode="&#x221e;" horiz-adv-x="821" 
d="M786 287q0 -50 -29 -100t-80.5 -77.5t-103.5 -27.5q-100 0 -163 108h-9q-28 -37 -59 -62.5t-63 -35.5t-60 -10q-27 0 -58 9t-58.5 30.5t-47.5 57t-20 82.5q0 40 16.5 77.5t46.5 66.5t70 45t84 16q55 0 97 -26t69 -75h10q38 49 80.5 75t92.5 26q27 0 58 -9t62.5 -33.5
t48 -61.5t16.5 -75zM368 255q-22 60 -60.5 96.5t-80.5 36.5q-19 0 -40 -11.5t-34.5 -39.5t-13.5 -59q0 -24 11 -51.5t38.5 -47.5t59.5 -20q36 0 68 26t52 70zM681 269q0 34 -17 64.5t-41 42.5t-45 12q-36 0 -69.5 -24.5t-55.5 -67.5q20 -45 45.5 -78t50.5 -46t44 -13
q18 0 39 11.5t35 39t14 59.5z" />
    <glyph glyph-name="integral" unicode="&#x222b;" horiz-adv-x="344" 
d="M344 760l-14 -77q-20 6 -37 6q-26 0 -42.5 -18t-24.5 -53.5t-8 -120.5q1 -80 8 -245.5t7 -210.5q0 -145 -42 -222t-124 -77q-17 0 -37.5 3t-29.5 7l15 80q18 -7 41 -7q33 0 54 32t21 151q0 82 -7 254t-7 213q0 147 44 220t127 73q38 0 56 -8z" />
    <glyph glyph-name="approxequal" unicode="&#x2248;" horiz-adv-x="604" 
d="M204 161q-20 0 -44 -10.5t-64 -51.5l-41 50q16 24 42.5 49t62 40t67.5 15q33 0 89.5 -23t85.5 -23q20 0 42.5 10.5t62.5 50.5l42 -50q-34 -50 -76 -76.5t-85 -26.5q-35 0 -87.5 20t-70.5 23t-26 3zM204 355q-20 0 -44 -11t-64 -51l-41 50q16 24 42.5 48.5t62 39.5
t67.5 15q33 0 89.5 -23t85.5 -23q20 0 43 11t62 51l42 -50q-34 -51 -76.5 -77.5t-84.5 -26.5q-35 0 -87.5 20.5t-70.5 23.5t-26 3z" />
    <glyph glyph-name="notequal" unicode="&#x2260;" horiz-adv-x="612" 
d="M70 330l13 84l230 6l81 189l84 -13l-77 -174l144 4l-22 -96h-453zM67 141l12 84l463 12l-22 -96h-224l-85 -194l-83 12l80 182h-141z" />
    <glyph glyph-name="lessequal" unicode="&#x2264;" horiz-adv-x="492" 
d="M62 76l367 12l-18 -88h-358zM344 140l-293 211l6 20l290 213l63 -73l-94 -62q-67 -46 -134 -81v-6q67 -31 134 -76l94 -64z" />
    <glyph glyph-name="greaterequal" unicode="&#x2265;" horiz-adv-x="493" 
d="M72 76l368 12l-19 -88h-358zM147 584l292 -212l-5 -21l-290 -211l-64 72l94 63q57 38 134 79v5q-74 37 -134 78l-93 63z" />
    <glyph glyph-name="lozenge" unicode="&#x25ca;" horiz-adv-x="531" 
d="M393 344l-69 149q-45 95 -58 135h-8q-21 -54 -61 -130l-61 -115l70 -147q45 -92 59 -136h8q9 23 28.5 63.5t32.5 64.5zM495 364l-191 -356l-89 -13l-179 369l190 357l88 13z" />
    <glyph glyph-name="uniF001" unicode="&#xf001;" horiz-adv-x="615" 
d="M415 0v313q0 38 -4 100h-196v-413h-124v413h-76l9 61l69 10v8q0 58 21 107.5t57.5 85t83.5 54t97 18.5q32 0 70 -8t67 -22l-20 -89l-38 -9q-25 22 -52.5 34t-53.5 12q-49 0 -79.5 -44.5t-30.5 -123.5v-29l219 10l105 24v-512h-124z" />
    <glyph glyph-name="uniF002" unicode="&#xf002;" horiz-adv-x="637" 
d="M443 0v548l-2 110q-17 7 -47 13t-51 6q-10 0 -34.5 -4.5t-45.5 -22t-34.5 -47t-13.5 -75.5v-42l133 15l-15 -88h-118v-413h-123v413h-77l8 61l70 10v28q0 53 21 99t58 79t84.5 51t98.5 18q25 0 62 -5t59 -11l91 24v-767h-124z" />
    <glyph glyph-name="uniF506" unicode="&#xf506;" horiz-adv-x="829" 
d="M153 302v295l-93 -11l-12 49q45 12 102.5 33.5t89.5 39.5l27 -2q-5 -58 -5 -108v-296h-109zM95 -30l475 734l91 -12l-477 -734zM646 -5l-112 12q40 107 140 335l-168 -8l11 70h259l5 -13q-85 -219 -135 -396z" />
    <glyph glyph-name="uniF507" unicode="&#xf507;" horiz-adv-x="908" 
d="M48 321q81 86 124 146t43 108q0 17 -6.5 33t-22 25t-33.5 9q-35 0 -72 -23l-17 48q29 19 65.5 33t74.5 14q55 0 90 -29.5t35 -79.5q0 -97 -146 -237l2 -5l161 8l-10 -69h-280zM174 -30l475 734l90 -12l-476 -734zM725 -5l-110 12q15 41 36.5 95t58 137.5t44.5 102.5
l-168 -8l11 70h259l4 -13q-79 -207 -135 -396z" />
    <glyph glyph-name="uniF508" unicode="&#xf508;" horiz-adv-x="848" 
d="M115 -30l475 734l90 -12l-476 -734zM665 -5l-110 12q40 107 140 335l-169 -8l12 70h258l5 -13q-78 -201 -136 -396zM182 713q25 0 52 -8.5t44.5 -30.5t17.5 -49q0 -26 -17 -51t-51 -41v-4q19 -3 39 -14.5t31 -32.5t11 -44q0 -32 -18 -60.5t-52.5 -48.5t-83 -27t-101.5 -4
l-6 54q40 0 76.5 8t54 27.5t17.5 40.5q0 27 -23.5 41t-63.5 10l-9 49q51 18 68 34.5t17 37.5q0 18 -14.5 29t-38.5 11q-32 0 -67 -18l-17 46q68 45 134 45z" />
    <glyph glyph-name="uniF509" unicode="&#xf509;" horiz-adv-x="934" 
d="M57 413l-9 19l179 272l110 3v-233l66 3l-11 -64h-55q0 -24 2.5 -67t2.5 -44h-108l1 111h-178zM140 471l95 3v52l3 95l-7 1q-21 -49 -45 -82zM200 -30l475 734l90 -12l-476 -734zM751 -5l-111 12q40 107 140 335l-168 -8l11 70h259l4 -13q-79 -207 -135 -396z" />
    <glyph glyph-name="uniF50A" unicode="&#xf50a;" horiz-adv-x="814" 
d="M57 297l-7 55q44 3 72 15t42.5 30.5t14.5 40.5q0 33 -34 53t-97 21l18 189q135 2 221 11l-15 -71h-139l-5 -65q77 -7 117.5 -39t40.5 -81q0 -41 -24.5 -76.5t-74.5 -58.5t-130 -24zM79 -30l475 734l91 -12l-476 -734zM631 -5l-110 12q15 41 36.5 95t58 137.5t44.5 102.5
l-168 -8l11 70h259l5 -13q-83 -216 -136 -396z" />
    <glyph glyph-name="uniF50B" unicode="&#xf50b;" horiz-adv-x="897" 
d="M329 658q-133 -23 -171 -133l8 -4q17 14 40.5 24t44.5 10q46 0 78.5 -30t32.5 -83q0 -63 -45 -106t-117 -43q-70 0 -111 42.5t-41 114.5q0 52 21 99.5t58 83.5t88.5 55.5t105.5 24.5zM208 491q-11 0 -26.5 -5t-26.5 -12v-12q0 -34 9 -60.5t22.5 -37t26.5 -10.5
q21 0 35.5 18.5t14.5 51.5q0 32 -15.5 49.5t-39.5 17.5zM162 -30l475 734l91 -12l-476 -734zM714 -5l-111 12q12 33 28.5 75t36 88t43.5 100l32 72l-168 -8l11 70h258l5 -13q-85 -223 -135 -396z" />
    <glyph glyph-name="uniF50C" unicode="&#xf50c;" horiz-adv-x="845" 
d="M153 302v295l-93 -11l-12 49q45 12 102.5 33.5t89.5 39.5l27 -2q-5 -58 -5 -108v-296h-109zM96 -30l475 734l91 -12l-476 -734zM524 -8l-8 54q134 23 172 132l-9 5q-16 -14 -40 -24t-46 -10q-45 0 -77 30t-32 83q0 63 44 106t116 43q71 0 112.5 -43t41.5 -114
q0 -41 -14.5 -84t-46.5 -81t-86 -64.5t-127 -32.5zM638 213q11 0 26 5t26 12v12q0 34 -8.5 60.5t-22.5 37t-27 10.5q-21 0 -35 -18.5t-14 -51.5q0 -32 15 -49.5t40 -17.5z" />
    <glyph glyph-name="uniF50D" unicode="&#xf50d;" horiz-adv-x="927" 
d="M48 321q81 86 124 146t43 108q0 17 -6.5 33t-22 25t-33.5 9q-35 0 -72 -23l-17 48q29 19 65.5 33t74.5 14q55 0 90 -29.5t35 -79.5q0 -97 -146 -237l2 -5l161 8l-10 -69h-280zM175 -30l475 734l90 -12l-476 -734zM605 -8l-7 54q133 23 171 132l-9 5q-16 -14 -40 -24
t-46 -10q-45 0 -77 30t-32 83q0 63 44 106t116 43q71 0 112.5 -43t41.5 -114q0 -41 -14.5 -84t-47 -81t-86 -64.5t-126.5 -32.5zM719 213q11 0 26.5 5t25.5 12v12q0 34 -8.5 60.5t-22 37t-26.5 10.5q-22 0 -36.5 -18.5t-14.5 -51.5q0 -32 15.5 -49.5t40.5 -17.5z" />
    <glyph glyph-name="uniF50E" unicode="&#xf50e;" horiz-adv-x="951" 
d="M57 413l-9 19l179 272l110 3v-233l66 3l-11 -64h-55q0 -24 2.5 -67t2.5 -44h-108l1 111h-178zM140 471l95 3v52l3 95l-7 1q-21 -49 -45 -82zM198 -30l476 734l90 -12l-476 -734zM629 -8l-7 54q133 23 171 132l-9 5q-16 -14 -40 -24t-46 -10q-45 0 -77 30t-32 83
q0 64 44.5 106.5t116.5 42.5q70 0 111.5 -43t41.5 -114q0 -41 -14.5 -84t-46.5 -81t-86 -64.5t-127 -32.5zM743 213q11 0 26.5 5t25.5 12v12q0 34 -8.5 60.5t-22 37t-26.5 10.5q-22 0 -36 -18.5t-14 -51.5q0 -32 15 -49.5t40 -17.5z" />
    <glyph glyph-name="uniF50F" unicode="&#xf50f;" horiz-adv-x="831" 
d="M57 297l-7 55q44 3 72 15t42.5 30.5t14.5 40.5q0 33 -34 53t-97 21l18 189q135 2 221 11l-15 -71h-139l-5 -65q77 -7 117.5 -39t40.5 -81q0 -41 -24.5 -76.5t-74.5 -58.5t-130 -24zM79 -30l475 734l91 -12l-476 -734zM510 -8l-8 54q132 22 172 132l-9 5q-16 -14 -40 -24
t-46 -10q-32 0 -59 16.5t-39 42.5t-12 54q0 63 44.5 106t116.5 43q71 0 112.5 -43t41.5 -114q0 -41 -14.5 -84t-46.5 -81t-86 -64.5t-127 -32.5zM624 213q11 0 26 5t26 12v12q0 34 -8.5 60.5t-22.5 37t-27 10.5q-21 0 -35 -18.5t-14 -51.5q0 -32 15 -49.5t40 -17.5z" />
    <glyph glyph-name="uniF510" unicode="&#xf510;" horiz-adv-x="814" 
d="M192 297l-110 12q15 41 31.5 82t107.5 253l-168 -8l11 70h259l4 -13q-85 -226 -135 -396zM62 -30l475 734l91 -12l-476 -734zM492 -8l-7 54q132 22 172 132l-9 5q-16 -14 -40 -24t-46 -10q-46 0 -78 30t-32 83q0 63 44 106t116 43t113 -43t41 -114q0 -41 -14.5 -84
t-46.5 -81t-86 -64.5t-127 -32.5zM607 213q11 0 26 5t26 12v12q0 34 -8.5 60.5t-22.5 37t-27 10.5q-22 0 -36 -18.5t-14 -51.5q0 -32 15 -49.5t41 -17.5z" />
    <glyph glyph-name="uniF511" unicode="&#xf511;" horiz-adv-x="920" 
d="M124 501q-60 36 -60 91q0 23 13.5 52t50 49.5t87.5 20.5q42 0 73.5 -15t43 -36.5t11.5 -40.5q0 -30 -20 -56t-49 -43q48 -25 65 -50t17 -53q0 -54 -45 -90.5t-120 -36.5q-65 0 -104 28.5t-39 72.5q0 24 17 52t59 55zM178 476q-15 -12 -24 -29.5t-9 -33.5q0 -26 16.5 -43
t42.5 -17q24 0 40 14.5t16 35.5q0 12 -10 28.5t-72 44.5zM218 547q15 12 24 28t9 31q0 20 -14 34t-35 14q-20 0 -33 -12t-13 -31q0 -35 62 -64zM168 -30l475 734l90 -12l-476 -734zM598 -8l-7 54q133 23 171 132l-9 5q-16 -14 -40 -24t-45 -10q-46 0 -78 30t-32 83
q0 63 44.5 106t116.5 43q70 0 111.5 -43t41.5 -114q0 -41 -14.5 -84t-47 -81t-86 -64.5t-126.5 -32.5zM712 213q11 0 26.5 5t25.5 12v12q0 34 -8.5 60.5t-22 37t-26.5 10.5q-22 0 -36 -18.5t-14 -51.5q0 -32 15 -49.5t40 -17.5z" />
    <glyph glyph-name="uniF605" unicode="&#xf605;" horiz-adv-x="564" 
d="M340 551l212 -545l-140 -9q-21 78 -40 133l-105 1q-38 0 -98 -4l-46 -127l-113 3q86 201 105 249l116 292zM235 318l-41 -114l73 -1l83 1l-43 115q-18 51 -32 120h-7q-13 -67 -33 -121z" />
    <glyph glyph-name="uniF606" unicode="&#xf606;" horiz-adv-x="531" 
d="M381 308v-7q53 -13 85 -49t32 -82q0 -34 -16.5 -65.5t-48.5 -56.5t-78.5 -39t-103.5 -14q-56 0 -179 6q4 180 4 265q0 95 -4 273q106 13 181 13q106 0 160 -34t54 -91q0 -36 -23.5 -66.5t-62.5 -52.5zM196 79q39 -7 69 -7q26 0 51 9t39.5 30.5t14.5 47.5q0 31 -22 54
t-60 29q-32 4 -95 1q0 -77 3 -164zM298 317q23 17 36.5 40.5t13.5 48.5q0 32 -26.5 53t-75.5 21q-20 0 -50 -3q-3 -76 -3 -161q77 2 87.5 2t17.5 -1z" />
    <glyph glyph-name="uniF607" unicode="&#xf607;" horiz-adv-x="543" 
d="M491 111l26 -55q-32 -28 -85 -48.5t-119 -20.5q-44 0 -84 11.5t-71.5 32.5t-55 50.5t-40 73.5t-16.5 102q0 51 17 103.5t62 101t109 71.5t125 23q31 0 73.5 -6t75.5 -15l-18 -91l-7 -4q-27 13 -61.5 24t-69.5 11q-37 0 -65.5 -12t-52 -32.5t-42.5 -59.5t-19 -93
q0 -42 13 -79t37 -64t57.5 -42t73.5 -15q30 0 68 8t69 25z" />
    <glyph glyph-name="uniF608" unicode="&#xf608;" horiz-adv-x="644" 
d="M71 1q5 150 5 265q0 126 -5 274q39 4 104 7.5t112 3.5q147 0 230.5 -70.5t83.5 -191.5q0 -55 -18.5 -107.5t-58 -94.5t-101.5 -67t-144 -25q-88 0 -208 6zM202 79q56 -7 90 -7q56 0 95.5 24t62.5 69.5t23 110.5q0 94 -52 145.5t-145 51.5q-38 0 -74 -3q-5 -87 -5 -197
q0 -109 5 -194z" />
    <glyph glyph-name="uniF609" unicode="&#xf609;" horiz-adv-x="481" 
d="M428 0h-357q5 157 5 273q0 129 -5 274l190 -3l174 3l-16 -89q-85 7 -219 11q-3 -84 -3 -154q120 2 200 9l-17 -87q-107 7 -183 7q0 -77 3 -170q130 3 244 14z" />
    <glyph glyph-name="uniF60A" unicode="&#xf60a;" horiz-adv-x="461" 
d="M203 0h-132q5 157 5 273q0 129 -5 274l190 -3q116 0 174 3l-16 -89q-111 9 -219 11q-3 -91 -3 -171q111 2 200 7l-17 -85q-77 6 -183 8q0 -120 6 -228z" />
    <glyph glyph-name="uniF60B" unicode="&#xf60b;" horiz-adv-x="588" 
d="M428 253l112 24q-3 -46 -3 -115q0 -65 4 -134q-48 -20 -106 -30.5t-104 -10.5q-62 0 -115 19.5t-91 55.5t-59 87t-21 112q0 68 26 124t71 94t103.5 57.5t121.5 19.5q73 0 152 -20l-17 -91l-8 -4q-74 35 -136 35q-41 0 -71.5 -13t-54 -34t-42 -59.5t-18.5 -90.5
q0 -31 9.5 -66.5t35 -72t64 -55.5t76.5 -19q33 0 79 13v48q0 64 -8 126z" />
    <glyph glyph-name="uniF60C" unicode="&#xf60c;" horiz-adv-x="651" 
d="M204 0h-133q6 137 6 273q0 121 -5 273h132q-6 -118 -6 -225q43 -2 124 -2l131 3q0 92 -5 224h132q-5 -114 -5 -273t5 -273h-132q5 145 5 239q-43 2 -131 2q-56 0 -124 -3q0 -107 6 -238z" />
    <glyph glyph-name="uniF60D" unicode="&#xf60d;" horiz-adv-x="278" 
d="M205 0h-132q5 228 5 273q0 46 -5 273h131q-5 -153 -5 -273q0 -93 6 -273z" />
    <glyph glyph-name="uniF60E" unicode="&#xf60e;" horiz-adv-x="277" 
d="M-28 -186l-29 54q69 44 101.5 94t32.5 123l2 204q0 32 -5 257h131q-4 -170 -4 -257q0 -125 2 -182q1 -68 -23 -121.5t-74.5 -96.5t-133.5 -75z" />
    <glyph glyph-name="uniF60F" unicode="&#xf60f;" horiz-adv-x="576" 
d="M204 0h-133q5 152 5 273q0 91 -4 273h131q-6 -182 -6 -273q0 -61 7 -273zM573 6l-158 -11q-38 61 -127 183l-76 94l214 276l123 -4q-74 -79 -144 -162l-72 -81z" />
    <glyph glyph-name="uniF610" unicode="&#xf610;" horiz-adv-x="435" 
d="M401 0h-330q5 157 5 273q0 126 -5 273h132q-6 -133 -6 -273q0 -127 3 -198q101 4 217 14z" />
    <glyph glyph-name="uniF611" unicode="&#xf611;" horiz-adv-x="820" 
d="M167 0h-111q21 152 36 300l24 244l144 4l96 -238q34 -82 53 -153h7q10 40 53 153l96 234l141 4l59 -548h-136q-6 158 -15 295q-6 117 -6 136h-7q-21 -81 -43 -138l-108 -288l-97 -7l-103 276q-21 56 -53 160h-6q-3 -117 -6 -159z" />
    <glyph glyph-name="uniF612" unicode="&#xf612;" horiz-adv-x="647" 
d="M175 0h-108q5 210 5 278q0 143 -3 266l138 4l183 -246q7 -10 32.5 -45.5t39.5 -55.5t21 -31l7 1q-6 50 -8 119l-9 256h108q-8 -264 -8 -416q0 -69 4 -126l-102 -6l-220 296q-65 86 -90 128l-6 -1q6 -62 7 -110z" />
    <glyph glyph-name="uniF613" unicode="&#xf613;" horiz-adv-x="674" 
d="M338 63q25 0 53 11.5t52.5 38t41 67.5t16.5 92q0 42 -12.5 80.5t-35.5 67.5t-53.5 45.5t-64.5 16.5q-43 0 -78.5 -25.5t-59 -73t-23.5 -108.5q0 -42 12.5 -80.5t34.5 -68t52.5 -46.5t64.5 -17zM328 -16q-60 0 -112 20t-90.5 56.5t-59.5 89t-21 113.5q0 62 22 117
t62.5 95.5t96 62.5t119.5 22q59 0 111.5 -19.5t91 -55.5t60 -87.5t21.5 -113.5t-22 -117.5t-62.5 -96.5t-96.5 -63.5t-120 -22.5z" />
    <glyph glyph-name="uniF614" unicode="&#xf614;" horiz-adv-x="512" 
d="M199 0h-128q5 150 5 270q0 48 -5 270q114 12 182 12q112 0 170.5 -44.5t58.5 -116.5q0 -38 -15.5 -72t-43.5 -59.5t-65.5 -40t-78.5 -14.5l-42 2l8 73l28 -1q20 0 41.5 10.5t34.5 35t13 52.5q0 44 -30.5 71.5t-80.5 27.5q-32 0 -55 -3q-2 -60 -2 -194q0 -122 5 -279z" />
    <glyph glyph-name="uniF615" unicode="&#xf615;" horiz-adv-x="674" 
d="M338 63q44 0 83.5 28.5t59.5 79t20 100.5t-20.5 101.5t-60 80.5t-84.5 29t-80.5 -26t-58.5 -74t-23 -108q0 -50 20 -101t59.5 -80.5t84.5 -29.5zM430 8v-7q106 -34 188.5 -55t194.5 -38l-50 -89q-36 9 -93.5 26.5t-230.5 79t-195 69.5q-36 13 -72.5 34.5t-65 54t-45 77.5
t-16.5 101q0 64 22.5 120t63 96t96 61.5t118.5 21.5q60 0 112.5 -19.5t91 -56t60 -87.5t21.5 -111q0 -99 -54.5 -175t-145.5 -103z" />
    <glyph glyph-name="uniF616" unicode="&#xf616;" horiz-adv-x="544" 
d="M198 0h-127q5 150 5 278q0 86 -4 262q123 12 188 12q50 0 100.5 -13.5t83 -48.5t32.5 -82q0 -23 -11.5 -51.5t-37 -54t-54.5 -42.5l160 -255l-144 -8q-50 106 -88 173l-27 47l-80 2q0 -55 4 -219zM302 292q26 16 40.5 41t14.5 52t-16 50t-42.5 32t-51.5 9q-27 0 -51 -3
q-2 -65 -2 -180q65 -7 108 -1z" />
    <glyph glyph-name="uniF617" unicode="&#xf617;" horiz-adv-x="462" 
d="M37 23l15 88l7 5q79 -46 147 -46q42 0 69.5 18.5t27.5 49.5q0 9 -4 21.5t-16.5 24t-24 18.5t-74 36t-85.5 52.5t-33 48t-10 55.5q0 73 54 117.5t146 44.5q47 0 88.5 -7.5t55.5 -11.5l-18 -91l-7 -3q-29 15 -62 23.5t-57 8.5q-36 0 -59 -16.5t-23 -45.5q0 -25 19 -45
t66.5 -42t71.5 -34t47.5 -33t34 -45.5t10.5 -53.5q0 -34 -14.5 -65.5t-42.5 -55t-68.5 -37t-89.5 -13.5q-36 0 -82.5 8t-88.5 26z" />
    <glyph glyph-name="uniF618" unicode="&#xf618;" horiz-adv-x="510" 
d="M317 0h-130q5 113 5 272q0 55 -4 197q-87 -1 -176 -10l15 88q122 -3 232 -3t240 3l-14 -88q-77 8 -168 10q-4 -93 -4 -197q0 -92 4 -272z" />
    <glyph glyph-name="uniF619" unicode="&#xf619;" horiz-adv-x="609" 
d="M71 546h132q-6 -93 -6 -181q0 -102 3 -176q2 -34 15 -63t43 -45t64 -16q50 0 83.5 32t33.5 92q0 152 -7 357h110q-7 -217 -7 -347q0 -98 -59.5 -155t-172.5 -57q-106 0 -167.5 53.5t-60.5 161.5l1 116q0 86 -5 228z" />
    <glyph glyph-name="uniF61A" unicode="&#xf61a;" horiz-adv-x="567" 
d="M229 -3l-215 543l140 12q39 -142 76 -241l32 -83q17 -49 29 -112h8q13 63 31 113l114 319l114 -4q-77 -175 -107 -248l-117 -293z" />
    <glyph glyph-name="uniF61B" unicode="&#xf61b;" horiz-adv-x="835" 
d="M188 -3l-169 543l138 12q21 -103 56 -243l18 -65q17 -61 23 -120h7q8 54 28 119l84 290l111 8l88 -299q19 -66 27 -118h8q5 59 23 119l82 305l111 -4l-87 -251l-92 -289l-113 -7l-77 241q-19 67 -32 142h-7q-10 -57 -37 -143l-75 -233z" />
    <glyph glyph-name="uniF61C" unicode="&#xf61c;" horiz-adv-x="573" 
d="M136 -2l-118 4l166 203l48 61l-196 274l152 12q19 -37 54 -95q22 -36 56 -96h7q38 65 60 96l65 92l123 -6q-54 -62 -156 -187l-50 -63l207 -289l-154 -8l-64 106q-29 48 -54 98h-7q-30 -54 -63 -98z" />
    <glyph glyph-name="uniF61D" unicode="&#xf61d;" horiz-adv-x="521" 
d="M323 0h-126l5 220l-189 320l153 12q22 -54 58 -128q25 -52 47 -114h6q25 61 52 114l68 125l113 -5q-70 -108 -142 -226l-50 -81q2 -155 5 -237z" />
    <glyph glyph-name="uniF61E" unicode="&#xf61e;" horiz-adv-x="505" 
d="M34 0l-7 21l193 315q34 59 82 129l-2 7q-42 -6 -129 -10l-124 -6l18 91q61 -3 198 -3q76 0 193 3l8 -21l-182 -299q-52 -85 -93 -147l1 -5q37 5 136 9l152 6l-19 -90h-425z" />
    <glyph glyph-name="uniF61F" unicode="&#xf61f;" horiz-adv-x="744" 
d="M698 0h-319q-1 1 -14 132l-87 1q-39 0 -99 -4l-68 -130l-111 3l175 309l131 237q92 -4 199 -4q97 0 182 3l-15 -89q-86 7 -224 11q1 -13 6.5 -69t9.5 -85q124 2 201 9l-15 -87q-81 5 -178 7q13 -109 23 -170q147 6 218 14zM288 206l69 1l-14 115q-8 61 -11 117h-7
q-24 -67 -52 -121l-58 -111z" />
    <glyph glyph-name="uniF620" unicode="&#xf620;" horiz-adv-x="648" 
d="M463 12l-209 280q-63 84 -89 127l-6 -1q6 -63 7 -109l9 -309h-108q5 210 5 278q0 143 -3 266l140 4l184 -244q50 -64 90 -128l7 1q-6 52 -8 118l-9 251h108q-7 -238 -7 -439q0 -91 -20.5 -146.5t-64.5 -90t-118 -50.5l-20 53q41 15 65 36.5t34.5 46.5t12.5 56z" />
    <glyph glyph-name="uniF621" unicode="&#xf621;" horiz-adv-x="859" 
d="M806 0h-302q-21 0 -76.5 -8t-86.5 -8q-59 0 -113 18.5t-95 54t-64.5 88.5t-23.5 118q0 66 24 121.5t67 94t99.5 59.5t118.5 21q26 0 79.5 -6t81.5 -7q36 -2 90 -2q121 0 209 3l-16 -89q-86 7 -220 11q-2 -56 -2 -154q120 2 199 9l-16 -87q-84 5 -183 7q0 -108 2 -170
q130 3 244 14zM359 63q20 0 46.5 3.5t45.5 10.5l3 199l-2 185q-21 9 -49 14.5t-49 5.5q-37 0 -66 -13.5t-52 -35.5t-42 -62.5t-19 -95.5q0 -56 24 -107t68.5 -77.5t91.5 -26.5z" />
    <glyph glyph-name="uniF622" unicode="&#xf622;" horiz-adv-x="663" 
d="M28 246l5 58l60 2q0 119 -3 234q40 4 104 7.5t112 3.5q74 0 133 -18.5t99.5 -53.5t61 -83.5t20.5 -106.5q0 -55 -19 -107.5t-58 -94.5t-102 -67t-145 -25q-86 0 -206 6q3 125 3 245h-65zM220 79q57 -7 91 -7q56 0 95 24t62 69.5t23 110.5q0 94 -51.5 145.5t-144.5 51.5
q-37 0 -75 -3q-5 -72 -5 -160l134 4l-14 -68h-120q0 -94 5 -167z" />
    <glyph glyph-name="uniF623" unicode="&#xf623;" horiz-adv-x="659" 
d="M29 397l4 57l44 1l-3 91h132l-4 -89l251 5l-2 84h131l-4 -82l52 1l-14 -68h-39v-124q0 -159 5 -273h-131q4 174 4 239q-43 2 -131 2q-56 0 -124 -3q0 -64 6 -238h-133q6 137 6 273l-1 124h-49zM455 322l-1 75h-253l-1 -76l124 -2z" />
    <glyph glyph-name="uniF624" unicode="&#xf624;" horiz-adv-x="559" 
d="M205 3h-132q5 228 5 273q0 46 -5 273h131q-5 -153 -5 -273q0 -93 6 -273zM253 -183l-29 54q69 44 101.5 94t32.5 123l2 204q0 32 -5 257h131q-4 -170 -4 -257q0 -125 2 -182q1 -68 -23 -121.5t-74.5 -96.5t-133.5 -75z" />
    <glyph glyph-name="uniF625" unicode="&#xf625;" horiz-adv-x="278" 
d="M205 0h-132q5 228 5 273q0 46 -5 273h131q-5 -153 -5 -273q0 -93 6 -273zM137 620q-31 0 -51 19.5t-20 48.5q0 28 21.5 48t51.5 20t50.5 -19.5t20.5 -47.5q0 -29 -21.5 -49t-51.5 -20z" />
    <glyph glyph-name="uniF626" unicode="&#xf626;" horiz-adv-x="278" 
d="M205 0h-132q5 228 5 273q0 46 -5 273h131q-5 -153 -5 -273q0 -93 6 -273z" />
    <glyph glyph-name="uniF627" unicode="&#xf627;" horiz-adv-x="674" 
d="M331 -16q-80 0 -142 30l-41 -54l-66 25l50 69q-41 36 -64 90t-23 120q0 62 22 116.5t62.5 95t95.5 62.5t117 22q81 0 144 -32l40 54l66 -22l-51 -68q40 -35 64 -89.5t24 -120.5q0 -62 -22 -117t-62.5 -95.5t-96 -63t-117.5 -22.5zM174 274q0 -30 8.5 -63t22.5 -56
l221 293q-18 16 -42.5 25t-48.5 9q-43 0 -82 -28t-59 -78.5t-20 -101.5zM338 63q25 0 52.5 11t52 37.5t41.5 67.5t17 92q0 30 -9 63t-24 56l-221 -294q40 -33 91 -33z" />
    <glyph glyph-name="uniF628" unicode="&#xf628;" horiz-adv-x="521" 
d="M199 0h-128q5 152 5 273t-5 273h128l-4 -101q23 2 58 2q112 0 171 -43t59 -117q0 -49 -27.5 -93.5t-77 -68.5t-100.5 -24q-27 0 -40 2l7 73l27 -1q20 0 42 10t35.5 34.5t13.5 53.5q0 23 -10.5 46.5t-38 37.5t-63.5 14q-32 0 -56 -3l-1 -86q0 -156 5 -282z" />
    <glyph glyph-name="uniF629" unicode="&#xf629;" horiz-adv-x="510" 
d="M88 245l4 58l100 3l-4 163q-107 -3 -176 -10l15 88q81 -3 232 -3q153 0 240 3l-14 -88q-55 6 -168 10q-4 -77 -4 -159l108 3l-13 -68h-95q0 -83 4 -245h-130q3 76 5 245h-104z" />
    <glyph glyph-name="uniF62A" unicode="&#xf62a;" horiz-adv-x="576" 
d="M204 0h-133q5 152 5 273q0 91 -4 273h131q-6 -182 -6 -273q0 -61 7 -273zM573 6l-158 -11q-38 61 -127 183l-76 94l214 276l123 -4q-74 -79 -144 -162l-72 -81z" />
    <glyph glyph-name="uniF62B" unicode="&#xf62b;" horiz-adv-x="442" 
d="M28 161l-16 60l70 45q0 128 -5 280h132q-5 -110 -5 -199l92 61l19 -61l-111 -72v-23q0 -114 3 -177q103 4 217 14l-17 -89h-330l5 196z" />
    <glyph glyph-name="uniF62C" unicode="&#xf62c;" horiz-adv-x="578" 
d="M411 445q0 -23 -12 -52t-42.5 -57t-70.5 -49q55 -58 112 -106q16 27 29 61t19 65l82 -20q-25 -83 -67 -148q40 -31 100 -65l-55 -85q-65 38 -104 70q-68 -71 -177 -71q-86 0 -139 39.5t-53 102.5q0 91 124 161q-61 70 -61 131q0 35 23 67.5t65.5 49.5t86.5 17
q63 0 101.5 -30.5t38.5 -80.5zM342 103q-86 75 -137 133q-29 -17 -42.5 -40t-13.5 -47q0 -18 10.5 -38t37 -33.5t56.5 -13.5q48 0 89 39zM200 429q0 -39 43 -91q34 19 54.5 43.5t20.5 49.5q0 23 -17.5 39.5t-41.5 16.5q-25 0 -42 -16.5t-17 -41.5z" />
    <glyph glyph-name="uniF638" unicode="&#xf638;" horiz-adv-x="568" 
d="M45 241l370 9l-23 -67h-174q12 -35 37.5 -61.5t56 -37t56.5 -10.5q28 0 62.5 8t61.5 24l27 -55q-29 -26 -77 -45t-107 -19q-92 0 -154 52.5t-80 143.5h-72zM49 352l58 1q27 96 101 149.5t171 53.5q32 0 68.5 -5.5t67.5 -16.5l-27 -83l-8 -3q-26 12 -57 20t-55 8
q-26 0 -58 -11t-58 -40t-38 -69l241 5l-25 -66h-398z" />
    <glyph glyph-name="uniF639" unicode="&#xf639;" horiz-adv-x="458" 
d="M39 38l15 84l7 4q75 -41 135 -41q40 0 65 17.5t25 45.5q0 16 -13 35t-82.5 49t-94.5 56.5t-32 51t-7 46.5q0 58 34 97t96 53l-4 113l86 17v-124q68 -4 117 -18l-19 -86l-7 -3q-64 28 -109 28q-34 0 -55 -15.5t-21 -41.5q0 -13 6.5 -26t23.5 -25.5t59.5 -31.5t60 -28.5
t31.5 -20t25 -23.5t19.5 -33t8.5 -48q0 -57 -38 -100t-104 -57q0 -54 6 -113l-86 -16v122q-32 1 -72.5 9t-75.5 23z" />
    <glyph glyph-name="uniF63A" unicode="&#xf63a;" horiz-adv-x="417" 
d="M355 172l23 -51q-49 -41 -114 -51l5 -109l-85 -16v127q-69 13 -107.5 62t-38.5 121q0 46 15.5 85t48.5 71.5t80 48.5q0 48 -4 116l86 18v-119l17 1q50 0 93 -16l-19 -80l-9 -4q-18 11 -40 17t-40 6q-34 0 -61 -19.5t-37.5 -48.5t-10.5 -55t11 -55.5t40 -49t66 -19.5
t81 20z" />
    <glyph glyph-name="uniF63B" unicode="&#xf63b;" horiz-adv-x="464" 
d="M36 240l10 62l53 2q-2 20 -2 52q0 44 17 81t47 64t70.5 41t86.5 14q19 0 46 -3.5t46 -9.5l-20 -78l-7 -4q-33 16 -72 16q-46 0 -72.5 -30.5t-26.5 -85.5q0 -14 4 -52l162 8l-18 -77h-138q3 -28 3 -46q0 -30 -8.5 -59.5t-27.5 -52.5l3 -3q72 2 224 12l-22 -91h-352l-9 20
q77 66 77 157q0 26 -5 63h-69z" />
    <glyph glyph-name="uniF63C" unicode="&#xf63c;" horiz-adv-x="549" 
d="M70 219l9 59l95 3l-152 259l153 12q10 -24 28 -64t30 -64q26 -53 47 -113h6q35 81 52 113l68 124l114 -4q-105 -164 -163 -259l119 3l-16 -69h-390zM70 111l9 60l394 10l-15 -70h-129l3 -111h-126q3 60 3 111h-139z" />
    <glyph glyph-name="uniF63D" unicode="&#xf63d;" horiz-adv-x="385" 
d="M197 270v-216q0 -40 -6 -117t-14 -128l-97 -9l-1 470h-61l8 60l55 7v16q0 32 10.5 66.5t38.5 68t70 50.5t83 17t84 -11l-20 -81l-7 -3q-30 13 -60 13q-39 0 -61 -27.5t-22 -77.5v-27l127 10l-17 -81h-110z" />
    <glyph glyph-name="uniF63E" unicode="&#xf63e;" horiz-adv-x="286" 
d="M184 209l-83 -10q-21 184 -29 336l143 20q-23 -195 -31 -346zM142 -9q-35 0 -59 24.5t-24 56.5q0 33 24.5 57.5t59.5 24.5t59.5 -24.5t24.5 -57.5t-25 -57t-60 -24z" />
    <glyph glyph-name="uniF63F" unicode="&#xf63f;" horiz-adv-x="393" 
d="M178 473q-24 0 -55.5 -11.5t-60.5 -33.5l-7 4l-22 78q78 45 176 45q47 0 83 -13.5t52 -39.5t16 -55q0 -14 -4 -29.5t-13 -28t-16 -20.5t-50 -45.5t-53.5 -63.5t-9.5 -51l-85 -10q-4 17 -4 38t8 41t21 36t49.5 50t36.5 61q0 22 -18 35t-44 13zM172 -9q-34 0 -58 24t-24 57
t24.5 57.5t59.5 24.5q34 0 58.5 -24.5t24.5 -57.5t-25 -57t-60 -24z" />
    <glyph glyph-name="uniF640" unicode="&#xf640;" horiz-adv-x="354" 
d="M196 280h-5q-45 -36 -85 -36q-32 0 -52.5 20.5t-20.5 52.5q0 18 10 38.5t45 38t101 27.5v6q0 18 -12.5 29.5t-32.5 11.5q-35 0 -78 -29l-5 2l-18 58q67 34 133 34q54 0 83.5 -24.5t29.5 -74.5v-106q0 -20 16 -20l14 2l9 -42q-15 -11 -36.5 -17t-40.5 -6q-45 0 -55 35z
M189 325v53q-68 -10 -68 -44q0 -13 8.5 -21t20.5 -8q16 0 39 20zM31 144l8 53h289l-11 -53h-286z" />
    <glyph glyph-name="uniF641" unicode="&#xf641;" horiz-adv-x="368" 
d="M173 243q-45 0 -77.5 17.5t-50.5 49.5t-18 71q0 23 8 49t28 49.5t53.5 40t79.5 16.5q44 0 76.5 -17.5t50.5 -49.5t18 -71q0 -40 -21 -77.5t-61.5 -57.5t-85.5 -20zM187 305q23 0 38 21.5t15 58.5q0 38 -16.5 63.5t-41.5 25.5q-23 0 -38.5 -22.5t-15.5 -58.5q0 -38 17 -63
t42 -25zM34 144l8 53h290l-12 -53h-286z" />
    <glyph glyph-name="uniF642" unicode="&#xf642;" horiz-adv-x="393" 
d="M215 75q24 0 55.5 11t59.5 33l8 -3l22 -79q-78 -45 -176 -45q-47 0 -83 13.5t-52 39.5t-16 55q0 14 4 29.5t15.5 32.5t46 46.5t43.5 39t16.5 20.5t14.5 28t6 43l85 9q5 -23 3.5 -45.5t-13 -46t-42 -51.5t-40.5 -39t-14.5 -22.5t-4.5 -20.5q0 -22 18 -35t44 -13zM221 556
q16 0 35 -8t33 -28t14 -44q0 -33 -24.5 -57.5t-59.5 -24.5q-34 0 -58.5 24t-24.5 57t25 57t60 24z" />
    <glyph glyph-name="uniF643" unicode="&#xf643;" horiz-adv-x="286" 
d="M102 338l83 9q20 -160 29 -335l-143 -20q22 172 31 346zM144 555q35 0 59 -24t24 -56q0 -33 -24.5 -57.5t-59.5 -24.5t-59.5 24.5t-24.5 56.5q0 15 8.5 34t30 33t46.5 14z" />
    <glyph glyph-name="uniF644" unicode="&#xf644;" horiz-adv-x="568" 
d="M340 551l212 -545l-140 -9q-21 78 -40 133l-105 1q-38 0 -98 -4l-46 -127l-113 3q86 201 105 249l116 292zM235 318l-41 -114l73 -1l83 1l-43 115q-18 51 -32 120h-7q-13 -67 -33 -121zM358 755l69 12q1 -27 -5.5 -54t-25 -49t-49 -36t-72.5 -14q-27 0 -50 7t-41.5 20.5
t-33 41.5t-12.5 72l71 12q0 -19 8 -39t27 -31.5t43 -11.5q29 0 50 18.5t21 51.5z" />
    <glyph glyph-name="uniF645" unicode="&#xf645;" horiz-adv-x="568" 
d="M340 551l212 -545l-140 -9q-21 78 -40 133l-105 1q-38 0 -98 -4l-46 -127l-113 3q86 201 105 249l116 292zM235 318l-41 -114l73 -1l83 1l-43 115q-18 51 -32 120h-7q-13 -67 -33 -121zM153 642l11 72l252 10l-17 -82h-246z" />
    <glyph glyph-name="uniF646" unicode="&#xf646;" horiz-adv-x="568" 
d="M124 -1l-114 3q71 163 128 307l93 233l112 8l213 -545l-72 -4q-32 -22 -52.5 -48.5t-20.5 -50.5q0 -18 11.5 -29.5t30.5 -11.5q23 0 46 13l21 -43q-20 -18 -45.5 -29.5t-52.5 -11.5q-40 0 -66.5 23t-26.5 59q0 32 21 66t60 63q-20 72 -40 129l-100 1q-38 0 -98 -4z
M350 205l-41 114q-22 62 -32 119l-8 -1q-14 -65 -32 -120l-41 -113l74 -1z" />
    <glyph glyph-name="uniF647" unicode="&#xf647;" horiz-adv-x="568" 
d="M340 551l212 -545l-140 -9q-21 78 -40 133l-105 1q-38 0 -98 -4l-46 -127l-113 3q86 201 105 249l116 292zM235 318l-41 -114l73 -1l83 1l-43 115q-18 51 -32 120h-7q-13 -67 -33 -121zM339 627l-70 -24q-67 91 -129 158l104 43q26 -33 52.5 -83.5t42.5 -93.5z" />
    <glyph glyph-name="uniF648" unicode="&#xf648;" horiz-adv-x="568" 
d="M340 551l212 -545l-140 -9q-21 78 -40 133l-105 1q-38 0 -98 -4l-46 -127l-113 3q86 201 105 249l116 292zM235 318l-41 -114l73 -1l83 1l-43 115q-18 51 -32 120h-7q-13 -67 -33 -121zM286 604l-63 19q59 91 93 171l106 -22q-26 -48 -61.5 -91.5t-74.5 -76.5z" />
    <glyph glyph-name="uniF649" unicode="&#xf649;" horiz-adv-x="568" 
d="M340 551l212 -545l-140 -9q-21 78 -40 133l-105 1q-38 0 -98 -4l-46 -127l-113 3q86 201 105 249l116 292zM235 318l-41 -114l73 -1l83 1l-43 115q-18 51 -32 120h-7q-13 -67 -33 -121zM446 627l-69 -24q-45 64 -93 108q-51 -67 -100 -107l-62 19q65 72 115 156l93 9
q67 -75 116 -161z" />
    <glyph glyph-name="uniF64A" unicode="&#xf64a;" horiz-adv-x="568" 
d="M340 551l212 -545l-140 -9q-21 78 -40 133l-105 1q-38 0 -98 -4l-46 -127l-113 3q86 201 105 249l116 292zM235 318l-41 -114l73 -1l83 1l-43 115q-18 51 -32 120h-7q-13 -67 -33 -121zM201 626l-69 -6q-3 34 6.5 65.5t35.5 51t54 19.5q19 0 37 -9t43 -30t36 -21
q12 0 18.5 14.5t1.5 41.5l71 7q6 -67 -23 -101.5t-69 -34.5q-20 0 -39.5 9t-43.5 30t-34 21q-12 0 -20 -15t-5 -42z" />
    <glyph glyph-name="uniF64B" unicode="&#xf64b;" horiz-adv-x="568" 
d="M340 551l212 -545l-140 -9q-21 78 -40 133l-105 1q-38 0 -98 -4l-46 -127l-113 3q86 201 105 249l116 292zM235 318l-41 -114l73 -1l83 1l-43 115q-18 51 -32 120h-7q-13 -67 -33 -121zM388 626q-28 0 -47 19t-19 45q0 27 20.5 47.5t48.5 20.5q29 0 48 -18.5t19 -46.5
q0 -27 -20 -47t-50 -20zM178 626q-29 0 -48 19t-19 45q0 27 20.5 47.5t49.5 20.5t48 -18.5t19 -46.5q0 -27 -20 -47t-50 -20z" />
    <glyph glyph-name="uniF64C" unicode="&#xf64c;" horiz-adv-x="568" 
d="M340 551l212 -545l-140 -9q-21 78 -40 133l-105 1q-38 0 -98 -4l-46 -127l-113 3q86 201 105 249l116 292zM235 318l-41 -114l73 -1l83 1l-43 115q-18 51 -32 120h-7q-13 -67 -33 -121zM278 597q-24 0 -51 10t-46 35.5t-19 58.5q0 22 12 49.5t44.5 48.5t74.5 21
q25 0 52.5 -10.5t45.5 -37t18 -58.5q0 -22 -12.5 -49.5t-45 -47.5t-73.5 -20zM288 647q20 0 33.5 16t13.5 41q0 27 -14.5 46t-37.5 19q-21 0 -33 -16.5t-12 -40.5q0 -26 13.5 -45.5t36.5 -19.5z" />
    <glyph glyph-name="uniF64D" unicode="&#xf64d;" horiz-adv-x="546" 
d="M491 111l26 -55q-32 -28 -85 -48.5t-119 -20.5q-44 0 -84 11.5t-71.5 32.5t-55 50.5t-40 73.5t-16.5 102q0 51 17 103.5t62 101t109 71.5t125 23q31 0 73.5 -6t75.5 -15l-18 -91l-7 -4q-27 13 -61.5 24t-69.5 11q-37 0 -65.5 -12t-52 -32.5t-42.5 -59.5t-19 -93
q0 -42 13 -79t37 -64t57.5 -42t73.5 -15q30 0 68 8t69 25zM315 604l-63 19q59 91 93 171l106 -22q-26 -48 -61.5 -91.5t-74.5 -76.5z" />
    <glyph glyph-name="uniF64E" unicode="&#xf64e;" horiz-adv-x="546" 
d="M491 111l26 -55q-32 -28 -85 -48.5t-119 -20.5q-44 0 -84 11.5t-71.5 32.5t-55 50.5t-40 73.5t-16.5 102q0 51 17 103.5t62 101t109 71.5t125 23q31 0 73.5 -6t75.5 -15l-18 -91l-7 -4q-27 13 -61.5 24t-69.5 11q-37 0 -65.5 -12t-52 -32.5t-42.5 -59.5t-19 -93
q0 -42 13 -79t37 -64t57.5 -42t73.5 -15q30 0 68 8t69 25zM164 768l68 24q44 -62 94 -107q50 64 101 106l60 -18q-65 -75 -114 -157l-93 -10q-64 73 -116 162z" />
    <glyph glyph-name="uniF64F" unicode="&#xf64f;" horiz-adv-x="546" 
d="M491 111l26 -55q-32 -28 -85 -48.5t-119 -20.5q-44 0 -84 11.5t-71.5 32.5t-55 50.5t-40 73.5t-16.5 102q0 51 17 103.5t62 101t109 71.5t125 23q31 0 73.5 -6t75.5 -15l-18 -91l-7 -4q-27 13 -61.5 24t-69.5 11q-37 0 -65.5 -12t-52 -32.5t-42.5 -59.5t-19 -93
q0 -42 13 -79t37 -64t57.5 -42t73.5 -15q30 0 68 8t69 25zM316 620q-31 0 -51 19.5t-20 48.5q0 28 21.5 48t51.5 20t50.5 -19.5t20.5 -47.5q0 -29 -21.5 -49t-51.5 -20z" />
    <glyph glyph-name="uniF650" unicode="&#xf650;" horiz-adv-x="546" 
d="M491 111l26 -55q-32 -28 -85 -48.5t-119 -20.5q-44 0 -84 11.5t-71.5 32.5t-55 50.5t-40 73.5t-16.5 102q0 51 17 103.5t62 101t109 71.5t125 23q31 0 73.5 -6t75.5 -15l-18 -91l-7 -4q-27 13 -61.5 24t-69.5 11q-37 0 -65.5 -12t-52 -32.5t-42.5 -59.5t-19 -93
q0 -42 13 -79t37 -64t57.5 -42t73.5 -15q30 0 68 8t69 25zM488 627l-69 -24q-45 64 -93 108q-51 -67 -100 -107l-62 19q65 72 115 156l93 9q67 -75 116 -161z" />
    <glyph glyph-name="uniF651" unicode="&#xf651;" horiz-adv-x="546" 
d="M491 111l26 -55q-35 -31 -81.5 -47.5t-91.5 -19.5l-19 -37q18 -2 36.5 -10.5t30 -26t11.5 -39.5q0 -25 -18 -51t-61.5 -43.5t-89.5 -15.5l-6 52q92 10 92 49q0 19 -22 28t-57 8l-5 10l42 76q-106 11 -169 84.5t-63 183.5q0 51 17 103.5t62 101t109 71.5t125 23
q31 0 73.5 -6t75.5 -15l-18 -91l-7 -4q-27 13 -61.5 24t-69.5 11q-37 0 -65.5 -12t-52 -32.5t-42.5 -59.5t-19 -93q0 -42 13 -79t37 -64t57.5 -42t73.5 -15q30 0 68 8t69 25z" />
    <glyph glyph-name="uniF652" unicode="&#xf652;" horiz-adv-x="644" 
d="M71 1q5 150 5 265q0 126 -5 274q39 4 104 7.5t112 3.5q147 0 230.5 -70.5t83.5 -191.5q0 -55 -18.5 -107.5t-58 -94.5t-101.5 -67t-144 -25q-88 0 -208 6zM202 79q56 -7 90 -7q56 0 95.5 24t62.5 69.5t23 110.5q0 94 -52 145.5t-145 51.5q-38 0 -74 -3q-5 -87 -5 -197
q0 -109 5 -194zM142 768l68 24q44 -62 94 -107q50 64 101 106l60 -18q-65 -75 -114 -157l-93 -10q-64 73 -116 162z" />
    <glyph glyph-name="uniF653" unicode="&#xf653;" horiz-adv-x="663" 
d="M28 246l5 58l60 2q0 119 -3 234q40 4 104 7.5t112 3.5q74 0 133 -18.5t99.5 -53.5t61 -83.5t20.5 -106.5q0 -55 -19 -107.5t-58 -94.5t-102 -67t-145 -25q-86 0 -206 6q3 125 3 245h-65zM220 78q57 -7 91 -7q56 0 95 24t62 70t23 111q0 95 -51.5 146.5t-144.5 51.5
q-37 0 -75 -3q-5 -72 -5 -161l134 4l-14 -68h-120q0 -95 5 -168z" />
    <glyph glyph-name="uniF654" unicode="&#xf654;" horiz-adv-x="481" 
d="M428 0h-357q5 157 5 273q0 129 -5 274l190 -3l174 3l-16 -89q-85 7 -219 11q-3 -84 -3 -154q120 2 200 9l-17 -87q-107 7 -183 7q0 -77 3 -170q130 3 244 14zM307 627l-70 -24q-67 91 -129 158l104 43q26 -33 52.5 -83.5t42.5 -93.5z" />
    <glyph glyph-name="uniF655" unicode="&#xf655;" horiz-adv-x="481" 
d="M428 0h-357q5 157 5 273q0 129 -5 274l190 -3l174 3l-16 -89q-85 7 -219 11q-3 -84 -3 -154q120 2 200 9l-17 -87q-107 7 -183 7q0 -77 3 -170q130 3 244 14zM263 604l-63 19q59 91 93 171l106 -22q-26 -48 -61.5 -91.5t-74.5 -76.5z" />
    <glyph glyph-name="uniF656" unicode="&#xf656;" horiz-adv-x="481" 
d="M428 0h-357q5 157 5 273q0 129 -5 274l190 -3l174 3l-16 -89q-85 7 -219 11q-3 -84 -3 -154q120 2 200 9l-17 -87q-107 7 -183 7q0 -77 3 -170q130 3 244 14zM410 627l-69 -24q-45 64 -93 108q-51 -67 -100 -107l-62 19q65 72 115 156l93 9q67 -75 116 -161z" />
    <glyph glyph-name="uniF657" unicode="&#xf657;" horiz-adv-x="481" 
d="M428 0h-357q5 157 5 273q0 129 -5 274l190 -3l174 3l-16 -89q-85 7 -219 11q-3 -84 -3 -154q120 2 200 9l-17 -87q-107 7 -183 7q0 -77 3 -170q130 3 244 14zM359 626q-28 0 -47 19t-19 45q0 27 20.5 47.5t48.5 20.5q29 0 48 -18.5t19 -46.5q0 -27 -20 -47t-50 -20z
M149 626q-29 0 -48 19t-19 45q0 27 20.5 47.5t49.5 20.5t48 -18.5t19 -46.5q0 -27 -20 -47t-50 -20z" />
    <glyph glyph-name="uniF658" unicode="&#xf658;" horiz-adv-x="481" 
d="M428 0h-357q5 157 5 273q0 129 -5 274l190 -3l174 3l-16 -89q-85 7 -219 11q-3 -84 -3 -154q120 2 200 9l-17 -87q-107 7 -183 7q0 -77 3 -170q130 3 244 14zM95 768l68 24q44 -62 94 -107q50 64 101 106l60 -18q-65 -75 -114 -157l-93 -10q-64 73 -116 162z" />
    <glyph glyph-name="uniF659" unicode="&#xf659;" horiz-adv-x="481" 
d="M428 0h-357q5 157 5 273q0 129 -5 274l190 -3l174 3l-16 -89q-85 7 -219 11q-3 -84 -3 -154q120 2 200 9l-17 -87q-107 7 -183 7q0 -77 3 -170q130 3 244 14zM255 620q-31 0 -51 19.5t-20 48.5q0 28 21.5 48t51.5 20t50.5 -19.5t20.5 -47.5q0 -29 -21.5 -49t-51.5 -20z
" />
    <glyph glyph-name="uniF65A" unicode="&#xf65a;" horiz-adv-x="481" 
d="M428 0h-357q5 157 5 273q0 129 -5 274l190 -3l174 3l-16 -89q-85 7 -219 11q-3 -84 -3 -154q120 2 200 9l-17 -87q-107 7 -183 7q0 -77 3 -170q130 3 244 14zM129 642l11 72l252 10l-17 -82h-246z" />
    <glyph glyph-name="uniF65B" unicode="&#xf65b;" horiz-adv-x="481" 
d="M428 0h-23q-31 -21 -51.5 -48t-20.5 -50q0 -18 12 -29.5t31 -11.5q23 0 45 13l21 -43q-20 -18 -45.5 -29.5t-52.5 -11.5q-39 0 -65.5 23t-26.5 59q0 32 20.5 65.5t59.5 62.5h-261q5 157 5 273q0 129 -5 274l190 -3l174 3l-16 -89q-85 7 -219 11q-3 -84 -3 -154
q120 2 200 9l-17 -87q-107 7 -183 7q0 -77 3 -170q130 3 244 14z" />
    <glyph glyph-name="uniF65C" unicode="&#xf65c;" horiz-adv-x="481" 
d="M428 0h-357q5 157 5 273q0 129 -5 274l190 -3l174 3l-16 -89q-85 7 -219 11q-3 -84 -3 -154q120 2 200 9l-17 -87q-107 7 -183 7q0 -77 3 -170q130 3 244 14zM329 755l69 12q1 -27 -5.5 -54t-25 -49t-49 -36t-72.5 -14q-27 0 -50 7t-41.5 20.5t-33 41.5t-12.5 72l71 12
q0 -19 8 -39t27 -31.5t43 -11.5q29 0 50 18.5t21 51.5z" />
    <glyph glyph-name="uniF65D" unicode="&#xf65d;" horiz-adv-x="588" 
d="M428 253l112 24q-3 -46 -3 -115q0 -65 4 -134q-48 -20 -106 -30.5t-104 -10.5q-62 0 -115 19.5t-91 55.5t-59 87t-21 112q0 68 26 124t71 94t103.5 57.5t121.5 19.5q73 0 152 -20l-17 -91l-8 -4q-74 35 -136 35q-41 0 -71.5 -13t-54 -34t-42 -59.5t-18.5 -90.5
q0 -31 9.5 -66.5t35 -72t64 -55.5t76.5 -19q33 0 79 13v48q0 64 -8 126zM401 755l69 12q1 -27 -5.5 -54t-25 -49t-49 -36t-72.5 -14q-27 0 -50 7t-41.5 20.5t-33 41.5t-12.5 72l71 12q0 -19 8 -39t27 -31.5t43 -11.5q29 0 50 18.5t21 51.5z" />
    <glyph glyph-name="uniF65E" unicode="&#xf65e;" horiz-adv-x="588" 
d="M428 253l112 24q-3 -46 -3 -115q0 -65 4 -134q-48 -20 -106 -30.5t-104 -10.5q-62 0 -115 19.5t-91 55.5t-59 87t-21 112q0 68 26 124t71 94t103.5 57.5t121.5 19.5q73 0 152 -20l-17 -91l-8 -4q-74 35 -136 35q-41 0 -71.5 -13t-54 -34t-42 -59.5t-18.5 -90.5
q0 -31 9.5 -66.5t35 -72t64 -55.5t76.5 -19q33 0 79 13v48q0 64 -8 126zM303 -274l-29 25q19 18 33 44t18 50q-16 12 -47 17q-9 15 -9 36q0 25 20.5 43t49.5 18t49.5 -19.5t20.5 -56.5q0 -20 -9.5 -48t-36 -59t-60.5 -50z" />
    <glyph glyph-name="uniF65F" unicode="&#xf65f;" horiz-adv-x="588" 
d="M428 253l112 24q-3 -46 -3 -115q0 -65 4 -134q-48 -20 -106 -30.5t-104 -10.5q-62 0 -115 19.5t-91 55.5t-59 87t-21 112q0 68 26 124t71 94t103.5 57.5t121.5 19.5q73 0 152 -20l-17 -91l-8 -4q-74 35 -136 35q-41 0 -71.5 -13t-54 -34t-42 -59.5t-18.5 -90.5
q0 -31 9.5 -66.5t35 -72t64 -55.5t76.5 -19q33 0 79 13v48q0 64 -8 126zM335 620q-31 0 -51 19.5t-20 48.5q0 28 21.5 48t51.5 20t50.5 -19.5t20.5 -47.5q0 -29 -21.5 -49t-51.5 -20z" />
    <glyph glyph-name="uniF660" unicode="&#xf660;" horiz-adv-x="588" 
d="M428 253l112 24q-3 -46 -3 -115q0 -65 4 -134q-48 -20 -106 -30.5t-104 -10.5q-62 0 -115 19.5t-91 55.5t-59 87t-21 112q0 68 26 124t71 94t103.5 57.5t121.5 19.5q73 0 152 -20l-17 -91l-8 -4q-74 35 -136 35q-41 0 -71.5 -13t-54 -34t-42 -59.5t-18.5 -90.5
q0 -31 9.5 -66.5t35 -72t64 -55.5t76.5 -19q33 0 79 13v48q0 64 -8 126zM501 627l-69 -24q-45 64 -93 108q-51 -67 -100 -107l-62 19q65 72 115 156l93 9q67 -75 116 -161z" />
    <glyph glyph-name="uniF661" unicode="&#xf661;" horiz-adv-x="651" 
d="M204 0h-133q6 137 6 273q0 121 -5 273h132q-6 -118 -6 -225q43 -2 124 -2l131 3q0 92 -5 224h132q-5 -114 -5 -273t5 -273h-132q5 145 5 239q-43 2 -131 2q-56 0 -124 -3q0 -107 6 -238zM487 627l-69 -24q-45 64 -93 108q-51 -67 -100 -107l-62 19q65 72 115 156l93 9
q67 -75 116 -161z" />
    <glyph glyph-name="uniF662" unicode="&#xf662;" horiz-adv-x="278" 
d="M205 0h-132q5 228 5 273q0 46 -5 273h131q-5 -153 -5 -273q0 -93 6 -273zM198 627l-70 -24q-67 91 -129 158l104 43q26 -33 52.5 -83.5t42.5 -93.5z" />
    <glyph glyph-name="uniF663" unicode="&#xf663;" horiz-adv-x="278" 
d="M205 0h-132q5 228 5 273q0 46 -5 273h131q-5 -153 -5 -273q0 -93 6 -273zM139 604l-63 19q59 91 93 171l106 -22q-26 -48 -61.5 -91.5t-74.5 -76.5z" />
    <glyph glyph-name="uniF664" unicode="&#xf664;" horiz-adv-x="278" 
d="M205 0h-132q5 228 5 273q0 46 -5 273h131q-5 -153 -5 -273q0 -93 6 -273zM301 627l-69 -24q-45 64 -93 108q-51 -67 -100 -107l-62 19q65 72 115 156l93 9q67 -75 116 -161z" />
    <glyph glyph-name="uniF665" unicode="&#xf665;" horiz-adv-x="278" 
d="M205 0h-132q5 228 5 273q0 46 -5 273h131q-5 -153 -5 -273q0 -93 6 -273zM242 626q-28 0 -47 19t-19 45q0 27 20.5 47.5t48.5 20.5q29 0 48 -18.5t19 -46.5q0 -27 -20 -47t-50 -20zM32 626q-29 0 -48 19t-19 45q0 27 20.5 47.5t49.5 20.5t48 -18.5t19 -46.5
q0 -27 -20 -47t-50 -20z" />
    <glyph glyph-name="uniF666" unicode="&#xf666;" horiz-adv-x="278" 
d="M205 0h-132q5 228 5 273q0 46 -5 273h131q-5 -153 -5 -273q0 -93 6 -273zM8 642l11 72l252 10l-17 -82h-246z" />
    <glyph glyph-name="uniF667" unicode="&#xf667;" horiz-adv-x="278" 
d="M205 0h-61q-31 -21 -51.5 -48t-20.5 -50q0 -18 12 -29.5t31 -11.5q23 0 45 13l21 -43q-20 -18 -45.5 -29.5t-52.5 -11.5q-39 0 -65.5 23t-26.5 59q0 32 21.5 66t60.5 63q5 225 5 272q0 46 -5 273h131q-5 -153 -5 -273q0 -93 6 -273z" />
    <glyph glyph-name="uniF668" unicode="&#xf668;" horiz-adv-x="276" 
d="M205 0h-132q5 228 5 273q0 46 -5 273h131q-5 -153 -5 -273q0 -93 6 -273zM56 626l-69 -6q-3 34 6.5 65.5t35.5 51t54 19.5q19 0 37 -9t43 -30t36 -21q12 0 18.5 14.5t1.5 41.5l71 7q6 -67 -23 -101.5t-69 -34.5q-20 0 -39.5 9t-43.5 30t-34 21q-12 0 -20 -15t-5 -42z" />
    <glyph glyph-name="uniF669" unicode="&#xf669;" horiz-adv-x="315" 
d="M205 0h-132q5 228 5 273q0 46 -5 273h131q-5 -153 -5 -273q0 -93 6 -273zM213 755l69 12q1 -27 -5.5 -54t-25 -49t-49 -36t-72.5 -14q-27 0 -50 7t-41.5 20.5t-33 41.5t-12.5 72l71 12q0 -19 8 -39t27 -31.5t43 -11.5q29 0 50 18.5t21 51.5z" />
    <glyph glyph-name="uniF66A" unicode="&#xf66a;" horiz-adv-x="277" 
d="M-28 -186l-29 54q69 44 101.5 94t32.5 123l2 204q0 32 -5 257h131q-4 -170 -4 -257q0 -125 2 -182q1 -68 -23 -121.5t-74.5 -96.5t-133.5 -75zM301 627l-69 -24q-45 64 -93 108q-51 -67 -100 -107l-62 19q65 72 115 156l93 9q67 -75 116 -161z" />
    <glyph glyph-name="uniF66B" unicode="&#xf66b;" horiz-adv-x="576" 
d="M204 0h-133q5 152 5 273q0 91 -4 273h131q-6 -182 -6 -273q0 -61 7 -273zM573 6l-158 -11q-38 61 -127 183l-76 94l214 276l123 -4q-74 -79 -144 -162l-72 -81zM254 -274l-29 25q19 18 33 44t18 50q-16 12 -47 17q-9 15 -9 36q0 25 20.5 43t49.5 18t49.5 -19.5
t20.5 -56.5q0 -20 -9.5 -48t-36 -59t-60.5 -50z" />
    <glyph glyph-name="uniF66C" unicode="&#xf66c;" horiz-adv-x="435" 
d="M401 0h-330q5 157 5 273q0 126 -5 273h132q-6 -133 -6 -273q0 -127 3 -198q101 4 217 14zM175 604l-63 19q59 91 93 171l106 -22q-26 -48 -61.5 -91.5t-74.5 -76.5z" />
    <glyph glyph-name="uniF66D" unicode="&#xf66d;" horiz-adv-x="449" 
d="M309 363l-30 26q19 18 33 44t18 50q-14 11 -47 16q-9 20 -9 37q0 25 21 43t49 18q29 0 49.5 -19.5t20.5 -57.5q0 -42 -29.5 -86.5t-75.5 -70.5zM401 0h-330q5 157 5 273q0 126 -5 273h132q-6 -133 -6 -273q0 -127 3 -198q101 4 217 14z" />
    <glyph glyph-name="uniF66E" unicode="&#xf66e;" horiz-adv-x="435" 
d="M401 0h-330q5 157 5 273q0 126 -5 273h132q-6 -133 -6 -273q0 -127 3 -198q101 4 217 14zM200 -274l-29 25q19 18 33 44t18 50q-16 12 -47 17q-9 15 -9 36q0 25 20.5 43t49.5 18t49.5 -19.5t20.5 -56.5q0 -20 -9.5 -48t-36 -59t-60.5 -50z" />
    <glyph glyph-name="uniF66F" unicode="&#xf66f;" horiz-adv-x="443" 
d="M337 336q-26 0 -44.5 18t-18.5 43q0 26 19.5 45.5t45.5 19.5q27 0 44.5 -17.5t17.5 -43.5t-18.5 -45.5t-45.5 -19.5zM401 0h-330q5 157 5 273q0 126 -5 273h132q-6 -133 -6 -273q0 -127 3 -198q101 4 217 14z" />
    <glyph glyph-name="uniF670" unicode="&#xf670;" horiz-adv-x="648" 
d="M175 0h-108q5 210 5 278q0 143 -3 266l138 4l183 -246q7 -10 32.5 -45.5t39.5 -55.5t21 -31l7 1q-6 50 -8 119l-9 256h108q-8 -264 -8 -416q0 -69 4 -126l-102 -6l-220 296q-65 86 -90 128l-6 -1q6 -62 7 -110zM335 604l-63 19q59 91 93 171l106 -22q-26 -48 -61.5 -91.5
t-74.5 -76.5z" />
    <glyph glyph-name="uniF671" unicode="&#xf671;" horiz-adv-x="782" 
d="M53 352l-30 26q19 17 33.5 43.5t18.5 50.5q-21 12 -47 15q-9 17 -9 37q0 25 20.5 43t48.5 18q29 0 49.5 -19.5t20.5 -56.5q0 -20 -9.5 -48.5t-35.5 -59t-60 -49.5zM309 0h-108q5 210 5 278q0 143 -3 266l138 4l183 -246q7 -10 32.5 -45.5t39.5 -55.5t21 -31l7 1
q-6 50 -8 119l-9 256h108q-8 -264 -8 -416q0 -69 4 -126l-102 -6l-220 296q-65 86 -90 128l-6 -1q6 -62 7 -110z" />
    <glyph glyph-name="uniF672" unicode="&#xf672;" horiz-adv-x="648" 
d="M175 0h-108q5 210 5 278q0 143 -3 266l138 4l183 -246q7 -10 32.5 -45.5t39.5 -55.5t21 -31l7 1q-6 50 -8 119l-9 256h108q-8 -264 -8 -416q0 -69 4 -126l-102 -6l-220 296q-65 86 -90 128l-6 -1q6 -62 7 -110zM245 626l-69 -6q-3 34 6.5 65.5t35.5 51t54 19.5
q19 0 37 -9t43 -30t36 -21q12 0 18.5 14.5t1.5 41.5l71 7q6 -67 -23 -101.5t-69 -34.5q-20 0 -39.5 9t-43.5 30t-34 21q-12 0 -20 -15t-5 -42z" />
    <glyph glyph-name="uniF673" unicode="&#xf673;" horiz-adv-x="648" 
d="M175 0h-108q5 210 5 278q0 143 -3 266l138 4l183 -246q7 -10 32.5 -45.5t39.5 -55.5t21 -31l7 1q-6 50 -8 119l-9 256h108q-8 -264 -8 -416q0 -69 4 -126l-102 -6l-220 296q-65 86 -90 128l-6 -1q6 -62 7 -110zM164 768l68 24q44 -62 94 -107q50 64 101 106l60 -18
q-65 -75 -114 -157l-93 -10q-64 73 -116 162z" />
    <glyph glyph-name="uniF674" unicode="&#xf674;" horiz-adv-x="648" 
d="M175 0h-108q5 210 5 278q0 143 -3 266l138 4l183 -246q7 -10 32.5 -45.5t39.5 -55.5t21 -31l7 1q-6 50 -8 119l-9 256h108q-8 -264 -8 -416q0 -69 4 -126l-102 -6l-220 296q-65 86 -90 128l-6 -1q6 -62 7 -110zM281 -274l-29 25q19 18 33 44t18 50q-16 12 -47 17
q-9 15 -9 36q0 25 20.5 43t49.5 18t49.5 -19.5t20.5 -56.5q0 -20 -9.5 -48t-36 -59t-60.5 -50z" />
    <glyph glyph-name="uniF675" unicode="&#xf675;" horiz-adv-x="674" 
d="M338 63q25 0 53 11.5t52.5 38t41 67.5t16.5 92q0 42 -12.5 80.5t-35.5 67.5t-53.5 45.5t-64.5 16.5q-43 0 -78.5 -25.5t-59 -73t-23.5 -108.5q0 -42 12.5 -80.5t34.5 -68t52.5 -46.5t64.5 -17zM328 -16q-60 0 -112 20t-90.5 56.5t-59.5 89t-21 113.5q0 62 22 117
t62.5 95.5t96 62.5t119.5 22q59 0 111.5 -19.5t91 -55.5t60 -87.5t21.5 -113.5t-22 -117.5t-62.5 -96.5t-96.5 -63.5t-120 -22.5zM411 627l-70 -24q-67 91 -129 158l104 43q26 -33 52.5 -83.5t42.5 -93.5z" />
    <glyph glyph-name="uniF676" unicode="&#xf676;" horiz-adv-x="674" 
d="M338 63q25 0 53 11.5t52.5 38t41 67.5t16.5 92q0 42 -12.5 80.5t-35.5 67.5t-53.5 45.5t-64.5 16.5q-43 0 -78.5 -25.5t-59 -73t-23.5 -108.5q0 -42 12.5 -80.5t34.5 -68t52.5 -46.5t64.5 -17zM328 -16q-60 0 -112 20t-90.5 56.5t-59.5 89t-21 113.5q0 62 22 117
t62.5 95.5t96 62.5t119.5 22q59 0 111.5 -19.5t91 -55.5t60 -87.5t21.5 -113.5t-22 -117.5t-62.5 -96.5t-96.5 -63.5t-120 -22.5zM323 604l-63 19q59 91 93 171l106 -22q-26 -48 -61.5 -91.5t-74.5 -76.5z" />
    <glyph glyph-name="uniF677" unicode="&#xf677;" horiz-adv-x="674" 
d="M338 63q25 0 53 11.5t52.5 38t41 67.5t16.5 92q0 42 -12.5 80.5t-35.5 67.5t-53.5 45.5t-64.5 16.5q-43 0 -78.5 -25.5t-59 -73t-23.5 -108.5q0 -42 12.5 -80.5t34.5 -68t52.5 -46.5t64.5 -17zM328 -16q-60 0 -112 20t-90.5 56.5t-59.5 89t-21 113.5q0 62 22 117
t62.5 95.5t96 62.5t119.5 22q59 0 111.5 -19.5t91 -55.5t60 -87.5t21.5 -113.5t-22 -117.5t-62.5 -96.5t-96.5 -63.5t-120 -22.5zM499 627l-69 -24q-45 64 -93 108q-51 -67 -100 -107l-62 19q65 72 115 156l93 9q67 -75 116 -161z" />
    <glyph glyph-name="uniF678" unicode="&#xf678;" horiz-adv-x="674" 
d="M338 63q25 0 53 11.5t52.5 38t41 67.5t16.5 92q0 42 -12.5 80.5t-35.5 67.5t-53.5 45.5t-64.5 16.5q-43 0 -78.5 -25.5t-59 -73t-23.5 -108.5q0 -42 12.5 -80.5t34.5 -68t52.5 -46.5t64.5 -17zM328 -16q-60 0 -112 20t-90.5 56.5t-59.5 89t-21 113.5q0 62 22 117
t62.5 95.5t96 62.5t119.5 22q59 0 111.5 -19.5t91 -55.5t60 -87.5t21.5 -113.5t-22 -117.5t-62.5 -96.5t-96.5 -63.5t-120 -22.5zM254 626l-69 -6q-3 34 6.5 65.5t35.5 51t54 19.5q19 0 37 -9t43 -30t36 -21q12 0 18.5 14.5t1.5 41.5l71 7q6 -67 -23 -101.5t-69 -34.5
q-20 0 -39.5 9t-43.5 30t-34 21q-12 0 -20 -15t-5 -42z" />
    <glyph glyph-name="uniF679" unicode="&#xf679;" horiz-adv-x="674" 
d="M338 63q25 0 53 11.5t52.5 38t41 67.5t16.5 92q0 42 -12.5 80.5t-35.5 67.5t-53.5 45.5t-64.5 16.5q-43 0 -78.5 -25.5t-59 -73t-23.5 -108.5q0 -42 12.5 -80.5t34.5 -68t52.5 -46.5t64.5 -17zM328 -16q-60 0 -112 20t-90.5 56.5t-59.5 89t-21 113.5q0 62 22 117
t62.5 95.5t96 62.5t119.5 22q59 0 111.5 -19.5t91 -55.5t60 -87.5t21.5 -113.5t-22 -117.5t-62.5 -96.5t-96.5 -63.5t-120 -22.5zM440 626q-28 0 -47 19t-19 45q0 27 20.5 47.5t48.5 20.5q29 0 48 -18.5t19 -46.5q0 -27 -20 -47t-50 -20zM230 626q-29 0 -48 19t-19 45
q0 27 20.5 47.5t49.5 20.5t48 -18.5t19 -46.5q0 -27 -20 -47t-50 -20z" />
    <glyph glyph-name="uniF67A" unicode="&#xf67a;" horiz-adv-x="674" 
d="M338 63q25 0 53 11.5t52.5 38t41 67.5t16.5 92q0 42 -12.5 80.5t-35.5 67.5t-53.5 45.5t-64.5 16.5q-43 0 -78.5 -25.5t-59 -73t-23.5 -108.5q0 -42 12.5 -80.5t34.5 -68t52.5 -46.5t64.5 -17zM328 -16q-60 0 -112 20t-90.5 56.5t-59.5 89t-21 113.5q0 62 22 117
t62.5 95.5t96 62.5t119.5 22q59 0 111.5 -19.5t91 -55.5t60 -87.5t21.5 -113.5t-22 -117.5t-62.5 -96.5t-96.5 -63.5t-120 -22.5zM275 611l-57 18q56 91 83 165l99 -21q-25 -47 -57 -88.5t-68 -73.5zM439 611l-55 18q52 85 83 165l99 -21q-49 -93 -127 -162z" />
    <glyph glyph-name="uniF67B" unicode="&#xf67b;" horiz-adv-x="674" 
d="M338 63q25 0 53 11.5t52.5 38t41 67.5t16.5 92q0 42 -12.5 80.5t-35.5 67.5t-53.5 45.5t-64.5 16.5q-43 0 -78.5 -25.5t-59 -73t-23.5 -108.5q0 -42 12.5 -80.5t34.5 -68t52.5 -46.5t64.5 -17zM328 -16q-60 0 -112 20t-90.5 56.5t-59.5 89t-21 113.5q0 62 22 117
t62.5 95.5t96 62.5t119.5 22q59 0 111.5 -19.5t91 -55.5t60 -87.5t21.5 -113.5t-22 -117.5t-62.5 -96.5t-96.5 -63.5t-120 -22.5zM205 642l11 72l252 10l-17 -82h-246z" />
    <glyph glyph-name="uniF67C" unicode="&#xf67c;" horiz-adv-x="674" 
d="M338 63q25 0 53 11.5t52.5 38t41 67.5t16.5 92q0 42 -12.5 80.5t-35.5 67.5t-53.5 45.5t-64.5 16.5q-43 0 -78.5 -25.5t-59 -73t-23.5 -108.5q0 -42 12.5 -80.5t34.5 -68t52.5 -46.5t64.5 -17zM328 -16q-60 0 -112 20t-90.5 56.5t-59.5 89t-21 113.5q0 62 22 117
t62.5 95.5t96 62.5t119.5 22q59 0 111.5 -19.5t91 -55.5t60 -87.5t21.5 -113.5t-22 -117.5t-62.5 -96.5t-96.5 -63.5t-120 -22.5zM412 755l69 12q1 -27 -5.5 -54t-25 -49t-49 -36t-72.5 -14q-27 0 -50 7t-41.5 20.5t-33 41.5t-12.5 72l71 12q0 -19 8 -39t27 -31.5t43 -11.5
q29 0 50 18.5t21 51.5z" />
    <glyph glyph-name="uniF67D" unicode="&#xf67d;" horiz-adv-x="544" 
d="M198 0h-127q5 150 5 278q0 86 -4 262q123 12 188 12q50 0 100.5 -13.5t83 -48.5t32.5 -82q0 -23 -11.5 -51.5t-37 -54t-54.5 -42.5l160 -255l-144 -8q-50 106 -88 173l-27 47l-80 2q0 -55 4 -219zM302 292q26 16 40.5 41t14.5 52t-16 50t-42.5 32t-51.5 9q-27 0 -51 -3
q-2 -65 -2 -180q65 -7 108 -1zM253 604l-63 19q59 91 93 171l106 -22q-26 -48 -61.5 -91.5t-74.5 -76.5z" />
    <glyph glyph-name="uniF67E" unicode="&#xf67e;" horiz-adv-x="544" 
d="M198 0h-127q5 150 5 278q0 86 -4 262q123 12 188 12q50 0 100.5 -13.5t83 -48.5t32.5 -82q0 -23 -11.5 -51.5t-37 -54t-54.5 -42.5l160 -255l-144 -8q-50 106 -88 173l-27 47l-80 2q0 -55 4 -219zM302 292q26 16 40.5 41t14.5 52t-16 50t-42.5 32t-51.5 9q-27 0 -51 -3
q-2 -65 -2 -180q65 -7 108 -1zM100 768l68 24q44 -62 94 -107q50 64 101 106l60 -18q-65 -75 -114 -157l-93 -10q-64 73 -116 162z" />
    <glyph glyph-name="uniF67F" unicode="&#xf67f;" horiz-adv-x="544" 
d="M198 0h-127q5 150 5 278q0 86 -4 262q123 12 188 12q50 0 100.5 -13.5t83 -48.5t32.5 -82q0 -23 -11.5 -51.5t-37 -54t-54.5 -42.5l160 -255l-144 -8q-50 106 -88 173l-27 47l-80 2q0 -55 4 -219zM302 292q26 16 40.5 41t14.5 52t-16 50t-42.5 32t-51.5 9q-27 0 -51 -3
q-2 -65 -2 -180q65 -7 108 -1zM246 -274l-29 25q19 18 33 44t18 50q-16 12 -47 17q-9 15 -9 36q0 25 20.5 43t49.5 18t49.5 -19.5t20.5 -56.5q0 -20 -9.5 -48t-36 -59t-60.5 -50z" />
    <glyph glyph-name="uniF680" unicode="&#xf680;" horiz-adv-x="462" 
d="M37 23l15 88l7 5q79 -46 147 -46q42 0 69.5 18.5t27.5 49.5q0 9 -4 21.5t-16.5 24t-24 18.5t-74 36t-85.5 52.5t-33 48t-10 55.5q0 73 54 117.5t146 44.5q47 0 88.5 -7.5t55.5 -11.5l-18 -91l-7 -3q-29 15 -62 23.5t-57 8.5q-36 0 -59 -16.5t-23 -45.5q0 -25 19 -45
t66.5 -42t71.5 -34t47.5 -33t34 -45.5t10.5 -53.5q0 -34 -14.5 -65.5t-42.5 -55t-68.5 -37t-89.5 -13.5q-36 0 -82.5 8t-88.5 26zM239 604l-63 19q59 91 93 171l106 -22q-26 -48 -61.5 -91.5t-74.5 -76.5z" />
    <glyph glyph-name="uniF681" unicode="&#xf681;" horiz-adv-x="462" 
d="M37 23l15 88l7 5q79 -46 147 -46q42 0 69.5 18.5t27.5 49.5q0 9 -4 21.5t-16.5 24t-24 18.5t-74 36t-85.5 52.5t-33 48t-10 55.5q0 73 54 117.5t146 44.5q47 0 88.5 -7.5t55.5 -11.5l-18 -91l-7 -3q-29 15 -62 23.5t-57 8.5q-36 0 -59 -16.5t-23 -45.5q0 -25 19 -45
t66.5 -42t71.5 -34t47.5 -33t34 -45.5t10.5 -53.5q0 -34 -14.5 -65.5t-42.5 -55t-68.5 -37t-89.5 -13.5q-36 0 -82.5 8t-88.5 26zM190 -274l-29 25q19 18 33 44t18 50q-16 12 -47 17q-9 15 -9 36q0 25 20.5 43t49.5 18t49.5 -19.5t20.5 -56.5q0 -20 -9.5 -48t-36 -59
t-60.5 -50z" />
    <glyph glyph-name="uniF682" unicode="&#xf682;" horiz-adv-x="462" 
d="M37 23l15 88l7 5q79 -46 147 -46q42 0 69.5 18.5t27.5 49.5q0 9 -4 21.5t-16.5 24t-24 18.5t-74 36t-85.5 52.5t-33 48t-10 55.5q0 73 54 117.5t146 44.5q47 0 88.5 -7.5t55.5 -11.5l-18 -91l-7 -3q-29 15 -62 23.5t-57 8.5q-36 0 -59 -16.5t-23 -45.5q0 -25 19 -45
t66.5 -42t71.5 -34t47.5 -33t34 -45.5t10.5 -53.5q0 -61 -43 -107t-118 -59l-22 -42q18 -2 36.5 -10.5t30.5 -26t12 -39.5q0 -25 -18 -51t-62 -43.5t-90 -15.5l-6 52q93 10 93 49q0 19 -22.5 28t-57.5 8l-4 10l41 76q-88 4 -156 34z" />
    <glyph glyph-name="uniF683" unicode="&#xf683;" horiz-adv-x="462" 
d="M37 23l15 88l7 5q79 -46 147 -46q42 0 69.5 18.5t27.5 49.5q0 9 -4 21.5t-16.5 24t-24 18.5t-74 36t-85.5 52.5t-33 48t-10 55.5q0 73 54 117.5t146 44.5q47 0 88.5 -7.5t55.5 -11.5l-18 -91l-7 -3q-29 15 -62 23.5t-57 8.5q-36 0 -59 -16.5t-23 -45.5q0 -25 19 -45
t66.5 -42t71.5 -34t47.5 -33t34 -45.5t10.5 -53.5q0 -34 -14.5 -65.5t-42.5 -55t-68.5 -37t-89.5 -13.5q-36 0 -82.5 8t-88.5 26zM82 768l68 24q44 -62 94 -107q50 64 101 106l60 -18q-65 -75 -114 -157l-93 -10q-64 73 -116 162z" />
    <glyph glyph-name="uniF684" unicode="&#xf684;" horiz-adv-x="462" 
d="M37 23l15 88l7 5q79 -46 147 -46q42 0 69.5 18.5t27.5 49.5q0 9 -4 21.5t-16.5 24t-24 18.5t-74 36t-85.5 52.5t-33 48t-10 55.5q0 73 54 117.5t146 44.5q47 0 88.5 -7.5t55.5 -11.5l-18 -91l-7 -3q-29 15 -62 23.5t-57 8.5q-36 0 -59 -16.5t-23 -45.5q0 -25 19 -45
t66.5 -42t71.5 -34t47.5 -33t34 -45.5t10.5 -53.5q0 -34 -14.5 -65.5t-42.5 -55t-68.5 -37t-89.5 -13.5q-36 0 -82.5 8t-88.5 26zM406 627l-69 -24q-45 64 -93 108q-51 -67 -100 -107l-62 19q65 72 115 156l93 9q67 -75 116 -161z" />
    <glyph glyph-name="uniF685" unicode="&#xf685;" horiz-adv-x="510" 
d="M317 0h-130q5 113 5 272q0 55 -4 197q-87 -1 -176 -10l15 88q122 -3 232 -3t240 3l-14 -88q-77 8 -168 10q-4 -93 -4 -197q0 -92 4 -272zM97 768l68 24q44 -62 94 -107q50 64 101 106l60 -18q-65 -75 -114 -157l-93 -10q-64 73 -116 162z" />
    <glyph glyph-name="uniF686" unicode="&#xf686;" horiz-adv-x="510" 
d="M317 0h-130q5 113 5 272q0 55 -4 197q-87 -1 -176 -10l15 88q122 -3 232 -3t240 3l-14 -88q-77 8 -168 10q-4 -93 -4 -197q0 -92 4 -272zM217 -274l-29 25q19 18 33 44t18 50q-16 12 -47 17q-9 15 -9 36q0 25 20.5 43t49.5 18t49.5 -19.5t20.5 -56.5q0 -20 -9.5 -48
t-36 -59t-60.5 -50z" />
    <glyph glyph-name="uniF688" unicode="&#xf688;" horiz-adv-x="609" 
d="M71 546h132q-6 -93 -6 -181q0 -102 3 -176q2 -34 15 -63t43 -45t64 -16q50 0 83.5 32t33.5 92q0 152 -7 357h110q-7 -217 -7 -347q0 -98 -59.5 -155t-172.5 -57q-106 0 -167.5 53.5t-60.5 161.5l1 116q0 86 -5 228zM235 611l-57 18q56 91 83 165l99 -21
q-25 -47 -57 -88.5t-68 -73.5zM399 611l-55 18q52 85 83 165l99 -21q-49 -93 -127 -162z" />
    </font>
</defs>
</svg>
