<?xml version="1.0" standalone="no"?>
<!DOCTYPE svg PUBLIC "-//W3C//DTD SVG 1.1//EN" "http://www.w3.org/Graphics/SVG/1.1/DTD/svg11.dtd">
<svg>
<metadata>
Created by FontForge 20120731 at Wed Jul  3 07:58:37 2019
 By www
Copyright \(c\) 1998 Elsner+Flake Designstudios. All Rights Reserved.
</metadata>
<defs>
<font id="WindsorEF-Bold" horiz-adv-x="500">
  <font-face 
    font-family="WindsorEF"
    font-weight="700"
    font-stretch="normal"
    units-per-em="1000"
    panose-1="0 0 0 0 0 0 0 0 0 0"
    ascent="800"
    descent="-200"
    x-height="439"
    cap-height="667"
    bbox="-141 -250 1191 913"
    underline-thickness="20"
    underline-position="-156"
    stemh="81"
    stemv="133"
    unicode-range="U+0020-FB02"
  />
<missing-glyph horiz-adv-x="280" 
 />
    <glyph glyph-name=".notdef" horiz-adv-x="280" 
 />
    <glyph glyph-name="space" unicode=" " horiz-adv-x="250" 
 />
    <glyph glyph-name="exclam" unicode="!" horiz-adv-x="258" 
d="M218 591c0 -27 -5 -55 -9 -81l-39 -234c-3 -20 -9 -39 -12 -59c-2 -14 -4 -22 -20 -22c-3 0 -5 0 -8 1h-14c-19 0 -23 69 -25 80l-40 228c-5 30 -11 61 -11 91c0 54 34 83 87 83c58 0 91 -28 91 -87zM206 42c0 -42 -12 -42 -51 -42h-59c-40 0 -45 3 -45 44v66
c0 39 12 44 49 44h55c44 0 51 -3 51 -48v-64z" />
    <glyph glyph-name="quotedbl" unicode="&#x22;" horiz-adv-x="388" 
d="M344 667l-21 -268h-84l-20 268h125zM170 667l-22 -268h-83l-21 268h126z" />
    <glyph glyph-name="numbersign" unicode="#" horiz-adv-x="600" 
d="M597 491l-15 -102h-103l-15 -98h104l-16 -102h-104l-30 -189h-116l30 189h-99l-30 -189h-115l30 189h-104l15 102h105l15 98h-103l15 102h104l28 176h115l-28 -176h99l28 176h116l-28 -176h102zM363 389h-99l-15 -98h99z" />
    <glyph glyph-name="dollar" unicode="$" horiz-adv-x="587" 
d="M568 218c0 -98 -63 -175 -159 -194c-26 -5 -52 -6 -78 -6v-58c0 -27 0 -60 -36 -60s-36 34 -36 60v66c-16 2 -31 4 -47 6c-12 2 -26 6 -39 6c-26 0 -24 -43 -53 -43c-18 0 -27 15 -34 29l-72 139c-3 6 -7 15 -7 22c0 12 10 26 23 26c14 0 34 -20 44 -28
c57 -48 110 -72 185 -75v201c-90 37 -215 76 -215 194c0 102 82 152 176 152c13 0 26 -2 39 -3v63c0 26 1 60 36 60c36 0 36 -33 36 -60v-60c12 7 28 23 39 23c13 0 19 -11 26 -20l87 -115c5 -7 11 -15 11 -24c0 -11 -9 -25 -21 -25c-14 0 -28 12 -38 19
c-33 23 -65 44 -104 55v-113c19 -12 56 -21 78 -28c92 -31 159 -110 159 -209zM259 474v106h-5c-32 0 -55 -13 -55 -48c0 -37 30 -48 60 -58zM423 190c0 53 -49 78 -92 93v-177c49 8 92 27 92 84z" />
    <glyph glyph-name="percent" unicode="%" horiz-adv-x="678" 
d="M661 159c0 -84 -40 -169 -135 -169c-94 0 -134 82 -134 166s38 173 135 173c94 0 134 -88 134 -170zM555 645c0 -15 -9 -30 -16 -43l-317 -549c-11 -20 -28 -55 -55 -55c-20 0 -36 13 -36 34c0 19 14 42 23 58l310 536c12 20 28 55 55 55c20 0 36 -16 36 -36zM286 507
c0 -83 -40 -170 -135 -170c-94 0 -134 83 -134 166s38 174 134 174c94 0 135 -88 135 -170zM560 133l-1 64c0 23 2 84 -33 84c-8 0 -16 -1 -21 -7c-15 -18 -12 -97 -12 -119c0 -25 -6 -114 35 -114c38 0 32 67 32 92zM184 474v71c0 23 2 83 -33 83c-8 0 -16 -1 -21 -7
c-15 -18 -13 -97 -13 -119c0 -26 -6 -114 36 -114c36 0 31 63 31 86z" />
    <glyph glyph-name="ampersand" unicode="&#x26;" horiz-adv-x="785" 
d="M768 35c0 -30 -33 -35 -57 -35h-171l-68 61c-74 -42 -139 -79 -226 -79c-104 0 -216 50 -216 169c0 102 86 160 167 202c-26 40 -48 81 -48 130c0 116 128 190 232 190c89 0 182 -51 182 -150c0 -86 -73 -137 -143 -170c12 -13 94 -109 113 -109s51 49 60 62
c30 44 74 123 74 178c0 43 -23 55 -23 71c0 30 63 65 89 65c25 0 28 -28 28 -47c0 -139 -73 -295 -165 -397l65 -62c21 -20 39 -33 67 -43c19 -7 40 -12 40 -36zM415 524c0 35 -23 69 -61 69c-33 0 -55 -27 -55 -59c0 -41 26 -76 54 -103c34 19 62 53 62 93zM395 134
c0 6 -14 18 -18 22l-125 125c-29 -17 -48 -41 -48 -76c0 -59 50 -112 110 -112c25 0 54 10 72 28c3 3 9 9 9 13z" />
    <glyph glyph-name="quoteright" unicode="&#x2019;" horiz-adv-x="217" 
d="M177 562c0 -74 -27 -148 -113 -148c-14 0 -24 10 -24 24c0 29 51 17 51 69c0 16 -3 25 -20 26c-30 2 -31 8 -31 38v62c0 36 6 40 41 40h53c42 0 43 -5 43 -46v-65z" />
    <glyph glyph-name="parenleft" unicode="(" horiz-adv-x="365" 
d="M325 -135c0 -25 -19 -44 -44 -44c-40 0 -91 48 -116 75c-89 96 -135 230 -135 360c0 140 55 290 160 385c21 19 61 51 91 51c26 0 44 -20 44 -45c0 -22 -14 -37 -27 -53c-36 -43 -63 -81 -84 -133c-25 -63 -35 -138 -35 -205s10 -142 35 -205c20 -52 48 -91 84 -133
c14 -16 27 -30 27 -53z" />
    <glyph glyph-name="parenright" unicode=")" horiz-adv-x="365" 
d="M335 256c0 -140 -55 -289 -160 -385c-22 -20 -60 -50 -91 -50c-25 0 -44 19 -44 44c0 23 13 37 27 53c36 42 64 81 84 133c25 63 35 138 35 205s-10 142 -35 205c-21 52 -48 90 -84 133c-13 16 -27 31 -27 53c0 25 18 45 44 45c39 0 91 -49 116 -76
c90 -96 135 -230 135 -360z" />
    <glyph glyph-name="asterisk" unicode="*" horiz-adv-x="399" 
d="M366 541c0 -57 -105 -42 -139 -46c27 -19 91 -57 91 -95c0 -23 -20 -45 -44 -45c-43 0 -65 89 -75 120c-4 -13 -9 -26 -13 -39c-10 -29 -25 -79 -63 -79c-22 0 -45 18 -45 41c0 35 69 80 93 98h-14c-14 0 -27 -1 -41 -1c-35 0 -83 4 -83 49c0 23 16 44 40 44
c36 0 81 -41 109 -60c-10 33 -26 66 -26 101c0 28 16 48 45 48c25 0 41 -17 41 -42c0 -38 -18 -71 -25 -107c26 19 72 59 106 59c25 0 43 -22 43 -46z" />
    <glyph glyph-name="plus" unicode="+" 
d="M467 286h-160v-159h-114v159h-160v104h160v159h114v-159h160v-104z" />
    <glyph glyph-name="comma" unicode="," horiz-adv-x="259" 
d="M205 35c0 -82 -29 -164 -125 -164c-16 0 -26 10 -26 26c0 13 3 16 14 21c26 12 42 24 42 55c0 18 -3 27 -22 29c-33 3 -35 10 -35 43v68c0 40 6 45 46 45h59c46 0 47 -6 47 -51v-72z" />
    <glyph glyph-name="hyphen" unicode="-" horiz-adv-x="241" 
d="M241 232c0 -38 -38 -36 -67 -36h-107c-29 0 -67 -2 -67 36s36 36 65 36h110c29 0 66 2 66 -36z" />
    <glyph glyph-name="period" unicode="." horiz-adv-x="259" 
d="M204 48c0 -45 -8 -48 -52 -48h-43c-53 0 -56 10 -56 61c0 15 1 31 1 46c0 45 7 47 51 47h50c42 0 49 -5 49 -47v-59z" />
    <glyph glyph-name="slash" unicode="/" horiz-adv-x="450" 
d="M424 648c0 -16 -7 -35 -13 -49l-298 -736c-11 -28 -27 -78 -64 -78c-27 0 -45 18 -45 45c0 22 11 48 19 68l291 718c11 28 27 78 64 78c28 0 46 -18 46 -46z" />
    <glyph glyph-name="zero" unicode="0" horiz-adv-x="587" 
d="M554 323c0 -162 -76 -332 -261 -332c-183 0 -261 162 -261 325c0 164 73 340 262 340c183 0 260 -173 260 -333zM374 256v145c0 57 3 183 -81 183c-58 0 -74 -54 -78 -102c-5 -57 -4 -115 -4 -172c0 -49 0 -141 17 -187c12 -32 32 -55 69 -55c60 0 69 51 74 101
c3 29 3 58 3 87z" />
    <glyph glyph-name="one" unicode="1" horiz-adv-x="587" 
d="M466 36c0 -30 -26 -36 -51 -36h-224c-25 0 -53 4 -53 35c0 26 26 35 46 42c10 4 20 8 27 15c21 21 19 83 19 110v209c0 63 -19 61 -76 64c-21 1 -42 7 -42 32c0 19 20 35 35 43l182 98c9 5 19 10 29 10c28 0 29 -27 29 -49v-424v-45c0 -37 -1 -53 36 -66
c22 -8 43 -11 43 -38z" />
    <glyph glyph-name="two" unicode="2" horiz-adv-x="587" 
d="M553 180c0 -21 -47 -125 -57 -151c-14 -35 -30 -29 -65 -29h-348c-31 0 -58 3 -58 40c0 81 141 179 199 225c59 46 145 110 145 193c0 56 -39 103 -97 103c-38 0 -81 -25 -81 -67c0 -22 15 -40 38 -40c14 0 22 7 28 20c12 -12 17 -27 17 -44c0 -55 -49 -86 -100 -86
c-76 0 -127 47 -127 124c0 131 126 180 238 180c118 0 263 -61 263 -198c0 -80 -57 -143 -123 -181c-68 -39 -148 -69 -205 -124h89c21 0 41 1 62 2c56 2 97 -2 140 37c8 7 13 14 24 14s18 -7 18 -18z" />
    <glyph glyph-name="three" unicode="3" horiz-adv-x="587" 
d="M555 222c0 -166 -148 -225 -292 -225c-96 0 -239 38 -239 157c0 62 43 115 107 115c57 0 95 -36 102 -92c-6 2 -12 4 -19 4c-24 0 -39 -19 -39 -42c0 -40 43 -58 77 -58c72 0 119 64 119 132c0 78 -58 132 -135 132c-19 0 -37 -2 -56 -5c-4 -1 -7 -1 -11 -1
c-12 0 -21 9 -21 21s20 26 29 33l151 127c-22 3 -43 5 -65 5c-71 0 -99 -1 -151 -52c-11 -10 -22 -24 -38 -24c-12 0 -25 10 -25 23c0 16 78 156 90 179c7 13 13 28 30 28c12 0 20 -10 29 -17c24 -20 72 -19 101 -19h200c20 0 56 5 56 -23c0 -24 -24 -47 -41 -61l-175 -148
c118 -9 216 -57 216 -189z" />
    <glyph glyph-name="four" unicode="4" horiz-adv-x="587" 
d="M544 194c0 -29 -3 -31 -31 -32c-33 -1 -33 -4 -33 -37c0 -21 -3 -48 22 -56c22 -7 40 -8 40 -36c0 -27 -18 -33 -42 -33h-200c-20 0 -40 5 -40 29c0 20 12 28 30 34c35 11 38 17 38 54c0 55 -6 45 -59 45h-196c-30 0 -54 0 -54 36c0 38 8 50 30 81l226 325
c25 36 33 41 77 41h87c49 0 42 -9 42 -53v-281c0 -39 -4 -40 33 -40c32 0 29 -10 29 -39c0 -5 0 -23 1 -27v-11zM326 297v175c0 4 1 25 -6 25c-6 0 -13 -14 -16 -18l-115 -176c-3 -4 -9 -15 -9 -20c0 -13 29 -12 37 -12h72c25 0 37 -1 37 26z" />
    <glyph glyph-name="five" unicode="5" horiz-adv-x="587" 
d="M546 654c0 -21 -28 -83 -36 -105c-15 -39 -35 -33 -73 -33c-26 0 -53 1 -79 1c-20 0 -41 -1 -61 -1c-38 -1 -36 1 -51 -34c-3 -8 -22 -49 -22 -57c0 -4 3 -4 6 -4c5 0 11 2 16 3c28 7 56 13 85 13c121 0 213 -66 213 -194c0 -166 -140 -247 -292 -247
c-90 0 -229 33 -229 147c0 55 39 98 95 98c45 0 83 -30 92 -74c-22 0 -40 -8 -40 -34c0 -42 40 -58 76 -58c75 0 118 64 118 134c0 87 -63 135 -146 135c-28 0 -53 -6 -78 -18c-12 -6 -42 -23 -54 -23c-10 0 -19 9 -19 19c0 16 110 286 123 320h204c29 0 83 -2 107 17
c7 6 18 16 27 16c12 0 18 -10 18 -21z" />
    <glyph glyph-name="six" unicode="6" horiz-adv-x="587" 
d="M558 208c0 -147 -117 -216 -252 -216c-193 0 -274 135 -274 314c0 190 111 352 313 352c76 0 194 -33 194 -128c0 -53 -41 -88 -92 -88c-30 0 -64 15 -82 39c19 11 30 23 30 45c0 35 -29 51 -61 51c-96 0 -121 -113 -121 -189c0 -10 1 -18 3 -28c42 26 82 37 131 37
c117 0 211 -65 211 -189zM382 192c0 52 -21 117 -84 117c-60 0 -83 -61 -83 -112c0 -55 18 -126 85 -126c63 0 82 70 82 121z" />
    <glyph glyph-name="seven" unicode="7" horiz-adv-x="587" 
d="M562 618c0 -33 -46 -151 -58 -183c-36 -98 -71 -197 -104 -297c-9 -27 -18 -54 -25 -81c-3 -11 -11 -46 -21 -53c-8 -6 -23 -4 -32 -4h-134c-14 0 -26 0 -26 17c0 45 113 213 132 243l46 72c17 27 84 121 84 155c0 22 -25 19 -41 19h-128c-67 0 -111 -5 -165 -47
c-8 -6 -18 -15 -29 -15c-12 0 -21 10 -21 22c0 10 5 21 9 30l77 156c7 14 15 26 32 26c15 0 23 -10 33 -19c17 -15 32 -12 54 -13c88 -3 175 -1 263 -1c24 0 54 5 54 -27z" />
    <glyph glyph-name="eight" unicode="8" horiz-adv-x="587" 
d="M557 189c0 -148 -150 -197 -274 -197c-119 0 -254 50 -254 189c0 82 43 133 115 167c-62 28 -100 66 -100 137c0 126 145 170 248 170c105 0 243 -44 243 -171c0 -71 -43 -105 -104 -132c74 -30 126 -77 126 -163zM371 496c0 47 -30 85 -79 85c-48 0 -78 -36 -78 -83
c0 -34 12 -56 36 -79c13 -12 29 -24 47 -24c45 0 74 62 74 101zM380 176c0 36 -18 71 -46 93c-12 10 -28 20 -44 20c-51 0 -87 -71 -87 -116c0 -52 33 -97 88 -97c59 0 89 45 89 100z" />
    <glyph glyph-name="nine" unicode="9" horiz-adv-x="587" 
d="M556 345c0 -197 -112 -353 -320 -353c-73 0 -191 31 -191 123c0 53 42 84 92 84c32 0 56 -9 76 -34c-14 -10 -24 -23 -24 -41c0 -35 34 -53 65 -53c93 0 121 122 121 194c0 8 0 17 -1 25c-41 -29 -91 -39 -141 -39c-119 0 -206 70 -206 193c0 145 117 214 250 214
c187 0 279 -138 279 -313zM374 455c0 55 -19 119 -85 119c-60 0 -81 -56 -81 -108c0 -53 18 -124 84 -124c62 0 82 61 82 113z" />
    <glyph glyph-name="colon" unicode=":" horiz-adv-x="259" 
d="M204 339c0 -45 -8 -48 -52 -48h-43c-53 0 -56 10 -56 61c0 15 1 31 1 46c0 45 7 47 51 47h50c42 0 49 -5 49 -47v-59zM204 48c0 -45 -8 -48 -52 -48h-43c-53 0 -56 10 -56 61c0 15 1 31 1 46c0 45 7 47 51 47h50c42 0 49 -5 49 -47v-59z" />
    <glyph glyph-name="semicolon" unicode=";" horiz-adv-x="259" 
d="M204 339c0 -45 -8 -48 -52 -48h-43c-53 0 -56 10 -56 61c0 15 1 31 1 46c0 45 7 47 51 47h50c42 0 49 -5 49 -47v-59zM205 35c0 -82 -29 -164 -125 -164c-16 0 -26 10 -26 26c0 13 3 16 14 21c26 12 42 24 42 55c0 18 -3 27 -22 29c-33 3 -35 10 -35 43v68
c0 40 6 45 46 45h59c46 0 47 -6 47 -51v-72z" />
    <glyph glyph-name="less" unicode="&#x3c;" 
d="M467 69l-434 216v96l434 215v-112l-314 -151l313 -152z" />
    <glyph glyph-name="equal" unicode="=" 
d="M467 375h-434v99h434v-99zM467 207h-434v99h434v-99z" />
    <glyph glyph-name="greater" unicode="&#x3e;" 
d="M467 285l-434 -216v113l314 151l-313 152l-1 111l434 -216v-95z" />
    <glyph glyph-name="question" unicode="?" horiz-adv-x="411" 
d="M388 489c0 -62 -22 -115 -68 -157l-38 -35c-23 -21 -51 -48 -57 -80c-4 -23 -6 -35 -32 -35c-33 0 -43 25 -43 54c0 53 27 81 57 122c21 29 51 78 51 115c0 30 -16 72 -52 72c-30 0 -47 -26 -47 -54c0 -18 6 -29 25 -31c0 -2 1 -4 1 -6c0 -26 -40 -44 -62 -44
c-63 0 -100 52 -100 111c0 98 85 154 176 154c108 0 189 -77 189 -186zM270 41c0 -37 -5 -41 -42 -41h-72c-35 0 -39 6 -39 41v74c0 33 4 40 38 40h70c33 0 45 -2 45 -37v-77z" />
    <glyph glyph-name="at" unicode="@" horiz-adv-x="733" 
d="M699 383c0 -34 -6 -68 -17 -99c-23 -61 -75 -133 -147 -133c-36 0 -69 21 -76 58c-28 -41 -75 -65 -125 -65c-87 0 -140 76 -140 158c0 96 70 200 174 200c43 0 81 -17 101 -56l9 46l78 -1l-38 -195c-3 -14 -6 -30 -6 -44c0 -17 7 -36 27 -36s39 19 50 34
c27 36 40 89 40 133c0 139 -109 224 -242 224c-158 0 -278 -123 -278 -280c0 -107 61 -215 165 -251c37 -13 73 -17 112 -17c65 0 131 10 192 34l19 -70c-66 -25 -140 -35 -210 -35c-94 0 -181 25 -250 91c-67 64 -104 157 -104 249c0 196 154 350 350 350
c172 0 316 -117 316 -295zM448 347c0 41 -26 74 -69 74c-59 0 -96 -62 -96 -116c0 -44 25 -81 72 -81c63 0 93 69 93 123z" />
    <glyph glyph-name="A" unicode="A" horiz-adv-x="759" 
d="M766 34c0 -33 -26 -34 -53 -34h-201c-27 0 -51 1 -51 34c0 36 49 24 49 54c0 95 -86 100 -161 100c-74 0 -152 -8 -152 -100c0 -32 48 -18 48 -56c0 -29 -24 -32 -47 -32h-162c-21 0 -43 7 -43 32c0 28 29 36 50 44c17 6 24 15 34 30c30 48 52 111 73 163
c17 42 36 84 55 125c19 42 38 85 58 127c15 31 30 62 43 94c10 25 16 52 47 52h81c49 0 46 -12 64 -56c12 -30 25 -59 36 -89c13 -35 24 -70 37 -105c15 -39 31 -76 46 -115c16 -41 30 -83 45 -125c10 -27 24 -75 48 -93c8 -6 18 -10 27 -14c18 -8 29 -15 29 -36zM436 298
c0 21 -63 181 -74 203c-19 -38 -82 -178 -82 -209c0 -26 57 -23 73 -23c20 0 83 -3 83 29z" />
    <glyph glyph-name="B" unicode="B" horiz-adv-x="705" 
d="M689 197c0 -92 -62 -152 -147 -175c-61 -16 -128 -22 -191 -22h-268c-27 0 -59 0 -59 35c0 40 46 29 61 53c9 14 10 113 10 131v249c0 19 1 105 -10 121c-16 23 -62 7 -62 47c0 9 2 18 9 25c27 23 170 19 204 19c65 0 160 -3 221 -27c57 -23 108 -78 108 -143
c0 -59 -32 -88 -83 -110c108 -18 207 -83 207 -203zM392 511c0 52 -26 91 -81 91c-51 0 -49 -28 -49 -72c0 -19 -3 -78 14 -91c7 -6 18 -6 27 -6c52 0 89 22 89 78zM482 220c0 84 -59 151 -145 151c-68 0 -73 -20 -74 -84c0 -22 -1 -43 -1 -65v-32c0 -24 -5 -88 22 -101
c12 -6 32 -6 45 -6c90 0 153 41 153 137z" />
    <glyph glyph-name="C" unicode="C" horiz-adv-x="735" 
d="M715 142c0 -45 -62 -89 -96 -109c-60 -35 -130 -50 -199 -50c-207 0 -397 116 -397 341c0 204 163 361 365 361c62 0 97 -11 155 -29c5 -1 10 -3 15 -3c24 0 28 37 54 37c31 0 42 -46 50 -69c10 -26 48 -120 48 -145c0 -16 -10 -34 -28 -34c-46 0 -101 158 -250 158
c-144 0 -207 -131 -207 -258c0 -147 81 -252 234 -252c61 0 123 17 170 57c13 11 34 34 52 34c21 0 34 -20 34 -39z" />
    <glyph glyph-name="D" unicode="D" horiz-adv-x="750" 
d="M727 286c0 -95 -41 -170 -119 -223c-33 -22 -69 -39 -108 -47c-62 -13 -159 -16 -223 -16h-195c-27 0 -59 1 -59 35c0 39 47 30 62 53c9 14 10 113 10 131v202c0 45 -1 90 -3 135c-2 35 -3 39 -36 50c-16 5 -29 12 -29 31c0 9 2 19 9 25c20 17 89 15 114 15
c98 0 201 -3 295 -36c156 -54 282 -183 282 -355zM529 316c0 125 -75 263 -214 263c-57 0 -52 -35 -53 -83c-1 -53 -1 -106 -1 -159c0 -51 1 -103 1 -155c0 -54 -3 -87 60 -87c137 0 207 89 207 221z" />
    <glyph glyph-name="E" unicode="E" horiz-adv-x="718" 
d="M718 162c0 -9 -2 -19 -7 -27l-86 -149c-7 -12 -17 -22 -31 -22c-13 0 -22 6 -32 14c-31 24 -40 22 -79 22h-401c-27 0 -59 1 -59 35c0 40 49 31 62 53c10 17 10 118 10 131v229c0 11 0 117 -10 131c-14 21 -62 12 -62 53c0 34 32 35 59 35h316c29 0 56 -1 81 16
c10 7 20 15 32 15c14 0 21 -8 29 -19l90 -129c5 -7 9 -17 9 -26c0 -15 -12 -29 -27 -29c-14 0 -28 14 -39 22c-34 27 -70 50 -113 61c-31 8 -63 10 -95 10c-68 0 -100 3 -100 -72c0 -58 -4 -87 59 -87c26 0 33 1 49 22c9 12 21 30 37 30c14 0 24 -10 31 -21l83 -124
c5 -8 10 -17 10 -26c0 -17 -15 -32 -32 -32c-14 0 -32 14 -43 22c-46 34 -67 47 -125 47c-70 0 -71 -20 -71 -86v-18c0 -22 1 -43 1 -65c1 -71 10 -83 81 -83c48 0 117 -2 163 5c55 8 92 30 135 64c10 8 32 28 45 28c18 0 30 -12 30 -30z" />
    <glyph glyph-name="F" unicode="F" horiz-adv-x="683" 
d="M686 507c0 -15 -9 -29 -25 -29c-23 0 -51 29 -67 42c-63 51 -146 63 -224 63c-26 0 -84 2 -100 -23c-7 -11 -8 -25 -8 -37v-31c0 -53 10 -59 62 -59c38 0 48 -2 76 23c9 8 16 12 28 12c17 0 25 -11 33 -24l65 -110c5 -8 9 -18 9 -28c0 -18 -13 -30 -31 -30
c-19 0 -38 19 -52 30c-38 30 -75 42 -123 42c-67 0 -67 -11 -67 -76v-166c0 -47 64 -22 64 -70c0 -35 -34 -36 -61 -36h-183c-27 0 -59 1 -59 35c0 40 49 31 62 53c10 17 10 117 10 131v189c0 52 0 105 -5 157c-2 25 -12 25 -34 33c-19 6 -33 14 -33 36c0 33 31 33 57 33
h366c28 0 42 1 65 17c11 7 22 16 36 16c18 0 31 -13 40 -27l88 -137c5 -8 11 -20 11 -29z" />
    <glyph glyph-name="G" unicode="G" horiz-adv-x="789" 
d="M765 36c0 -36 -29 -36 -58 -36h-202c-130 0 -281 14 -382 105c-63 57 -100 141 -100 226c0 212 200 343 396 343c43 0 86 -11 129 -11c26 0 28 30 55 30c22 0 31 -19 38 -37c11 -25 65 -144 65 -165c0 -16 -11 -25 -26 -25c-12 0 -18 7 -26 14c-64 57 -133 106 -223 106
c-136 0 -207 -111 -207 -237c0 -146 91 -253 241 -253c64 0 81 12 81 77v51c0 81 -56 32 -56 85c0 35 27 38 56 38h158c29 0 59 1 59 -36c0 -22 -10 -27 -29 -33c-29 -9 -27 -25 -27 -53v-99c0 -21 -3 -44 20 -53c21 -8 38 -9 38 -37z" />
    <glyph glyph-name="H" unicode="H" horiz-adv-x="805" 
d="M782 35c0 -34 -32 -35 -59 -35h-195c-24 0 -51 2 -51 32c0 28 23 35 45 43c6 2 10 6 13 12c11 23 9 109 9 135c0 64 -2 85 -70 86c-24 0 -48 1 -72 1h-17c-21 0 -91 3 -108 -13c-15 -14 -15 -40 -15 -59c0 -41 1 -82 2 -123c0 -14 2 -28 16 -34c24 -10 47 -15 47 -46
c0 -27 -19 -34 -43 -34h-202c-27 0 -59 1 -59 35c0 40 49 31 62 53c10 17 10 118 10 131v229c0 10 0 117 -10 131c-14 21 -62 12 -62 53c0 34 32 35 59 35h198c27 0 51 -4 51 -36c0 -53 -61 -16 -64 -64c-2 -31 -2 -61 -2 -92c0 -63 -1 -76 66 -76h139c63 0 74 11 74 74
c0 23 -1 46 -1 69c0 21 2 45 -22 52c-23 6 -43 9 -43 38c0 27 24 35 47 35h198c29 0 59 4 59 -32c0 -40 -49 -31 -62 -53c-10 -17 -10 -118 -10 -131v-232c0 -11 0 -116 10 -131c15 -23 62 -13 62 -53z" />
    <glyph glyph-name="I" unicode="I" horiz-adv-x="357" 
d="M333 35c0 -34 -32 -35 -59 -35h-192c-27 0 -59 1 -59 35c0 40 49 31 62 53c10 17 10 119 10 131v229c0 10 0 117 -10 131c-14 21 -62 12 -62 53c0 34 32 35 59 35h192c28 0 59 0 59 -36c0 -39 -48 -31 -61 -52c-10 -17 -10 -119 -10 -131v-229c0 -13 0 -113 10 -131
c13 -23 61 -13 61 -53z" />
    <glyph glyph-name="J" unicode="J" horiz-adv-x="536" 
d="M519 631c0 -39 -47 -31 -61 -52c-8 -12 -8 -54 -8 -68c-3 -88 -2 -176 -2 -264v-60c0 -57 -16 -109 -60 -147c-45 -38 -106 -56 -164 -56c-113 0 -222 78 -222 198c0 70 48 146 125 146c55 0 97 -34 97 -91c0 -19 -7 -60 -33 -60h-13c-25 0 -39 -19 -39 -43
c0 -36 30 -57 64 -57c58 0 69 38 75 89c3 27 3 54 3 81v201c0 15 -1 117 -10 131c-14 21 -61 12 -61 53c0 35 32 35 59 35h191c28 0 59 -1 59 -36z" />
    <glyph glyph-name="K" unicode="K" horiz-adv-x="716" 
d="M716 31c0 -28 -15 -31 -40 -31h-206c-23 0 -45 3 -45 31c0 37 50 30 50 63c0 17 -17 56 -24 71l-106 224l-83 -73v-97c0 -11 0 -116 10 -131c15 -23 62 -13 62 -53c0 -34 -32 -35 -59 -35h-193c-27 0 -59 1 -59 35c0 40 49 31 62 53c10 17 10 118 10 131v229
c0 10 0 117 -10 131c-14 21 -62 12 -62 53c0 34 32 35 59 35h185c30 0 61 2 61 -36c0 -23 -12 -27 -32 -34c-32 -11 -29 -33 -30 -63c0 -10 -1 -20 -1 -30v-77l123 104c14 12 40 36 40 56c0 27 -44 14 -44 50c0 23 16 30 37 30h165c23 0 46 -1 46 -30c0 -17 -11 -28 -27 -32
l-20 -5c-38 -10 -65 -52 -88 -79c-5 -6 -16 -19 -16 -27c0 -7 7 -24 10 -31l147 -328c15 -33 22 -51 54 -68c16 -8 24 -17 24 -36z" />
    <glyph glyph-name="L" unicode="L" horiz-adv-x="662" 
d="M653 159c0 -9 -5 -19 -10 -27l-88 -142c-7 -12 -18 -25 -33 -25c-17 0 -26 11 -37 22c-13 14 -49 13 -66 13h-337c-27 0 -59 1 -59 35c0 40 49 31 62 53c10 17 10 118 10 131v232c0 11 0 116 -10 131c-15 23 -62 13 -62 53c0 35 32 32 59 32h192c28 0 58 4 58 -32
c0 -41 -48 -31 -61 -53c-10 -17 -10 -118 -10 -131v-217c0 -20 -2 -112 13 -127c14 -15 77 -14 96 -14c103 0 129 9 212 70c12 8 29 23 44 23s27 -12 27 -27z" />
    <glyph glyph-name="M" unicode="M" horiz-adv-x="1021" 
d="M1024 35c0 -25 -20 -35 -42 -35h-227c-21 0 -39 12 -39 34c0 46 55 27 55 65c0 14 -7 36 -11 51l-59 241l-175 -341c-8 -15 -21 -48 -42 -48s-35 29 -43 45l-169 357l-85 -274c-4 -12 -7 -25 -7 -38c0 -37 46 -20 46 -61c0 -27 -19 -31 -42 -31h-156c-18 0 -31 13 -31 31
c0 21 14 27 32 34c33 13 36 29 46 62l116 393c4 14 7 30 7 44c0 38 -52 30 -52 68c0 32 29 35 55 35h175c23 0 46 -6 46 -33c0 -37 -48 -35 -48 -62c0 -11 6 -23 11 -33l117 -230c3 -7 12 -25 21 -25c10 0 17 19 21 26l112 229c5 9 9 21 9 31c0 39 -55 25 -55 66
c0 27 24 31 46 31h180c25 0 50 -1 50 -32c0 -42 -58 -30 -58 -67c0 -15 5 -31 9 -46l106 -392c10 -36 16 -44 50 -59c18 -7 31 -15 31 -36z" />
    <glyph glyph-name="N" unicode="N" horiz-adv-x="766" 
d="M749 631c0 -40 -50 -32 -61 -52c-8 -14 -8 -52 -8 -68c-5 -148 -2 -297 -2 -445c0 -74 8 -66 -70 -66c-35 0 -31 5 -31 37c0 51 -15 72 -49 108l-290 307c-5 6 -17 17 -25 17c-16 0 -13 -53 -13 -62v-188c0 -13 0 -113 10 -131c13 -23 61 -13 61 -53
c0 -34 -32 -35 -59 -35h-130c-27 0 -59 1 -59 35c0 40 49 31 62 53c10 17 10 119 10 131v229c0 10 0 117 -10 131c-14 21 -62 12 -62 53c0 34 32 35 59 35h153c40 0 48 -8 76 -36l227 -227c7 -7 19 -19 29 -19c12 0 11 21 11 29v117c0 105 -68 48 -68 105c0 28 20 31 43 31
h137c28 0 59 0 59 -36z" />
    <glyph glyph-name="O" unicode="O" horiz-adv-x="799" 
d="M776 310c0 -224 -175 -323 -380 -323c-201 0 -373 90 -373 312c0 210 166 381 377 381c205 0 376 -163 376 -370zM574 302c0 38 -3 76 -11 114c-18 80 -67 183 -163 183c-136 0 -171 -178 -171 -283c0 -114 36 -239 172 -239c129 0 173 114 173 225z" />
    <glyph glyph-name="P" unicode="P" horiz-adv-x="691" 
d="M681 391c0 -106 -73 -165 -171 -184c-62 -12 -126 -11 -189 -11h-21c-21 0 -31 1 -34 -22c-2 -14 -1 -28 -1 -42c0 -33 -4 -54 31 -64c20 -6 34 -12 34 -35c0 -34 -31 -33 -58 -33h-190c-27 0 -59 1 -59 35c0 40 49 31 62 53c10 16 10 115 10 131v277c0 24 2 74 -17 92
c-6 6 -13 8 -21 11c-18 6 -32 12 -32 34c0 9 2 17 9 22c21 19 97 17 123 17c59 0 117 -2 176 -6c135 -9 283 -54 333 -194c9 -26 15 -53 15 -81zM485 419c0 90 -77 167 -167 167c-59 0 -55 -37 -56 -88c0 -21 -1 -42 -1 -63v-12c0 -29 -7 -121 25 -137c13 -6 34 -6 48 -6
c84 0 151 51 151 139z" />
    <glyph glyph-name="Q" unicode="Q" horiz-adv-x="806" 
d="M783 309c0 -74 -21 -142 -70 -198c-25 -29 -47 -44 -80 -64c18 -18 40 -40 67 -40s40 22 57 22c10 0 21 -8 21 -19s-10 -23 -16 -31l-71 -92c-7 -9 -17 -16 -29 -16c-27 0 -74 30 -94 47c-28 23 -49 52 -68 83c-37 -11 -74 -16 -113 -16c-190 0 -364 99 -364 308
c0 215 168 389 384 389c204 0 376 -168 376 -373zM578 296c0 108 -35 308 -178 308c-136 0 -169 -174 -169 -279c0 -114 29 -251 169 -251c18 0 35 4 52 9c-19 31 -48 63 -87 63c-27 0 -37 -16 -46 -16s-10 17 -10 22c0 49 54 79 97 79c64 0 104 -33 144 -79
c25 42 28 97 28 144z" />
    <glyph glyph-name="R" unicode="R" horiz-adv-x="763" 
d="M752 35c0 -28 -20 -35 -45 -35h-226c-23 0 -43 8 -43 34c0 41 49 34 49 51c0 10 -10 18 -16 25l-78 80c-22 -3 -44 -5 -66 -5c-21 0 -41 2 -61 5c-3 -16 -3 -32 -3 -48c0 -21 -4 -62 22 -69c23 -6 47 -9 47 -39s-28 -34 -52 -34h-198c-27 0 -59 1 -59 35
c0 40 49 31 62 53c10 16 10 116 10 131v229c0 13 0 117 -10 131c-15 21 -62 12 -62 53c0 34 32 35 59 35h202c104 0 212 -8 305 -60c76 -43 135 -112 135 -203c0 -102 -67 -153 -159 -179l97 -112c13 -15 29 -30 48 -37c22 -8 42 -13 42 -41zM524 416c0 94 -68 173 -165 173
c-70 0 -99 -21 -98 -93c0 -44 1 -88 1 -132c1 -72 14 -97 89 -97c94 0 173 47 173 149z" />
    <glyph glyph-name="S" unicode="S" horiz-adv-x="721" 
d="M697 201c0 -151 -126 -213 -261 -213c-52 0 -107 6 -157 17c-18 4 -37 8 -55 12c-14 3 -31 10 -46 10c-22 0 -28 -41 -59 -41c-18 0 -30 14 -38 29l-82 159c-4 7 -6 15 -6 23c0 14 9 26 24 26c22 0 48 -24 65 -37c47 -36 97 -64 155 -80c47 -13 97 -22 146 -22
c50 0 126 19 126 82c0 66 -88 95 -138 115c-73 29 -193 72 -253 123c-37 31 -58 73 -58 121c0 119 110 156 211 156c46 0 89 -10 134 -18c5 -1 11 -1 16 -1c25 0 31 30 56 30c12 0 25 -11 32 -20l102 -136c5 -7 10 -16 10 -24c0 -15 -12 -25 -26 -25
c-33 0 -152 111 -271 111c-31 0 -66 -13 -66 -49c0 -8 2 -16 8 -23c18 -22 89 -45 115 -55l79 -29c52 -19 116 -46 160 -80c50 -39 77 -98 77 -161z" />
    <glyph glyph-name="T" unicode="T" horiz-adv-x="736" 
d="M739 496c0 -16 -10 -28 -26 -28c-43 0 -82 111 -206 111c-60 0 -59 -16 -59 -72v-288c0 -11 0 -117 10 -131c16 -23 62 -13 62 -53c0 -34 -32 -35 -59 -35h-192c-27 0 -59 0 -59 35c0 40 48 30 61 53c10 17 10 118 10 131v297c0 49 -2 65 -54 65
c-117 0 -163 -114 -203 -114c-16 0 -27 11 -27 27c0 12 5 24 11 34l85 147c7 11 17 22 31 22c11 0 21 -6 29 -13c21 -16 33 -17 59 -17h308c26 0 52 0 75 15c10 6 20 15 32 15c19 0 28 -15 35 -30l69 -143c4 -8 8 -19 8 -28z" />
    <glyph glyph-name="U" unicode="U" horiz-adv-x="687" 
d="M667 637c0 -54 -60 -10 -60 -78c0 -21 2 -41 4 -62l18 -234c1 -19 2 -37 2 -56c0 -54 -3 -110 -42 -151c-54 -57 -157 -68 -231 -68c-140 0 -297 31 -297 202c0 27 3 54 5 81l20 251c1 12 1 24 1 36c0 59 -61 23 -61 72c0 27 19 37 44 37h202c27 0 55 -1 55 -35
c0 -21 -14 -28 -32 -33c-9 -2 -18 -4 -25 -10c-18 -13 -18 -66 -19 -86l-12 -223c-1 -20 -2 -40 -2 -60c0 -38 2 -78 29 -107c30 -32 72 -39 114 -39c95 0 151 36 151 136c0 19 -1 39 -2 58l-13 214c-1 24 -2 88 -19 107c-6 7 -15 11 -24 14c-17 6 -31 13 -31 33
c0 24 18 31 39 31h146c22 0 40 -5 40 -30z" />
    <glyph glyph-name="V" unicode="V" horiz-adv-x="733" 
d="M754 636c0 -45 -52 -23 -79 -89l-211 -513c-8 -19 -11 -34 -34 -34h-108c-37 0 -39 -1 -53 33l-210 509c-13 32 -19 40 -51 54c-18 8 -29 16 -29 37c0 26 17 34 41 34h226c23 0 45 -6 45 -33c0 -48 -55 -29 -55 -67c0 -8 4 -18 7 -25l150 -355l142 355c4 10 9 21 9 32
c0 37 -48 19 -48 60c0 24 17 33 39 33h181c22 0 38 -7 38 -31z" />
    <glyph glyph-name="W" unicode="W" horiz-adv-x="1034" 
d="M1054 634c0 -24 -15 -30 -35 -37c-24 -9 -30 -24 -39 -46l-224 -523c-12 -29 -12 -28 -44 -28h-53c-32 0 -34 -2 -46 27l-103 247l-87 -237c-11 -31 -13 -37 -47 -37h-64c-30 0 -37 7 -48 34l-215 513c-7 17 -15 39 -33 47s-37 14 -37 37c0 30 22 36 48 36h200
c27 0 53 -2 53 -35c0 -43 -52 -22 -52 -55c0 -9 2 -17 5 -25l143 -334l71 197c2 7 4 14 4 21c0 42 -60 17 -60 62c0 31 29 36 54 36h176c24 0 52 -5 52 -35c0 -44 -57 -29 -57 -58c0 -10 6 -24 10 -33l85 -190l138 325c4 9 8 18 8 28c0 44 -51 23 -51 64c0 23 19 32 40 32
h165c24 0 43 -5 43 -33z" />
    <glyph glyph-name="X" unicode="X" horiz-adv-x="734" 
d="M737 34c0 -24 -18 -34 -40 -34h-243c-22 0 -40 8 -40 33c0 40 54 32 54 60c0 10 -12 29 -18 37l-93 122l-118 -135c-6 -7 -17 -20 -17 -30c0 -30 44 -13 44 -55c0 -23 -16 -32 -37 -32h-195c-20 0 -37 8 -37 30c0 24 20 30 39 36c22 7 41 23 56 41l200 230l-154 214
c-16 22 -38 39 -64 47c-21 6 -37 11 -37 36c0 20 15 33 35 33h266c24 0 41 -4 41 -31c0 -42 -54 -26 -54 -56c0 -9 7 -19 12 -26l75 -104l96 105c6 7 14 20 14 29c0 27 -42 15 -42 51c0 22 16 32 37 32h178c21 0 39 -7 39 -31c0 -15 -5 -23 -19 -30c-25 -12 -56 -26 -75 -47
l-168 -191l171 -244c15 -21 32 -37 55 -49c19 -10 39 -15 39 -41z" />
    <glyph glyph-name="Y" unicode="Y" horiz-adv-x="712" 
d="M732 636c0 -22 -13 -26 -32 -33c-20 -7 -30 -15 -42 -32l-176 -242c-25 -34 -27 -37 -27 -80v-87c0 -20 -2 -69 16 -84c6 -6 15 -8 23 -10c17 -5 30 -16 30 -35c0 -29 -26 -33 -50 -33h-217c-21 0 -35 13 -35 34c0 20 12 30 30 35c35 10 37 17 37 54v85
c0 43 -4 46 -28 79l-192 263c-9 12 -19 28 -32 36c-21 13 -58 19 -58 50c0 25 23 31 44 31h240c21 0 37 -9 37 -32c0 -39 -46 -28 -46 -51c0 -14 22 -38 30 -48l112 -145l119 166c6 8 12 20 12 30c0 23 -41 17 -41 50c0 20 17 30 35 30h168c23 0 43 -3 43 -31z" />
    <glyph glyph-name="Z" unicode="Z" horiz-adv-x="726" 
d="M710 178c0 -10 -6 -22 -11 -30l-84 -138c-9 -15 -22 -42 -42 -42c-14 0 -26 12 -36 20c-14 11 -30 11 -47 11c-150 4 -301 0 -451 0c-15 0 -49 1 -49 22c0 13 9 20 16 29l402 494c5 6 15 18 15 26c0 12 -34 9 -43 9c-18 0 -37 1 -56 1c-36 0 -85 -2 -120 -12
c-40 -12 -72 -38 -103 -64c-11 -9 -28 -26 -43 -26c-14 0 -26 11 -26 25c0 7 6 15 9 21l92 150c7 11 14 22 29 22c10 0 17 -7 24 -14c17 -17 35 -15 58 -15h384c15 0 68 5 68 -20c0 -10 -9 -21 -15 -28l-387 -479c-4 -5 -23 -27 -23 -34c0 -13 30 -13 38 -13h57
c66 0 136 3 197 32c32 15 60 36 88 58c10 8 23 19 37 19s22 -11 22 -24z" />
    <glyph glyph-name="bracketleft" unicode="[" horiz-adv-x="365" 
d="M338 -125c0 -28 -7 -29 -34 -29h-150c-44 0 -47 6 -47 50v720c0 44 3 51 47 51h150c24 0 34 -1 34 -27s-4 -28 -29 -30c-10 -1 -50 0 -59 -9c-7 -6 -5 -20 -5 -29v-633c0 -8 -1 -21 5 -28c7 -7 51 -7 59 -8c23 -2 29 -4 29 -28z" />
    <glyph glyph-name="backslash" unicode="\" 
d="M456 -83h-110l-319 833h110z" />
    <glyph glyph-name="bracketright" unicode="]" horiz-adv-x="365" 
d="M258 616v-720c0 -48 -5 -50 -52 -50h-145c-24 0 -34 1 -34 27c0 25 4 28 29 30c8 1 52 1 59 8c6 7 5 20 5 29v632c0 9 2 23 -5 29c-9 9 -49 8 -59 9c-23 2 -29 4 -29 28c0 28 8 29 34 29h150c44 0 47 -7 47 -51z" />
    <glyph glyph-name="asciicircum" unicode="^" 
d="M490 343h-120l-120 237l-120 -237h-119l165 327h148z" />
    <glyph glyph-name="underscore" unicode="_" 
d="M500 -154h-500v102h500v-102z" />
    <glyph glyph-name="quoteleft" unicode="&#x2018;" horiz-adv-x="217" 
d="M177 455c0 -36 -6 -40 -41 -40h-53c-41 0 -43 6 -43 46v65c0 74 27 148 113 148c14 0 24 -10 24 -24c0 -28 -51 -18 -51 -69c0 -54 51 8 51 -64v-62z" />
    <glyph glyph-name="a" unicode="a" horiz-adv-x="551" 
d="M577 48c0 -44 -59 -56 -93 -56c-53 0 -83 14 -113 58c-59 -38 -114 -58 -184 -58c-79 0 -164 44 -164 133c0 111 130 155 222 155c18 0 37 -2 55 -3c-17 49 -38 99 -97 99c-24 0 -57 -6 -77 -21c-13 -10 -26 -23 -43 -23c-12 0 -22 10 -22 22c0 28 39 58 61 70
c33 19 82 31 120 31c54 0 117 -19 148 -66c20 -30 35 -69 46 -104l47 -153c7 -23 28 -64 56 -64c9 0 17 6 23 12c9 -9 15 -19 15 -32zM342 115c0 46 -24 107 -78 107c-44 0 -95 -22 -95 -73c0 -52 46 -82 94 -82c28 0 79 12 79 48z" />
    <glyph glyph-name="b" unicode="b" horiz-adv-x="551" 
d="M531 208c0 -117 -73 -212 -195 -212c-55 0 -80 15 -128 39c-6 3 -12 6 -19 6c-20 0 -70 -49 -108 -49c-26 0 -23 18 -23 39v407c0 23 5 98 -21 111c-13 7 -34 13 -34 31c0 11 8 21 18 26l125 60c8 4 19 8 28 8c19 0 17 -25 17 -38v-224c36 19 73 32 114 32
c124 0 226 -115 226 -236zM402 247c0 65 -37 133 -109 133c-79 0 -102 -66 -102 -134c0 -61 7 -163 90 -163c79 0 121 97 121 164z" />
    <glyph glyph-name="c" unicode="c" horiz-adv-x="487" 
d="M495 128c0 -29 -42 -67 -63 -83c-46 -35 -98 -52 -156 -52c-133 0 -257 76 -257 221c0 150 128 239 269 239c54 0 123 -13 169 -42c10 -6 16 -11 16 -23c0 -17 -40 -92 -49 -111c-4 -9 -10 -19 -22 -19c-13 0 -17 10 -21 20c-3 8 -5 17 -8 25c-15 45 -44 95 -97 95
c-78 0 -103 -87 -103 -151c0 -90 42 -184 144 -184c92 0 127 87 157 87c13 0 21 -9 21 -22z" />
    <glyph glyph-name="d" unicode="d" horiz-adv-x="569" 
d="M559 42c0 -17 -14 -27 -30 -29l-129 -19h-9c-35 0 -21 41 -26 67c-47 -45 -84 -69 -150 -69c-124 0 -196 90 -196 210c0 128 91 247 226 247c46 0 80 -14 120 -35v46c0 13 -1 26 -1 39c-1 37 -1 41 -35 55c-12 5 -22 11 -22 25c0 17 14 23 27 29l119 55c5 2 16 8 22 8
c24 0 23 -23 23 -40c0 -35 1 -70 1 -105v-286c0 -31 -2 -120 12 -147c5 -9 11 -14 19 -18c15 -8 29 -13 29 -33zM365 206c0 75 -9 181 -109 181c-74 0 -102 -66 -102 -131c0 -73 47 -165 130 -165c66 0 81 60 81 115z" />
    <glyph glyph-name="e" unicode="e" horiz-adv-x="501" 
d="M509 125c0 -24 -30 -52 -47 -65c-54 -43 -135 -67 -203 -67c-135 0 -240 88 -240 227c0 132 112 232 241 232c66 0 131 -29 173 -80c12 -14 42 -58 42 -76c0 -10 -52 -29 -61 -36l-216 -95c25 -55 70 -91 132 -91c49 0 93 23 127 56c8 8 17 19 30 19c14 0 22 -11 22 -24z
M318 287c0 12 -10 33 -16 43c-17 30 -45 56 -81 56c-48 0 -69 -40 -69 -84c0 -15 8 -85 28 -85c11 0 97 41 110 47c9 4 28 11 28 23z" />
    <glyph glyph-name="f" unicode="f" horiz-adv-x="304" 
d="M311 584c0 -41 -34 -71 -74 -71c-30 0 -58 14 -73 40c12 4 22 8 22 22c0 15 -17 23 -30 23c-18 0 -35 -15 -35 -34c0 -36 78 -74 92 -130h69c12 0 16 -2 16 -15c0 -20 -4 -61 -31 -63h-19c-12 0 -23 -3 -35 -2v-158c0 -27 -2 -97 15 -120c6 -7 14 -11 22 -15
c15 -7 24 -14 24 -32c0 -26 -25 -29 -46 -29h-163c-21 0 -48 3 -48 30c0 16 12 24 25 31c8 4 16 8 22 15c17 21 14 94 14 120v78c0 26 -3 52 -3 78l-1 5c-8 0 -17 1 -25 1c-36 2 -39 -3 -41 37c0 8 -1 15 -1 23c0 19 15 16 30 16h41c-25 42 -59 66 -59 119
c0 83 83 123 156 123c53 0 136 -26 136 -92z" />
    <glyph glyph-name="g" unicode="g" horiz-adv-x="531" 
d="M545 -32c0 -34 -18 -69 -47 -88c-52 -34 -148 -44 -209 -44c-59 0 -283 13 -283 102c0 41 44 58 76 72c-29 11 -73 25 -73 62c0 35 42 68 69 84c4 2 19 9 19 16c-2 3 -4 5 -7 7c-37 31 -56 53 -56 103c0 118 137 166 235 166h18c25 63 61 124 137 124c36 0 76 -16 76 -58
c0 -29 -20 -51 -50 -51c-20 0 -38 9 -58 9c-23 0 -36 -8 -41 -31c40 -11 76 -23 106 -54c25 -26 38 -57 38 -93c0 -117 -134 -157 -230 -157c-25 0 -51 2 -76 6c-9 1 -17 3 -26 3c-10 0 -21 -7 -21 -18c0 -5 3 -9 8 -11c24 -14 146 -26 175 -29c73 -9 220 -15 220 -120z
M336 300c0 49 -14 99 -72 99c-59 0 -69 -55 -69 -103c0 -47 12 -104 70 -104c60 0 71 61 71 108zM393 -67c0 20 -38 22 -51 24l-131 19c-16 2 -32 4 -48 4c-19 0 -40 -9 -40 -31c0 -49 171 -47 199 -47c19 0 71 2 71 31z" />
    <glyph glyph-name="h" unicode="h" horiz-adv-x="561" 
d="M575 27c0 -20 -14 -27 -32 -27h-178c-18 0 -45 4 -45 27c0 36 49 27 49 65c0 43 -32 159 -47 203c-9 27 -21 55 -54 55c-69 0 -61 -99 -61 -143c0 -27 -4 -108 13 -130c6 -8 15 -12 23 -16c13 -7 25 -15 25 -31c0 -27 -27 -30 -48 -30h-160c-22 0 -47 3 -47 30
c0 16 11 24 24 31c8 4 17 8 23 16c16 21 13 93 13 118v253c0 17 2 59 -11 71c-5 5 -12 7 -19 10c-13 5 -23 9 -23 25c0 14 9 22 20 29l123 78c7 4 14 9 23 9c21 0 21 -25 21 -40v-244c35 32 66 60 115 60c110 0 132 -129 154 -212c6 -23 12 -47 18 -70c8 -34 16 -83 49 -102
c16 -9 32 -14 32 -35z" />
    <glyph glyph-name="i" unicode="i" horiz-adv-x="280" 
d="M207 587c0 -25 -14 -40 -34 -53c-24 -16 -55 -29 -84 -29c-27 0 -47 19 -47 46c0 45 77 80 116 80c26 0 49 -16 49 -44zM268 30c0 -27 -27 -30 -48 -30h-160c-22 0 -47 3 -47 30c0 16 11 24 24 31c8 4 16 8 22 15c17 21 14 94 14 120v82c0 26 4 46 -23 56
c-13 5 -27 11 -27 27c0 17 15 24 29 30c20 9 122 58 140 58c17 0 16 -21 16 -33v-209c0 -26 -4 -108 11 -129c6 -8 15 -13 24 -17c13 -6 25 -15 25 -31z" />
    <glyph glyph-name="j" unicode="j" horiz-adv-x="269" 
d="M220 594c0 -49 -77 -87 -120 -87c-26 0 -46 15 -46 42c0 47 76 88 117 88c26 0 49 -15 49 -43zM215 -24c0 -86 -32 -132 -122 -132c-55 0 -107 20 -107 83c0 7 3 31 13 31c7 0 20 -22 45 -22c8 0 16 2 21 8c19 19 17 87 17 111v228c0 37 -2 46 -37 58c-11 4 -20 9 -20 22
c0 11 7 21 17 25l132 56c5 2 16 7 22 7c22 0 19 -33 19 -48v-427z" />
    <glyph glyph-name="k" unicode="k" horiz-adv-x="539" 
d="M558 29c0 -24 -26 -29 -45 -29h-94c-44 0 -37 1 -55 36l-75 146c-6 11 -11 23 -18 33c-4 6 -8 11 -12 17l-53 -61c-1 -5 -1 -11 -1 -16c0 -37 -4 -77 36 -94c14 -6 25 -14 25 -30c0 -25 -24 -31 -45 -31h-161c-22 0 -47 3 -47 30c0 16 11 24 24 31c8 4 16 8 22 15
c17 21 14 94 14 120v252c0 14 1 60 -8 72c-3 4 -7 6 -12 7c-16 4 -45 9 -45 31c0 16 11 24 24 31l134 72c6 3 15 8 22 8c16 0 18 -19 18 -31v-368l72 74c7 7 14 18 14 28c0 21 -40 10 -40 41c0 18 16 27 32 27h156c20 0 39 -5 39 -29c0 -30 -34 -34 -56 -41
c-25 -8 -44 -25 -59 -46l114 -219c26 -51 80 -36 80 -76z" />
    <glyph glyph-name="l" unicode="l" horiz-adv-x="281" 
d="M268 30c0 -27 -25 -30 -47 -30h-161c-22 0 -47 3 -47 30c0 16 11 24 24 31c8 4 16 8 22 15c17 21 14 94 14 120v247c0 25 6 72 -24 82c-16 5 -35 8 -35 30c0 19 20 28 34 36l119 67c6 3 12 6 19 6c22 0 21 -32 21 -47v-410c0 -27 -3 -105 13 -128c6 -9 15 -13 24 -18
c13 -7 24 -15 24 -31z" />
    <glyph glyph-name="m" unicode="m" horiz-adv-x="848" 
d="M862 26c0 -20 -18 -26 -35 -26h-185c-20 0 -48 3 -48 29c0 36 62 28 62 65c0 12 -7 34 -10 45l-46 152c-9 29 -25 57 -59 57c-48 0 -61 -52 -61 -91v-58c0 -26 -2 -95 10 -118c12 -22 47 -26 47 -53c0 -24 -25 -28 -44 -28h-159c-19 0 -45 3 -45 28c0 34 48 25 54 75
c3 23 3 47 3 70v88c0 39 -7 90 -57 90c-52 0 -83 -47 -83 -95v-57c0 -22 -2 -99 10 -118c14 -24 47 -27 47 -53c0 -25 -25 -28 -44 -28h-159c-19 0 -44 4 -44 28c0 34 49 26 54 75c3 27 3 55 3 83v71c0 31 1 48 -31 57c-17 5 -32 10 -32 30c0 16 12 23 25 30
c20 11 135 74 151 74c17 0 20 -15 20 -29v-44c42 43 83 71 145 71c54 0 96 -23 122 -71c35 42 70 69 126 69c65 0 108 -42 126 -102l62 -203c14 -47 17 -61 58 -88c10 -6 17 -12 17 -25z" />
    <glyph glyph-name="n" unicode="n" horiz-adv-x="569" 
d="M583 29c0 -24 -21 -29 -41 -29h-177c-19 0 -37 6 -37 28c0 36 54 23 54 69c0 10 -3 20 -5 29l-34 134c-8 33 -29 94 -72 94c-52 0 -63 -61 -63 -102v-52c0 -26 -2 -96 10 -119c12 -22 47 -26 47 -53c0 -24 -25 -28 -44 -28h-160c-19 0 -44 4 -44 28c0 34 49 26 54 75
c3 26 3 53 3 79v73c0 25 0 51 -28 59c-14 4 -32 8 -32 26c0 11 10 22 19 27c20 11 139 78 154 78c28 0 21 -51 21 -69c37 34 68 66 121 66c85 0 121 -70 141 -143l44 -160c9 -33 12 -54 39 -77c13 -6 30 -17 30 -33z" />
    <glyph glyph-name="o" unicode="o" horiz-adv-x="561" 
d="M542 202c0 -147 -142 -209 -270 -209c-144 0 -253 75 -253 227c0 140 111 233 247 233c139 0 276 -105 276 -251zM398 150c0 53 -26 118 -56 161c-25 36 -70 84 -117 84c-51 0 -73 -47 -73 -92c0 -84 70 -240 168 -240c52 0 78 38 78 87z" />
    <glyph glyph-name="p" unicode="p" horiz-adv-x="560" 
d="M541 208c0 -106 -66 -219 -183 -219c-62 0 -112 29 -151 76v-16c0 -27 -4 -110 14 -132c6 -7 14 -11 22 -15c13 -7 25 -14 25 -30c0 -27 -27 -30 -48 -30h-159c-22 0 -47 3 -47 30c0 16 11 23 24 30c8 4 16 8 22 15c17 21 14 90 14 115v231c0 26 1 51 -28 59
c-17 5 -34 8 -34 29c0 13 13 22 23 27l120 64c7 4 15 6 23 6c33 0 29 -47 29 -70c39 41 76 72 135 72c122 0 199 -132 199 -242zM417 262c0 57 -35 118 -98 118c-82 0 -118 -89 -118 -159c0 -47 13 -127 75 -127c81 0 141 94 141 168z" />
    <glyph glyph-name="q" unicode="q" horiz-adv-x="548" 
d="M545 -129c0 -24 -25 -28 -44 -28h-159c-19 0 -44 3 -44 27c0 37 46 23 53 76c4 34 4 69 4 103c-47 -39 -89 -61 -151 -61c-111 0 -185 91 -185 198c0 130 94 262 233 262c29 0 56 -7 82 -20c9 -4 31 -17 41 -17c20 0 60 38 90 38c22 0 24 -26 24 -43v-355
c0 -21 -3 -110 9 -128c14 -21 47 -27 47 -52zM357 222c0 42 -3 84 -28 119c-19 27 -45 43 -78 43c-69 0 -102 -62 -102 -124c0 -52 23 -104 60 -140c20 -19 44 -36 73 -36c74 0 75 83 75 138z" />
    <glyph glyph-name="r" unicode="r" horiz-adv-x="423" 
d="M428 423c0 -6 -1 -12 -3 -18l-38 -114c-5 -14 -8 -26 -25 -26c-23 0 -26 54 -77 54c-69 0 -78 -68 -78 -122v-46c0 -41 -3 -70 36 -90c13 -7 25 -15 25 -31c0 -25 -25 -30 -45 -30h-162c-21 0 -48 3 -48 30c0 16 12 24 25 31c8 4 16 8 22 15c17 21 14 94 14 120v79
c0 35 -8 36 -36 41c-12 2 -22 15 -22 27c0 10 8 17 16 22l131 76c7 4 14 7 23 7c23 0 21 -25 22 -42c1 -19 -1 -39 2 -58c50 57 85 100 165 100c16 0 53 -2 53 -25z" />
    <glyph glyph-name="s" unicode="s" horiz-adv-x="489" 
d="M479 122c0 -90 -77 -141 -161 -141c-31 0 -64 3 -94 11c-18 5 -50 15 -68 15c-24 0 -25 -33 -49 -33c-16 0 -24 14 -30 27l-60 132c-3 6 -7 15 -7 22c0 10 7 17 17 17c13 0 21 -10 30 -19c53 -53 126 -92 202 -92c26 0 67 9 67 42c0 6 0 13 -4 18c-10 15 -61 34 -77 41
l-60 25c-67 28 -148 56 -148 144c0 81 65 122 140 122c45 0 83 -10 126 -22c5 -1 11 -3 16 -3c20 0 33 27 48 27c14 0 20 -11 26 -22l55 -105c2 -5 8 -14 8 -20c0 -11 -8 -16 -18 -16c-9 0 -15 5 -22 10c-55 43 -111 83 -185 83c-21 0 -48 -4 -48 -31c0 -7 1 -14 6 -20
c14 -17 71 -36 91 -43c51 -18 133 -42 169 -85c19 -24 30 -54 30 -84z" />
    <glyph glyph-name="t" unicode="t" horiz-adv-x="357" 
d="M374 84c0 -26 -34 -50 -54 -61c-31 -17 -77 -27 -112 -27c-48 0 -140 26 -140 87c0 12 1 24 3 36c5 38 7 76 7 115c0 37 1 75 -4 112c-3 23 -13 20 -34 20c-20 0 -45 -5 -45 22c0 15 8 24 18 34c7 7 16 14 23 21c46 46 86 97 125 149c8 10 14 18 27 18
c19 0 20 -16 20 -31v-99c0 -7 -1 -30 6 -35c8 -6 113 -3 129 -3c12 0 20 -1 20 -15c0 -16 -7 -59 -30 -59h-31c-18 0 -36 1 -54 1c-40 0 -36 2 -36 -43v-91c0 -18 1 -36 1 -54c0 -22 -1 -81 19 -97c7 -6 18 -7 27 -7c43 0 63 33 87 33c15 0 28 -10 28 -26z" />
    <glyph glyph-name="u" unicode="u" horiz-adv-x="542" 
d="M526 28c0 -25 -25 -28 -44 -28h-117c-37 0 -29 25 -29 57c-42 -38 -87 -72 -146 -72c-34 0 -71 14 -92 41c-24 30 -28 72 -30 109l-6 139c-1 25 3 55 -26 62c-16 4 -29 6 -29 25c0 15 12 23 24 28c20 9 121 56 136 56c24 0 23 -33 24 -50l2 -52l5 -129
c1 -39 2 -137 59 -137s81 51 80 101l-1 85c0 19 2 58 -22 64c-16 4 -36 5 -36 27c0 16 14 23 27 29l113 52c8 4 18 8 27 8c33 0 25 -65 25 -85v-56v-94c0 -23 -3 -106 9 -127c13 -23 47 -27 47 -53z" />
    <glyph glyph-name="v" unicode="v" horiz-adv-x="504" 
d="M520 410c0 -22 -15 -26 -32 -34c-32 -15 -38 -40 -50 -71l-111 -279c-8 -20 -9 -26 -32 -26h-75c-16 0 -19 2 -26 16c-4 7 -8 14 -11 21l-126 289c-8 18 -19 38 -37 48c-16 9 -37 16 -37 38c0 21 19 29 37 29h178c21 0 38 -3 38 -28c0 -37 -41 -28 -41 -54
c0 -10 3 -23 7 -32l75 -181l66 180c4 11 8 26 8 38c0 30 -38 18 -38 50c0 25 22 27 42 27h123c22 0 42 -5 42 -31z" />
    <glyph glyph-name="w" unicode="w" horiz-adv-x="818" 
d="M835 415c0 -20 -16 -25 -31 -34c-23 -14 -37 -37 -48 -61l-129 -287c-15 -34 -9 -33 -47 -33h-50c-33 0 -31 1 -42 30l-75 200l-80 -203c-11 -27 -14 -27 -43 -27h-52c-11 0 -36 -1 -40 12c-2 2 -8 17 -9 20l-115 271c-17 39 -25 58 -65 75c-15 7 -26 16 -26 33
c0 24 21 30 41 30h185c24 0 43 -6 43 -33c0 -41 -51 -29 -51 -54c0 -22 75 -172 84 -191l62 155c4 10 7 25 7 36c0 32 -46 26 -46 58c0 21 19 29 37 29h173c23 0 44 -4 44 -31c0 -39 -49 -29 -49 -55c0 -11 5 -26 9 -36l61 -155l69 157c5 12 10 26 10 39c0 35 -43 21 -43 56
c0 22 19 25 37 25h142c18 0 37 -4 37 -26z" />
    <glyph glyph-name="x" unicode="x" horiz-adv-x="543" 
d="M551 27c0 -27 -30 -27 -50 -27h-181c-19 0 -41 2 -41 26c0 27 40 27 40 47c0 10 -7 21 -14 28l-45 48l-56 -57c-6 -6 -12 -16 -12 -25c0 -23 37 -14 37 -44c0 -25 -27 -23 -45 -23h-157c-17 0 -41 3 -41 25c0 24 27 31 46 38c29 11 57 27 79 49l69 70c5 5 20 20 20 27
c0 4 -15 23 -17 26l-98 113c-17 19 -37 32 -59 43c-8 4 -14 12 -14 22c0 23 22 28 41 28h172c23 0 48 0 48 -29c0 -33 -37 -22 -37 -44c0 -11 8 -20 15 -28l46 -50c14 13 64 54 64 80c0 25 -39 18 -39 45c0 22 20 26 38 26h148c19 0 39 -3 39 -26s-27 -33 -44 -42
c-14 -8 -39 -29 -51 -40l-78 -76c-4 -4 -17 -15 -17 -21c0 -4 10 -17 13 -20l101 -118c12 -14 25 -24 41 -33c15 -8 39 -18 39 -38z" />
    <glyph glyph-name="y" unicode="y" horiz-adv-x="498" 
d="M514 413c0 -21 -15 -26 -31 -35c-34 -19 -52 -51 -67 -86l-122 -275c-35 -79 -87 -166 -184 -166c-47 0 -70 10 -80 58c-5 23 -18 71 -18 93c0 14 7 26 22 26c33 0 31 -71 95 -71c36 0 58 31 72 60l-143 306c-11 24 -19 42 -43 54c-17 8 -32 12 -32 33c0 23 16 29 36 29
h177c18 0 38 -2 38 -25c0 -36 -42 -22 -42 -52c0 -6 6 -30 9 -36l73 -155l66 148c5 11 10 28 10 40c0 29 -43 22 -43 53c0 23 15 27 35 27h136c19 0 36 -4 36 -26z" />
    <glyph glyph-name="z" unicode="z" horiz-adv-x="519" 
d="M526 417c0 -11 -8 -21 -15 -29c-18 -21 -35 -43 -54 -63l-172 -181c-4 -4 -52 -49 -52 -60c0 -9 15 -10 21 -10c78 0 135 11 196 62c10 8 29 29 44 29c10 0 16 -8 16 -17c0 -6 -2 -11 -4 -16l-72 -144c-6 -12 -14 -23 -28 -23c-13 0 -21 7 -29 16c-5 5 -9 10 -16 13
c-17 8 -61 6 -80 6h-227c-19 0 -55 1 -55 28c0 30 67 87 85 104c69 67 138 134 205 203c5 5 16 16 16 24s-13 7 -18 7h-19c-77 0 -117 -7 -176 -58c-11 -9 -25 -25 -40 -25c-13 0 -20 9 -20 21c0 15 56 115 61 125c8 15 21 43 41 43c14 0 21 -9 31 -18c19 -16 56 -16 80 -16
h188c15 0 29 -1 44 -1c14 0 49 2 49 -20z" />
    <glyph glyph-name="braceleft" unicode="{" 
d="M394 -191c-20 -1 -41 -2 -61 -2c-105 0 -151 38 -151 145v158c0 44 -8 78 -55 88v95c43 9 55 38 55 79v162c0 107 49 141 152 141h31c10 0 19 -1 29 -1v-99h-15c-54 0 -78 -3 -83 -61c-4 -45 -1 -103 -1 -149c0 -60 -8 -90 -60 -124c51 -31 60 -67 60 -124
c0 -49 -3 -100 1 -148c5 -58 27 -61 81 -61h17v-99z" />
    <glyph glyph-name="bar" unicode="|" 
d="M307 -250h-114v1000h114v-1000z" />
    <glyph glyph-name="braceright" unicode="}" 
d="M393 190c-44 -10 -56 -38 -56 -80v-161c0 -107 -49 -142 -152 -142c-19 0 -40 1 -59 2v99h15c52 0 83 2 83 61v149c0 60 8 90 60 123c-50 32 -60 67 -60 124v149c0 60 -31 61 -83 61h-15v99c10 0 19 1 29 1h31c105 0 151 -36 151 -144v-158c0 -44 7 -79 56 -88v-95z" />
    <glyph glyph-name="asciitilde" unicode="~" horiz-adv-x="667" 
d="M576 704c-34 -69 -70 -127 -156 -127c-66 0 -131 53 -191 53c-41 0 -58 -30 -75 -63l-63 41c31 72 59 132 147 132c68 0 138 -54 196 -54c41 0 57 23 77 56z" />
    <glyph glyph-name="exclamdown" unicode="&#xa1;" horiz-adv-x="258" 
d="M207 335c0 -39 -12 -44 -49 -44h-55c-44 0 -52 3 -52 48v64c0 42 13 42 52 42h59c40 0 45 -3 45 -44v-66zM218 -150c0 -54 -35 -83 -87 -83c-58 0 -91 28 -91 87c0 27 3 55 8 81l40 234c3 20 8 39 12 59c3 14 3 22 20 22c7 0 15 -1 22 -1c17 0 22 -71 24 -80l41 -228
c5 -30 11 -61 11 -91z" />
    <glyph glyph-name="cent" unicode="&#xa2;" horiz-adv-x="587" 
d="M537 244c0 -27 -43 -68 -62 -83c-36 -29 -76 -43 -122 -49v-51c0 -25 0 -56 -34 -56s-34 31 -34 56v51c-125 15 -225 88 -225 222c0 128 103 222 225 237v51c0 25 0 56 34 56s34 -31 34 -56v-50c41 -2 73 -9 111 -26c13 -6 51 -20 51 -38c0 -8 -3 -15 -6 -22l-44 -92
c-4 -9 -10 -18 -21 -18c-18 0 -24 22 -28 36c-12 42 -26 70 -63 95v-326c60 3 93 20 132 65c8 9 16 21 30 21s22 -10 22 -23zM285 202v308c-55 -25 -70 -94 -70 -149c0 -61 17 -122 70 -159z" />
    <glyph glyph-name="sterling" unicode="&#xa3;" horiz-adv-x="702" 
d="M703 87c0 -85 -73 -133 -152 -133c-63 0 -119 23 -171 58c-17 12 -36 23 -52 36c-45 -35 -93 -50 -150 -50c-76 0 -172 37 -172 127c0 73 72 107 136 107c55 0 97 -17 145 -43v13c0 64 -15 102 -86 100c-29 -1 -58 -3 -87 -2c-11 26 -22 52 -34 78c39 3 80 4 119 3
c-32 45 -55 76 -55 133c0 140 144 180 259 180c69 0 150 -10 202 -60c26 -24 47 -60 47 -96c0 -56 -47 -95 -101 -95c-19 0 -83 15 -83 38c0 7 18 21 18 45c0 37 -37 57 -70 57c-54 0 -88 -46 -88 -97c0 -33 14 -79 30 -108h135c15 -24 26 -51 35 -78h-75
c-23 0 -46 -3 -69 -2c7 -27 10 -57 10 -85s-3 -58 -14 -84c29 -20 78 -44 114 -44c16 0 38 9 38 28c0 12 -12 18 -22 21c6 44 43 67 85 67c64 0 108 -52 108 -114zM254 120c-20 15 -47 31 -73 31c-17 0 -36 -9 -36 -28c0 -24 31 -30 49 -30c25 0 44 9 60 27z" />
    <glyph glyph-name="fraction" unicode="&#x2044;" horiz-adv-x="141" 
d="M283 645c0 -15 -9 -30 -16 -43l-318 -549c-11 -19 -28 -55 -54 -55c-20 0 -36 13 -36 34c0 19 14 42 23 58l310 536c11 19 28 55 54 55c21 0 37 -15 37 -36z" />
    <glyph glyph-name="yen" unicode="&#xa5;" horiz-adv-x="712" 
d="M732 636c0 -22 -13 -26 -32 -33c-20 -7 -30 -15 -42 -32l-57 -79h50c14 -25 25 -52 35 -79h-142l-69 -95h96c15 -24 26 -51 35 -78h-151v-78c0 -20 -2 -69 16 -84c6 -6 15 -8 23 -10c17 -5 30 -16 30 -35c0 -29 -26 -33 -50 -33h-217c-21 0 -35 13 -35 34
c0 20 12 30 30 35c39 11 37 20 37 59v85c0 9 -1 18 -2 27h-135c-10 27 -22 52 -34 78h120l-69 95h-103c-11 27 -22 53 -34 79h80l-43 58c-20 27 -23 34 -55 47c-17 7 -35 18 -35 39c0 25 23 31 44 31h240c21 0 37 -9 37 -32c0 -39 -46 -28 -46 -51c0 -14 22 -38 30 -48
l112 -145l119 166c6 8 12 20 12 30c0 23 -41 17 -41 50c0 20 17 30 35 30h168c23 0 43 -3 43 -31z" />
    <glyph glyph-name="florin" unicode="&#x192;" horiz-adv-x="613" 
d="M653 655c0 -44 -34 -73 -77 -73c-30 0 -49 11 -67 35c11 5 20 14 20 27c0 12 -13 19 -24 19c-56 0 -53 -108 -55 -142c-1 -21 -2 -41 -5 -62c11 -1 21 -2 32 -2c17 0 34 2 51 2c15 0 40 1 40 -20c0 -9 -5 -23 -8 -32c-8 -28 -9 -30 -38 -30h-36h-58l-53 -263
c-10 -50 -34 -128 -62 -171c-45 -68 -109 -91 -189 -91c-64 0 -164 17 -164 100c0 52 37 91 90 91c36 0 58 -14 80 -41c-19 -6 -36 -19 -36 -40c0 -20 21 -29 38 -29c58 0 75 106 83 147l61 302c-21 2 -63 -7 -63 17c0 12 4 24 7 36c5 19 10 27 31 27h42
c21 136 53 282 222 282c57 0 138 -17 138 -89z" />
    <glyph glyph-name="section" unicode="&#xa7;" horiz-adv-x="592" 
d="M549 265c0 -61 -38 -105 -83 -142c39 -34 60 -70 60 -122c0 -130 -130 -190 -243 -190c-92 0 -224 45 -224 156c0 56 42 94 97 94c27 0 75 -17 75 -50c0 -35 -44 -16 -44 -53c0 -48 56 -66 95 -66c44 0 93 30 93 78c0 46 -49 64 -85 81l-86 40c-72 33 -161 72 -161 166
c0 63 41 100 87 137c-35 34 -54 64 -54 113c0 119 122 173 225 173c78 0 206 -36 206 -134c0 -50 -37 -89 -88 -89c-29 0 -80 17 -80 53c0 28 39 8 39 46c0 34 -48 49 -75 49c-42 0 -79 -22 -79 -68s49 -65 85 -81l107 -49c64 -29 133 -61 133 -142zM422 214
c0 34 -43 48 -69 60l-109 49c-19 9 -38 20 -56 30c-10 -15 -26 -30 -26 -49c0 -32 39 -47 63 -58c39 -18 79 -36 118 -54c19 -9 37 -19 57 -27c12 14 22 30 22 49z" />
    <glyph glyph-name="currency" unicode="&#xa4;" horiz-adv-x="667" 
d="M638 134l-62 -62l-100 100c-43 -30 -89 -47 -142 -47c-55 0 -96 17 -142 46l-100 -99l-62 61l101 101c-30 41 -46 88 -46 139c0 53 16 95 46 138l-102 101l62 62l102 -101c45 31 86 46 141 46c54 0 95 -15 139 -45l100 100l62 -62l-100 -100c30 -45 47 -85 47 -140
c0 -54 -16 -94 -45 -138zM479 372c0 80 -64 146 -145 146s-146 -65 -146 -146c0 -80 66 -146 146 -146s145 66 145 146z" />
    <glyph glyph-name="quotesingle" unicode="'" horiz-adv-x="214" 
d="M170 667l-22 -268h-83l-21 268h126z" />
    <glyph glyph-name="quotedblleft" unicode="&#x201c;" horiz-adv-x="397" 
d="M357 455c0 -36 -6 -40 -41 -40h-53c-41 0 -43 6 -43 46v65c0 74 27 148 113 148c14 0 24 -10 24 -24c0 -28 -51 -18 -51 -69c0 -54 51 8 51 -64v-62zM177 455c0 -36 -6 -40 -41 -40h-53c-41 0 -43 6 -43 46v65c0 74 27 148 113 148c14 0 24 -10 24 -24
c0 -28 -51 -18 -51 -69c0 -54 51 8 51 -64v-62z" />
    <glyph glyph-name="guillemotleft" unicode="&#xab;" horiz-adv-x="399" 
d="M359 55c0 -14 -12 -25 -26 -25c-40 0 -156 155 -156 197c0 23 16 44 28 62c21 32 43 64 65 95c13 18 32 49 58 49c14 0 29 -10 29 -25c0 -10 -4 -20 -7 -29l-14 -37c-12 -31 -43 -80 -43 -113c0 -43 66 -135 66 -174zM212 58c0 -16 -13 -29 -29 -29c-24 0 -42 26 -56 42
c-22 25 -100 113 -100 153c0 27 20 52 34 73l37 55c15 22 49 81 80 81c17 0 28 -10 28 -27c0 -42 -64 -126 -64 -175s70 -140 70 -173z" />
    <glyph glyph-name="guilsinglleft" unicode="&#x2039;" horiz-adv-x="251" 
d="M212 58c0 -16 -13 -29 -29 -29c-24 0 -42 26 -56 42c-22 25 -100 113 -100 153c0 27 20 52 34 73l37 55c15 22 49 81 80 81c17 0 28 -10 28 -27c0 -42 -64 -126 -64 -175s70 -140 70 -173z" />
    <glyph glyph-name="guilsinglright" unicode="&#x203a;" horiz-adv-x="251" 
d="M225 239c0 -25 -22 -53 -35 -73l-36 -55c-15 -23 -48 -82 -81 -82c-16 0 -27 11 -27 27c0 49 63 124 63 176c0 48 -70 141 -70 172c0 16 12 30 29 30c25 0 42 -25 57 -42c23 -26 100 -112 100 -153z" />
    <glyph glyph-name="fi" unicode="&#xfb01;" horiz-adv-x="584" 
d="M511 587c0 -49 -76 -82 -118 -82c-27 0 -46 19 -46 46c0 45 76 80 115 80c26 0 49 -16 49 -44zM572 30c0 -27 -27 -30 -48 -30h-160c-22 0 -47 3 -47 30c0 16 11 24 24 31c8 4 16 8 22 15c17 21 14 94 14 120v82c0 25 5 46 -22 56c-13 5 -27 11 -27 27c0 17 14 24 28 30
c20 9 122 58 140 58c17 0 16 -21 16 -33v-209c0 -26 -4 -108 11 -129c6 -8 15 -13 24 -17c13 -6 25 -15 25 -31zM311 584c0 -41 -34 -71 -74 -71c-30 0 -58 14 -73 40c12 4 22 8 22 22c0 15 -17 23 -30 23c-18 0 -35 -15 -35 -34c0 -36 78 -74 92 -130h69c12 0 16 -2 16 -15
c0 -20 -4 -61 -31 -63h-19c-12 0 -23 -3 -35 -2v-158c0 -27 -2 -97 15 -120c6 -7 14 -11 22 -15c15 -7 24 -14 24 -32c0 -26 -25 -29 -46 -29h-163c-21 0 -48 3 -48 30c0 16 12 24 25 31c8 4 16 8 22 15c17 21 14 94 14 120v78c0 26 -3 52 -3 78l-1 5c-8 0 -17 1 -25 1
c-36 2 -39 -3 -41 37c0 8 -1 15 -1 23c0 19 15 16 30 16h41c-25 42 -59 66 -59 119c0 83 83 123 156 123c53 0 136 -26 136 -92z" />
    <glyph glyph-name="fl" unicode="&#xfb02;" horiz-adv-x="585" 
d="M572 30c0 -27 -25 -30 -47 -30h-161c-22 0 -47 3 -47 30c0 16 11 24 24 31c8 4 16 8 22 15c17 21 14 94 14 120v247c0 25 6 71 -24 82c-16 6 -35 9 -35 30c0 19 20 28 34 36c19 11 123 73 138 73c22 0 21 -32 21 -47v-410c0 -27 -3 -105 13 -128c6 -9 15 -13 24 -18
c13 -7 24 -15 24 -31zM311 584c0 -41 -34 -71 -74 -71c-30 0 -58 14 -73 40c12 4 22 8 22 22c0 15 -17 23 -30 23c-18 0 -35 -15 -35 -34c0 -36 78 -74 92 -130h69c12 0 16 -2 16 -15c0 -20 -4 -61 -31 -63h-19c-12 0 -23 -3 -35 -2v-158c0 -27 -2 -97 15 -120
c6 -7 14 -11 22 -15c15 -7 24 -14 24 -32c0 -26 -25 -29 -46 -29h-163c-21 0 -48 3 -48 30c0 16 12 24 25 31c8 4 16 8 22 15c17 21 14 94 14 120v78c0 26 -3 52 -3 78l-1 5c-8 0 -17 1 -25 1c-36 2 -39 -3 -41 37c0 8 -1 15 -1 23c0 19 15 16 30 16h41
c-25 42 -59 66 -59 119c0 83 83 123 156 123c53 0 136 -26 136 -92z" />
    <glyph glyph-name="endash" unicode="&#x2013;" 
d="M467 286h-434v104h434v-104z" />
    <glyph glyph-name="dagger" unicode="&#x2020;" horiz-adv-x="514" 
d="M487 363c0 -16 1 -44 -22 -44c-14 0 -19 11 -26 21c-36 50 -86 59 -145 61v-3c0 -60 16 -93 51 -140c-22 -63 -34 -123 -40 -189c-6 -71 -11 -141 -13 -212c-1 -26 1 -73 -35 -73c-33 0 -34 44 -35 68c-1 38 -2 76 -5 114c-4 60 -6 121 -18 180c-7 38 -19 75 -30 112
c35 44 45 88 50 143h-17c-53 0 -95 -17 -127 -59c-7 -10 -15 -22 -29 -22c-18 0 -19 20 -19 33v160c0 15 2 38 22 38c8 0 14 -5 19 -11l9 -12c25 -34 70 -54 112 -54c10 0 20 0 30 1c-2 78 -2 94 -61 146c-8 7 -17 15 -17 26c0 21 26 20 41 20h157c14 0 34 2 34 -17
c0 -11 -10 -20 -18 -27c-51 -45 -60 -82 -61 -149c68 0 100 4 147 55c8 9 15 19 28 19c17 0 18 -18 18 -31v-154z" />
    <glyph glyph-name="daggerdbl" unicode="&#x2021;" horiz-adv-x="514" 
d="M487 -47c0 -13 -1 -31 -18 -31c-12 0 -21 12 -28 20c-46 51 -80 54 -147 55c1 -73 8 -114 61 -166c8 -8 18 -18 18 -30c0 -19 -20 -17 -34 -17h-165c-14 0 -33 -2 -33 17c0 12 10 22 18 30c53 52 60 93 61 166c-67 -1 -100 -4 -147 -55c-8 -8 -16 -20 -28 -20
c-17 0 -18 18 -18 31v154c0 16 -1 45 22 45c13 0 19 -11 26 -21c36 -51 86 -59 145 -61v3c0 68 -15 107 -52 163c38 58 52 95 52 165c-58 -2 -109 -11 -145 -61c-7 -10 -13 -21 -26 -21c-23 0 -22 28 -22 44v154c0 13 1 31 18 31c13 0 20 -10 28 -19c47 -51 79 -55 147 -55
c-1 68 -10 104 -61 149c-8 7 -18 15 -18 27c0 19 19 17 33 17h165c14 0 34 2 34 -17c0 -12 -10 -20 -18 -27c-51 -45 -60 -81 -61 -149c68 0 100 4 147 55c8 9 15 19 28 19c17 0 18 -18 18 -31v-154c0 -16 1 -44 -22 -44c-14 0 -19 11 -26 21c-36 50 -86 59 -145 61v-4
c0 -67 15 -105 51 -161c-37 -58 -51 -97 -51 -166c59 2 109 10 145 61c7 10 12 21 26 21c23 0 22 -29 22 -45v-154z" />
    <glyph glyph-name="periodcentered" unicode="&#xb7;" horiz-adv-x="181" 
d="M181 313c0 -58 -3 -66 -63 -66h-51c-65 0 -67 11 -67 73c0 18 1 37 1 55c0 54 9 56 61 56h61c49 0 58 -6 58 -56v-62z" />
    <glyph glyph-name="paragraph" unicode="&#xb6;" horiz-adv-x="642" 
d="M569 579h-69v-673h-96v673h-90v-673h-96v413h-13c-103 0 -180 65 -180 171c0 74 39 138 111 161c37 12 79 16 117 16h316v-88z" />
    <glyph glyph-name="bullet" unicode="&#x2022;" horiz-adv-x="667" 
d="M471 340c0 -75 -61 -140 -137 -140c-77 0 -138 64 -138 140s61 140 138 140c76 0 137 -65 137 -140z" />
    <glyph glyph-name="quotesinglbase" unicode="&#x201a;" horiz-adv-x="217" 
d="M177 31c0 -74 -27 -147 -113 -147c-14 0 -24 9 -24 23c0 29 51 17 51 69c0 16 -3 25 -20 26c-30 2 -31 8 -31 38v62c0 36 6 40 41 40h53c42 0 43 -5 43 -46v-65z" />
    <glyph glyph-name="quotedblbase" unicode="&#x201e;" horiz-adv-x="397" 
d="M357 31c0 -74 -27 -147 -113 -147c-14 0 -24 9 -24 23c0 29 51 17 51 69c0 16 -3 25 -20 26c-30 2 -31 8 -31 38v62c0 36 6 40 41 40h53c42 0 43 -5 43 -46v-65zM177 31c0 -74 -27 -147 -113 -147c-14 0 -24 9 -24 23c0 29 51 17 51 69c0 16 -3 25 -20 26
c-30 2 -31 8 -31 38v62c0 36 6 40 41 40h53c42 0 43 -5 43 -46v-65z" />
    <glyph glyph-name="quotedblright" unicode="&#x201d;" horiz-adv-x="397" 
d="M357 562c0 -74 -27 -148 -113 -148c-14 0 -24 10 -24 24c0 29 51 17 51 69c0 16 -3 25 -20 26c-30 2 -31 8 -31 38v62c0 36 6 40 41 40h53c42 0 43 -5 43 -46v-65zM177 562c0 -74 -27 -148 -113 -148c-14 0 -24 10 -24 24c0 29 51 17 51 69c0 16 -3 25 -20 26
c-30 2 -31 8 -31 38v62c0 36 6 40 41 40h53c42 0 43 -5 43 -46v-65z" />
    <glyph glyph-name="guillemotright" unicode="&#xbb;" horiz-adv-x="399" 
d="M372 236c0 -23 -16 -44 -28 -62c-21 -32 -43 -64 -65 -95c-14 -19 -32 -49 -59 -49c-14 0 -28 10 -28 25c0 10 4 20 7 29l14 37c12 32 43 79 43 113c0 44 -66 134 -66 174c0 13 12 25 25 25c29 0 74 -60 90 -80c18 -23 67 -87 67 -117zM225 239c0 -25 -22 -53 -35 -73
l-36 -55c-15 -23 -48 -82 -81 -82c-16 0 -27 11 -27 27c0 49 63 124 63 176c0 48 -70 141 -70 172c0 16 12 30 29 30c25 0 42 -25 57 -42c23 -26 100 -112 100 -153z" />
    <glyph glyph-name="ellipsis" unicode="&#x2026;" horiz-adv-x="776" 
d="M722 55c0 -49 -2 -55 -53 -55h-42c-54 0 -56 10 -56 61c0 15 1 31 1 46c0 45 7 47 51 47h50c41 0 48 -5 48 -47c0 -17 1 -34 1 -52zM463 48c0 -46 -8 -48 -53 -48h-42c-54 0 -56 10 -56 61c0 15 1 31 1 46c0 45 7 47 51 47h50c42 0 49 -5 49 -47v-59zM204 48
c0 -45 -8 -48 -52 -48h-43c-53 0 -56 10 -56 61c0 15 1 31 1 46c0 45 7 47 51 47h50c42 0 49 -5 49 -47v-59z" />
    <glyph glyph-name="perthousand" unicode="&#x2030;" horiz-adv-x="1000" 
d="M983 159c0 -83 -39 -169 -134 -169c-94 0 -135 82 -135 166s39 173 135 173c94 0 134 -88 134 -170zM661 159c0 -84 -40 -169 -135 -169c-94 0 -134 82 -134 166s38 173 135 173c94 0 134 -88 134 -170zM555 645c0 -15 -9 -30 -16 -43l-317 -549c-11 -20 -28 -55 -55 -55
c-20 0 -36 13 -36 34c0 19 14 42 23 58l310 536c12 20 28 55 55 55c20 0 36 -16 36 -36zM286 507c0 -83 -40 -170 -135 -170c-94 0 -134 83 -134 166s38 174 134 174c94 0 135 -88 135 -170zM882 126v71c0 23 2 84 -33 84c-8 0 -16 -1 -21 -7c-15 -18 -13 -96 -13 -119
c0 -26 -6 -114 36 -114c36 0 31 62 31 85zM560 133l-1 64c0 23 2 84 -33 84c-8 0 -16 -1 -21 -7c-15 -18 -12 -97 -12 -119c0 -25 -6 -114 35 -114c38 0 32 67 32 92zM184 474v71c0 23 2 83 -33 83c-8 0 -16 -1 -21 -7c-15 -18 -13 -97 -13 -119c0 -26 -6 -114 36 -114
c36 0 31 63 31 86z" />
    <glyph glyph-name="questiondown" unicode="&#xbf;" horiz-adv-x="411" 
d="M294 330c0 -34 -4 -40 -38 -40h-70c-33 0 -45 1 -45 37v77c0 37 5 41 42 41h72c35 0 39 -6 39 -41v-74zM388 -77c0 -97 -86 -154 -176 -154c-108 0 -189 78 -189 187c0 62 22 115 68 157l38 35c23 21 51 48 57 80c4 23 6 35 32 35c33 0 43 -26 43 -55
c0 -52 -28 -81 -57 -121c-21 -29 -51 -78 -51 -115c0 -30 16 -72 52 -72c30 0 47 26 47 54c0 18 -6 29 -25 31c0 2 -1 4 -1 6c0 26 40 44 62 44c63 0 100 -52 100 -112z" />
    <glyph glyph-name="grave" unicode="`" horiz-adv-x="322" 
d="M256 537c0 -14 -7 -25 -22 -25c-10 0 -24 9 -32 15l-111 87c-11 9 -25 23 -25 38c0 22 30 21 45 21h70c34 0 41 -4 50 -37l21 -77c2 -7 4 -15 4 -22z" />
    <glyph glyph-name="acute" unicode="&#xb4;" horiz-adv-x="322" 
d="M256 652c0 -15 -14 -29 -25 -38l-111 -87c-8 -6 -22 -15 -32 -15c-15 0 -22 11 -22 25c0 7 2 15 4 22l21 77c9 33 16 37 50 37h71c16 0 44 1 44 -21z" />
    <glyph glyph-name="circumflex" unicode="&#x2c6;" horiz-adv-x="457" 
d="M390 543c0 -18 -14 -32 -32 -32c-43 0 -89 50 -133 50c-40 0 -76 -51 -125 -51c-17 0 -35 13 -35 31c0 19 18 35 32 46l86 68c12 10 28 21 44 21s31 -9 43 -18l69 -52c19 -14 51 -36 51 -63z" />
    <glyph glyph-name="tilde" unicode="&#x2dc;" horiz-adv-x="481" 
d="M415 630c0 -50 -38 -106 -92 -106c-57 0 -109 41 -166 41c-34 0 -33 -38 -63 -38c-19 0 -27 18 -27 35c0 49 36 105 90 105c40 0 81 -16 118 -28c16 -5 38 -14 55 -14c31 0 26 41 55 41c21 0 30 -17 30 -36z" />
    <glyph glyph-name="macron" unicode="&#xaf;" horiz-adv-x="486" 
d="M420 592c0 -49 -12 -48 -59 -48h-245c-36 0 -50 0 -50 39c0 44 8 48 51 48h246c36 0 57 3 57 -39z" />
    <glyph glyph-name="breve" unicode="&#x2d8;" horiz-adv-x="442" 
d="M375 654c0 -88 -70 -141 -154 -141s-155 54 -155 142c0 12 4 34 20 34c24 0 40 -69 135 -69c96 0 110 69 135 69c17 0 19 -23 19 -35z" />
    <glyph glyph-name="dotaccent" unicode="&#x2d9;" horiz-adv-x="304" 
d="M238 616c0 -52 -79 -86 -124 -86c-28 0 -49 21 -49 49c0 48 80 83 121 83c28 0 52 -16 52 -46z" />
    <glyph glyph-name="dieresis" unicode="&#xa8;" horiz-adv-x="524" 
d="M458 616c0 -52 -79 -86 -124 -86c-28 0 -49 21 -49 49c0 48 80 83 121 83c28 0 52 -16 52 -46zM238 616c0 -52 -79 -86 -124 -86c-28 0 -49 21 -49 49c0 48 80 83 121 83c28 0 52 -16 52 -46z" />
    <glyph glyph-name="ring" unicode="&#x2da;" horiz-adv-x="347" 
d="M281 589c0 -58 -46 -95 -102 -95c-62 0 -112 38 -112 103c0 59 45 96 102 96c59 0 112 -43 112 -104zM207 567c0 23 -10 89 -43 89c-19 0 -27 -20 -27 -36c0 -24 15 -89 45 -89c20 0 25 20 25 36z" />
    <glyph glyph-name="cedilla" unicode="&#xb8;" horiz-adv-x="320" 
d="M253 -130c0 -57 -51 -87 -103 -87c-24 0 -83 12 -83 44c0 9 6 21 16 21c11 0 32 -18 50 -18c24 0 42 22 42 45c0 30 -27 39 -52 39c-3 0 -7 -2 -10 -2c-7 0 -13 4 -13 12c0 12 31 63 38 76h60l-31 -55c50 -1 86 -21 86 -75z" />
    <glyph glyph-name="hungarumlaut" unicode="&#x2dd;" horiz-adv-x="483" 
d="M417 638c0 -14 -13 -26 -23 -34l-99 -79c-7 -6 -20 -13 -29 -13c-14 0 -20 9 -20 22c0 19 18 72 23 89c8 30 14 34 45 34h63c14 0 40 1 40 -19zM237 638c0 -14 -13 -26 -23 -34l-99 -79c-7 -6 -20 -13 -29 -13c-14 0 -20 9 -20 22c0 19 18 72 23 89c8 30 14 34 45 34h63
c14 0 40 1 40 -19z" />
    <glyph glyph-name="ogonek" unicode="&#x2db;" horiz-adv-x="327" 
d="M260 -134c0 -40 -71 -58 -102 -58c-50 0 -91 33 -91 85c0 44 24 78 55 107h70c-18 -23 -42 -51 -42 -82c0 -26 20 -44 46 -44c18 0 33 12 46 12c11 0 18 -10 18 -20z" />
    <glyph glyph-name="caron" unicode="&#x2c7;" horiz-adv-x="457" 
d="M391 645c0 -20 -17 -35 -31 -46l-86 -67c-12 -10 -29 -22 -45 -22c-15 0 -30 10 -42 19l-69 51c-20 14 -51 36 -51 63c0 20 14 32 33 32c39 0 85 -50 132 -50c37 0 76 51 125 51c17 0 34 -13 34 -31z" />
    <glyph glyph-name="emdash" unicode="&#x2014;" horiz-adv-x="654" 
d="M654 232c0 -38 -38 -36 -67 -36h-520c-29 0 -67 -2 -67 36s36 36 65 36h524c29 0 65 2 65 -36z" />
    <glyph glyph-name="AE" unicode="&#xc6;" horiz-adv-x="1052" 
d="M1052 163c0 -9 -4 -18 -8 -25l-73 -131c-10 -17 -25 -41 -47 -41c-13 0 -21 7 -31 15c-25 22 -48 19 -80 19h-371c-23 0 -47 8 -47 35c0 21 13 29 31 35c34 12 38 22 38 58c0 13 2 37 -9 47c-13 12 -53 9 -69 9c-69 0 -199 8 -199 -94c0 -39 50 -19 50 -61
c0 -22 -16 -29 -36 -29h-191c-21 0 -33 7 -33 29c0 26 18 32 39 40c23 9 38 22 51 43l312 519c16 27 21 36 54 36h274c28 0 75 -3 99 13c11 7 22 17 35 17c17 0 28 -12 37 -25l80 -115c6 -9 14 -21 14 -33c0 -15 -13 -28 -28 -28c-16 0 -34 17 -45 26
c-59 47 -110 66 -186 66c-61 0 -80 -6 -80 -70c0 -20 -3 -71 17 -83c9 -6 22 -6 32 -6c79 0 56 52 94 52c14 0 24 -8 31 -19l84 -125c5 -7 10 -17 10 -26c0 -17 -15 -32 -32 -32c-37 0 -71 69 -169 69c-14 0 -32 0 -45 -7c-30 -17 -25 -90 -25 -118c0 -148 18 -127 159 -127
c76 0 134 24 192 72c11 9 27 26 42 26c17 0 29 -15 29 -31zM466 327v118c0 18 1 52 -24 52c-22 0 -38 -27 -48 -43l-82 -133c-5 -8 -14 -22 -14 -32c0 -26 53 -24 69 -24c24 0 81 -4 94 22c5 11 5 28 5 40z" />
    <glyph glyph-name="ordfeminine" unicode="&#xaa;" horiz-adv-x="391" 
d="M394 429c0 -28 -41 -34 -61 -34c-33 0 -55 8 -74 35c-39 -22 -76 -35 -121 -35c-49 0 -109 24 -109 81c0 70 90 95 146 95c12 0 25 0 37 -2c-12 31 -26 61 -64 61c-43 0 -64 -28 -79 -28c-7 0 -15 6 -15 14c0 10 8 19 15 25c27 24 70 36 105 36c75 0 104 -36 127 -103
l32 -93c5 -14 18 -39 36 -39c6 0 11 3 16 7c6 -6 9 -12 9 -20zM389 297h-357v33h357v-33zM240 469c0 31 -17 66 -52 66c-27 0 -63 -12 -63 -44c0 -34 32 -50 62 -50c16 0 53 6 53 28z" />
    <glyph glyph-name="Oslash" unicode="&#xd8;" horiz-adv-x="799" 
d="M776 309c0 -223 -176 -322 -380 -322c-84 0 -171 12 -242 59c-17 -18 -56 -63 -82 -63c-18 0 -33 17 -33 34c0 25 41 59 59 76c-53 59 -75 127 -75 206c0 210 165 381 377 381c81 0 161 -26 226 -75c18 18 60 67 87 67c18 0 33 -15 33 -33c0 -25 -48 -65 -66 -82
c63 -69 96 -154 96 -248zM528 510c-30 47 -68 89 -128 89c-136 0 -172 -176 -172 -281c0 -16 3 -79 9 -91zM574 302c0 29 -6 110 -17 135l-293 -284c33 -52 75 -76 137 -76c129 0 173 114 173 225z" />
    <glyph glyph-name="OE" unicode="&#x152;" horiz-adv-x="1191" 
d="M1191 161c0 -8 -4 -18 -8 -25l-85 -150c-7 -13 -20 -21 -35 -21c-20 0 -28 11 -41 23c-17 16 -46 12 -67 12h-425c-24 0 -49 -6 -73 -9c-21 -3 -42 -4 -63 -4c-87 0 -188 23 -260 74c-77 54 -111 145 -111 237c0 213 166 382 380 382c31 0 63 -6 94 -10
c23 -3 46 -3 69 -3h304c31 0 55 -1 81 17c10 6 19 15 31 15s26 -12 32 -21l89 -127c5 -7 9 -16 9 -25c0 -15 -14 -31 -30 -31c-14 0 -30 15 -40 24c-36 31 -62 47 -109 58c-32 8 -65 11 -98 11c-25 0 -78 3 -91 -25c-5 -11 -5 -24 -5 -36v-4l1 -39c1 -47 10 -53 56 -53
c76 0 39 49 85 49c16 0 24 -6 32 -19l83 -125c5 -7 9 -16 9 -25c0 -17 -14 -33 -32 -33c-16 0 -29 12 -41 21c-45 34 -66 48 -124 48c-60 0 -72 -6 -73 -67c0 -18 -1 -35 -1 -53c0 -31 -6 -108 30 -124c15 -7 38 -7 55 -7c53 0 108 -2 161 5c54 7 93 29 135 63
c13 11 30 28 48 28c17 0 28 -15 28 -31zM570 306c0 38 -3 75 -11 112c-17 80 -66 181 -161 181c-138 0 -173 -171 -173 -278c0 -115 35 -244 173 -244c135 0 172 113 172 229z" />
    <glyph glyph-name="ordmasculine" unicode="&#xba;" horiz-adv-x="391" 
d="M368 523c0 -94 -100 -127 -178 -127c-88 0 -167 40 -167 138c0 90 79 143 163 143c86 0 182 -60 182 -154zM361 297h-331v33h331v-33zM273 492c0 53 -55 149 -114 149c-32 0 -48 -27 -48 -57c0 -55 48 -145 110 -145c33 0 52 21 52 53z" />
    <glyph glyph-name="ae" unicode="&#xe6;" horiz-adv-x="792" 
d="M799 139c0 -31 -49 -70 -72 -86c-50 -34 -123 -60 -184 -60c-63 0 -120 21 -166 63c-59 -39 -121 -63 -192 -63c-81 0 -162 39 -162 130c0 124 140 160 240 160h17c-13 50 -37 92 -94 92c-54 0 -90 -46 -112 -46c-12 0 -19 11 -19 22c0 29 32 54 54 67
c39 24 89 35 134 35c52 0 111 -11 145 -54c52 33 92 51 155 51c71 0 131 -26 177 -81c11 -13 33 -44 33 -61c0 -16 -16 -24 -29 -30l-244 -121c31 -49 66 -74 126 -74c107 0 148 78 171 78c12 0 22 -10 22 -22zM599 292c0 42 -55 90 -96 90c-40 0 -71 -31 -71 -71
c0 -23 10 -91 43 -91c11 0 27 8 37 13l54 26c14 7 33 15 33 33zM335 116c0 17 -30 90 -36 107c-9 2 -18 3 -28 3c-48 0 -103 -25 -103 -80c0 -51 45 -74 90 -74c26 0 77 9 77 44z" />
    <glyph glyph-name="dotlessi" unicode="&#x131;" horiz-adv-x="280" 
d="M268 30c0 -27 -27 -30 -48 -30h-160c-22 0 -47 3 -47 30c0 16 11 24 24 31c8 4 16 8 22 15c17 21 14 94 14 120v82c0 26 4 46 -23 56c-13 5 -27 11 -27 27c0 17 15 24 29 30c20 9 122 58 140 58c17 0 16 -21 16 -33v-209c0 -26 -4 -108 11 -129c6 -8 15 -13 24 -17
c13 -6 25 -15 25 -31z" />
    <glyph glyph-name="oslash" unicode="&#xf8;" horiz-adv-x="561" 
d="M542 202c0 -147 -141 -209 -269 -209c-49 0 -98 9 -142 30c-13 -14 -49 -59 -69 -59c-12 0 -24 10 -24 23c0 16 38 51 50 64c-47 44 -69 106 -69 169c0 140 111 233 247 233c56 0 107 -15 155 -44l52 55c5 6 15 12 23 12c14 0 24 -12 24 -25c0 -7 -3 -15 -8 -20l-50 -54
c49 -44 80 -109 80 -175zM337 318c-25 34 -67 77 -112 77c-51 0 -73 -47 -73 -92c0 -49 17 -98 40 -140zM398 148c0 43 -19 82 -32 122l-1 3l-144 -153c25 -29 58 -57 99 -57c50 0 78 37 78 85z" />
    <glyph glyph-name="oe" unicode="&#x153;" horiz-adv-x="870" 
d="M878 125c0 -24 -28 -49 -45 -63c-56 -46 -131 -69 -203 -69c-63 0 -120 16 -168 58c-58 -40 -120 -58 -190 -58c-142 0 -253 77 -253 228c0 138 110 232 244 232c68 0 144 -22 192 -73c53 44 103 69 173 69c68 0 130 -26 175 -78c11 -13 42 -59 42 -75
c0 -12 -32 -24 -40 -27c-80 -32 -158 -70 -237 -105c21 -56 71 -91 131 -91c49 0 90 20 126 53c7 7 20 22 32 22c13 0 21 -11 21 -23zM688 286c0 41 -53 100 -98 100c-46 0 -69 -44 -69 -85c0 -27 5 -48 17 -72c3 -6 5 -13 13 -13c11 0 93 40 107 46c10 4 30 11 30 24z
M397 152c0 58 -23 114 -56 160c-26 37 -68 83 -117 83c-50 0 -74 -45 -74 -90c0 -68 33 -143 79 -193c24 -26 53 -49 90 -49c53 0 78 39 78 89z" />
    <glyph glyph-name="germandbls" unicode="&#xdf;" horiz-adv-x="568" 
d="M549 210c0 -111 -70 -216 -189 -216c-35 0 -138 15 -138 65v22c0 11 0 27 15 27c14 0 25 -23 68 -23c70 0 111 95 111 154c0 70 -43 112 -113 112c-14 0 -27 -2 -41 -2c-19 0 -34 4 -34 26c0 16 8 21 22 25l27 6c41 10 64 77 64 114c0 43 -22 88 -71 88
c-46 0 -55 -31 -59 -71c-3 -21 -3 -41 -3 -62v-425c0 -46 3 -50 -46 -50h-102c-22 0 -47 3 -47 30c0 17 11 24 24 31c8 4 17 8 23 16c17 22 13 103 13 130v265c0 67 3 127 60 171c35 27 75 36 119 36c98 0 201 -54 201 -164c0 -54 -22 -88 -69 -113
c107 -16 165 -84 165 -192z" />
    <glyph glyph-name="Adieresis" unicode="&#xc4;" horiz-adv-x="759" 
d="M615 838c0 -28 -16 -45 -38 -59c-26 -17 -61 -31 -92 -31c-30 0 -51 21 -51 51c0 50 84 88 127 88c29 0 54 -18 54 -49zM384 838c0 -28 -16 -45 -38 -59c-26 -17 -61 -31 -92 -31c-30 0 -51 21 -51 51c0 50 84 88 127 88c29 0 54 -18 54 -49zM766 34
c0 -33 -26 -34 -53 -34h-201c-27 0 -51 1 -51 34c0 36 49 24 49 54c0 95 -86 100 -161 100c-74 0 -152 -8 -152 -100c0 -32 48 -18 48 -56c0 -29 -24 -32 -47 -32h-162c-21 0 -43 7 -43 32c0 28 29 36 50 44c17 6 24 15 34 30c30 48 52 111 73 163c17 42 36 84 55 125
c19 42 38 85 58 127c15 31 30 62 43 94c10 25 16 52 47 52h81c49 0 46 -12 64 -56c12 -30 25 -59 36 -89c13 -35 24 -70 37 -105c15 -39 31 -76 46 -115c16 -41 30 -83 45 -125c10 -27 24 -75 48 -93c8 -6 18 -10 27 -14c18 -8 29 -15 29 -36zM436 298c0 21 -63 181 -74 203
c-19 -38 -82 -178 -82 -209c0 -26 57 -23 73 -23c20 0 83 -3 83 29z" />
    <glyph glyph-name="Aring" unicode="&#xc5;" horiz-adv-x="759" 
d="M507 809c0 -58 -45 -95 -101 -95c-62 0 -113 38 -113 103c0 59 46 96 103 96c59 0 111 -43 111 -104zM766 34c0 -33 -26 -34 -53 -34h-201c-27 0 -51 1 -51 34c0 36 49 24 49 54c0 95 -86 100 -161 100c-74 0 -152 -8 -152 -100c0 -32 48 -18 48 -56
c0 -29 -24 -32 -47 -32h-162c-21 0 -43 7 -43 32c0 28 29 36 50 44c17 6 24 15 34 30c30 48 52 111 73 163c17 42 36 84 55 125c19 42 38 85 58 127c15 31 30 62 43 94c10 25 16 52 47 52h81c49 0 46 -12 64 -56c12 -30 25 -59 36 -89c13 -35 24 -70 37 -105
c15 -39 31 -76 46 -115c16 -41 30 -83 45 -125c10 -27 24 -75 48 -93c8 -6 18 -10 27 -14c18 -8 29 -15 29 -36zM433 787c0 23 -10 89 -43 89c-19 0 -26 -20 -26 -36c0 -23 15 -89 44 -89c20 0 25 19 25 36zM436 298c0 21 -63 181 -74 203c-19 -38 -82 -178 -82 -209
c0 -26 57 -23 73 -23c20 0 83 -3 83 29z" />
    <glyph glyph-name="Ccedilla" unicode="&#xc7;" horiz-adv-x="735" 
d="M715 142c0 -45 -62 -89 -96 -109c-48 -28 -103 -48 -160 -48h-3l-24 -43c52 -1 91 -22 91 -79c0 -60 -53 -92 -108 -92c-25 0 -89 13 -89 47c0 10 7 22 18 22c7 0 26 -10 32 -14c6 -3 13 -5 20 -5c25 0 45 24 45 48c0 25 -24 41 -47 41c-6 0 -13 -2 -19 -2
c-7 0 -14 4 -14 12c0 10 25 53 31 64c-204 0 -369 127 -369 340c0 204 163 361 365 361c61 0 97 -11 155 -29c5 -1 10 -3 15 -3c24 0 28 37 54 37c31 0 42 -46 50 -69s48 -120 48 -145c0 -16 -10 -34 -28 -34c-46 0 -101 158 -250 158c-144 0 -207 -131 -207 -258
c0 -147 81 -252 234 -252c60 0 124 17 170 57c13 11 34 34 52 34c21 0 34 -20 34 -39z" />
    <glyph glyph-name="Eacute" unicode="&#xc9;" horiz-adv-x="718" 
d="M421 872c0 -15 -15 -29 -26 -38l-110 -87c-8 -6 -22 -15 -33 -15c-15 0 -21 11 -21 25c0 7 1 15 3 22l21 77c8 31 15 37 47 37h74c16 0 45 1 45 -21zM718 162c0 -9 -2 -19 -7 -27l-86 -149c-7 -12 -17 -22 -31 -22c-13 0 -22 6 -32 14c-31 24 -40 22 -79 22h-401
c-27 0 -59 1 -59 35c0 40 49 31 62 53c10 17 10 118 10 131v229c0 11 0 117 -10 131c-14 21 -62 12 -62 53c0 34 32 35 59 35h316c29 0 56 -1 81 16c10 7 20 15 32 15c14 0 21 -8 29 -19l90 -129c5 -7 9 -17 9 -26c0 -15 -12 -29 -27 -29c-14 0 -28 14 -39 22
c-34 27 -70 50 -113 61c-31 8 -63 10 -95 10c-68 0 -100 3 -100 -72c0 -58 -4 -87 59 -87c26 0 33 1 49 22c9 12 21 30 37 30c14 0 24 -10 31 -21l83 -124c5 -8 10 -17 10 -26c0 -17 -15 -32 -32 -32c-14 0 -32 14 -43 22c-46 34 -67 47 -125 47c-70 0 -71 -20 -71 -86v-18
c0 -22 1 -43 1 -65c1 -71 10 -83 81 -83c48 0 117 -2 163 5c55 8 92 30 135 64c10 8 32 28 45 28c18 0 30 -12 30 -30z" />
    <glyph glyph-name="Ntilde" unicode="&#xd1;" horiz-adv-x="766" 
d="M557 850c0 -49 -37 -106 -91 -106c-58 0 -109 41 -167 41c-33 0 -32 -38 -62 -38c-20 0 -28 18 -28 35c0 49 36 105 90 105c40 0 81 -16 118 -28c15 -5 39 -14 55 -14c31 0 26 41 56 41c20 0 29 -18 29 -36zM749 631c0 -40 -50 -32 -61 -52c-8 -14 -8 -52 -8 -68
c-5 -148 -2 -297 -2 -445c0 -74 8 -66 -70 -66c-35 0 -31 5 -31 37c0 51 -15 72 -49 108l-290 307c-5 6 -17 17 -25 17c-16 0 -13 -53 -13 -62v-188c0 -13 0 -113 10 -131c13 -23 61 -13 61 -53c0 -34 -32 -35 -59 -35h-130c-27 0 -59 1 -59 35c0 40 49 31 62 53
c10 17 10 119 10 131v229c0 10 0 117 -10 131c-14 21 -62 12 -62 53c0 34 32 35 59 35h153c40 0 48 -8 76 -36l227 -227c7 -7 19 -19 29 -19c12 0 11 21 11 29v117c0 105 -68 48 -68 105c0 28 20 31 43 31h137c28 0 59 0 59 -36z" />
    <glyph glyph-name="Odieresis" unicode="&#xd6;" horiz-adv-x="799" 
d="M605 838c0 -28 -16 -45 -38 -59c-26 -17 -61 -31 -92 -31c-29 0 -51 22 -51 51c0 50 84 88 127 88c29 0 54 -18 54 -49zM374 838c0 -28 -16 -45 -38 -59c-26 -17 -61 -31 -92 -31c-29 0 -51 22 -51 51c0 50 84 88 127 88c29 0 54 -18 54 -49zM776 310
c0 -224 -175 -323 -380 -323c-201 0 -373 90 -373 312c0 210 166 381 377 381c205 0 376 -163 376 -370zM574 302c0 38 -3 76 -11 114c-18 80 -67 183 -163 183c-136 0 -171 -178 -171 -283c0 -114 36 -239 172 -239c129 0 173 114 173 225z" />
    <glyph glyph-name="Udieresis" unicode="&#xdc;" horiz-adv-x="687" 
d="M582 838c0 -56 -82 -90 -130 -90c-29 0 -51 22 -51 51c0 50 84 88 127 88c29 0 54 -18 54 -49zM351 838c0 -56 -82 -90 -130 -90c-29 0 -51 22 -51 51c0 50 84 88 127 88c29 0 54 -18 54 -49zM667 637c0 -54 -60 -10 -60 -78c0 -21 2 -41 4 -62l18 -234
c1 -19 2 -37 2 -56c0 -54 -3 -110 -42 -151c-54 -57 -157 -68 -231 -68c-140 0 -297 31 -297 202c0 27 3 54 5 81l20 251c1 12 1 24 1 36c0 59 -61 23 -61 72c0 27 19 37 44 37h202c27 0 55 -1 55 -35c0 -21 -14 -28 -32 -33c-9 -2 -18 -4 -25 -10c-18 -13 -18 -66 -19 -86
l-12 -223c-1 -20 -2 -40 -2 -60c0 -38 2 -78 29 -107c30 -32 72 -39 114 -39c95 0 151 36 151 136c0 19 -1 39 -2 58l-13 214c-1 24 -2 88 -19 107c-6 7 -15 11 -24 14c-17 6 -31 13 -31 33c0 24 18 31 39 31h146c22 0 40 -5 40 -30z" />
    <glyph glyph-name="aacute" unicode="&#xe1;" horiz-adv-x="551" 
d="M371 652c0 -15 -15 -29 -26 -38l-111 -87c-8 -6 -22 -15 -32 -15c-15 0 -22 11 -22 25c0 7 2 15 4 22l21 77c9 34 16 37 51 37h70c16 0 45 1 45 -21zM577 48c0 -44 -59 -56 -93 -56c-53 0 -83 14 -113 58c-59 -38 -114 -58 -184 -58c-79 0 -164 44 -164 133
c0 111 130 155 222 155c18 0 37 -2 55 -3c-17 49 -38 99 -97 99c-24 0 -57 -6 -77 -21c-13 -10 -26 -23 -43 -23c-12 0 -22 10 -22 22c0 28 39 58 61 70c33 19 82 31 120 31c54 0 117 -19 148 -66c20 -30 35 -69 46 -104l47 -153c7 -23 28 -64 56 -64c9 0 17 6 23 12
c9 -9 15 -19 15 -32zM342 115c0 46 -24 107 -78 107c-44 0 -95 -22 -95 -73c0 -52 46 -82 94 -82c28 0 79 12 79 48z" />
    <glyph glyph-name="agrave" unicode="&#xe0;" horiz-adv-x="551" 
d="M350 537c0 -14 -7 -25 -22 -25c-10 0 -24 9 -32 15l-110 87c-11 9 -26 23 -26 38c0 22 30 21 45 21h70c34 0 40 -4 50 -37l22 -77c2 -7 3 -15 3 -22zM577 48c0 -44 -59 -56 -93 -56c-53 0 -83 14 -113 58c-59 -38 -114 -58 -184 -58c-79 0 -164 44 -164 133
c0 111 130 155 222 155c18 0 37 -2 55 -3c-17 49 -38 99 -97 99c-24 0 -57 -6 -77 -21c-13 -10 -26 -23 -43 -23c-12 0 -22 10 -22 22c0 28 39 58 61 70c33 19 82 31 120 31c54 0 117 -19 148 -66c20 -30 35 -69 46 -104l47 -153c7 -23 28 -64 56 -64c9 0 17 6 23 12
c9 -9 15 -19 15 -32zM342 115c0 46 -24 107 -78 107c-44 0 -95 -22 -95 -73c0 -52 46 -82 94 -82c28 0 79 12 79 48z" />
    <glyph glyph-name="acircumflex" unicode="&#xe2;" horiz-adv-x="551" 
d="M410 543c0 -18 -14 -32 -32 -32c-42 0 -89 50 -132 50c-40 0 -76 -51 -126 -51c-17 0 -34 13 -34 31c0 20 17 35 31 46l86 68c13 10 28 21 45 21c15 0 30 -9 42 -18l69 -52c19 -14 51 -36 51 -63zM577 48c0 -44 -59 -56 -93 -56c-53 0 -83 14 -113 58
c-59 -38 -114 -58 -184 -58c-79 0 -164 44 -164 133c0 111 130 155 222 155c18 0 37 -2 55 -3c-17 49 -38 99 -97 99c-24 0 -57 -6 -77 -21c-13 -10 -26 -23 -43 -23c-12 0 -22 10 -22 22c0 28 39 58 61 70c33 19 82 31 120 31c54 0 117 -19 148 -66c20 -30 35 -69 46 -104
l47 -153c7 -23 28 -64 56 -64c9 0 17 6 23 12c9 -9 15 -19 15 -32zM342 115c0 46 -24 107 -78 107c-44 0 -95 -22 -95 -73c0 -52 46 -82 94 -82c28 0 79 12 79 48z" />
    <glyph glyph-name="adieresis" unicode="&#xe4;" horiz-adv-x="551" 
d="M471 616c0 -52 -79 -86 -124 -86c-28 0 -49 21 -49 49c0 48 80 83 121 83c28 0 52 -16 52 -46zM251 616c0 -52 -79 -86 -124 -86c-28 0 -49 21 -49 49c0 48 80 83 121 83c28 0 52 -16 52 -46zM577 48c0 -44 -59 -56 -93 -56c-53 0 -83 14 -113 58
c-59 -38 -114 -58 -184 -58c-79 0 -164 44 -164 133c0 111 130 155 222 155c18 0 37 -2 55 -3c-17 49 -38 99 -97 99c-24 0 -57 -6 -77 -21c-13 -10 -26 -23 -43 -23c-12 0 -22 10 -22 22c0 28 39 58 61 70c33 19 82 31 120 31c54 0 117 -19 148 -66c20 -30 35 -69 46 -104
l47 -153c7 -23 28 -64 56 -64c9 0 17 6 23 12c9 -9 15 -19 15 -32zM342 115c0 46 -24 107 -78 107c-44 0 -95 -22 -95 -73c0 -52 46 -82 94 -82c28 0 79 12 79 48z" />
    <glyph glyph-name="atilde" unicode="&#xe3;" horiz-adv-x="551" 
d="M429 630c0 -49 -37 -106 -91 -106c-58 0 -109 41 -167 41c-33 0 -33 -38 -62 -38c-19 0 -28 18 -28 35c0 50 37 105 91 105c38 0 82 -16 118 -28c14 -5 39 -14 54 -14c32 0 26 41 56 41c21 0 29 -18 29 -36zM577 48c0 -44 -59 -56 -93 -56c-53 0 -83 14 -113 58
c-59 -38 -114 -58 -184 -58c-79 0 -164 44 -164 133c0 111 130 155 222 155c18 0 37 -2 55 -3c-17 49 -38 99 -97 99c-24 0 -57 -6 -77 -21c-13 -10 -26 -23 -43 -23c-12 0 -22 10 -22 22c0 28 39 58 61 70c33 19 82 31 120 31c54 0 117 -19 148 -66c20 -30 35 -69 46 -104
l47 -153c7 -23 28 -64 56 -64c9 0 17 6 23 12c9 -9 15 -19 15 -32zM342 115c0 46 -24 107 -78 107c-44 0 -95 -22 -95 -73c0 -52 46 -82 94 -82c28 0 79 12 79 48z" />
    <glyph glyph-name="aring" unicode="&#xe5;" horiz-adv-x="551" 
d="M357 589c0 -58 -45 -95 -101 -95c-62 0 -113 38 -113 103c0 60 45 96 103 96c59 0 111 -43 111 -104zM577 48c0 -44 -59 -56 -93 -56c-53 0 -83 14 -113 58c-59 -38 -114 -58 -184 -58c-79 0 -164 44 -164 133c0 111 130 155 222 155c18 0 37 -2 55 -3
c-17 49 -38 99 -97 99c-24 0 -57 -6 -77 -21c-13 -10 -26 -23 -43 -23c-12 0 -22 10 -22 22c0 28 39 58 61 70c33 19 82 31 120 31c54 0 117 -19 148 -66c20 -30 35 -69 46 -104l47 -153c7 -23 28 -64 56 -64c9 0 17 6 23 12c9 -9 15 -19 15 -32zM283 567
c0 23 -10 89 -43 89c-19 0 -26 -20 -26 -36c0 -23 15 -89 44 -89c20 0 25 19 25 36zM342 115c0 46 -24 107 -78 107c-44 0 -95 -22 -95 -73c0 -52 46 -82 94 -82c28 0 79 12 79 48z" />
    <glyph glyph-name="ccedilla" unicode="&#xe7;" horiz-adv-x="487" 
d="M495 128c0 -29 -42 -67 -63 -83c-33 -26 -71 -43 -113 -49l-29 -51c50 -1 87 -21 87 -75c0 -57 -51 -87 -103 -87c-23 0 -84 12 -84 44c0 8 6 21 16 21c14 0 32 -18 50 -18c24 0 43 22 43 45c0 30 -28 39 -53 39c-3 0 -6 -2 -9 -2c-7 0 -14 4 -14 12c0 11 29 58 35 70
c-128 7 -239 82 -239 220c0 150 128 239 269 239c55 0 122 -12 169 -42c10 -6 16 -11 16 -23c0 -7 -2 -13 -5 -19l-44 -92c-4 -9 -10 -19 -22 -19c-13 0 -17 10 -21 20c-18 51 -38 120 -105 120c-78 0 -103 -87 -103 -151c0 -90 42 -184 144 -184c92 0 127 87 157 87
c13 0 21 -9 21 -22z" />
    <glyph glyph-name="eacute" unicode="&#xe9;" horiz-adv-x="501" 
d="M346 652c0 -15 -15 -29 -26 -38l-111 -87c-8 -6 -22 -15 -32 -15c-15 0 -22 11 -22 25c0 20 20 80 25 99c9 34 17 37 51 37h70c16 0 45 1 45 -21zM509 125c0 -24 -30 -52 -47 -65c-54 -43 -135 -67 -203 -67c-135 0 -240 88 -240 227c0 132 112 232 241 232
c66 0 131 -29 173 -80c12 -14 42 -58 42 -76c0 -10 -52 -29 -61 -36l-216 -95c25 -55 70 -91 132 -91c49 0 93 23 127 56c8 8 17 19 30 19c14 0 22 -11 22 -24zM318 287c0 12 -10 33 -16 43c-17 30 -45 56 -81 56c-48 0 -69 -40 -69 -84c0 -15 8 -85 28 -85
c11 0 97 41 110 47c9 4 28 11 28 23z" />
    <glyph glyph-name="egrave" unicode="&#xe8;" horiz-adv-x="501" 
d="M345 537c0 -14 -7 -25 -22 -25c-10 0 -24 9 -32 15l-110 87c-11 9 -26 23 -26 38c0 21 30 21 45 21h74c32 0 39 -6 47 -37l21 -77c2 -7 3 -15 3 -22zM509 125c0 -24 -30 -52 -47 -65c-54 -43 -135 -67 -203 -67c-135 0 -240 88 -240 227c0 132 112 232 241 232
c66 0 131 -29 173 -80c12 -14 42 -58 42 -76c0 -10 -52 -29 -61 -36l-216 -95c25 -55 70 -91 132 -91c49 0 93 23 127 56c8 8 17 19 30 19c14 0 22 -11 22 -24zM318 287c0 12 -10 33 -16 43c-17 30 -45 56 -81 56c-48 0 -69 -40 -69 -84c0 -15 8 -85 28 -85
c11 0 97 41 110 47c9 4 28 11 28 23z" />
    <glyph glyph-name="ecircumflex" unicode="&#xea;" horiz-adv-x="501" 
d="M412 543c0 -18 -14 -32 -32 -32c-42 0 -89 50 -132 50c-41 0 -76 -51 -126 -51c-17 0 -34 13 -34 31c0 20 17 35 31 46l86 68c12 10 28 21 44 21s31 -9 43 -18l69 -52c19 -14 51 -36 51 -63zM509 125c0 -24 -30 -52 -47 -65c-54 -43 -135 -67 -203 -67
c-135 0 -240 88 -240 227c0 132 112 232 241 232c66 0 131 -29 173 -80c12 -14 42 -58 42 -76c0 -10 -52 -29 -61 -36l-216 -95c25 -55 70 -91 132 -91c49 0 93 23 127 56c8 8 17 19 30 19c14 0 22 -11 22 -24zM318 287c0 12 -10 33 -16 43c-17 30 -45 56 -81 56
c-48 0 -69 -40 -69 -84c0 -15 8 -85 28 -85c11 0 97 41 110 47c9 4 28 11 28 23z" />
    <glyph glyph-name="edieresis" unicode="&#xeb;" horiz-adv-x="501" 
d="M446 616c0 -52 -79 -86 -124 -86c-28 0 -49 21 -49 49c0 48 80 83 121 83c28 0 52 -16 52 -46zM226 616c0 -52 -79 -86 -124 -86c-28 0 -49 21 -49 49c0 48 80 83 121 83c28 0 52 -16 52 -46zM509 125c0 -24 -30 -52 -47 -65c-54 -43 -135 -67 -203 -67
c-135 0 -240 88 -240 227c0 132 112 232 241 232c66 0 131 -29 173 -80c12 -14 42 -58 42 -76c0 -10 -52 -29 -61 -36l-216 -95c25 -55 70 -91 132 -91c49 0 93 23 127 56c8 8 17 19 30 19c14 0 22 -11 22 -24zM318 287c0 12 -10 33 -16 43c-17 30 -45 56 -81 56
c-48 0 -69 -40 -69 -84c0 -15 8 -85 28 -85c11 0 97 41 110 47c9 4 28 11 28 23z" />
    <glyph glyph-name="iacute" unicode="&#xed;" horiz-adv-x="280" 
d="M235 652c0 -15 -14 -29 -25 -38l-111 -87c-8 -6 -22 -15 -32 -15c-15 0 -22 11 -22 25c0 7 2 15 4 22l21 77c9 33 16 37 50 37h71c16 0 44 1 44 -21zM268 30c0 -27 -27 -30 -48 -30h-160c-22 0 -47 3 -47 30c0 16 11 24 24 31c8 4 16 8 22 15c17 21 14 94 14 120v82
c0 26 4 46 -23 56c-13 5 -27 11 -27 27c0 17 15 24 29 30c20 9 122 58 140 58c17 0 16 -21 16 -33v-209c0 -26 -4 -108 11 -129c6 -8 15 -13 24 -17c13 -6 25 -15 25 -31z" />
    <glyph glyph-name="igrave" unicode="&#xec;" horiz-adv-x="280" 
d="M235 537c0 -14 -7 -25 -22 -25c-10 0 -24 9 -32 15l-111 87c-11 9 -25 23 -25 38c0 22 30 21 45 21h70c34 0 41 -4 50 -37l21 -77c2 -7 4 -15 4 -22zM268 30c0 -27 -27 -30 -48 -30h-160c-22 0 -47 3 -47 30c0 16 11 24 24 31c8 4 16 8 22 15c17 21 14 94 14 120v82
c0 26 4 46 -23 56c-13 5 -27 11 -27 27c0 17 15 24 29 30c20 9 122 58 140 58c17 0 16 -21 16 -33v-209c0 -26 -4 -108 11 -129c6 -8 15 -13 24 -17c13 -6 25 -15 25 -31z" />
    <glyph glyph-name="icircumflex" unicode="&#xee;" horiz-adv-x="280" 
d="M278 548c0 -16 -11 -29 -27 -29c-36 0 -74 45 -113 45c-35 0 -65 -45 -108 -45c-15 0 -29 11 -29 27c0 18 14 31 27 42l73 60c10 8 25 20 38 20s26 -9 36 -17l59 -46c17 -13 44 -33 44 -57zM268 30c0 -27 -27 -30 -48 -30h-160c-22 0 -47 3 -47 30c0 16 11 24 24 31
c8 4 16 8 22 15c17 21 14 94 14 120v82c0 26 4 46 -23 56c-13 5 -27 11 -27 27c0 17 15 24 29 30c20 9 122 58 140 58c17 0 16 -21 16 -33v-209c0 -26 -4 -108 11 -129c6 -8 15 -13 24 -17c13 -6 25 -15 25 -31z" />
    <glyph glyph-name="idieresis" unicode="&#xef;" horiz-adv-x="280" 
d="M280 614c0 -22 -9 -36 -26 -50s-41 -27 -64 -27c-24 0 -36 21 -36 43c0 40 52 76 89 76c24 0 37 -20 37 -42zM125 614c0 -23 -9 -36 -26 -50s-42 -27 -64 -27c-24 0 -36 21 -36 43c0 40 52 76 89 76c24 0 37 -20 37 -42zM268 30c0 -27 -27 -30 -48 -30h-160
c-22 0 -47 3 -47 30c0 16 11 24 24 31c8 4 16 8 22 15c17 21 14 94 14 120v82c0 26 4 46 -23 56c-13 5 -27 11 -27 27c0 17 15 24 29 30c20 9 122 58 140 58c17 0 16 -21 16 -33v-209c0 -26 -4 -108 11 -129c6 -8 15 -13 24 -17c13 -6 25 -15 25 -31z" />
    <glyph glyph-name="ntilde" unicode="&#xf1;" horiz-adv-x="569" 
d="M458 630c0 -49 -37 -106 -91 -106c-58 0 -109 41 -167 41c-33 0 -32 -38 -62 -38c-19 0 -28 18 -28 35c0 50 37 105 91 105c39 0 82 -16 118 -28c14 -5 39 -14 54 -14c32 0 26 41 56 41c21 0 29 -18 29 -36zM583 29c0 -24 -21 -29 -41 -29h-177c-19 0 -37 6 -37 28
c0 36 54 23 54 69c0 10 -3 20 -5 29l-34 134c-8 33 -29 94 -72 94c-52 0 -63 -61 -63 -102v-52c0 -26 -2 -96 10 -119c12 -22 47 -26 47 -53c0 -24 -25 -28 -44 -28h-160c-19 0 -44 4 -44 28c0 34 49 26 54 75c3 26 3 53 3 79v73c0 25 0 51 -28 59c-14 4 -32 8 -32 26
c0 11 10 22 19 27c20 11 139 78 154 78c28 0 21 -51 21 -69c37 34 68 66 121 66c85 0 121 -70 141 -143l44 -160c9 -33 12 -54 39 -77c13 -6 30 -17 30 -33z" />
    <glyph glyph-name="oacute" unicode="&#xf3;" horiz-adv-x="561" 
d="M376 652c0 -15 -15 -29 -26 -38l-110 -87c-8 -6 -23 -15 -33 -15c-15 0 -21 11 -21 25c0 7 1 15 3 22l22 77c10 33 16 37 50 37h70c16 0 45 1 45 -21zM542 202c0 -147 -142 -209 -270 -209c-144 0 -253 75 -253 227c0 140 111 233 247 233c139 0 276 -105 276 -251z
M398 150c0 53 -26 118 -56 161c-25 36 -70 84 -117 84c-51 0 -73 -47 -73 -92c0 -84 70 -240 168 -240c52 0 78 38 78 87z" />
    <glyph glyph-name="ograve" unicode="&#xf2;" horiz-adv-x="561" 
d="M362 537c0 -14 -7 -25 -22 -25c-10 0 -24 9 -32 15l-110 87c-11 9 -26 23 -26 38c0 22 30 21 45 21h70c34 0 40 -4 50 -37l22 -77c2 -7 3 -15 3 -22zM542 202c0 -147 -142 -209 -270 -209c-144 0 -253 75 -253 227c0 140 111 233 247 233c139 0 276 -105 276 -251z
M398 150c0 53 -26 118 -56 161c-25 36 -70 84 -117 84c-51 0 -73 -47 -73 -92c0 -84 70 -240 168 -240c52 0 78 38 78 87z" />
    <glyph glyph-name="ocircumflex" unicode="&#xf4;" horiz-adv-x="561" 
d="M442 543c0 -18 -14 -32 -32 -32c-42 0 -89 50 -132 50c-40 0 -76 -51 -126 -51c-17 0 -34 13 -34 31c0 20 17 35 31 46l86 68c13 10 28 21 45 21c15 0 30 -9 42 -18l69 -52c19 -14 51 -36 51 -63zM542 202c0 -147 -142 -209 -270 -209c-144 0 -253 75 -253 227
c0 140 111 233 247 233c139 0 276 -105 276 -251zM398 150c0 53 -26 118 -56 161c-25 36 -70 84 -117 84c-51 0 -73 -47 -73 -92c0 -84 70 -240 168 -240c52 0 78 38 78 87z" />
    <glyph glyph-name="odieresis" unicode="&#xf6;" horiz-adv-x="561" 
d="M476 616c0 -51 -79 -86 -123 -86c-28 0 -49 21 -49 49c0 49 79 83 121 83c28 0 51 -16 51 -46zM256 616c0 -51 -79 -86 -123 -86c-28 0 -49 21 -49 49c0 49 79 83 121 83c28 0 51 -16 51 -46zM542 202c0 -147 -142 -209 -270 -209c-144 0 -253 75 -253 227
c0 140 111 233 247 233c139 0 276 -105 276 -251zM398 150c0 53 -26 118 -56 161c-25 36 -70 84 -117 84c-51 0 -73 -47 -73 -92c0 -84 70 -240 168 -240c52 0 78 38 78 87z" />
    <glyph glyph-name="otilde" unicode="&#xf5;" horiz-adv-x="561" 
d="M455 630c0 -49 -37 -106 -91 -106c-58 0 -109 41 -167 41c-35 0 -33 -38 -63 -38c-19 0 -27 18 -27 35c0 49 36 105 90 105c40 0 81 -16 118 -28c16 -5 38 -14 55 -14c31 0 26 41 56 41c20 0 29 -18 29 -36zM542 202c0 -147 -142 -209 -270 -209c-144 0 -253 75 -253 227
c0 140 111 233 247 233c139 0 276 -105 276 -251zM398 150c0 53 -26 118 -56 161c-25 36 -70 84 -117 84c-51 0 -73 -47 -73 -92c0 -84 70 -240 168 -240c52 0 78 38 78 87z" />
    <glyph glyph-name="uacute" unicode="&#xfa;" horiz-adv-x="542" 
d="M366 652c0 -15 -14 -29 -25 -38l-111 -87c-8 -6 -22 -15 -32 -15c-15 0 -22 11 -22 25c0 7 2 15 4 22l21 77c9 33 16 37 50 37h71c16 0 44 1 44 -21zM526 28c0 -25 -25 -28 -44 -28h-117c-37 0 -29 25 -29 57c-42 -38 -87 -72 -146 -72c-34 0 -71 14 -92 41
c-24 30 -28 72 -30 109l-6 139c-1 25 3 55 -26 62c-16 4 -29 6 -29 25c0 15 12 23 24 28c20 9 121 56 136 56c24 0 23 -33 24 -50l2 -52l5 -129c1 -39 2 -137 59 -137s81 51 80 101l-1 85c0 19 2 58 -22 64c-16 4 -36 5 -36 27c0 16 14 23 27 29l113 52c8 4 18 8 27 8
c33 0 25 -65 25 -85v-56v-94c0 -23 -3 -106 9 -127c13 -23 47 -27 47 -53z" />
    <glyph glyph-name="ugrave" unicode="&#xf9;" horiz-adv-x="542" 
d="M366 537c0 -14 -7 -25 -22 -25c-10 0 -24 9 -32 15l-111 87c-11 9 -25 23 -25 38c0 22 30 21 45 21h70c34 0 41 -4 50 -37l21 -77c2 -7 4 -15 4 -22zM526 28c0 -25 -25 -28 -44 -28h-117c-37 0 -29 25 -29 57c-42 -38 -87 -72 -146 -72c-34 0 -71 14 -92 41
c-24 30 -28 72 -30 109l-6 139c-1 25 3 55 -26 62c-16 4 -29 6 -29 25c0 15 12 23 24 28c20 9 121 56 136 56c24 0 23 -33 24 -50l2 -52l5 -129c1 -39 2 -137 59 -137s81 51 80 101l-1 85c0 19 2 58 -22 64c-16 4 -36 5 -36 27c0 16 14 23 27 29l113 52c8 4 18 8 27 8
c33 0 25 -65 25 -85v-56v-94c0 -23 -3 -106 9 -127c13 -23 47 -27 47 -53z" />
    <glyph glyph-name="ucircumflex" unicode="&#xfb;" horiz-adv-x="542" 
d="M433 543c0 -18 -14 -32 -32 -32c-43 0 -91 50 -133 50c-40 0 -75 -51 -126 -51c-17 0 -34 13 -34 31c0 19 18 35 32 46l85 68c12 10 28 21 45 21c15 0 30 -9 42 -18l69 -52c19 -14 52 -36 52 -63zM526 28c0 -25 -25 -28 -44 -28h-117c-37 0 -29 25 -29 57
c-42 -38 -87 -72 -146 -72c-34 0 -71 14 -92 41c-24 30 -28 72 -30 109l-6 139c-1 25 3 55 -26 62c-16 4 -29 6 -29 25c0 15 12 23 24 28c20 9 121 56 136 56c24 0 23 -33 24 -50l2 -52l5 -129c1 -39 2 -137 59 -137s81 51 80 101l-1 85c0 19 2 58 -22 64
c-16 4 -36 5 -36 27c0 16 14 23 27 29l113 52c8 4 18 8 27 8c33 0 25 -65 25 -85v-56v-94c0 -23 -3 -106 9 -127c13 -23 47 -27 47 -53z" />
    <glyph glyph-name="udieresis" unicode="&#xfc;" horiz-adv-x="542" 
d="M467 616c0 -52 -79 -86 -124 -86c-28 0 -49 21 -49 49c0 48 80 83 121 83c28 0 52 -16 52 -46zM247 616c0 -52 -79 -86 -124 -86c-28 0 -49 21 -49 49c0 48 80 83 121 83c28 0 52 -16 52 -46zM526 28c0 -25 -25 -28 -44 -28h-117c-37 0 -29 25 -29 57
c-42 -38 -87 -72 -146 -72c-34 0 -71 14 -92 41c-24 30 -28 72 -30 109l-6 139c-1 25 3 55 -26 62c-16 4 -29 6 -29 25c0 15 12 23 24 28c20 9 121 56 136 56c24 0 23 -33 24 -50l2 -52l5 -129c1 -39 2 -137 59 -137s81 51 80 101l-1 85c0 19 2 58 -22 64
c-16 4 -36 5 -36 27c0 16 14 23 27 29l113 52c8 4 18 8 27 8c33 0 25 -65 25 -85v-56v-94c0 -23 -3 -106 9 -127c13 -23 47 -27 47 -53z" />
    <glyph glyph-name="degree" unicode="&#xb0;" 
d="M401 515c0 -83 -69 -148 -151 -148s-151 65 -151 148s69 148 151 148s151 -65 151 -148zM332 515c0 45 -38 80 -82 80c-45 0 -82 -35 -82 -80s38 -81 82 -81s82 36 82 81z" />
    <glyph glyph-name="registered" unicode="&#xae;" horiz-adv-x="533" 
d="M500 557c0 -129 -104 -234 -233 -234s-234 105 -234 234s106 233 234 233s233 -105 233 -233zM456 557c0 104 -85 189 -189 189s-190 -84 -190 -189s85 -190 190 -190s189 86 189 190zM396 460c0 -11 -9 -13 -18 -13h-79c-8 0 -17 3 -17 13c0 8 8 13 15 14l2 3
c-5 9 -23 23 -31 31c-14 -1 -28 -2 -42 0c-1 -5 -1 -9 -1 -14c0 -16 -2 -18 13 -21c6 -1 11 -7 11 -13c0 -12 -11 -13 -20 -13h-69c-10 0 -23 0 -23 13c0 15 19 13 22 18c2 4 3 39 3 42v74c0 3 -1 38 -3 41c-4 7 -22 4 -22 18c0 13 13 14 23 14h70c57 0 156 -12 156 -88
c0 -33 -25 -50 -54 -58l32 -34c14 -14 32 -13 32 -27zM312 583c0 32 -25 55 -56 55c-23 0 -32 -5 -32 -29c0 -14 1 -28 1 -42c1 -22 5 -30 28 -30c29 0 59 12 59 46z" />
    <glyph glyph-name="copyright" unicode="&#xa9;" horiz-adv-x="747" 
d="M720 333c0 -192 -156 -346 -347 -346s-346 155 -346 346s154 347 346 347s347 -155 347 -347zM666 333c0 162 -129 297 -293 297s-293 -135 -293 -297c0 -161 131 -296 293 -296c163 0 293 134 293 296zM586 216c0 -15 -11 -27 -21 -36c-44 -42 -112 -59 -171 -59
c-125 0 -258 63 -258 205c0 129 114 216 237 216c27 0 55 -3 81 -11c8 -2 22 -8 30 -8c14 0 17 22 35 22c19 0 26 -27 32 -41l23 -58c3 -7 9 -21 9 -29c0 -11 -7 -20 -18 -20c-27 0 -69 94 -163 94c-89 0 -134 -72 -134 -155c0 -94 58 -151 152 -151c39 0 78 11 110 35
c9 6 22 20 34 20c13 0 22 -12 22 -24z" />
    <glyph glyph-name="trademark" unicode="&#x2122;" horiz-adv-x="1018" 
d="M1011 306c0 -14 -11 -19 -23 -19h-130c-12 0 -22 6 -22 19c0 25 31 15 31 37c0 10 -4 20 -6 29l-34 137l-99 -194c-4 -9 -12 -27 -24 -27c-13 0 -20 16 -25 26l-96 203l-49 -156c-2 -7 -4 -15 -4 -22c0 -21 27 -12 27 -35c0 -15 -12 -17 -24 -17h-89c-10 0 -18 7 -18 17
c0 12 7 16 18 20c19 7 21 16 27 35l66 224c2 8 4 17 4 25c0 24 -30 15 -30 39c0 18 17 20 32 20h99c13 0 26 -3 26 -19c0 -21 -27 -21 -27 -35c0 -6 4 -13 7 -19l66 -131c2 -3 7 -15 12 -15c6 0 10 11 12 15l64 131c3 6 5 12 5 18c0 20 -31 13 -31 37c0 15 13 18 26 18h103
c14 0 28 -1 28 -18c0 -25 -33 -17 -33 -39c0 -9 3 -18 5 -26l61 -223c6 -21 8 -25 28 -34c10 -5 17 -9 17 -21zM430 569c0 -8 -6 -16 -15 -16c-25 0 -46 64 -117 64c-31 0 -34 -6 -34 -37v-169c0 -7 -1 -71 8 -78c12 -9 33 -5 33 -27c0 -19 -20 -19 -34 -19h-110
c-14 0 -33 0 -33 19c0 24 27 17 35 31c5 10 6 94 6 104v140c0 28 -2 37 -32 37c-63 0 -92 -65 -115 -65c-9 0 -15 6 -15 15c0 7 3 13 6 19l48 84c4 7 10 13 18 13c16 0 16 -17 47 -17h183c13 0 27 1 38 8c6 4 11 9 19 9c10 0 16 -9 20 -17l39 -82c2 -5 5 -11 5 -16z" />
    <glyph glyph-name="notequal" unicode="&#x2260;" 
d="M467 185h-240l-51 -100h-90l50 100h-102v102h148l37 74h-185v102h231l55 109h89l-53 -109h111v-102h-157l-37 -74h194v-102z" />
    <glyph glyph-name="infinity" unicode="&#x221e;" horiz-adv-x="667" 
d="M650 340c0 -93 -66 -161 -159 -161c-65 0 -117 37 -155 87c-41 -49 -93 -87 -159 -87c-94 0 -160 67 -160 161c0 93 67 160 160 160c64 0 116 -38 154 -86c39 51 94 86 159 86c94 0 160 -66 160 -160zM533 340c0 33 -29 58 -61 58c-37 0 -63 -30 -83 -58
c20 -28 46 -59 84 -59c34 0 60 25 60 59zM277 339c-20 29 -45 59 -83 59c-33 0 -60 -25 -60 -59s27 -58 60 -58c38 0 63 30 83 58z" />
    <glyph glyph-name="plusminus" unicode="&#xb1;" 
d="M467 353h-160v-158h-114v158h-160v105h160v159h114v-159h160v-105zM467 55h-434v105h434v-105z" />
    <glyph glyph-name="lessequal" unicode="&#x2264;" 
d="M467 146l-434 205v96l434 204v-106l-314 -147l313 -146zM467 16h-434v102h434v-102z" />
    <glyph glyph-name="greaterequal" unicode="&#x2265;" 
d="M467 351l-434 -205v106l314 147l-313 146l-1 106l434 -205v-95zM467 16h-434v102h434v-102z" />
    <glyph glyph-name="mu" unicode="&#xb5;" 
d="M468 0h-112v64c-23 -46 -53 -75 -107 -75c-50 0 -80 23 -104 65v-225h-113v651h113v-259c0 -74 20 -142 106 -142c85 0 105 76 105 147v254h112v-480z" />
    <glyph glyph-name="partialdiff" unicode="&#x2202;" 
d="M481 262c0 -147 -82 -271 -239 -271c-126 0 -229 100 -229 227c0 117 86 215 206 215c53 0 92 -16 130 -54c-28 63 -57 100 -117 135c-53 31 -110 47 -171 53l15 99c104 -12 197 -35 277 -106c87 -77 128 -183 128 -298zM358 218c0 68 -46 120 -115 120
c-67 0 -113 -59 -113 -123c0 -66 46 -122 114 -122c69 0 114 59 114 125z" />
    <glyph glyph-name="summation" unicode="&#x2211;" horiz-adv-x="667" 
d="M623 -250h-600v114l245 404l-245 369v113h591v-241h-102l-12 139h-349l250 -380l-251 -416h360l6 141h107v-243z" />
    <glyph glyph-name="product" unicode="&#x220f;" horiz-adv-x="723" 
d="M684 -250h-276v102h80v796h-253v-796h79v-102h-275v102h82v796h-82v102h645v-102h-81v-796h81v-102z" />
    <glyph glyph-name="pi" unicode="&#x3c0;" horiz-adv-x="642" 
d="M607 386h-75v-386h-114v386h-194v-386h-113v386h-76v102h572v-102z" />
    <glyph glyph-name="integral" unicode="&#x222b;" 
d="M440 739l-22 -100c-17 5 -34 10 -52 10c-12 0 -26 0 -37 -6c-26 -16 -21 -94 -21 -119v-62v-459c0 -27 0 -54 -1 -81c-1 -42 -2 -82 -30 -116c-34 -42 -81 -55 -134 -55c-28 0 -56 3 -83 9l22 101c18 -5 34 -10 53 -10c55 0 57 42 57 87v43v516c0 27 0 55 1 82
c2 45 3 81 32 117c34 41 78 54 130 54c29 0 57 -5 85 -11z" />
    <glyph glyph-name="Omega" unicode="&#x3a9;" horiz-adv-x="667" 
d="M638 0h-267v91c47 26 78 50 106 96c30 50 43 108 43 166c0 108 -65 228 -186 228c-124 0 -187 -118 -187 -229c0 -118 45 -203 149 -261v-91h-268v102h149c-47 28 -81 56 -109 104s-40 104 -40 160c0 175 126 317 305 317c180 0 305 -141 305 -317
c0 -78 -21 -150 -75 -208c-22 -23 -46 -40 -73 -56h148v-102z" />
    <glyph glyph-name="logicalnot" unicode="&#xac;" 
d="M467 0h-114v165h-320v102h434v-267z" />
    <glyph glyph-name="radical" unicode="&#x221a;" horiz-adv-x="667" 
d="M667 725h-184l-179 -725h-149l-64 279h-91v102h184l24 -97c11 -46 14 -97 18 -144h9c10 103 31 205 56 305l94 382h282v-102z" />
    <glyph glyph-name="approxequal" unicode="&#x2248;" 
d="M492 478c-32 -67 -72 -127 -155 -127c-56 0 -140 54 -191 54c-41 0 -59 -31 -75 -64l-63 41c29 70 63 132 147 132c68 0 139 -54 195 -54c41 0 58 22 77 56zM492 286c-33 -70 -70 -127 -156 -127c-63 0 -132 53 -190 53c-41 0 -59 -31 -75 -64l-63 42
c29 70 63 132 147 132c68 0 138 -54 195 -54c41 0 58 23 77 56z" />
    <glyph glyph-name="Delta" unicode="&#x394;" horiz-adv-x="667" 
d="M647 0h-627l250 667h123zM483 103l-151 426l-150 -426h301z" />
    <glyph glyph-name="nbspace" unicode="&#xa0;" horiz-adv-x="333" 
 />
    <glyph glyph-name="Agrave" unicode="&#xc0;" horiz-adv-x="759" 
d="M488 757c0 -14 -7 -25 -22 -25c-10 0 -24 9 -32 15l-111 87c-11 9 -25 22 -25 38c0 21 29 21 44 21h71c34 0 41 -4 50 -37l21 -77c2 -7 4 -15 4 -22zM766 34c0 -33 -26 -34 -53 -34h-201c-27 0 -51 1 -51 34c0 36 49 24 49 54c0 95 -86 100 -161 100
c-74 0 -152 -8 -152 -100c0 -32 48 -18 48 -56c0 -29 -24 -32 -47 -32h-162c-21 0 -43 7 -43 32c0 28 29 36 50 44c17 6 24 15 34 30c30 48 52 111 73 163c17 42 36 84 55 125c19 42 38 85 58 127c15 31 30 62 43 94c10 25 16 52 47 52h81c49 0 46 -12 64 -56
c12 -30 25 -59 36 -89c13 -35 24 -70 37 -105c15 -39 31 -76 46 -115c16 -41 30 -83 45 -125c10 -27 24 -75 48 -93c8 -6 18 -10 27 -14c18 -8 29 -15 29 -36zM436 298c0 21 -63 181 -74 203c-19 -38 -82 -178 -82 -209c0 -26 57 -23 73 -23c20 0 83 -3 83 29z" />
    <glyph glyph-name="Atilde" unicode="&#xc3;" horiz-adv-x="759" 
d="M577 850c0 -49 -37 -106 -91 -106c-58 0 -109 41 -167 41c-35 0 -30 -38 -63 -38c-19 0 -27 18 -27 35c0 49 36 105 90 105c40 0 81 -16 118 -28c15 -5 39 -14 55 -14c31 0 26 41 56 41c20 0 29 -18 29 -36zM766 34c0 -33 -26 -34 -53 -34h-201c-27 0 -51 1 -51 34
c0 36 49 24 49 54c0 95 -86 100 -161 100c-74 0 -152 -8 -152 -100c0 -32 48 -18 48 -56c0 -29 -24 -32 -47 -32h-162c-21 0 -43 7 -43 32c0 28 29 36 50 44c17 6 24 15 34 30c30 48 52 111 73 163c17 42 36 84 55 125c19 42 38 85 58 127c15 31 30 62 43 94
c10 25 16 52 47 52h81c49 0 46 -12 64 -56c12 -30 25 -59 36 -89c13 -35 24 -70 37 -105c15 -39 31 -76 46 -115c16 -41 30 -83 45 -125c10 -27 24 -75 48 -93c8 -6 18 -10 27 -14c18 -8 29 -15 29 -36zM436 298c0 21 -63 181 -74 203c-19 -38 -82 -178 -82 -209
c0 -26 57 -23 73 -23c20 0 83 -3 83 29z" />
    <glyph glyph-name="Otilde" unicode="&#xd5;" horiz-adv-x="799" 
d="M574 850c0 -49 -37 -106 -91 -106c-58 0 -109 41 -167 41c-35 0 -33 -38 -63 -38c-19 0 -27 18 -27 35c0 49 36 105 90 105c40 0 81 -16 118 -28c16 -5 38 -14 55 -14c31 0 26 41 56 41c20 0 29 -18 29 -36zM776 310c0 -224 -175 -323 -380 -323c-201 0 -373 90 -373 312
c0 210 166 381 377 381c205 0 376 -163 376 -370zM574 302c0 38 -3 76 -11 114c-18 80 -67 183 -163 183c-136 0 -171 -178 -171 -283c0 -114 36 -239 172 -239c129 0 173 114 173 225z" />
    <glyph glyph-name="divide" unicode="&#xf7;" 
d="M317 511c0 -37 -30 -67 -67 -67s-67 30 -67 67s30 67 67 67s67 -30 67 -67zM467 286h-434v104h434v-104zM317 164c0 -37 -30 -67 -67 -67s-67 30 -67 67s30 67 67 67s67 -30 67 -67z" />
    <glyph glyph-name="lozenge" unicode="&#x25ca;" horiz-adv-x="667" 
d="M593 334l-260 -360l-259 360l259 359zM460 334l-127 175l-127 -175l127 -175z" />
    <glyph glyph-name="ydieresis" unicode="&#xff;" horiz-adv-x="498" 
d="M458 616c0 -52 -79 -86 -124 -86c-28 0 -49 21 -49 49c0 48 80 83 121 83c28 0 52 -16 52 -46zM238 616c0 -52 -79 -86 -124 -86c-28 0 -49 21 -49 49c0 48 80 83 121 83c28 0 52 -16 52 -46zM514 413c0 -21 -15 -26 -31 -35c-34 -19 -52 -51 -67 -86l-122 -275
c-35 -79 -87 -166 -184 -166c-47 0 -70 10 -80 58c-5 23 -18 71 -18 93c0 14 7 26 22 26c33 0 31 -71 95 -71c36 0 58 31 72 60l-143 306c-11 24 -19 42 -43 54c-17 8 -32 12 -32 33c0 23 16 29 36 29h177c18 0 38 -2 38 -25c0 -36 -42 -22 -42 -52c0 -6 6 -30 9 -36
l73 -155l66 148c5 11 10 28 10 40c0 29 -43 22 -43 53c0 23 15 27 35 27h136c19 0 36 -4 36 -26z" />
    <glyph glyph-name="Ydieresis" unicode="&#x178;" horiz-adv-x="712" 
d="M601 838c0 -28 -15 -45 -37 -59c-26 -17 -61 -31 -93 -31c-29 0 -51 22 -51 51c0 50 84 88 127 88c29 0 54 -18 54 -49zM370 838c0 -28 -15 -45 -37 -59c-26 -17 -61 -31 -93 -31c-29 0 -51 22 -51 51c0 50 84 88 127 88c29 0 54 -18 54 -49zM732 636
c0 -22 -13 -26 -32 -33c-20 -7 -30 -15 -42 -32l-176 -242c-25 -34 -27 -37 -27 -80v-87c0 -20 -2 -69 16 -84c6 -6 15 -8 23 -10c17 -5 30 -16 30 -35c0 -29 -26 -33 -50 -33h-217c-21 0 -35 13 -35 34c0 20 12 30 30 35c35 10 37 17 37 54v85c0 43 -4 46 -28 79l-192 263
c-9 12 -19 28 -32 36c-21 13 -58 19 -58 50c0 25 23 31 44 31h240c21 0 37 -9 37 -32c0 -39 -46 -28 -46 -51c0 -14 22 -38 30 -48l112 -145l119 166c6 8 12 20 12 30c0 23 -41 17 -41 50c0 20 17 30 35 30h168c23 0 43 -3 43 -31z" />
    <glyph glyph-name="Acircumflex" unicode="&#xc2;" horiz-adv-x="759" 
d="M565 763c0 -18 -14 -32 -32 -32c-44 0 -90 50 -133 50c-40 0 -75 -51 -126 -51c-17 0 -34 13 -34 31c0 20 17 35 31 46l86 68c12 10 29 21 45 21c15 0 30 -9 42 -18l69 -52c19 -14 52 -36 52 -63zM766 34c0 -33 -26 -34 -53 -34h-201c-27 0 -51 1 -51 34
c0 36 49 24 49 54c0 95 -86 100 -161 100c-74 0 -152 -8 -152 -100c0 -32 48 -18 48 -56c0 -29 -24 -32 -47 -32h-162c-21 0 -43 7 -43 32c0 28 29 36 50 44c17 6 24 15 34 30c30 48 52 111 73 163c17 42 36 84 55 125c19 42 38 85 58 127c15 31 30 62 43 94
c10 25 16 52 47 52h81c49 0 46 -12 64 -56c12 -30 25 -59 36 -89c13 -35 24 -70 37 -105c15 -39 31 -76 46 -115c16 -41 30 -83 45 -125c10 -27 24 -75 48 -93c8 -6 18 -10 27 -14c18 -8 29 -15 29 -36zM436 298c0 21 -63 181 -74 203c-19 -38 -82 -178 -82 -209
c0 -26 57 -23 73 -23c20 0 83 -3 83 29z" />
    <glyph glyph-name="Ecircumflex" unicode="&#xca;" horiz-adv-x="718" 
d="M487 763c0 -18 -14 -32 -32 -32c-42 0 -89 50 -132 50c-40 0 -75 -51 -126 -51c-17 0 -34 13 -34 31c0 20 17 35 31 46l86 68c12 10 28 21 44 21s31 -9 43 -18l69 -52c19 -14 51 -36 51 -63zM718 162c0 -9 -2 -19 -7 -27l-86 -149c-7 -12 -17 -22 -31 -22
c-13 0 -22 6 -32 14c-31 24 -40 22 -79 22h-401c-27 0 -59 1 -59 35c0 40 49 31 62 53c10 17 10 118 10 131v229c0 11 0 117 -10 131c-14 21 -62 12 -62 53c0 34 32 35 59 35h316c29 0 56 -1 81 16c10 7 20 15 32 15c14 0 21 -8 29 -19l90 -129c5 -7 9 -17 9 -26
c0 -15 -12 -29 -27 -29c-14 0 -28 14 -39 22c-34 27 -70 50 -113 61c-31 8 -63 10 -95 10c-68 0 -100 3 -100 -72c0 -58 -4 -87 59 -87c26 0 33 1 49 22c9 12 21 30 37 30c14 0 24 -10 31 -21l83 -124c5 -8 10 -17 10 -26c0 -17 -15 -32 -32 -32c-14 0 -32 14 -43 22
c-46 34 -67 47 -125 47c-70 0 -71 -20 -71 -86v-18c0 -22 1 -43 1 -65c1 -71 10 -83 81 -83c48 0 117 -2 163 5c55 8 92 30 135 64c10 8 32 28 45 28c18 0 30 -12 30 -30z" />
    <glyph glyph-name="Aacute" unicode="&#xc1;" horiz-adv-x="759" 
d="M501 872c0 -16 -14 -29 -25 -38l-111 -87c-8 -6 -22 -15 -32 -15c-15 0 -22 11 -22 25c0 7 2 15 4 22l21 77c9 33 16 37 50 37h71c16 0 44 1 44 -21zM766 34c0 -33 -26 -34 -53 -34h-201c-27 0 -51 1 -51 34c0 36 49 24 49 54c0 95 -86 100 -161 100
c-74 0 -152 -8 -152 -100c0 -32 48 -18 48 -56c0 -29 -24 -32 -47 -32h-162c-21 0 -43 7 -43 32c0 28 29 36 50 44c17 6 24 15 34 30c30 48 52 111 73 163c17 42 36 84 55 125c19 42 38 85 58 127c15 31 30 62 43 94c10 25 16 52 47 52h81c49 0 46 -12 64 -56
c12 -30 25 -59 36 -89c13 -35 24 -70 37 -105c15 -39 31 -76 46 -115c16 -41 30 -83 45 -125c10 -27 24 -75 48 -93c8 -6 18 -10 27 -14c18 -8 29 -15 29 -36zM436 298c0 21 -63 181 -74 203c-19 -38 -82 -178 -82 -209c0 -26 57 -23 73 -23c20 0 83 -3 83 29z" />
    <glyph glyph-name="Edieresis" unicode="&#xcb;" horiz-adv-x="718" 
d="M531 838c0 -28 -16 -45 -38 -59c-26 -17 -61 -31 -92 -31c-30 0 -52 21 -52 51c0 49 85 88 128 88c29 0 54 -18 54 -49zM300 838c0 -28 -16 -45 -38 -59c-26 -17 -61 -31 -92 -31c-30 0 -52 21 -52 51c0 49 85 88 128 88c29 0 54 -18 54 -49zM718 162c0 -9 -2 -19 -7 -27
l-86 -149c-7 -12 -17 -22 -31 -22c-13 0 -22 6 -32 14c-31 24 -40 22 -79 22h-401c-27 0 -59 1 -59 35c0 40 49 31 62 53c10 17 10 118 10 131v229c0 11 0 117 -10 131c-14 21 -62 12 -62 53c0 34 32 35 59 35h316c29 0 56 -1 81 16c10 7 20 15 32 15c14 0 21 -8 29 -19
l90 -129c5 -7 9 -17 9 -26c0 -15 -12 -29 -27 -29c-14 0 -28 14 -39 22c-34 27 -70 50 -113 61c-31 8 -63 10 -95 10c-68 0 -100 3 -100 -72c0 -58 -4 -87 59 -87c26 0 33 1 49 22c9 12 21 30 37 30c14 0 24 -10 31 -21l83 -124c5 -8 10 -17 10 -26c0 -17 -15 -32 -32 -32
c-14 0 -32 14 -43 22c-46 34 -67 47 -125 47c-70 0 -71 -20 -71 -86v-18c0 -22 1 -43 1 -65c1 -71 10 -83 81 -83c48 0 117 -2 163 5c55 8 92 30 135 64c10 8 32 28 45 28c18 0 30 -12 30 -30z" />
    <glyph glyph-name="Egrave" unicode="&#xc8;" horiz-adv-x="718" 
d="M421 757c0 -14 -7 -25 -22 -25c-10 0 -24 9 -32 15l-111 87c-11 9 -26 23 -26 38c0 21 30 21 45 21h74c32 0 39 -6 47 -37c5 -19 25 -79 25 -99zM718 162c0 -9 -2 -19 -7 -27l-86 -149c-7 -12 -17 -22 -31 -22c-13 0 -22 6 -32 14c-31 24 -40 22 -79 22h-401
c-27 0 -59 1 -59 35c0 40 49 31 62 53c10 17 10 118 10 131v229c0 11 0 117 -10 131c-14 21 -62 12 -62 53c0 34 32 35 59 35h316c29 0 56 -1 81 16c10 7 20 15 32 15c14 0 21 -8 29 -19l90 -129c5 -7 9 -17 9 -26c0 -15 -12 -29 -27 -29c-14 0 -28 14 -39 22
c-34 27 -70 50 -113 61c-31 8 -63 10 -95 10c-68 0 -100 3 -100 -72c0 -58 -4 -87 59 -87c26 0 33 1 49 22c9 12 21 30 37 30c14 0 24 -10 31 -21l83 -124c5 -8 10 -17 10 -26c0 -17 -15 -32 -32 -32c-14 0 -32 14 -43 22c-46 34 -67 47 -125 47c-70 0 -71 -20 -71 -86v-18
c0 -22 1 -43 1 -65c1 -71 10 -83 81 -83c48 0 117 -2 163 5c55 8 92 30 135 64c10 8 32 28 45 28c18 0 30 -12 30 -30z" />
    <glyph glyph-name="Iacute" unicode="&#xcd;" horiz-adv-x="357" 
d="M274 872c0 -15 -15 -29 -26 -38l-111 -87c-8 -6 -22 -15 -32 -15c-15 0 -22 11 -22 25c0 20 20 80 25 99c9 34 16 37 51 37h70c16 0 45 1 45 -21zM333 35c0 -34 -32 -35 -59 -35h-192c-27 0 -59 1 -59 35c0 40 49 31 62 53c10 17 10 119 10 131v229c0 10 0 117 -10 131
c-14 21 -62 12 -62 53c0 34 32 35 59 35h192c28 0 59 0 59 -36c0 -39 -48 -31 -61 -52c-10 -17 -10 -119 -10 -131v-229c0 -13 0 -113 10 -131c13 -23 61 -13 61 -53z" />
    <glyph glyph-name="Icircumflex" unicode="&#xce;" horiz-adv-x="357" 
d="M340 763c0 -18 -14 -32 -32 -32c-43 0 -89 50 -133 50c-40 0 -76 -51 -125 -51c-17 0 -35 13 -35 31c0 19 18 35 32 46l86 68c12 10 28 21 44 21s31 -9 43 -18l69 -52c19 -14 51 -36 51 -63zM333 35c0 -34 -32 -35 -59 -35h-192c-27 0 -59 1 -59 35c0 40 49 31 62 53
c10 17 10 119 10 131v229c0 10 0 117 -10 131c-14 21 -62 12 -62 53c0 34 32 35 59 35h192c28 0 59 0 59 -36c0 -39 -48 -31 -61 -52c-10 -17 -10 -119 -10 -131v-229c0 -13 0 -113 10 -131c13 -23 61 -13 61 -53z" />
    <glyph glyph-name="Idieresis" unicode="&#xcf;" horiz-adv-x="357" 
d="M354 836c0 -48 -69 -81 -111 -81c-26 0 -44 19 -44 45c0 43 70 80 108 80c26 0 47 -17 47 -44zM156 836c0 -25 -12 -40 -32 -53c-22 -15 -52 -28 -79 -28c-26 0 -44 20 -44 45c0 44 71 80 109 80c27 0 46 -17 46 -44zM333 35c0 -34 -32 -35 -59 -35h-192
c-27 0 -59 1 -59 35c0 40 49 31 62 53c10 17 10 119 10 131v229c0 10 0 117 -10 131c-14 21 -62 12 -62 53c0 34 32 35 59 35h192c28 0 59 0 59 -36c0 -39 -48 -31 -61 -52c-10 -17 -10 -119 -10 -131v-229c0 -13 0 -113 10 -131c13 -23 61 -13 61 -53z" />
    <glyph glyph-name="Igrave" unicode="&#xcc;" horiz-adv-x="357" 
d="M273 757c0 -14 -7 -25 -22 -25c-10 0 -24 9 -32 15l-110 87c-11 9 -26 23 -26 38c0 22 30 21 45 21h70c34 0 40 -4 50 -37l22 -77c2 -7 3 -15 3 -22zM333 35c0 -34 -32 -35 -59 -35h-192c-27 0 -59 1 -59 35c0 40 49 31 62 53c10 17 10 119 10 131v229
c0 10 0 117 -10 131c-14 21 -62 12 -62 53c0 34 32 35 59 35h192c28 0 59 0 59 -36c0 -39 -48 -31 -61 -52c-10 -17 -10 -119 -10 -131v-229c0 -13 0 -113 10 -131c13 -23 61 -13 61 -53z" />
    <glyph glyph-name="Oacute" unicode="&#xd3;" horiz-adv-x="799" 
d="M495 872c0 -15 -15 -29 -26 -38l-110 -87c-8 -6 -23 -15 -33 -15c-15 0 -21 11 -21 25c0 7 1 15 3 22l22 77c10 33 16 37 50 37h70c16 0 45 1 45 -21zM776 310c0 -224 -175 -323 -380 -323c-201 0 -373 90 -373 312c0 210 166 381 377 381c205 0 376 -163 376 -370z
M574 302c0 38 -3 76 -11 114c-18 80 -67 183 -163 183c-136 0 -171 -178 -171 -283c0 -114 36 -239 172 -239c129 0 173 114 173 225z" />
    <glyph glyph-name="Ocircumflex" unicode="&#xd4;" horiz-adv-x="799" 
d="M561 763c0 -18 -14 -32 -32 -32c-42 0 -89 50 -132 50c-40 0 -76 -51 -126 -51c-17 0 -34 13 -34 31c0 20 17 35 31 46l86 68c13 10 28 21 45 21c15 0 30 -9 42 -18l69 -52c19 -14 51 -36 51 -63zM776 310c0 -224 -175 -323 -380 -323c-201 0 -373 90 -373 312
c0 210 166 381 377 381c205 0 376 -163 376 -370zM574 302c0 38 -3 76 -11 114c-18 80 -67 183 -163 183c-136 0 -171 -178 -171 -283c0 -114 36 -239 172 -239c129 0 173 114 173 225z" />
    <glyph glyph-name="apple" unicode="&#xf8ff;" horiz-adv-x="828" 
d="M576 312c0 -6 -4 -16 -7 -21c-13 -24 -12 -32 -39 -32c-11 0 -22 2 -33 2h-138c24 -95 96 -158 212 -158c57 0 116 16 161 54c12 10 32 32 49 32c20 0 32 -19 32 -37c0 -42 -58 -84 -91 -103c-57 -33 -123 -47 -188 -47c-176 0 -339 88 -371 260h-90c-11 0 -21 -8 -32 -8
c-6 0 -10 2 -10 9c0 6 2 11 5 16c12 19 18 35 42 35c12 0 24 -2 37 -2h43v13c0 14 1 28 2 41h-87c-11 0 -21 -8 -32 -8c-6 0 -10 3 -10 9s2 12 5 16c12 19 18 35 42 35c12 0 24 -1 37 -1h55c40 146 174 250 333 250c59 0 92 -11 147 -28c5 -1 10 -3 15 -3c22 0 26 35 51 35
c29 0 39 -44 47 -65c9 -25 45 -113 45 -137c0 -16 -9 -33 -26 -33c-44 0 -95 150 -237 150c-108 0 -168 -77 -188 -169h226c15 0 25 8 30 8s11 -3 11 -8c0 -7 -5 -17 -8 -22c-13 -24 -12 -32 -39 -32c-11 0 -22 2 -33 2c-67 0 -131 1 -194 1c-1 -8 -1 -16 -1 -24
c0 -10 0 -20 1 -30h186c15 0 24 9 30 9c5 0 10 -3 10 -9z" />
    <glyph glyph-name="Ograve" unicode="&#xd2;" horiz-adv-x="799" 
d="M495 757c0 -14 -7 -25 -22 -25c-10 0 -24 9 -32 15l-111 87c-11 9 -26 23 -26 38c0 21 30 21 45 21h71c34 0 41 -4 50 -37c5 -19 25 -79 25 -99zM776 310c0 -224 -175 -323 -380 -323c-201 0 -373 90 -373 312c0 210 166 381 377 381c205 0 376 -163 376 -370zM574 302
c0 38 -3 76 -11 114c-18 80 -67 183 -163 183c-136 0 -171 -178 -171 -283c0 -114 36 -239 172 -239c129 0 173 114 173 225z" />
    <glyph glyph-name="Uacute" unicode="&#xda;" horiz-adv-x="687" 
d="M485 872c0 -16 -14 -29 -25 -38l-111 -87c-8 -6 -22 -15 -32 -15c-15 0 -22 11 -22 25c0 7 2 15 4 22l21 77c9 33 16 37 50 37h71c16 0 44 1 44 -21zM667 637c0 -54 -60 -10 -60 -78c0 -21 2 -41 4 -62l18 -234c1 -19 2 -37 2 -56c0 -54 -3 -110 -42 -151
c-54 -57 -157 -68 -231 -68c-140 0 -297 31 -297 202c0 27 3 54 5 81l20 251c1 12 1 24 1 36c0 59 -61 23 -61 72c0 27 19 37 44 37h202c27 0 55 -1 55 -35c0 -21 -14 -28 -32 -33c-9 -2 -18 -4 -25 -10c-18 -13 -18 -66 -19 -86l-12 -223c-1 -20 -2 -40 -2 -60
c0 -38 2 -78 29 -107c30 -32 72 -39 114 -39c95 0 151 36 151 136c0 19 -1 39 -2 58l-13 214c-1 24 -2 88 -19 107c-6 7 -15 11 -24 14c-17 6 -31 13 -31 33c0 24 18 31 39 31h146c22 0 40 -5 40 -30z" />
    <glyph glyph-name="Ucircumflex" unicode="&#xdb;" horiz-adv-x="687" 
d="M539 763c0 -18 -14 -32 -32 -32c-44 0 -90 50 -133 50c-40 0 -75 -51 -126 -51c-17 0 -34 13 -34 31c0 20 17 35 31 46l86 68c12 10 29 21 45 21c15 0 30 -9 42 -18l69 -52c19 -14 52 -36 52 -63zM667 637c0 -54 -60 -10 -60 -78c0 -21 2 -41 4 -62l18 -234
c1 -19 2 -37 2 -56c0 -54 -3 -110 -42 -151c-54 -57 -157 -68 -231 -68c-140 0 -297 31 -297 202c0 27 3 54 5 81l20 251c1 12 1 24 1 36c0 59 -61 23 -61 72c0 27 19 37 44 37h202c27 0 55 -1 55 -35c0 -21 -14 -28 -32 -33c-9 -2 -18 -4 -25 -10c-18 -13 -18 -66 -19 -86
l-12 -223c-1 -20 -2 -40 -2 -60c0 -38 2 -78 29 -107c30 -32 72 -39 114 -39c95 0 151 36 151 136c0 19 -1 39 -2 58l-13 214c-1 24 -2 88 -19 107c-6 7 -15 11 -24 14c-17 6 -31 13 -31 33c0 24 18 31 39 31h146c22 0 40 -5 40 -30z" />
    <glyph glyph-name="Ugrave" unicode="&#xd9;" horiz-adv-x="687" 
d="M472 757c0 -14 -7 -25 -22 -25c-10 0 -24 9 -32 15l-111 87c-11 9 -25 22 -25 38c0 21 29 21 44 21h71c34 0 41 -4 50 -37l21 -77c2 -7 4 -15 4 -22zM667 637c0 -54 -60 -10 -60 -78c0 -21 2 -41 4 -62l18 -234c1 -19 2 -37 2 -56c0 -54 -3 -110 -42 -151
c-54 -57 -157 -68 -231 -68c-140 0 -297 31 -297 202c0 27 3 54 5 81l20 251c1 12 1 24 1 36c0 59 -61 23 -61 72c0 27 19 37 44 37h202c27 0 55 -1 55 -35c0 -21 -14 -28 -32 -33c-9 -2 -18 -4 -25 -10c-18 -13 -18 -66 -19 -86l-12 -223c-1 -20 -2 -40 -2 -60
c0 -38 2 -78 29 -107c30 -32 72 -39 114 -39c95 0 151 36 151 136c0 19 -1 39 -2 58l-13 214c-1 24 -2 88 -19 107c-6 7 -15 11 -24 14c-17 6 -31 13 -31 33c0 24 18 31 39 31h146c22 0 40 -5 40 -30z" />
    </font>
</defs>
</svg>
